<svg width="342" height="174" viewBox="0 0 342 174" fill="none" xmlns="http://www.w3.org/2000/svg">
<g clip-path="url(#clip0_430_3109)">
<path d="M67.9344 39.4694C72.5145 39.4694 75.5488 36.5478 75.5488 32.5952C75.5488 30.4756 74.8046 28.6998 73.3733 27.2676C72.1138 26.0074 71.255 25.1481 67.7627 22.6848C62.8391 19.2477 61.7513 18.3312 60.2055 16.3262C58.7743 14.4931 58.2018 12.8318 58.2018 10.1394C58.2018 4.41089 63.0108 0.114502 69.652 0.114502C73.2588 0.114502 76.1214 0.916495 79.0412 2.4632C79.0984 4.0099 79.1557 5.09831 79.1557 6.41587C79.1557 7.73343 79.0984 8.93642 79.0412 10.4831L77.4381 10.5977C76.9229 8.59271 76.3504 6.93144 75.0336 5.38474C73.4878 3.6089 71.942 2.74962 69.194 2.74962C65.1291 2.74962 62.3811 5.27017 62.3811 9.16556C62.3811 10.9414 62.7818 12.3735 64.3849 14.0348C65.4726 15.1232 66.2169 15.7533 69.881 18.3312C74.4038 21.4818 75.7779 22.4557 77.3809 24.2888C78.9839 26.1792 80.0717 28.9289 80.0717 31.5068C80.0717 37.9227 75.0336 42.0472 67.5337 42.0472C63.6406 42.0472 60.8926 41.4744 58.1445 40.1568C57.5147 37.0061 57.343 34.1419 56.9995 30.8766L58.7743 30.4756C59.404 32.3087 59.9193 33.7982 60.7781 35.2303C62.4383 38.1518 64.0986 39.4694 67.9344 39.4694Z" fill="#E8E4DF"/>
<path d="M88.4491 1.03122H109.117C111.464 1.03122 113.353 1.03122 115.586 0.859375C115.701 3.60907 115.758 6.41604 115.758 9.22302L114.098 9.33759C113.468 7.21804 112.895 6.01504 112.037 5.09847C111.178 4.18191 109.861 3.72363 108.773 3.55177C107.342 3.32263 106.083 3.26536 104.251 3.26536C101.56 3.26536 101.216 3.72363 101.044 6.01504C100.873 7.79088 100.873 9.85315 100.873 11.9154V28.6427C100.873 30.6477 100.987 33.1682 101.044 35.0586C101.159 37.9802 101.789 38.8967 104.537 39.6414L104.365 41.1881C102.132 41.0163 100.071 41.0163 98.6398 41.0163C97.2086 41.0163 95.033 41.0163 92.8002 41.1881L92.6285 39.6414C95.3765 38.8967 96.0063 37.9802 96.1208 35.0586C96.178 33.1682 96.2925 30.6477 96.2925 28.6427V11.9154C96.2925 9.85315 96.2925 7.79088 96.1208 6.01504C95.949 3.72363 95.6055 3.26536 92.9147 3.26536C91.0827 3.26536 89.8804 3.32263 88.4491 3.55177C87.3614 3.72363 86.0446 4.18191 85.1858 5.09847C84.3271 6.01504 83.6973 7.21804 83.0675 9.33759L81.4072 9.22302C81.579 6.41604 81.7507 3.66634 81.9798 0.859375C84.2125 1.03122 86.1018 1.03122 88.4491 1.03122Z" fill="#E8E4DF"/>
<path d="M129.527 0H130.615L141.206 28.6426C141.893 30.4757 142.924 33.1681 143.782 35.0585C144.87 37.5791 145.843 38.7821 147.733 39.7559L147.561 41.188C145.328 41.0162 144.298 41.0162 142.866 41.0162C141.435 41.0162 139.317 41.0162 137.084 41.188L136.912 39.7559C138.458 39.0685 139.088 38.5529 139.088 37.4645C139.088 36.147 138.229 33.9128 136.34 28.6426L135.882 27.4969H121.913L121.512 28.6426C119.508 33.9128 119.164 36.0897 119.164 37.4072C119.164 38.4956 119.68 39.1258 121.34 39.7559L121.168 41.188C118.935 41.0162 117.79 41.0162 116.359 41.0162C114.928 41.0162 114.126 41.0162 112.123 41.188L111.951 39.7559C113.84 38.7821 114.813 37.5791 115.901 35.0585C116.76 33.1681 117.79 30.4757 118.477 28.6426L129.527 0ZM129.126 8.82192L122.886 25.0336H135.023L129.126 8.82192Z" fill="#E8E4DF"/>
<path d="M187.574 5.95776L172.288 42.0474H171.086L155.743 7.21803L154.998 28.7C154.941 30.0175 154.884 31.6788 154.884 33.2255C154.884 36.2043 154.998 38.8967 158.09 39.8133L157.918 41.2454C156.143 41.1309 154.598 41.0736 153.224 41.0736C151.849 41.0736 150.475 41.0736 148.701 41.2454L148.529 39.8133C150.876 38.8395 151.391 37.8083 151.62 35.1159C151.792 33.2255 151.792 30.705 151.907 28.7L152.594 13.4048C152.651 12.0873 152.651 11.228 152.651 10.1396C152.651 6.93161 152.594 3.37993 149.101 2.2915L149.273 0.859375C152.479 1.03122 154.827 1.03122 158.204 1.03122L172.632 34.2566L186.2 1.03122C189.349 1.03122 192.899 1.03122 195.131 0.859375L195.303 2.2915C192.956 3.20806 192.498 4.41105 192.326 6.98888C192.269 8.36373 192.212 10.1396 192.212 11.7436C192.212 12.3737 192.326 12.8893 192.612 28.7C192.67 30.705 192.67 33.2255 192.841 35.1159C192.841 37.8083 193.471 38.8395 195.818 39.8133L195.647 41.2454C193.414 41.0736 191.983 41.0736 190.551 41.0736C189.12 41.0736 187.574 41.0736 185.341 41.2454L185.17 39.8133C188.089 39.0686 188.147 36.0898 188.147 33.3401C188.147 31.908 188.147 30.1321 188.089 28.7L187.574 5.95776Z" fill="#E8E4DF"/>
<path d="M207.17 13.4048V28.6427C207.17 30.6477 207.284 33.1682 207.341 35.0586C207.456 37.751 207.914 38.7822 210.261 39.756L210.09 41.1881C207.857 41.0163 206.368 41.0163 204.937 41.0163C203.506 41.0163 201.96 41.0163 199.727 41.1881L199.555 39.756C201.845 38.8395 202.246 37.5792 202.418 35.0586C202.59 33.1682 202.59 30.6477 202.59 28.6427V13.4048C202.59 11.3999 202.59 8.87929 202.418 6.98888C202.246 4.46833 201.845 3.20806 199.555 2.2915L199.727 0.859375C201.96 1.03122 203.506 1.03122 204.937 1.03122C206.368 1.03122 207.857 1.03122 210.09 0.859375L210.261 2.2915C207.914 3.26535 207.456 4.29648 207.341 6.98888C207.284 8.87929 207.17 11.3999 207.17 13.4048Z" fill="#E8E4DF"/>
<path d="M250.12 41.5891L248.746 42.0474L220.521 7.96273V28.7C220.521 30.705 220.521 33.2255 220.693 35.1159C220.922 37.8083 221.437 38.8395 223.784 39.8133L223.612 41.2454C221.838 41.1309 220.292 41.0736 218.975 41.0736C217.601 41.0736 216.227 41.0736 214.452 41.2454L214.281 39.8133C216.628 38.8395 217.086 37.8083 217.315 35.1159C217.487 33.2255 217.487 30.705 217.487 28.7V13.4048C217.487 11.3999 217.487 9.223 217.315 7.33259C217.086 4.64019 216.342 3.26535 213.994 2.2915L214.166 0.859375C215.941 0.973944 218.174 1.03122 220.864 1.03122L246.856 32.2517V13.4048C246.856 11.3999 246.856 8.87929 246.685 6.98888C246.456 4.29648 245.94 3.26535 243.593 2.2915L243.765 0.859375C245.54 0.973944 247.085 1.03122 248.402 1.03122C249.776 1.03122 251.15 1.03122 252.925 0.859375L253.097 2.2915C250.749 3.26535 250.291 4.29648 250.062 6.98888C249.891 8.87929 249.891 11.3999 249.891 13.4048V32.1944C249.891 34.9441 249.948 38.6103 250.12 41.5891Z" fill="#E8E4DF"/>
<path d="M271.794 0H272.882L283.473 28.6426C284.16 30.4757 285.19 33.1681 286.049 35.0585C287.137 37.5791 288.11 38.7821 290 39.7559L289.828 41.188C287.595 41.0162 286.565 41.0162 285.133 41.0162C283.702 41.0162 281.584 41.0162 279.351 41.188L279.179 39.7559C280.725 39.0685 281.355 38.5529 281.355 37.4645C281.355 36.147 280.496 33.9128 278.607 28.6426L278.149 27.4969H264.179L263.779 28.6426C261.775 33.9128 261.431 36.0897 261.431 37.4072C261.431 38.4956 261.947 39.1258 263.607 39.7559L263.435 41.188C261.202 41.0162 260.057 41.0162 258.626 41.0162C257.195 41.0162 256.393 41.0162 254.389 41.188L254.218 39.7559C256.107 38.7821 257.08 37.5791 258.168 35.0585C259.027 33.1681 260.057 30.4757 260.744 28.6426L271.794 0ZM271.393 8.82192L265.153 25.0336H277.29L271.393 8.82192Z" fill="#E8E4DF"/>
<path d="M150.834 71.6065C149.689 71.6065 149.002 70.9191 148.659 69.6015C148.372 68.4558 147.972 67.9975 146.998 67.9975C144.365 67.9975 141.159 72.2366 139.556 77.3923C138.582 80.4857 138.353 82.6625 138.353 84.5529C138.353 87.3599 139.613 88.2765 141.044 88.2765C143.277 88.2765 145.166 86.6725 148.487 82.3761L149.689 83.1208C146.998 88.5629 143.277 92 140.014 92C136.979 92 134.689 89.7086 134.689 85.6986C134.689 75.731 142.304 64.9614 148.716 64.9614C151.178 64.9614 153.01 66.7945 153.01 69.2005C153.01 70.5181 152.094 71.6065 150.834 71.6065Z" fill="#E8E4DF"/>
<path d="M163.33 58.8318L156.746 85.8131C156.632 86.386 156.574 86.7869 156.574 87.0161C156.574 87.3598 156.746 87.6462 157.204 87.6462C157.834 87.6462 159.666 86.5578 162.758 82.4333L164.017 83.2926C160.181 89.7658 157.204 91.6562 155.2 91.6562C153.769 91.6562 152.624 90.7396 152.624 89.1929C152.624 87.7035 152.853 86.5005 153.769 82.6624L159.38 58.8891C159.895 56.6549 160.239 54.3635 160.239 53.1033C160.239 51.843 159.609 51.041 157.605 50.4681L157.72 49.036C160.582 48.8069 162.7 48.5777 165.277 48.0049L166.135 48.9214C164.876 52.8168 164.361 54.4781 163.33 58.8318Z" fill="#E8E4DF"/>
<path d="M180.842 80.0847C175.804 89.7659 173.171 91.6563 170.365 91.6563C167.961 91.6563 166.472 89.6513 166.472 87.589C166.472 86.2142 166.987 84.4384 168.018 81.746L171.453 72.8095C172.083 71.1482 172.369 70.2316 172.369 69.5442C172.369 69.0286 172.14 68.5704 171.625 68.5704C170.652 68.5704 169.621 69.7161 166.987 72.9813L165.842 72.0075C169.049 67.1955 171.224 64.9614 173.571 64.9614C174.945 64.9614 176.148 66.2217 176.148 68.0548C176.148 69.3724 175.861 70.5181 174.43 74.2989L170.995 83.4645C170.423 84.9539 170.251 85.6986 170.251 86.5006C170.251 87.4172 170.709 87.99 171.797 87.99C173.858 87.99 178.896 83.4072 184.335 67.9402L185.136 65.6488C185.48 65.477 185.938 65.3624 186.396 65.3624C187.254 65.3624 188.17 65.878 188.686 66.9091C187.025 71.4919 186.396 72.9813 185.365 76.533C183.648 82.4907 183.132 85.0112 183.018 86.0423C182.961 86.6152 182.961 87.0735 182.961 87.3599C182.961 87.6463 183.19 87.99 183.533 87.99C184.163 87.99 185.193 87.4172 188.17 83.5218L189.373 84.4384C185.938 89.995 183.648 91.6563 181.644 91.6563C180.041 91.6563 179.239 90.5106 179.239 88.8493C179.239 87.5318 179.239 85.9278 180.842 80.0847Z" fill="#E8E4DF"/>
<path d="M208.579 72.0647C208.579 69.9451 207.491 68.6275 206.117 68.6275C201.594 68.6275 195.354 78.767 195.354 85.4121C195.354 87.4744 196.499 88.5055 197.987 88.5055C199.247 88.5055 200.792 87.9899 202.625 86.0422C206.117 82.3187 208.579 76.5329 208.579 72.0647ZM192.663 80.4856L198.789 58.8891C199.418 56.7122 200.105 54.3635 200.105 53.1033C200.105 51.843 199.476 51.041 197.472 50.4681L197.586 49.036C200.449 48.8069 202.396 48.5777 204.972 48.0049L205.831 48.9214C204.571 52.8168 203.941 54.4781 202.625 58.8318L198.502 72.4084C202.281 66.909 205.086 64.9613 207.548 64.9613C210.182 64.9613 212.3 67.4818 212.3 71.7782C212.3 76.7048 209.609 82.7197 203.941 88.2191C201.422 90.6251 199.247 91.7708 196.67 91.7708C193.636 91.7708 191.69 89.3075 191.69 86.1568C191.69 84.4955 191.976 82.7197 192.663 80.4856Z" fill="#E8E4DF"/>
<path d="M269.097 118.512V120.512C269.097 121.072 269.097 121.776 269.129 122.304C269.177 123.12 269.353 123.376 270.121 123.584L270.073 124.016C269.449 123.968 268.873 123.968 268.473 123.968C268.073 123.968 267.641 123.968 267.017 124.016L266.969 123.616C267.609 123.36 267.721 123.008 267.769 122.304C267.817 121.776 267.817 121.072 267.817 120.512V116.256C267.817 115.696 267.817 114.992 267.769 114.464C267.721 113.76 267.609 113.408 266.969 113.152L267.017 112.752C267.641 112.8 268.073 112.8 268.473 112.8H271.417C272.073 112.8 272.569 112.8 273.193 112.752C273.305 113.568 273.369 114.16 273.417 115.04L272.953 115.12C272.745 114.528 272.569 114.192 272.329 113.936C272.089 113.68 271.721 113.552 271.417 113.504C271.017 113.44 270.553 113.424 270.041 113.424C269.289 113.424 269.161 113.552 269.129 114.192C269.097 114.72 269.097 115.344 269.097 115.92V117.888C269.657 117.888 270.457 117.872 270.985 117.808C271.705 117.728 271.929 117.472 272.169 116.736L272.569 116.816C272.521 117.44 272.521 117.792 272.521 118.192C272.521 118.592 272.521 118.96 272.569 119.584L272.169 119.664C271.929 118.928 271.705 118.672 270.985 118.592C270.457 118.528 269.657 118.512 269.097 118.512Z" fill="#E8E4DF"/>
<path d="M276.271 116.256V120.672C276.271 121.232 276.287 122.096 276.319 122.416C276.399 123.2 276.623 123.344 277.343 123.344C278.031 123.344 278.511 123.344 278.975 123.264C279.551 123.152 279.855 122.896 280.095 122.528C280.303 122.224 280.479 121.856 280.687 121.232L281.151 121.312C281.071 122.336 280.927 123.152 280.751 124.048C279.487 123.984 278.079 123.968 276.031 123.968C275.247 123.968 274.815 123.968 274.191 124.016L274.143 123.616C274.783 123.36 274.895 123.008 274.943 122.304C274.991 121.776 274.991 121.072 274.991 120.512V116.256C274.991 115.696 274.991 114.992 274.943 114.464C274.895 113.76 274.783 113.408 274.143 113.152L274.191 112.752C274.815 112.8 275.247 112.8 275.615 112.8C276.015 112.8 276.447 112.8 277.071 112.752L277.119 113.152C276.479 113.408 276.367 113.76 276.319 114.464C276.271 114.992 276.271 115.696 276.271 116.256Z" fill="#E8E4DF"/>
<path d="M281.614 118.4C281.614 114.992 284.206 112.544 287.406 112.544C290.782 112.544 293.246 115.072 293.246 118.4C293.246 121.776 290.686 124.256 287.55 124.256C284.078 124.256 281.614 121.872 281.614 118.4ZM287.166 113.344C284.942 113.344 283.118 115.072 283.118 118.192C283.118 121.44 285.262 123.472 287.758 123.472C290.078 123.472 291.742 121.488 291.742 118.592C291.742 115.504 289.678 113.344 287.166 113.344Z" fill="#E8E4DF"/>
<path d="M297.267 118.736C297.011 118.736 296.515 118.72 296.323 118.672V120.512C296.323 121.072 296.323 121.776 296.355 122.304C296.403 123.056 296.531 123.344 297.187 123.616L297.139 124.016C296.515 123.968 296.099 123.968 295.699 123.968C295.299 123.968 294.867 123.968 294.243 124.016L294.195 123.616C294.835 123.36 294.947 123.008 294.995 122.304C295.043 121.776 295.043 121.072 295.043 120.512V116.256C295.043 115.696 295.043 114.992 294.995 114.464C294.947 113.76 294.835 113.408 294.195 113.152L294.243 112.752C294.867 112.8 295.299 112.8 295.699 112.8C296.323 112.8 296.883 112.768 297.667 112.768C299.843 112.768 301.059 114.112 301.059 115.616C301.059 116.912 300.403 117.888 299.251 118.384C300.099 119.952 300.803 121.184 301.955 122.64C302.387 123.168 302.979 123.664 303.427 123.792V124.128C303.171 124.24 302.851 124.256 302.611 124.256C301.923 124.256 301.283 123.888 300.595 122.928C299.651 121.648 298.995 120.496 298.147 118.672C297.907 118.72 297.603 118.736 297.267 118.736ZM297.267 113.392C296.515 113.392 296.419 113.552 296.371 114.192C296.323 114.688 296.323 115.264 296.323 115.84V118.08C296.451 118.096 296.563 118.096 297.059 118.096C298.835 118.096 299.699 117.2 299.699 115.776C299.699 114.304 298.867 113.392 297.267 113.392Z" fill="#E8E4DF"/>
<path d="M305.554 123.968C304.77 123.968 304.338 123.968 303.714 124.016L303.666 123.616C304.306 123.36 304.418 123.008 304.466 122.304C304.514 121.776 304.514 121.072 304.514 120.512V116.256C304.514 115.696 304.514 114.992 304.466 114.464C304.418 113.76 304.306 113.408 303.666 113.152L303.714 112.752C304.338 112.8 304.77 112.8 305.17 112.8H308.114C308.77 112.8 309.266 112.8 309.89 112.752C310.002 113.568 310.066 114.16 310.114 115.04L309.65 115.12C309.442 114.528 309.266 114.192 309.026 113.936C308.786 113.68 308.418 113.552 308.114 113.504C307.714 113.44 307.362 113.424 306.738 113.424C305.986 113.424 305.89 113.552 305.842 114.192C305.794 114.688 305.794 115.264 305.794 115.84V117.888C306.338 117.888 307.458 117.856 307.97 117.808C308.69 117.728 308.914 117.472 309.154 116.736L309.538 116.816C309.49 117.44 309.49 117.792 309.49 118.192C309.49 118.592 309.49 118.96 309.538 119.584L309.154 119.664C308.914 118.928 308.69 118.688 307.97 118.592C307.458 118.528 306.322 118.512 305.794 118.512V120.672C305.794 121.232 305.826 122.096 305.842 122.416C305.874 123.2 306.146 123.344 306.866 123.344C307.554 123.344 308.13 123.328 308.562 123.264C309.122 123.184 309.378 122.96 309.618 122.624C309.81 122.32 309.97 121.984 310.178 121.392L310.61 121.472C310.53 122.432 310.402 123.216 310.226 124.048C309.058 123.984 307.602 123.968 305.554 123.968Z" fill="#E8E4DF"/>
<path d="M321.591 124.128L321.207 124.256L313.319 114.736V120.528C313.319 121.088 313.319 121.792 313.367 122.32C313.431 123.072 313.575 123.36 314.231 123.632L314.183 124.032C313.687 124 313.255 123.984 312.887 123.984C312.503 123.984 312.119 123.984 311.623 124.032L311.575 123.632C312.231 123.36 312.359 123.072 312.423 122.32C312.471 121.792 312.471 121.088 312.471 120.528V116.256C312.471 115.696 312.471 115.088 312.423 114.56C312.359 113.808 312.151 113.424 311.495 113.152L311.543 112.752C312.039 112.784 312.663 112.8 313.415 112.8L320.679 121.52V116.256C320.679 115.696 320.679 114.992 320.631 114.464C320.567 113.712 320.423 113.424 319.767 113.152L319.815 112.752C320.311 112.784 320.743 112.8 321.111 112.8C321.495 112.8 321.879 112.8 322.375 112.752L322.423 113.152C321.767 113.424 321.639 113.712 321.575 114.464C321.527 114.992 321.527 115.696 321.527 116.256V121.504C321.527 122.272 321.543 123.296 321.591 124.128Z" fill="#E8E4DF"/>
<path d="M329.68 123.536C331.008 123.536 331.68 123.072 332.24 122.064C332.48 121.632 332.608 121.2 332.8 120.64L333.28 120.72C333.2 121.696 333.12 122.464 332.944 123.408C331.968 123.984 330.768 124.256 329.472 124.256C326.368 124.256 323.248 122.256 323.248 118.368C323.248 114.848 326.08 112.544 329.456 112.544C330.816 112.544 331.92 112.816 332.992 113.344C333.008 113.776 333.024 114.144 333.024 114.512C333.024 114.88 333.008 115.264 332.992 115.712L332.512 115.744C332.368 115.152 332.192 114.64 331.824 114.208C331.376 113.696 330.64 113.28 329.472 113.28C326.656 113.28 324.752 115.344 324.752 118.352C324.752 121.616 327.2 123.536 329.68 123.536Z" fill="#E8E4DF"/>
<path d="M336.171 123.968C335.387 123.968 334.955 123.968 334.331 124.016L334.283 123.616C334.923 123.36 335.035 123.008 335.083 122.304C335.131 121.776 335.131 121.072 335.131 120.512V116.256C335.131 115.696 335.131 114.992 335.083 114.464C335.035 113.76 334.923 113.408 334.283 113.152L334.331 112.752C334.955 112.8 335.387 112.8 335.787 112.8H338.731C339.387 112.8 339.883 112.8 340.507 112.752C340.619 113.568 340.683 114.16 340.731 115.04L340.267 115.12C340.059 114.528 339.883 114.192 339.643 113.936C339.403 113.68 339.035 113.552 338.731 113.504C338.331 113.44 337.979 113.424 337.355 113.424C336.603 113.424 336.507 113.552 336.459 114.192C336.411 114.688 336.411 115.264 336.411 115.84V117.888C336.955 117.888 338.075 117.856 338.587 117.808C339.307 117.728 339.531 117.472 339.771 116.736L340.155 116.816C340.107 117.44 340.107 117.792 340.107 118.192C340.107 118.592 340.107 118.96 340.155 119.584L339.771 119.664C339.531 118.928 339.307 118.688 338.587 118.592C338.075 118.528 336.939 118.512 336.411 118.512V120.672C336.411 121.232 336.443 122.096 336.459 122.416C336.491 123.2 336.763 123.344 337.483 123.344C338.171 123.344 338.747 123.328 339.179 123.264C339.739 123.184 339.995 122.96 340.235 122.624C340.427 122.32 340.587 121.984 340.795 121.392L341.227 121.472C341.147 122.432 341.019 123.216 340.843 124.048C339.675 123.984 338.219 123.968 336.171 123.968Z" fill="#E8E4DF"/>
<path d="M204.416 163.256V167.512C204.416 168.072 204.448 168.776 204.464 169.304C204.496 170.056 204.624 170.344 205.28 170.616L205.232 171.016C204.608 170.968 204.192 170.968 203.792 170.968C203.392 170.968 202.96 170.968 202.336 171.016L202.288 170.616C202.928 170.36 203.04 170.008 203.088 169.304C203.136 168.776 203.136 168.072 203.136 167.512V163.256C203.136 162.696 203.136 161.992 203.088 161.464C203.04 160.76 202.928 160.408 202.288 160.152L202.336 159.752C202.96 159.8 203.392 159.8 203.792 159.8C204.192 159.8 204.608 159.8 205.232 159.752L205.28 160.152C204.624 160.424 204.496 160.712 204.464 161.464C204.448 161.992 204.416 162.696 204.416 163.256Z" fill="#E8E4DF"/>
<path d="M216.259 171.128L215.875 171.256L207.987 161.736V167.528C207.987 168.088 207.987 168.792 208.035 169.32C208.099 170.072 208.243 170.36 208.899 170.632L208.851 171.032C208.355 171 207.923 170.984 207.555 170.984C207.171 170.984 206.787 170.984 206.291 171.032L206.243 170.632C206.899 170.36 207.027 170.072 207.091 169.32C207.139 168.792 207.139 168.088 207.139 167.528V163.256C207.139 162.696 207.139 162.088 207.091 161.56C207.027 160.808 206.819 160.424 206.163 160.152L206.211 159.752C206.707 159.784 207.331 159.8 208.083 159.8L215.347 168.52V163.256C215.347 162.696 215.347 161.992 215.299 161.464C215.235 160.712 215.091 160.424 214.435 160.152L214.483 159.752C214.979 159.784 215.411 159.8 215.779 159.8C216.163 159.8 216.547 159.8 217.043 159.752L217.091 160.152C216.435 160.424 216.307 160.712 216.243 161.464C216.195 161.992 216.195 162.696 216.195 163.256V168.504C216.195 169.272 216.211 170.296 216.259 171.128Z" fill="#E8E4DF"/>
<path d="M222.716 159.8H228.492C229.148 159.8 229.676 159.8 230.3 159.752C230.332 160.52 230.348 161.304 230.348 162.088L229.884 162.12C229.708 161.528 229.548 161.192 229.308 160.936C229.068 160.68 228.7 160.552 228.396 160.504C227.996 160.44 227.644 160.424 227.132 160.424C226.38 160.424 226.284 160.552 226.236 161.192C226.188 161.688 226.188 162.264 226.188 162.84V167.512C226.188 168.072 226.22 168.776 226.236 169.304C226.268 170.12 226.444 170.376 227.212 170.584L227.164 171.016C226.54 170.968 225.964 170.968 225.564 170.968C225.164 170.968 224.556 170.968 223.932 171.016L223.884 170.584C224.652 170.376 224.828 170.12 224.86 169.304C224.876 168.776 224.908 168.072 224.908 167.512V162.84C224.908 162.264 224.908 161.688 224.86 161.192C224.812 160.552 224.716 160.424 223.964 160.424C223.452 160.424 223.116 160.44 222.716 160.504C222.412 160.552 222.044 160.68 221.804 160.936C221.564 161.192 221.388 161.528 221.212 162.12L220.748 162.088C220.796 161.304 220.844 160.536 220.908 159.752C221.532 159.8 222.06 159.8 222.716 159.8Z" fill="#E8E4DF"/>
<path d="M230.625 165.4C230.625 161.992 233.217 159.544 236.417 159.544C239.793 159.544 242.257 162.072 242.257 165.4C242.257 168.776 239.697 171.256 236.561 171.256C233.089 171.256 230.625 168.872 230.625 165.4ZM236.177 160.344C233.953 160.344 232.129 162.072 232.129 165.192C232.129 168.44 234.273 170.472 236.769 170.472C239.089 170.472 240.753 168.488 240.753 165.592C240.753 162.504 238.689 160.344 236.177 160.344Z" fill="#E8E4DF"/>
<path d="M246.15 170.536C247.43 170.536 248.278 169.72 248.278 168.616C248.278 168.024 248.07 167.528 247.67 167.128C247.318 166.776 247.078 166.536 246.102 165.848C244.726 164.888 244.422 164.632 243.99 164.072C243.59 163.56 243.43 163.096 243.43 162.344C243.43 160.744 244.774 159.544 246.63 159.544C247.638 159.544 248.438 159.768 249.254 160.2C249.27 160.632 249.286 160.936 249.286 161.304C249.286 161.672 249.27 162.008 249.254 162.44L248.806 162.472C248.662 161.912 248.502 161.448 248.134 161.016C247.702 160.52 247.27 160.28 246.502 160.28C245.366 160.28 244.598 160.984 244.598 162.072C244.598 162.568 244.71 162.968 245.158 163.432C245.462 163.736 245.67 163.912 246.694 164.632C247.958 165.512 248.342 165.784 248.79 166.296C249.238 166.824 249.542 167.592 249.542 168.312C249.542 170.104 248.134 171.256 246.038 171.256C244.95 171.256 244.182 171.096 243.414 170.728C243.238 169.848 243.19 169.048 243.094 168.136L243.59 168.024C243.766 168.536 243.91 168.952 244.15 169.352C244.614 170.168 245.078 170.536 246.15 170.536Z" fill="#E8E4DF"/>
<path d="M256.796 170.536C258.124 170.536 258.796 170.072 259.356 169.064C259.596 168.632 259.724 168.2 259.916 167.64L260.396 167.72C260.316 168.696 260.236 169.464 260.06 170.408C259.084 170.984 257.884 171.256 256.588 171.256C253.484 171.256 250.364 169.256 250.364 165.368C250.364 161.848 253.196 159.544 256.572 159.544C257.932 159.544 259.036 159.816 260.108 160.344C260.124 160.776 260.14 161.144 260.14 161.512C260.14 161.88 260.124 162.264 260.108 162.712L259.628 162.744C259.484 162.152 259.308 161.64 258.94 161.208C258.492 160.696 257.756 160.28 256.588 160.28C253.772 160.28 251.868 162.344 251.868 165.352C251.868 168.616 254.316 170.536 256.796 170.536Z" fill="#E8E4DF"/>
<path d="M265.575 159.512H265.879L268.839 167.512C269.031 168.024 269.319 168.776 269.559 169.304C269.863 170.008 270.135 170.344 270.663 170.616L270.615 171.016C269.991 170.968 269.703 170.968 269.303 170.968C268.903 170.968 268.311 170.968 267.687 171.016L267.639 170.616C268.071 170.424 268.247 170.28 268.247 169.976C268.247 169.608 268.007 168.984 267.479 167.512L267.351 167.192H263.447L263.335 167.512C262.775 168.984 262.679 169.592 262.679 169.96C262.679 170.264 262.823 170.44 263.287 170.616L263.239 171.016C262.615 170.968 262.295 170.968 261.895 170.968C261.495 170.968 261.271 170.968 260.711 171.016L260.663 170.616C261.191 170.344 261.463 170.008 261.767 169.304C262.007 168.776 262.295 168.024 262.487 167.512L265.575 159.512ZM265.463 161.976L263.719 166.504H267.111L265.463 161.976Z" fill="#E8E4DF"/>
<path d="M280.901 171.128L280.517 171.256L272.629 161.736V167.528C272.629 168.088 272.629 168.792 272.677 169.32C272.741 170.072 272.885 170.36 273.541 170.632L273.493 171.032C272.997 171 272.565 170.984 272.197 170.984C271.813 170.984 271.429 170.984 270.933 171.032L270.885 170.632C271.541 170.36 271.669 170.072 271.733 169.32C271.781 168.792 271.781 168.088 271.781 167.528V163.256C271.781 162.696 271.781 162.088 271.733 161.56C271.669 160.808 271.461 160.424 270.805 160.152L270.853 159.752C271.349 159.784 271.973 159.8 272.725 159.8L279.989 168.52V163.256C279.989 162.696 279.989 161.992 279.941 161.464C279.877 160.712 279.733 160.424 279.077 160.152L279.125 159.752C279.621 159.784 280.053 159.8 280.421 159.8C280.805 159.8 281.189 159.8 281.685 159.752L281.733 160.152C281.077 160.424 280.949 160.712 280.885 161.464C280.837 161.992 280.837 162.696 280.837 163.256V168.504C280.837 169.272 280.853 170.296 280.901 171.128Z" fill="#E8E4DF"/>
<path d="M286.799 159.512H287.103L290.063 167.512C290.255 168.024 290.543 168.776 290.783 169.304C291.087 170.008 291.359 170.344 291.887 170.616L291.839 171.016C291.215 170.968 290.927 170.968 290.527 170.968C290.127 170.968 289.535 170.968 288.911 171.016L288.863 170.616C289.295 170.424 289.471 170.28 289.471 169.976C289.471 169.608 289.231 168.984 288.703 167.512L288.575 167.192H284.671L284.559 167.512C283.999 168.984 283.903 169.592 283.903 169.96C283.903 170.264 284.047 170.44 284.511 170.616L284.463 171.016C283.839 170.968 283.519 170.968 283.119 170.968C282.719 170.968 282.495 170.968 281.935 171.016L281.887 170.616C282.415 170.344 282.687 170.008 282.991 169.304C283.231 168.776 283.519 168.024 283.711 167.512L286.799 159.512ZM286.687 161.976L284.943 166.504H288.335L286.687 161.976Z" fill="#E8E4DF"/>
<path d="M294.87 170.952C294.87 172.312 294.038 173.208 292.598 173.48L292.486 173.064C293.59 172.664 293.974 172.184 293.974 171.592C293.974 171.336 293.83 171.112 293.478 170.968C293.094 170.808 292.758 170.52 292.758 170.088C292.758 169.656 293.094 169.304 293.606 169.304C294.23 169.304 294.87 169.992 294.87 170.952Z" fill="#E8E4DF"/>
<path d="M301.446 163.256V167.512C301.446 168.072 301.478 168.776 301.494 169.304C301.526 170.056 301.654 170.344 302.31 170.616L302.262 171.016C301.638 170.968 301.222 170.968 300.822 170.968C300.422 170.968 299.99 170.968 299.366 171.016L299.318 170.616C299.958 170.36 300.07 170.008 300.118 169.304C300.166 168.776 300.166 168.072 300.166 167.512V163.256C300.166 162.696 300.166 161.992 300.118 161.464C300.07 160.76 299.958 160.408 299.318 160.152L299.366 159.752C299.99 159.8 300.422 159.8 300.822 159.8C301.222 159.8 301.638 159.8 302.262 159.752L302.31 160.152C301.654 160.424 301.526 160.712 301.494 161.464C301.478 161.992 301.446 162.696 301.446 163.256Z" fill="#E8E4DF"/>
<path d="M304.585 159.8H310.361C311.017 159.8 311.545 159.8 312.169 159.752C312.201 160.52 312.217 161.304 312.217 162.088L311.753 162.12C311.577 161.528 311.417 161.192 311.177 160.936C310.937 160.68 310.569 160.552 310.265 160.504C309.865 160.44 309.513 160.424 309.001 160.424C308.249 160.424 308.153 160.552 308.105 161.192C308.057 161.688 308.057 162.264 308.057 162.84V167.512C308.057 168.072 308.089 168.776 308.105 169.304C308.137 170.12 308.313 170.376 309.081 170.584L309.033 171.016C308.409 170.968 307.833 170.968 307.433 170.968C307.033 170.968 306.425 170.968 305.801 171.016L305.753 170.584C306.521 170.376 306.697 170.12 306.729 169.304C306.745 168.776 306.777 168.072 306.777 167.512V162.84C306.777 162.264 306.777 161.688 306.729 161.192C306.681 160.552 306.585 160.424 305.833 160.424C305.321 160.424 304.985 160.44 304.585 160.504C304.281 160.552 303.913 160.68 303.673 160.936C303.433 161.192 303.257 161.528 303.081 162.12L302.617 162.088C302.665 161.304 302.713 160.536 302.777 159.752C303.401 159.8 303.929 159.8 304.585 159.8Z" fill="#E8E4DF"/>
<path d="M315.905 159.512H316.209L319.169 167.512C319.361 168.024 319.649 168.776 319.889 169.304C320.193 170.008 320.465 170.344 320.993 170.616L320.945 171.016C320.321 170.968 320.033 170.968 319.633 170.968C319.233 170.968 318.641 170.968 318.017 171.016L317.969 170.616C318.401 170.424 318.577 170.28 318.577 169.976C318.577 169.608 318.337 168.984 317.809 167.512L317.681 167.192H313.777L313.665 167.512C313.105 168.984 313.009 169.592 313.009 169.96C313.009 170.264 313.153 170.44 313.617 170.616L313.569 171.016C312.945 170.968 312.625 170.968 312.225 170.968C311.825 170.968 311.601 170.968 311.041 171.016L310.993 170.616C311.521 170.344 311.793 170.008 312.097 169.304C312.337 168.776 312.625 168.024 312.817 167.512L315.905 159.512ZM315.793 161.976L314.049 166.504H317.441L315.793 161.976Z" fill="#E8E4DF"/>
<path d="M323.359 163.256V167.672C323.359 168.232 323.375 169.096 323.407 169.416C323.487 170.2 323.711 170.344 324.431 170.344C325.119 170.344 325.599 170.344 326.063 170.264C326.639 170.152 326.943 169.896 327.183 169.528C327.391 169.224 327.567 168.856 327.775 168.232L328.239 168.312C328.159 169.336 328.015 170.152 327.839 171.048C326.575 170.984 325.167 170.968 323.119 170.968C322.335 170.968 321.903 170.968 321.279 171.016L321.231 170.616C321.871 170.36 321.983 170.008 322.031 169.304C322.079 168.776 322.079 168.072 322.079 167.512V163.256C322.079 162.696 322.079 161.992 322.031 161.464C321.983 160.76 321.871 160.408 321.231 160.152L321.279 159.752C321.903 159.8 322.335 159.8 322.703 159.8C323.103 159.8 323.535 159.8 324.159 159.752L324.207 160.152C323.567 160.408 323.455 160.76 323.407 161.464C323.359 161.992 323.359 162.696 323.359 163.256Z" fill="#E8E4DF"/>
<path d="M330.862 163.256V167.512C330.862 168.072 330.894 168.776 330.91 169.304C330.942 170.056 331.07 170.344 331.726 170.616L331.678 171.016C331.054 170.968 330.638 170.968 330.238 170.968C329.838 170.968 329.406 170.968 328.782 171.016L328.734 170.616C329.374 170.36 329.486 170.008 329.534 169.304C329.582 168.776 329.582 168.072 329.582 167.512V163.256C329.582 162.696 329.582 161.992 329.534 161.464C329.486 160.76 329.374 160.408 328.734 160.152L328.782 159.752C329.406 159.8 329.838 159.8 330.238 159.8C330.638 159.8 331.054 159.8 331.678 159.752L331.726 160.152C331.07 160.424 330.942 160.712 330.91 161.464C330.894 161.992 330.862 162.696 330.862 163.256Z" fill="#E8E4DF"/>
<path d="M336.881 159.512H337.185L340.145 167.512C340.337 168.024 340.625 168.776 340.865 169.304C341.169 170.008 341.441 170.344 341.969 170.616L341.921 171.016C341.297 170.968 341.009 170.968 340.609 170.968C340.209 170.968 339.617 170.968 338.993 171.016L338.945 170.616C339.377 170.424 339.553 170.28 339.553 169.976C339.553 169.608 339.313 168.984 338.785 167.512L338.657 167.192H334.753L334.641 167.512C334.081 168.984 333.985 169.592 333.985 169.96C333.985 170.264 334.129 170.44 334.593 170.616L334.545 171.016C333.921 170.968 333.601 170.968 333.201 170.968C332.801 170.968 332.577 170.968 332.017 171.016L331.969 170.616C332.497 170.344 332.769 170.008 333.073 169.304C333.313 168.776 333.601 168.024 333.793 167.512L336.881 159.512ZM336.769 161.976L335.025 166.504H338.417L336.769 161.976Z" fill="#E8E4DF"/>
<path d="M3.83958 113.392C3.08758 113.392 2.99158 113.552 2.94358 114.192C2.89558 114.688 2.89558 115.264 2.89558 115.84V120.512C2.89558 121.072 2.89558 121.776 2.92758 122.304C2.97558 123.056 3.10358 123.344 3.75958 123.616L3.71158 124.016C3.08758 123.968 2.67158 123.968 2.27158 123.968C1.87158 123.968 1.43958 123.968 0.815578 124.016L0.767578 123.616C1.40758 123.36 1.51958 123.008 1.56758 122.304C1.61558 121.776 1.61558 121.072 1.61558 120.512V116.256C1.61558 115.696 1.61558 114.992 1.56758 114.464C1.51958 113.76 1.40758 113.408 0.767578 113.152L0.815578 112.752C1.43958 112.8 1.87158 112.8 2.27158 112.8C2.89558 112.8 3.50358 112.768 4.44758 112.768C6.41558 112.768 7.95158 113.952 7.95158 115.744C7.95158 117.664 6.41558 118.896 4.31958 118.896C4.07958 118.896 3.85558 118.864 3.66358 118.816L3.69558 118.32C5.66358 118.32 6.60758 117.36 6.60758 115.808C6.60758 114.16 5.48758 113.392 3.83958 113.392Z" fill="#E8E4DF"/>
<path d="M11.7274 112.512H12.0314L14.9914 120.512C15.1834 121.024 15.4714 121.776 15.7114 122.304C16.0154 123.008 16.2874 123.344 16.8154 123.616L16.7674 124.016C16.1434 123.968 15.8554 123.968 15.4554 123.968C15.0554 123.968 14.4634 123.968 13.8394 124.016L13.7914 123.616C14.2234 123.424 14.3994 123.28 14.3994 122.976C14.3994 122.608 14.1594 121.984 13.6314 120.512L13.5034 120.192H9.59943L9.48743 120.512C8.92743 121.984 8.83143 122.592 8.83143 122.96C8.83143 123.264 8.97543 123.44 9.43943 123.616L9.39143 124.016C8.76743 123.968 8.44743 123.968 8.04743 123.968C7.64743 123.968 7.42343 123.968 6.86343 124.016L6.81543 123.616C7.34343 123.344 7.61543 123.008 7.91943 122.304C8.15943 121.776 8.44743 121.024 8.63943 120.512L11.7274 112.512ZM11.6154 114.976L9.87143 119.504H13.2634L11.6154 114.976Z" fill="#E8E4DF"/>
<path d="M20.1257 118.736C19.8697 118.736 19.3737 118.72 19.1817 118.672V120.512C19.1817 121.072 19.1817 121.776 19.2137 122.304C19.2617 123.056 19.3897 123.344 20.0457 123.616L19.9977 124.016C19.3737 123.968 18.9577 123.968 18.5577 123.968C18.1577 123.968 17.7257 123.968 17.1017 124.016L17.0537 123.616C17.6937 123.36 17.8057 123.008 17.8537 122.304C17.9017 121.776 17.9017 121.072 17.9017 120.512V116.256C17.9017 115.696 17.9017 114.992 17.8537 114.464C17.8057 113.76 17.6937 113.408 17.0537 113.152L17.1017 112.752C17.7257 112.8 18.1577 112.8 18.5577 112.8C19.1817 112.8 19.7417 112.768 20.5257 112.768C22.7017 112.768 23.9177 114.112 23.9177 115.616C23.9177 116.912 23.2617 117.888 22.1097 118.384C22.9577 119.952 23.6617 121.184 24.8137 122.64C25.2457 123.168 25.8377 123.664 26.2857 123.792V124.128C26.0297 124.24 25.7097 124.256 25.4697 124.256C24.7817 124.256 24.1417 123.888 23.4537 122.928C22.5097 121.648 21.8537 120.496 21.0057 118.672C20.7657 118.72 20.4617 118.736 20.1257 118.736ZM20.1257 113.392C19.3737 113.392 19.2777 113.552 19.2297 114.192C19.1817 114.688 19.1817 115.264 19.1817 115.84V118.08C19.3097 118.096 19.4217 118.096 19.9177 118.096C21.6937 118.096 22.5577 117.2 22.5577 115.776C22.5577 114.304 21.7257 113.392 20.1257 113.392Z" fill="#E8E4DF"/>
<path d="M28.6531 116.256V120.512C28.6531 121.072 28.6851 121.776 28.7011 122.304C28.7331 123.056 28.8611 123.344 29.5171 123.616L29.4691 124.016C28.8451 123.968 28.4291 123.968 28.0291 123.968C27.6291 123.968 27.1971 123.968 26.5731 124.016L26.5251 123.616C27.1651 123.36 27.2771 123.008 27.3251 122.304C27.3731 121.776 27.3731 121.072 27.3731 120.512V116.256C27.3731 115.696 27.3731 114.992 27.3251 114.464C27.2771 113.76 27.1651 113.408 26.5251 113.152L26.5731 112.752C27.1971 112.8 27.6291 112.8 28.0291 112.8C28.4291 112.8 28.8451 112.8 29.4691 112.752L29.5171 113.152C28.8611 113.424 28.7331 113.712 28.7011 114.464C28.6851 114.992 28.6531 115.696 28.6531 116.256Z" fill="#E8E4DF"/>
<path d="M33.4403 123.536C34.7203 123.536 35.5683 122.72 35.5683 121.616C35.5683 121.024 35.3603 120.528 34.9603 120.128C34.6083 119.776 34.3683 119.536 33.3923 118.848C32.0163 117.888 31.7123 117.632 31.2803 117.072C30.8803 116.56 30.7203 116.096 30.7203 115.344C30.7203 113.744 32.0643 112.544 33.9203 112.544C34.9283 112.544 35.7283 112.768 36.5443 113.2C36.5603 113.632 36.5763 113.936 36.5763 114.304C36.5763 114.672 36.5603 115.008 36.5443 115.44L36.0963 115.472C35.9523 114.912 35.7923 114.448 35.4243 114.016C34.9923 113.52 34.5603 113.28 33.7923 113.28C32.6563 113.28 31.8883 113.984 31.8883 115.072C31.8883 115.568 32.0003 115.968 32.4483 116.432C32.7523 116.736 32.9603 116.912 33.9843 117.632C35.2483 118.512 35.6323 118.784 36.0803 119.296C36.5283 119.824 36.8323 120.592 36.8323 121.312C36.8323 123.104 35.4243 124.256 33.3283 124.256C32.2403 124.256 31.4723 124.096 30.7043 123.728C30.5283 122.848 30.4803 122.048 30.3843 121.136L30.8803 121.024C31.0563 121.536 31.2003 121.952 31.4403 122.352C31.9043 123.168 32.3683 123.536 33.4403 123.536Z" fill="#E8E4DF"/>
<path d="M2.65558 170.968C1.87158 170.968 1.43958 170.968 0.815578 171.016L0.767578 170.616C1.40758 170.36 1.51958 170.008 1.56758 169.304C1.61558 168.776 1.61558 168.072 1.61558 167.512V163.256C1.61558 162.696 1.61558 161.992 1.56758 161.464C1.51958 160.76 1.40758 160.408 0.767578 160.152L0.815578 159.752C1.43958 159.8 1.87158 159.8 2.27158 159.8H5.21558C5.87158 159.8 6.36758 159.8 6.99158 159.752C7.10358 160.568 7.16758 161.16 7.21558 162.04L6.75158 162.12C6.54358 161.528 6.36758 161.192 6.12758 160.936C5.88758 160.68 5.51958 160.552 5.21558 160.504C4.81558 160.44 4.46358 160.424 3.83958 160.424C3.08758 160.424 2.99158 160.552 2.94358 161.192C2.89558 161.688 2.89558 162.264 2.89558 162.84V164.888C3.43958 164.888 4.55958 164.856 5.07158 164.808C5.79158 164.728 6.01558 164.472 6.25558 163.736L6.63958 163.816C6.59158 164.44 6.59158 164.792 6.59158 165.192C6.59158 165.592 6.59158 165.96 6.63958 166.584L6.25558 166.664C6.01558 165.928 5.79158 165.688 5.07158 165.592C4.55958 165.528 3.42358 165.512 2.89558 165.512V167.672C2.89558 168.232 2.92758 169.096 2.94358 169.416C2.97558 170.2 3.24758 170.344 3.96758 170.344C4.65558 170.344 5.23158 170.328 5.66358 170.264C6.22358 170.184 6.47958 169.96 6.71958 169.624C6.91158 169.32 7.07158 168.984 7.27958 168.392L7.71158 168.472C7.63158 169.432 7.50358 170.216 7.32758 171.048C6.15958 170.984 4.70358 170.968 2.65558 170.968Z" fill="#E8E4DF"/>
<path d="M11.6359 170.536C12.9159 170.536 13.7639 169.72 13.7639 168.616C13.7639 168.024 13.5559 167.528 13.1559 167.128C12.8039 166.776 12.5639 166.536 11.5879 165.848C10.2119 164.888 9.90783 164.632 9.47583 164.072C9.07583 163.56 8.91583 163.096 8.91583 162.344C8.91583 160.744 10.2599 159.544 12.1159 159.544C13.1239 159.544 13.9239 159.768 14.7399 160.2C14.7559 160.632 14.7719 160.936 14.7719 161.304C14.7719 161.672 14.7559 162.008 14.7399 162.44L14.2919 162.472C14.1479 161.912 13.9879 161.448 13.6199 161.016C13.1879 160.52 12.7559 160.28 11.9879 160.28C10.8519 160.28 10.0839 160.984 10.0839 162.072C10.0839 162.568 10.1959 162.968 10.6439 163.432C10.9479 163.736 11.1559 163.912 12.1799 164.632C13.4439 165.512 13.8279 165.784 14.2759 166.296C14.7239 166.824 15.0279 167.592 15.0279 168.312C15.0279 170.104 13.6199 171.256 11.5239 171.256C10.4359 171.256 9.66783 171.096 8.89983 170.728C8.72383 169.848 8.67583 169.048 8.57983 168.136L9.07583 168.024C9.25183 168.536 9.39583 168.952 9.63583 169.352C10.0999 170.168 10.5639 170.536 11.6359 170.536Z" fill="#E8E4DF"/>
<path d="M17.2092 159.8H22.9852C23.6412 159.8 24.1692 159.8 24.7932 159.752C24.8252 160.52 24.8412 161.304 24.8412 162.088L24.3772 162.12C24.2012 161.528 24.0412 161.192 23.8012 160.936C23.5612 160.68 23.1932 160.552 22.8892 160.504C22.4892 160.44 22.1372 160.424 21.6252 160.424C20.8732 160.424 20.7772 160.552 20.7292 161.192C20.6812 161.688 20.6812 162.264 20.6812 162.84V167.512C20.6812 168.072 20.7132 168.776 20.7292 169.304C20.7612 170.12 20.9372 170.376 21.7052 170.584L21.6572 171.016C21.0332 170.968 20.4572 170.968 20.0572 170.968C19.6572 170.968 19.0492 170.968 18.4252 171.016L18.3772 170.584C19.1452 170.376 19.3212 170.12 19.3532 169.304C19.3692 168.776 19.4012 168.072 19.4012 167.512V162.84C19.4012 162.264 19.4012 161.688 19.3532 161.192C19.3052 160.552 19.2092 160.424 18.4572 160.424C17.9452 160.424 17.6092 160.44 17.2092 160.504C16.9052 160.552 16.5372 160.68 16.2972 160.936C16.0572 161.192 15.8812 161.528 15.7052 162.12L15.2412 162.088C15.2892 161.304 15.3372 160.536 15.4012 159.752C16.0252 159.8 16.5532 159.8 17.2092 159.8Z" fill="#E8E4DF"/>
<path d="M24.4851 170.248C24.4851 169.704 24.8851 169.304 25.4291 169.304C25.9731 169.304 26.3731 169.704 26.3731 170.248C26.3731 170.792 25.9731 171.192 25.4291 171.192C24.8851 171.192 24.4851 170.792 24.4851 170.248Z" fill="#E8E4DF"/>
<path d="M33.0129 169.896H35.9409C36.6129 169.896 36.8849 169.704 37.3169 169.192L37.6529 169.384C37.4769 169.96 37.2689 170.536 37.0129 171.048C36.3729 171 35.8929 171 35.3009 171H33.5729C32.8849 171 32.1489 171.032 31.6849 171.064L31.5569 170.408C34.8689 166.712 36.0049 164.856 36.0049 162.808C36.0049 161.528 35.3329 160.744 34.3089 160.744C33.6209 160.744 33.0929 161.064 32.5169 161.672L32.0849 161.176C32.4529 160.44 33.3969 159.624 34.5329 159.624C35.3329 159.624 35.9889 159.896 36.5329 160.52C37.0289 161.08 37.2849 161.864 37.2849 162.808C37.2849 164.888 36.3409 166.296 33.0129 169.896Z" fill="#E8E4DF"/>
<path d="M38.9053 165.4C38.9053 162.2 40.3293 159.544 42.4573 159.544C44.6973 159.544 46.0413 162.104 46.0413 165.4C46.0413 168.648 44.6493 171.256 42.5533 171.256C40.2653 171.256 38.9053 168.696 38.9053 165.4ZM42.4093 160.344C41.2093 160.344 40.3133 161.848 40.3133 165.192C40.3133 168.696 41.1773 170.472 42.6173 170.472C43.8333 170.472 44.6333 168.888 44.6333 165.592C44.6333 162.248 43.7213 160.344 42.4093 160.344Z" fill="#E8E4DF"/>
<path d="M48.8618 169.896H51.7898C52.4618 169.896 52.7338 169.704 53.1658 169.192L53.5018 169.384C53.3258 169.96 53.1178 170.536 52.8618 171.048C52.2218 171 51.7418 171 51.1498 171H49.4218C48.7338 171 47.9978 171.032 47.5338 171.064L47.4058 170.408C50.7178 166.712 51.8538 164.856 51.8538 162.808C51.8538 161.528 51.1818 160.744 50.1578 160.744C49.4698 160.744 48.9418 161.064 48.3658 161.672L47.9338 161.176C48.3018 160.44 49.2458 159.624 50.3818 159.624C51.1818 159.624 51.8378 159.896 52.3818 160.52C52.8778 161.08 53.1338 161.864 53.1338 162.808C53.1338 164.888 52.1898 166.296 48.8618 169.896Z" fill="#E8E4DF"/>
<path d="M56.7861 169.896H59.7141C60.3861 169.896 60.6581 169.704 61.0901 169.192L61.4261 169.384C61.2501 169.96 61.0421 170.536 60.7861 171.048C60.1461 171 59.6661 171 59.0741 171H57.3461C56.6581 171 55.9221 171.032 55.4581 171.064L55.3301 170.408C58.6421 166.712 59.7781 164.856 59.7781 162.808C59.7781 161.528 59.1061 160.744 58.0821 160.744C57.3941 160.744 56.8661 161.064 56.2901 161.672L55.8581 161.176C56.2261 160.44 57.1701 159.624 58.3061 159.624C59.1061 159.624 59.7621 159.896 60.3061 160.52C60.8021 161.08 61.0581 161.864 61.0581 162.808C61.0581 164.888 60.1141 166.296 56.7861 169.896Z" fill="#E8E4DF"/>
</g>
<defs>
<clipPath id="clip0_430_3109">
<rect width="342" height="174" fill="white"/>
</clipPath>
</defs>
</svg>
