<svg width="809" height="319" viewBox="0 0 809 319" fill="none" xmlns="http://www.w3.org/2000/svg">
<path d="M37.9673 136.856C53.8699 136.856 64.4053 126.726 64.4053 113.021C64.4053 105.671 61.8211 99.5137 56.8516 94.548C52.4784 90.1781 49.4967 87.1986 37.371 78.6575C20.2757 66.7397 16.4989 63.5616 11.1318 56.6096C6.16224 50.2534 4.17442 44.4932 4.17442 35.1575C4.17442 15.2945 20.8721 0.397267 43.9308 0.397267C56.454 0.397267 66.3931 3.17809 76.531 8.5411C76.7298 13.9041 76.9286 17.6781 76.9286 22.2466C76.9286 26.8151 76.7298 30.9863 76.531 36.3493L70.9651 36.7466C69.1761 29.7945 67.1882 24.0343 62.6163 18.6712C57.2492 12.5137 51.8821 9.53425 42.3405 9.53425C28.227 9.53425 18.6855 18.274 18.6855 31.7808C18.6855 37.9384 20.077 42.9041 25.6429 48.6644C29.4197 52.4384 32.0039 54.6233 44.7259 63.5616C60.4297 74.4863 65.2004 77.863 70.7663 84.2192C76.3322 90.774 80.1091 100.308 80.1091 109.247C80.1091 131.493 62.6163 145.795 36.5759 145.795C23.0587 145.795 13.5172 143.808 3.97564 139.24C1.78904 128.315 1.19269 118.384 0 107.062L6.16224 105.671C8.34884 112.027 10.1379 117.192 13.1196 122.158C18.8843 132.288 24.6489 136.856 37.9673 136.856Z" fill="#001D23"/>
<path d="M109.196 3.57534H180.957C189.107 3.57534 195.667 3.57534 203.419 2.97946C203.817 12.5137 204.015 22.2466 204.015 31.9795L198.251 32.3767C196.064 25.0274 194.076 20.8562 191.095 17.6781C188.113 14.5 183.541 12.911 179.764 12.3151C174.794 11.5206 170.421 11.3219 164.06 11.3219C154.717 11.3219 153.525 12.911 152.928 20.8562C152.332 27.0137 152.332 34.1644 152.332 41.3151V99.3151C152.332 106.267 152.73 115.007 152.928 121.562C153.326 131.692 155.513 134.87 165.054 137.452L164.458 142.815C156.705 142.219 149.549 142.219 144.58 142.219C139.61 142.219 132.056 142.219 124.304 142.815L123.708 137.452C133.249 134.87 135.436 131.692 135.833 121.562C136.032 115.007 136.43 106.267 136.43 99.3151V41.3151C136.43 34.1644 136.43 27.0137 135.833 20.8562C135.237 12.911 134.044 11.3219 124.701 11.3219C118.34 11.3219 114.166 11.5206 109.196 12.3151C105.42 12.911 100.848 14.5 97.8659 17.6781C94.8841 20.8562 92.6975 25.0274 90.5109 32.3767L84.7463 31.9795C85.3426 22.2466 85.939 12.7123 86.7341 2.97946C94.4866 3.57534 101.046 3.57534 109.196 3.57534Z" fill="#001D23"/>
<path d="M251.822 0H255.599L292.374 99.3151C294.759 105.671 298.337 115.007 301.319 121.562C305.096 130.301 308.475 134.473 315.035 137.849L314.439 142.815C306.686 142.219 303.108 142.219 298.139 142.219C293.169 142.219 285.814 142.219 278.062 142.815L277.465 137.849C282.832 135.466 285.019 133.678 285.019 129.904C285.019 125.336 282.037 117.589 275.477 99.3151L273.887 95.3425H225.384L223.993 99.3151C217.036 117.589 215.843 125.137 215.843 129.705C215.843 133.479 217.632 135.664 223.397 137.849L222.8 142.815C215.048 142.219 211.072 142.219 206.103 142.219C201.133 142.219 198.35 142.219 191.393 142.815L190.796 137.849C197.356 134.473 200.735 130.301 204.512 121.562C207.494 115.007 211.072 105.671 213.457 99.3151L251.822 0ZM250.431 30.5891L228.764 86.8014H270.905L250.431 30.5891Z" fill="#001D23"/>
<path d="M453.368 20.6575L400.294 145.795H396.119L342.846 25.0274L340.262 99.5137C340.063 104.082 339.864 109.842 339.864 115.205C339.864 125.534 340.262 134.87 350.996 138.048L350.4 143.014C344.237 142.616 338.87 142.418 334.099 142.418C329.329 142.418 324.558 142.418 318.396 143.014L317.799 138.048C325.949 134.671 327.738 131.096 328.534 121.76C329.13 115.205 329.13 106.466 329.527 99.5137L331.913 46.4795C332.112 41.911 332.112 38.9315 332.112 35.1575C332.112 24.0343 331.913 11.7192 319.787 7.94521L320.383 2.97946C331.515 3.57534 339.665 3.57534 351.393 3.57534L401.486 118.781L448.598 3.57534C459.531 3.57534 471.855 3.57534 479.608 2.97946L480.204 7.94521C472.054 11.1233 470.464 15.2945 469.867 24.2329C469.669 29 469.47 35.1575 469.47 40.7192C469.47 42.9041 469.867 44.6918 470.861 99.5137C471.06 106.466 471.06 115.205 471.656 121.76C471.656 131.096 473.843 134.671 481.993 138.048L481.397 143.014C473.644 142.418 468.675 142.418 463.705 142.418C458.736 142.418 453.368 142.418 445.616 143.014L445.02 138.048C455.158 135.466 455.356 125.137 455.356 115.603C455.356 110.637 455.356 104.479 455.158 99.5137L453.368 20.6575Z" fill="#001D23"/>
<path d="M521.406 46.4795V99.3151C521.406 106.267 521.804 115.007 522.003 121.562C522.4 130.897 523.99 134.473 532.14 137.849L531.544 142.815C523.792 142.219 518.623 142.219 513.654 142.219C508.684 142.219 503.317 142.219 495.565 142.815L494.968 137.849C502.92 134.671 504.311 130.301 504.907 121.562C505.504 115.007 505.504 106.267 505.504 99.3151V46.4795C505.504 39.5274 505.504 30.7877 504.907 24.2329C504.311 15.4932 502.92 11.1233 494.968 7.94521L495.565 2.97946C503.317 3.57534 508.684 3.57534 513.654 3.57534C518.623 3.57534 523.792 3.57534 531.544 2.97946L532.14 7.94521C523.99 11.3219 522.4 14.8973 522.003 24.2329C521.804 30.7877 521.406 39.5274 521.406 46.4795Z" fill="#001D23"/>
<path d="M670.533 144.205L665.762 145.795L567.763 27.6096V99.5137C567.763 106.466 567.763 115.205 568.359 121.76C569.154 131.096 570.943 134.671 579.093 138.048L578.497 143.014C572.335 142.616 566.968 142.418 562.396 142.418C557.625 142.418 552.854 142.418 546.692 143.014L546.096 138.048C554.246 134.671 555.836 131.096 556.631 121.76C557.227 115.205 557.227 106.466 557.227 99.5137V46.4795C557.227 39.5274 557.227 31.9795 556.631 25.4247C555.836 16.089 553.252 11.3219 545.102 7.94521L545.698 2.97946C551.86 3.37672 559.613 3.57534 568.955 3.57534L659.202 111.829V46.4795C659.202 39.5274 659.202 30.7877 658.606 24.2329C657.811 14.8973 656.022 11.3219 647.872 7.94521L648.468 2.97946C654.63 3.37672 659.997 3.57534 664.57 3.57534C669.34 3.57534 674.111 3.57534 680.273 2.97946L680.87 7.94521C672.72 11.3219 671.129 14.8973 670.334 24.2329C669.738 30.7877 669.738 39.5274 669.738 46.4795V111.63C669.738 121.164 669.937 133.877 670.533 144.205Z" fill="#001D23"/>
<path d="M745.787 0H749.564L786.339 99.3151C788.724 105.671 792.302 115.007 795.284 121.562C799.061 130.301 802.44 134.473 809 137.849L808.404 142.815C800.651 142.219 797.073 142.219 792.104 142.219C787.134 142.219 779.779 142.219 772.027 142.815L771.43 137.849C776.797 135.466 778.984 133.678 778.984 129.904C778.984 125.336 776.002 117.589 769.442 99.3151L767.852 95.3425H719.349L717.958 99.3151C711.001 117.589 709.808 125.137 709.808 129.705C709.808 133.479 711.597 135.664 717.362 137.849L716.765 142.815C709.013 142.219 705.037 142.219 700.068 142.219C695.098 142.219 692.315 142.219 685.358 142.815L684.761 137.849C691.321 134.473 694.701 130.301 698.477 121.562C701.459 115.007 705.037 105.671 707.422 99.3151L745.787 0ZM744.396 30.5891L722.729 86.8014H764.87L744.396 30.5891Z" fill="#001D23"/>
<path d="M325.803 248.288C321.828 248.288 319.442 245.904 318.25 241.336C317.256 237.363 315.864 235.774 312.485 235.774C303.341 235.774 292.209 250.473 286.643 268.349C283.264 279.075 282.469 286.623 282.469 293.178C282.469 302.911 286.842 306.089 291.812 306.089C299.564 306.089 306.124 300.527 317.653 285.63L321.828 288.212C312.485 307.082 299.564 319 288.234 319C277.698 319 269.747 311.055 269.747 297.151C269.747 262.589 296.185 225.247 318.448 225.247C326.996 225.247 333.357 231.603 333.357 239.945C333.357 244.514 330.177 248.288 325.803 248.288Z" fill="#001D23"/>
<path d="M369.191 203.993L346.331 297.548C345.933 299.534 345.734 300.925 345.734 301.719C345.734 302.911 346.331 303.904 347.921 303.904C350.108 303.904 356.469 300.13 367.203 285.829L371.576 288.808C358.258 311.253 347.921 317.808 340.964 317.808C335.994 317.808 332.018 314.63 332.018 309.267C332.018 304.103 332.814 299.932 335.994 286.623L355.475 204.192C357.264 196.445 358.456 188.5 358.456 184.13C358.456 179.76 356.27 176.979 349.312 174.993L349.71 170.027C359.649 169.233 367.004 168.438 375.949 166.452L378.931 169.63C374.558 183.137 372.769 188.897 369.191 203.993Z" fill="#001D23"/>
<path d="M429.995 277.685C412.502 311.253 403.358 317.808 393.617 317.808C385.269 317.808 380.1 310.856 380.1 303.705C380.1 298.938 381.889 292.781 385.467 283.445L397.394 252.459C399.581 246.699 400.575 243.521 400.575 241.137C400.575 239.349 399.78 237.76 397.991 237.76C394.611 237.76 391.033 241.733 381.889 253.055L377.914 249.678C389.046 232.993 396.599 225.247 404.749 225.247C409.52 225.247 413.694 229.616 413.694 235.973C413.694 240.541 412.701 244.514 407.731 257.623L395.804 289.404C393.816 294.568 393.22 297.151 393.22 299.932C393.22 303.11 394.81 305.096 398.587 305.096C405.743 305.096 423.236 289.205 442.12 235.575L444.903 227.63C446.096 227.034 447.686 226.637 449.276 226.637C452.258 226.637 455.439 228.425 457.228 232C451.463 247.89 449.276 253.055 445.698 265.37C439.735 286.027 437.946 294.767 437.548 298.342C437.349 300.329 437.349 301.918 437.349 302.911C437.349 303.904 438.145 305.096 439.337 305.096C441.524 305.096 445.102 303.11 455.439 289.603L459.613 292.781C447.686 312.048 439.735 317.808 432.777 317.808C427.212 317.808 424.429 313.836 424.429 308.075C424.429 303.507 424.429 297.945 429.995 277.685Z" fill="#001D23"/>
<path d="M526.298 249.877C526.298 242.527 522.521 237.959 517.75 237.959C502.047 237.959 480.38 273.116 480.38 296.158C480.38 303.308 484.355 306.884 489.523 306.884C493.897 306.884 499.264 305.096 505.625 298.342C517.75 285.432 526.298 265.37 526.298 249.877ZM471.037 279.075L492.306 204.192C494.493 196.644 496.878 188.5 496.878 184.13C496.878 179.76 494.692 176.979 487.734 174.993L488.132 170.027C498.071 169.233 504.83 168.438 513.775 166.452L516.757 169.63C512.383 183.137 510.197 188.897 505.625 203.993L491.313 251.068C504.432 232 514.172 225.247 522.72 225.247C531.864 225.247 539.219 233.986 539.219 248.884C539.219 265.966 529.876 286.822 510.197 305.89C501.45 314.233 493.897 318.205 484.952 318.205C474.416 318.205 467.658 309.664 467.658 298.74C467.658 292.979 468.651 286.822 471.037 279.075Z" fill="#001D23"/>
</svg>
