<svg width="1336" height="438" viewBox="0 0 1336 438" fill="none" xmlns="http://www.w3.org/2000/svg">
<path d="M299.967 136.856C315.87 136.856 326.405 126.726 326.405 113.021C326.405 105.671 323.821 99.5137 318.852 94.548C314.479 90.1781 311.497 87.1986 299.371 78.6575C282.276 66.7397 278.499 63.5617 273.132 56.6096C268.162 50.2534 266.175 44.4932 266.175 35.1575C266.175 15.2945 282.872 0.397267 305.931 0.397267C318.454 0.397267 328.393 3.17809 338.531 8.5411C338.73 13.9041 338.929 17.6781 338.929 22.2466C338.929 26.8151 338.73 30.9863 338.531 36.3493L332.965 36.7466C331.176 29.7945 329.188 24.0343 324.616 18.6712C319.249 12.5137 313.882 9.53425 304.341 9.53425C290.227 9.53425 280.686 18.274 280.686 31.7808C280.686 37.9384 282.077 42.9041 287.643 48.6644C291.42 52.4384 294.004 54.6233 306.726 63.5616C322.43 74.4863 327.201 77.863 332.766 84.2192C338.332 90.774 342.109 100.308 342.109 109.247C342.109 131.493 324.616 145.795 298.576 145.795C285.059 145.795 275.517 143.808 265.976 139.24C263.789 128.315 263.193 118.384 262 107.062L268.162 105.671C270.349 112.027 272.138 117.192 275.12 122.158C280.884 132.288 286.649 136.856 299.967 136.856Z" fill="#E8E4DF"/>
<path d="M371.197 3.57534H442.957C451.107 3.57534 457.667 3.57534 465.419 2.97946C465.817 12.5137 466.016 22.2466 466.016 31.9795L460.251 32.3767C458.064 25.0274 456.076 20.8562 453.095 17.6781C450.113 14.5 445.541 12.911 441.764 12.3151C436.795 11.5206 432.421 11.3219 426.06 11.3219C416.718 11.3219 415.525 12.911 414.929 20.8562C414.332 27.0137 414.332 34.1644 414.332 41.3151V99.3151C414.332 106.267 414.73 115.007 414.929 121.562C415.326 131.692 417.513 134.87 427.054 137.452L426.458 142.815C418.705 142.219 411.549 142.219 406.58 142.219C401.61 142.219 394.056 142.219 386.304 142.815L385.708 137.452C395.249 134.87 397.436 131.692 397.833 121.562C398.032 115.007 398.43 106.267 398.43 99.3151V41.3151C398.43 34.1644 398.43 27.0137 397.833 20.8562C397.237 12.911 396.044 11.3219 386.702 11.3219C380.341 11.3219 376.166 11.5206 371.197 12.3151C367.42 12.911 362.848 14.5 359.866 17.6781C356.884 20.8562 354.698 25.0274 352.511 32.3767L346.746 31.9795C347.343 22.2466 347.939 12.7123 348.734 2.97946C356.487 3.57534 363.047 3.57534 371.197 3.57534Z" fill="#E8E4DF"/>
<path d="M513.823 0H517.599L554.374 99.3151C556.759 105.671 560.337 115.007 563.319 121.562C567.096 130.301 570.475 134.473 577.035 137.849L576.439 142.815C568.686 142.219 565.108 142.219 560.139 142.219C555.169 142.219 547.814 142.219 540.062 142.815L539.465 137.849C544.833 135.466 547.019 133.678 547.019 129.904C547.019 125.336 544.037 117.589 537.478 99.3151L535.887 95.3425H487.385L485.993 99.3151C479.036 117.589 477.843 125.137 477.843 129.705C477.843 133.479 479.632 135.664 485.397 137.849L484.8 142.815C477.048 142.219 473.072 142.219 468.103 142.219C463.133 142.219 460.35 142.219 453.393 142.815L452.797 137.849C459.356 134.473 462.736 130.301 466.512 121.562C469.494 115.007 473.072 105.671 475.458 99.3151L513.823 0ZM512.431 30.5891L490.764 86.8014H532.906L512.431 30.5891Z" fill="#E8E4DF"/>
<path d="M715.369 20.6575L662.294 145.795H658.119L604.846 25.0274L602.262 99.5137C602.063 104.082 601.864 109.842 601.864 115.205C601.864 125.534 602.262 134.87 612.996 138.048L612.4 143.014C606.237 142.616 600.87 142.418 596.1 142.418C591.329 142.418 586.558 142.418 580.396 143.014L579.799 138.048C587.949 134.671 589.739 131.096 590.534 121.76C591.13 115.205 591.13 106.466 591.528 99.5137L593.913 46.4795C594.112 41.911 594.112 38.9315 594.112 35.1575C594.112 24.0343 593.913 11.7192 581.787 7.94521L582.384 2.97946C593.515 3.57534 601.665 3.57534 613.394 3.57534L663.487 118.781L710.598 3.57534C721.531 3.57534 733.855 3.57534 741.608 2.97946L742.204 7.94521C734.054 11.1233 732.464 15.2945 731.867 24.2329C731.669 29 731.47 35.1575 731.47 40.7192C731.47 42.9041 731.868 44.6918 732.861 99.5137C733.06 106.466 733.06 115.205 733.657 121.76C733.657 131.096 735.843 134.671 743.993 138.048L743.397 143.014C735.644 142.418 730.675 142.418 725.705 142.418C720.736 142.418 715.369 142.418 707.616 143.014L707.02 138.048C717.158 135.466 717.356 125.137 717.356 115.603C717.356 110.637 717.356 104.479 717.158 99.5137L715.369 20.6575Z" fill="#E8E4DF"/>
<path d="M783.406 46.4795V99.3151C783.406 106.267 783.804 115.007 784.003 121.562C784.4 130.897 785.991 134.473 794.141 137.849L793.544 142.815C785.792 142.219 780.623 142.219 775.654 142.219C770.684 142.219 765.317 142.219 757.565 142.815L756.968 137.849C764.92 134.671 766.311 130.301 766.907 121.562C767.504 115.007 767.504 106.267 767.504 99.3151V46.4795C767.504 39.5274 767.504 30.7877 766.907 24.2329C766.311 15.4932 764.92 11.1233 756.968 7.94521L757.565 2.97946C765.317 3.57534 770.684 3.57534 775.654 3.57534C780.623 3.57534 785.792 3.57534 793.544 2.97946L794.141 7.94521C785.991 11.3219 784.4 14.8973 784.003 24.2329C783.804 30.7877 783.406 39.5274 783.406 46.4795Z" fill="#E8E4DF"/>
<path d="M932.533 144.205L927.762 145.795L829.763 27.6096V99.5137C829.763 106.466 829.763 115.205 830.359 121.76C831.154 131.096 832.943 134.671 841.093 138.048L840.497 143.014C834.335 142.616 828.968 142.418 824.396 142.418C819.625 142.418 814.854 142.418 808.692 143.014L808.096 138.048C816.246 134.671 817.836 131.096 818.631 121.76C819.227 115.205 819.227 106.466 819.227 99.5137V46.4795C819.227 39.5274 819.227 31.9795 818.631 25.4247C817.836 16.089 815.252 11.3219 807.102 7.94521L807.698 2.97946C813.86 3.37672 821.613 3.57534 830.956 3.57534L921.203 111.829V46.4795C921.203 39.5274 921.203 30.7877 920.606 24.2329C919.811 14.8973 918.022 11.3219 909.872 7.94521L910.468 2.97946C916.631 3.37672 921.998 3.57534 926.57 3.57534C931.34 3.57534 936.111 3.57534 942.273 2.97946L942.87 7.94521C934.72 11.3219 933.129 14.8973 932.334 24.2329C931.738 30.7877 931.738 39.5274 931.738 46.4795V111.63C931.738 121.164 931.937 133.877 932.533 144.205Z" fill="#E8E4DF"/>
<path d="M1007.79 0H1011.56L1048.34 99.3151C1050.72 105.671 1054.3 115.007 1057.28 121.562C1061.06 130.301 1064.44 134.473 1071 137.849L1070.4 142.815C1062.65 142.219 1059.07 142.219 1054.1 142.219C1049.13 142.219 1041.78 142.219 1034.03 142.815L1033.43 137.849C1038.8 135.466 1040.98 133.678 1040.98 129.904C1040.98 125.336 1038 117.589 1031.44 99.3151L1029.85 95.3425H981.35L979.958 99.3151C973.001 117.589 971.808 125.137 971.808 129.705C971.808 133.479 973.597 135.664 979.362 137.849L978.765 142.815C971.013 142.219 967.037 142.219 962.068 142.219C957.098 142.219 954.315 142.219 947.358 142.815L946.762 137.849C953.321 134.473 956.701 130.301 960.477 121.562C963.459 115.007 967.037 105.671 969.423 99.3151L1007.79 0ZM1006.4 30.5891L984.729 86.8014H1026.87L1006.4 30.5891Z" fill="#E8E4DF"/>
<path d="M587.804 248.288C583.828 248.288 581.443 245.904 580.25 241.336C579.256 237.363 577.864 235.774 574.485 235.774C565.341 235.774 554.209 250.473 548.643 268.349C545.264 279.075 544.469 286.623 544.469 293.178C544.469 302.911 548.842 306.089 553.812 306.089C561.564 306.089 568.124 300.527 579.653 285.63L583.828 288.212C574.485 307.082 561.564 319 550.234 319C539.698 319 531.747 311.055 531.747 297.151C531.747 262.589 558.185 225.247 580.449 225.247C588.996 225.247 595.357 231.603 595.357 239.945C595.357 244.514 592.177 248.288 587.804 248.288Z" fill="#E8E4DF"/>
<path d="M631.191 203.993L608.331 297.548C607.933 299.534 607.734 300.925 607.734 301.719C607.734 302.911 608.331 303.904 609.921 303.904C612.108 303.904 618.469 300.13 629.203 285.829L633.576 288.808C620.258 311.253 609.921 317.808 602.964 317.808C597.994 317.808 594.019 314.63 594.019 309.267C594.019 304.103 594.814 299.932 597.994 286.623L617.475 204.192C619.264 196.445 620.457 188.5 620.457 184.13C620.457 179.76 618.27 176.979 611.313 174.993L611.71 170.027C621.649 169.233 629.004 168.438 637.949 166.452L640.931 169.63C636.558 183.137 634.769 188.897 631.191 203.993Z" fill="#E8E4DF"/>
<path d="M691.995 277.685C674.502 311.253 665.358 317.808 655.618 317.808C647.269 317.808 642.1 310.856 642.1 303.705C642.1 298.938 643.889 292.781 647.468 283.445L659.394 252.459C661.581 246.699 662.575 243.521 662.575 241.137C662.575 239.349 661.78 237.76 659.991 237.76C656.611 237.76 653.033 241.733 643.889 253.055L639.914 249.678C651.046 232.993 658.599 225.247 666.749 225.247C671.52 225.247 675.695 229.616 675.695 235.973C675.695 240.541 674.701 244.514 669.731 257.623L657.804 289.404C655.816 294.568 655.22 297.151 655.22 299.932C655.22 303.11 656.81 305.096 660.587 305.096C667.743 305.096 685.236 289.205 704.12 235.575L706.903 227.63C708.096 227.034 709.686 226.637 711.276 226.637C714.258 226.637 717.439 228.425 719.228 232C713.463 247.89 711.276 253.055 707.698 265.37C701.735 286.027 699.946 294.767 699.548 298.342C699.35 300.329 699.35 301.918 699.35 302.911C699.35 303.904 700.145 305.096 701.337 305.096C703.524 305.096 707.102 303.11 717.439 289.603L721.613 292.781C709.686 312.048 701.735 317.808 694.778 317.808C689.212 317.808 686.429 313.836 686.429 308.075C686.429 303.507 686.429 297.945 691.995 277.685Z" fill="#E8E4DF"/>
<path d="M788.298 249.877C788.298 242.527 784.521 237.959 779.751 237.959C764.047 237.959 742.38 273.116 742.38 296.158C742.38 303.308 746.355 306.884 751.524 306.884C755.897 306.884 761.264 305.096 767.625 298.342C779.751 285.432 788.298 265.37 788.298 249.877ZM733.037 279.075L754.307 204.192C756.493 196.644 758.879 188.5 758.879 184.13C758.879 179.76 756.692 176.979 749.735 174.993L750.132 170.027C760.071 169.233 766.83 168.438 775.775 166.452L778.757 169.63C774.384 183.137 772.197 188.897 767.625 203.993L753.313 251.068C766.432 232 776.173 225.247 784.72 225.247C793.864 225.247 801.219 233.986 801.219 248.884C801.219 265.966 791.876 286.822 772.197 305.89C763.451 314.233 755.897 318.205 746.952 318.205C736.416 318.205 729.658 309.664 729.658 298.74C729.658 292.979 730.652 286.822 733.037 279.075Z" fill="#E8E4DF"/>
<path d="M4.31213 432.936C2.74413 432.936 1.88013 432.936 0.632133 433.032L0.536133 432.232C1.81613 431.72 2.04013 431.016 2.13613 429.608C2.23213 428.552 2.23213 427.144 2.23213 426.024V417.512C2.23213 416.392 2.23213 414.984 2.13613 413.928C2.04013 412.52 1.81613 411.816 0.536133 411.304L0.632133 410.504C1.88013 410.6 2.74413 410.6 3.54413 410.6H9.43213C10.7441 410.6 11.7361 410.6 12.9841 410.504C13.2081 412.136 13.3361 413.32 13.4321 415.08L12.5041 415.24C12.0881 414.056 11.7361 413.384 11.2561 412.872C10.7761 412.36 10.0401 412.104 9.43213 412.008C8.63213 411.88 7.92813 411.848 6.68013 411.848C5.17613 411.848 4.98413 412.104 4.88813 413.384C4.79213 414.376 4.79213 415.528 4.79213 416.68V420.776C5.88013 420.776 8.12013 420.712 9.14413 420.616C10.5841 420.456 11.0321 419.944 11.5121 418.472L12.2801 418.632C12.1841 419.88 12.1841 420.584 12.1841 421.384C12.1841 422.184 12.1841 422.92 12.2801 424.168L11.5121 424.328C11.0321 422.856 10.5841 422.376 9.14413 422.184C8.12013 422.056 5.84813 422.024 4.79213 422.024V426.344C4.79213 427.464 4.85613 429.192 4.88813 429.832C4.95213 431.4 5.49613 431.688 6.93613 431.688C8.31213 431.688 9.46413 431.656 10.3281 431.528C11.4481 431.368 11.9601 430.92 12.4401 430.248C12.8241 429.64 13.1441 428.968 13.5601 427.784L14.4241 427.944C14.2641 429.864 14.0081 431.432 13.6561 433.096C11.3201 432.968 8.40813 432.936 4.31213 432.936Z" fill="#E8E4DF"/>
<path d="M22.2729 432.072C24.8329 432.072 26.5289 430.44 26.5289 428.232C26.5289 427.048 26.1129 426.056 25.3129 425.256C24.6089 424.552 24.1289 424.072 22.1769 422.696C19.4249 420.776 18.8169 420.264 17.9529 419.144C17.1529 418.12 16.8329 417.192 16.8329 415.688C16.8329 412.488 19.5209 410.088 23.2329 410.088C25.2489 410.088 26.8489 410.536 28.4809 411.4C28.5129 412.264 28.5449 412.872 28.5449 413.608C28.5449 414.344 28.5129 415.016 28.4809 415.88L27.5849 415.944C27.2969 414.824 26.9769 413.896 26.2409 413.032C25.3769 412.04 24.5129 411.56 22.9769 411.56C20.7049 411.56 19.1689 412.968 19.1689 415.144C19.1689 416.136 19.3929 416.936 20.2889 417.864C20.8969 418.472 21.3129 418.824 23.3609 420.264C25.8889 422.024 26.6569 422.568 27.5529 423.592C28.4489 424.648 29.0569 426.184 29.0569 427.624C29.0569 431.208 26.2409 433.512 22.0489 433.512C19.8729 433.512 18.3369 433.192 16.8009 432.456C16.4489 430.696 16.3529 429.096 16.1609 427.272L17.1529 427.048C17.5049 428.072 17.7929 428.904 18.2729 429.704C19.2009 431.336 20.1289 432.072 22.2729 432.072Z" fill="#E8E4DF"/>
<path d="M33.4194 410.6H44.9714C46.2834 410.6 47.3394 410.6 48.5874 410.504C48.6514 412.04 48.6834 413.608 48.6834 415.176L47.7554 415.24C47.4034 414.056 47.0834 413.384 46.6034 412.872C46.1234 412.36 45.3874 412.104 44.7794 412.008C43.9794 411.88 43.2754 411.848 42.2514 411.848C40.7474 411.848 40.5554 412.104 40.4594 413.384C40.3634 414.376 40.3634 415.528 40.3634 416.68V426.024C40.3634 427.144 40.4274 428.552 40.4594 429.608C40.5234 431.24 40.8754 431.752 42.4114 432.168L42.3154 433.032C41.0674 432.936 39.9154 432.936 39.1154 432.936C38.3154 432.936 37.0994 432.936 35.8514 433.032L35.7554 432.168C37.2914 431.752 37.6434 431.24 37.7074 429.608C37.7394 428.552 37.8034 427.144 37.8034 426.024V416.68C37.8034 415.528 37.8034 414.376 37.7074 413.384C37.6114 412.104 37.4194 411.848 35.9154 411.848C34.8914 411.848 34.2194 411.88 33.4194 412.008C32.8114 412.104 32.0754 412.36 31.5954 412.872C31.1154 413.384 30.7634 414.056 30.4114 415.24L29.4834 415.176C29.5794 413.608 29.6754 412.072 29.8034 410.504C31.0514 410.6 32.1074 410.6 33.4194 410.6Z" fill="#E8E4DF"/>
<path d="M47.9709 431.496C47.9709 430.408 48.7709 429.608 49.8589 429.608C50.9469 429.608 51.7469 430.408 51.7469 431.496C51.7469 432.584 50.9469 433.384 49.8589 433.384C48.7709 433.384 47.9709 432.584 47.9709 431.496Z" fill="#E8E4DF"/>
<path d="M58.1469 430.792H64.0029C65.3469 430.792 65.8909 430.408 66.7549 429.384L67.4269 429.768C67.0749 430.92 66.6589 432.072 66.1469 433.096C64.8669 433 63.9069 433 62.7229 433H59.2669C57.8909 433 56.4189 433.064 55.4909 433.128L55.2349 431.816C61.8589 424.424 64.1309 420.712 64.1309 416.616C64.1309 414.056 62.7869 412.488 60.7389 412.488C59.3629 412.488 58.3069 413.128 57.1549 414.344L56.2909 413.352C57.0269 411.88 58.9149 410.248 61.1869 410.248C62.7869 410.248 64.0989 410.792 65.1869 412.04C66.1789 413.16 66.6909 414.728 66.6909 416.616C66.6909 420.776 64.8029 423.592 58.1469 430.792Z" fill="#E8E4DF"/>
<path d="M69.9316 421.8C69.9316 415.4 72.7796 410.088 77.0356 410.088C81.5156 410.088 84.2036 415.208 84.2036 421.8C84.2036 428.296 81.4196 433.512 77.2276 433.512C72.6516 433.512 69.9316 428.392 69.9316 421.8ZM76.9396 411.688C74.5396 411.688 72.7476 414.696 72.7476 421.384C72.7476 428.392 74.4756 431.944 77.3556 431.944C79.7876 431.944 81.3876 428.776 81.3876 422.184C81.3876 415.496 79.5636 411.688 76.9396 411.688Z" fill="#E8E4DF"/>
<path d="M89.8444 430.792H95.7004C97.0444 430.792 97.5884 430.408 98.4524 429.384L99.1244 429.768C98.7724 430.92 98.3564 432.072 97.8444 433.096C96.5644 433 95.6044 433 94.4204 433H90.9644C89.5884 433 88.1164 433.064 87.1884 433.128L86.9324 431.816C93.5564 424.424 95.8284 420.712 95.8284 416.616C95.8284 414.056 94.4844 412.488 92.4364 412.488C91.0604 412.488 90.0044 413.128 88.8524 414.344L87.9884 413.352C88.7244 411.88 90.6124 410.248 92.8844 410.248C94.4844 410.248 95.7964 410.792 96.8844 412.04C97.8764 413.16 98.3884 414.728 98.3884 416.616C98.3884 420.776 96.5004 423.592 89.8444 430.792Z" fill="#E8E4DF"/>
<path d="M105.693 430.792H111.549C112.893 430.792 113.437 430.408 114.301 429.384L114.973 429.768C114.621 430.92 114.205 432.072 113.693 433.096C112.413 433 111.453 433 110.269 433H106.813C105.437 433 103.965 433.064 103.037 433.128L102.781 431.816C109.405 424.424 111.677 420.712 111.677 416.616C111.677 414.056 110.333 412.488 108.285 412.488C106.909 412.488 105.853 413.128 104.701 414.344L103.837 413.352C104.573 411.88 106.461 410.248 108.733 410.248C110.333 410.248 111.645 410.792 112.733 412.04C113.725 413.16 114.237 414.728 114.237 416.616C114.237 420.776 112.349 423.592 105.693 430.792Z" fill="#E8E4DF"/>
<path d="M6.68013 6.784C5.17613 6.784 4.98413 7.104 4.88813 8.384C4.79213 9.376 4.79213 10.528 4.79213 11.68V21.024C4.79213 22.144 4.79213 23.552 4.85613 24.608C4.95213 26.112 5.20813 26.688 6.52013 27.232L6.42413 28.032C5.17613 27.936 4.34413 27.936 3.54413 27.936C2.74413 27.936 1.88013 27.936 0.632133 28.032L0.536133 27.232C1.81613 26.72 2.04013 26.016 2.13613 24.608C2.23213 23.552 2.23213 22.144 2.23213 21.024V12.512C2.23213 11.392 2.23213 9.984 2.13613 8.928C2.04013 7.52 1.81613 6.816 0.536133 6.304L0.632133 5.504C1.88013 5.6 2.74413 5.6 3.54413 5.6C4.79213 5.6 6.00813 5.536 7.89613 5.536C11.8321 5.536 14.9041 7.904 14.9041 11.488C14.9041 15.328 11.8321 17.792 7.64013 17.792C7.16013 17.792 6.71213 17.728 6.32813 17.632L6.39213 16.64C10.3281 16.64 12.2161 14.72 12.2161 11.616C12.2161 8.32 9.97613 6.784 6.68013 6.784Z" fill="#E8E4DF"/>
<path d="M22.4556 5.024H23.0636L28.9836 21.024C29.3676 22.048 29.9436 23.552 30.4236 24.608C31.0316 26.016 31.5756 26.688 32.6316 27.232L32.5356 28.032C31.2876 27.936 30.7116 27.936 29.9116 27.936C29.1116 27.936 27.9276 27.936 26.6796 28.032L26.5836 27.232C27.4476 26.848 27.7996 26.56 27.7996 25.952C27.7996 25.216 27.3196 23.968 26.2636 21.024L26.0076 20.384H18.1996L17.9756 21.024C16.8556 23.968 16.6636 25.184 16.6636 25.92C16.6636 26.528 16.9516 26.88 17.8796 27.232L17.7836 28.032C16.5356 27.936 15.8956 27.936 15.0956 27.936C14.2956 27.936 13.8476 27.936 12.7276 28.032L12.6316 27.232C13.6876 26.688 14.2316 26.016 14.8396 24.608C15.3196 23.552 15.8956 22.048 16.2796 21.024L22.4556 5.024ZM22.2316 9.952L18.7436 19.008H25.5276L22.2316 9.952Z" fill="#E8E4DF"/>
<path d="M39.2526 17.472C38.7406 17.472 37.7486 17.44 37.3646 17.344V21.024C37.3646 22.144 37.3646 23.552 37.4286 24.608C37.5246 26.112 37.7806 26.688 39.0926 27.232L38.9966 28.032C37.7486 27.936 36.9166 27.936 36.1166 27.936C35.3166 27.936 34.4526 27.936 33.2046 28.032L33.1086 27.232C34.3886 26.72 34.6126 26.016 34.7086 24.608C34.8046 23.552 34.8046 22.144 34.8046 21.024V12.512C34.8046 11.392 34.8046 9.984 34.7086 8.928C34.6126 7.52 34.3886 6.816 33.1086 6.304L33.2046 5.504C34.4526 5.6 35.3166 5.6 36.1166 5.6C37.3646 5.6 38.4846 5.536 40.0526 5.536C44.4046 5.536 46.8366 8.224 46.8366 11.232C46.8366 13.824 45.5246 15.776 43.2206 16.768C44.9166 19.904 46.3246 22.368 48.6286 25.28C49.4926 26.336 50.6766 27.328 51.5726 27.584V28.256C51.0606 28.48 50.4206 28.512 49.9406 28.512C48.5646 28.512 47.2846 27.776 45.9086 25.856C44.0206 23.296 42.7086 20.992 41.0126 17.344C40.5326 17.44 39.9246 17.472 39.2526 17.472ZM39.2526 6.784C37.7486 6.784 37.5566 7.104 37.4606 8.384C37.3646 9.376 37.3646 10.528 37.3646 11.68V16.16C37.6206 16.192 37.8446 16.192 38.8366 16.192C42.3886 16.192 44.1166 14.4 44.1166 11.552C44.1166 8.608 42.4526 6.784 39.2526 6.784Z" fill="#E8E4DF"/>
<path d="M56.3071 12.512V21.024C56.3071 22.144 56.3711 23.552 56.4031 24.608C56.4671 26.112 56.7231 26.688 58.0351 27.232L57.9391 28.032C56.6911 27.936 55.8591 27.936 55.0591 27.936C54.2591 27.936 53.3951 27.936 52.1471 28.032L52.0511 27.232C53.3311 26.72 53.5551 26.016 53.6511 24.608C53.7471 23.552 53.7471 22.144 53.7471 21.024V12.512C53.7471 11.392 53.7471 9.984 53.6511 8.928C53.5551 7.52 53.3311 6.816 52.0511 6.304L52.1471 5.504C53.3951 5.6 54.2591 5.6 55.0591 5.6C55.8591 5.6 56.6911 5.6 57.9391 5.504L58.0351 6.304C56.7231 6.848 56.4671 7.424 56.4031 8.928C56.3711 9.984 56.3071 11.392 56.3071 12.512Z" fill="#E8E4DF"/>
<path d="M65.8816 27.072C68.4416 27.072 70.1376 25.44 70.1376 23.232C70.1376 22.048 69.7216 21.056 68.9216 20.256C68.2176 19.552 67.7376 19.072 65.7856 17.696C63.0336 15.776 62.4256 15.264 61.5616 14.144C60.7616 13.12 60.4416 12.192 60.4416 10.688C60.4416 7.488 63.1296 5.088 66.8416 5.088C68.8576 5.088 70.4576 5.536 72.0896 6.4C72.1216 7.264 72.1536 7.872 72.1536 8.608C72.1536 9.344 72.1216 10.016 72.0896 10.88L71.1936 10.944C70.9056 9.824 70.5856 8.896 69.8496 8.032C68.9856 7.04 68.1216 6.56 66.5856 6.56C64.3136 6.56 62.7776 7.968 62.7776 10.144C62.7776 11.136 63.0016 11.936 63.8976 12.864C64.5056 13.472 64.9216 13.824 66.9696 15.264C69.4976 17.024 70.2656 17.568 71.1616 18.592C72.0576 19.648 72.6656 21.184 72.6656 22.624C72.6656 26.208 69.8496 28.512 65.6576 28.512C63.4816 28.512 61.9456 28.192 60.4096 27.456C60.0576 25.696 59.9616 24.096 59.7696 22.272L60.7616 22.048C61.1136 23.072 61.4016 23.904 61.8816 24.704C62.8096 26.336 63.7376 27.072 65.8816 27.072Z" fill="#E8E4DF"/>
<path d="M1060.83 417.512V426.024C1060.83 427.144 1060.9 428.552 1060.93 429.608C1060.99 431.112 1061.25 431.688 1062.56 432.232L1062.46 433.032C1061.22 432.936 1060.38 432.936 1059.58 432.936C1058.78 432.936 1057.92 432.936 1056.67 433.032L1056.58 432.232C1057.86 431.72 1058.08 431.016 1058.18 429.608C1058.27 428.552 1058.27 427.144 1058.27 426.024V417.512C1058.27 416.392 1058.27 414.984 1058.18 413.928C1058.08 412.52 1057.86 411.816 1056.58 411.304L1056.67 410.504C1057.92 410.6 1058.78 410.6 1059.58 410.6C1060.38 410.6 1061.22 410.6 1062.46 410.504L1062.56 411.304C1061.25 411.848 1060.99 412.424 1060.93 413.928C1060.9 414.984 1060.83 416.392 1060.83 417.512Z" fill="#E8E4DF"/>
<path d="M1084.52 433.256L1083.75 433.512L1067.97 414.472V426.056C1067.97 427.176 1067.97 428.584 1068.07 429.64C1068.2 431.144 1068.49 431.72 1069.8 432.264L1069.7 433.064C1068.71 433 1067.85 432.968 1067.11 432.968C1066.34 432.968 1065.57 432.968 1064.58 433.064L1064.49 432.264C1065.8 431.72 1066.05 431.144 1066.18 429.64C1066.28 428.584 1066.28 427.176 1066.28 426.056V417.512C1066.28 416.392 1066.28 415.176 1066.18 414.12C1066.05 412.616 1065.64 411.848 1064.33 411.304L1064.42 410.504C1065.41 410.568 1066.66 410.6 1068.17 410.6L1082.69 428.04V417.512C1082.69 416.392 1082.69 414.984 1082.6 413.928C1082.47 412.424 1082.18 411.848 1080.87 411.304L1080.97 410.504C1081.96 410.568 1082.82 410.6 1083.56 410.6C1084.33 410.6 1085.09 410.6 1086.09 410.504L1086.18 411.304C1084.87 411.848 1084.61 412.424 1084.49 413.928C1084.39 414.984 1084.39 416.392 1084.39 417.512V428.008C1084.39 429.544 1084.42 431.592 1084.52 433.256Z" fill="#E8E4DF"/>
<path d="M1097.43 410.6H1108.99C1110.3 410.6 1111.35 410.6 1112.6 410.504C1112.67 412.04 1112.7 413.608 1112.7 415.176L1111.77 415.24C1111.42 414.056 1111.1 413.384 1110.62 412.872C1110.14 412.36 1109.4 412.104 1108.79 412.008C1107.99 411.88 1107.29 411.848 1106.27 411.848C1104.76 411.848 1104.57 412.104 1104.47 413.384C1104.38 414.376 1104.38 415.528 1104.38 416.68V426.024C1104.38 427.144 1104.44 428.552 1104.47 429.608C1104.54 431.24 1104.89 431.752 1106.43 432.168L1106.33 433.032C1105.08 432.936 1103.93 432.936 1103.13 432.936C1102.33 432.936 1101.11 432.936 1099.87 433.032L1099.77 432.168C1101.31 431.752 1101.66 431.24 1101.72 429.608C1101.75 428.552 1101.82 427.144 1101.82 426.024V416.68C1101.82 415.528 1101.82 414.376 1101.72 413.384C1101.63 412.104 1101.43 411.848 1099.93 411.848C1098.91 411.848 1098.23 411.88 1097.43 412.008C1096.83 412.104 1096.09 412.36 1095.61 412.872C1095.13 413.384 1094.78 414.056 1094.43 415.24L1093.5 415.176C1093.59 413.608 1093.69 412.072 1093.82 410.504C1095.07 410.6 1096.12 410.6 1097.43 410.6Z" fill="#E8E4DF"/>
<path d="M1113.25 421.8C1113.25 414.984 1118.43 410.088 1124.83 410.088C1131.59 410.088 1136.51 415.144 1136.51 421.8C1136.51 428.552 1131.39 433.512 1125.12 433.512C1118.18 433.512 1113.25 428.744 1113.25 421.8ZM1124.35 411.688C1119.91 411.688 1116.26 415.144 1116.26 421.384C1116.26 427.88 1120.55 431.944 1125.54 431.944C1130.18 431.944 1133.51 427.976 1133.51 422.184C1133.51 416.008 1129.38 411.688 1124.35 411.688Z" fill="#E8E4DF"/>
<path d="M1144.3 432.072C1146.86 432.072 1148.56 430.44 1148.56 428.232C1148.56 427.048 1148.14 426.056 1147.34 425.256C1146.64 424.552 1146.16 424.072 1144.21 422.696C1141.45 420.776 1140.85 420.264 1139.98 419.144C1139.18 418.12 1138.86 417.192 1138.86 415.688C1138.86 412.488 1141.55 410.088 1145.26 410.088C1147.28 410.088 1148.88 410.536 1150.51 411.4C1150.54 412.264 1150.57 412.872 1150.57 413.608C1150.57 414.344 1150.54 415.016 1150.51 415.88L1149.61 415.944C1149.33 414.824 1149.01 413.896 1148.27 413.032C1147.41 412.04 1146.54 411.56 1145.01 411.56C1142.73 411.56 1141.2 412.968 1141.2 415.144C1141.2 416.136 1141.42 416.936 1142.32 417.864C1142.93 418.472 1143.34 418.824 1145.39 420.264C1147.92 422.024 1148.69 422.568 1149.58 423.592C1150.48 424.648 1151.09 426.184 1151.09 427.624C1151.09 431.208 1148.27 433.512 1144.08 433.512C1141.9 433.512 1140.37 433.192 1138.83 432.456C1138.48 430.696 1138.38 429.096 1138.19 427.272L1139.18 427.048C1139.53 428.072 1139.82 428.904 1140.3 429.704C1141.23 431.336 1142.16 432.072 1144.3 432.072Z" fill="#E8E4DF"/>
<path d="M1165.59 432.072C1168.25 432.072 1169.59 431.144 1170.71 429.128C1171.19 428.264 1171.45 427.4 1171.83 426.28L1172.79 426.44C1172.63 428.392 1172.47 429.928 1172.12 431.816C1170.17 432.968 1167.77 433.512 1165.18 433.512C1158.97 433.512 1152.73 429.512 1152.73 421.736C1152.73 414.696 1158.39 410.088 1165.14 410.088C1167.86 410.088 1170.07 410.632 1172.22 411.688C1172.25 412.552 1172.28 413.288 1172.28 414.024C1172.28 414.76 1172.25 415.528 1172.22 416.424L1171.26 416.488C1170.97 415.304 1170.62 414.28 1169.88 413.416C1168.98 412.392 1167.51 411.56 1165.18 411.56C1159.54 411.56 1155.74 415.688 1155.74 421.704C1155.74 428.232 1160.63 432.072 1165.59 432.072Z" fill="#E8E4DF"/>
<path d="M1183.15 410.024H1183.76L1189.68 426.024C1190.06 427.048 1190.64 428.552 1191.12 429.608C1191.73 431.016 1192.27 431.688 1193.33 432.232L1193.23 433.032C1191.98 432.936 1191.41 432.936 1190.61 432.936C1189.81 432.936 1188.62 432.936 1187.37 433.032L1187.28 432.232C1188.14 431.848 1188.49 431.56 1188.49 430.952C1188.49 430.216 1188.01 428.968 1186.96 426.024L1186.7 425.384H1178.89L1178.67 426.024C1177.55 428.968 1177.36 430.184 1177.36 430.92C1177.36 431.528 1177.65 431.88 1178.57 432.232L1178.48 433.032C1177.23 432.936 1176.59 432.936 1175.79 432.936C1174.99 432.936 1174.54 432.936 1173.42 433.032L1173.33 432.232C1174.38 431.688 1174.93 431.016 1175.53 429.608C1176.01 428.552 1176.59 427.048 1176.97 426.024L1183.15 410.024ZM1182.93 414.952L1179.44 424.008H1186.22L1182.93 414.952Z" fill="#E8E4DF"/>
<path d="M1213.8 433.256L1213.04 433.512L1197.26 414.472V426.056C1197.26 427.176 1197.26 428.584 1197.36 429.64C1197.48 431.144 1197.77 431.72 1199.08 432.264L1198.99 433.064C1198 433 1197.13 432.968 1196.4 432.968C1195.63 432.968 1194.86 432.968 1193.87 433.064L1193.77 432.264C1195.08 431.72 1195.34 431.144 1195.47 429.64C1195.56 428.584 1195.56 427.176 1195.56 426.056V417.512C1195.56 416.392 1195.56 415.176 1195.47 414.12C1195.34 412.616 1194.92 411.848 1193.61 411.304L1193.71 410.504C1194.7 410.568 1195.95 410.6 1197.45 410.6L1211.98 428.04V417.512C1211.98 416.392 1211.98 414.984 1211.88 413.928C1211.76 412.424 1211.47 411.848 1210.16 411.304L1210.25 410.504C1211.24 410.568 1212.11 410.6 1212.84 410.6C1213.61 410.6 1214.38 410.6 1215.37 410.504L1215.47 411.304C1214.16 411.848 1213.9 412.424 1213.77 413.928C1213.68 414.984 1213.68 416.392 1213.68 417.512V428.008C1213.68 429.544 1213.71 431.592 1213.8 433.256Z" fill="#E8E4DF"/>
<path d="M1225.6 410.024H1226.21L1232.13 426.024C1232.51 427.048 1233.09 428.552 1233.57 429.608C1234.17 431.016 1234.72 431.688 1235.77 432.232L1235.68 433.032C1234.43 432.936 1233.85 432.936 1233.05 432.936C1232.25 432.936 1231.07 432.936 1229.82 433.032L1229.73 432.232C1230.59 431.848 1230.94 431.56 1230.94 430.952C1230.94 430.216 1230.46 428.968 1229.41 426.024L1229.15 425.384H1221.34L1221.12 426.024C1220 428.968 1219.81 430.184 1219.81 430.92C1219.81 431.528 1220.09 431.88 1221.02 432.232L1220.93 433.032C1219.68 432.936 1219.04 432.936 1218.24 432.936C1217.44 432.936 1216.99 432.936 1215.87 433.032L1215.77 432.232C1216.83 431.688 1217.37 431.016 1217.98 429.608C1218.46 428.552 1219.04 427.048 1219.42 426.024L1225.6 410.024ZM1225.37 414.952L1221.89 424.008H1228.67L1225.37 414.952Z" fill="#E8E4DF"/>
<path d="M1241.74 432.904C1241.74 435.624 1240.08 437.416 1237.2 437.96L1236.97 437.128C1239.18 436.328 1239.95 435.368 1239.95 434.184C1239.95 433.672 1239.66 433.224 1238.96 432.936C1238.19 432.616 1237.52 432.04 1237.52 431.176C1237.52 430.312 1238.19 429.608 1239.21 429.608C1240.46 429.608 1241.74 430.984 1241.74 432.904Z" fill="#E8E4DF"/>
<path d="M1254.89 417.512V426.024C1254.89 427.144 1254.96 428.552 1254.99 429.608C1255.05 431.112 1255.31 431.688 1256.62 432.232L1256.52 433.032C1255.28 432.936 1254.44 432.936 1253.64 432.936C1252.84 432.936 1251.98 432.936 1250.73 433.032L1250.64 432.232C1251.92 431.72 1252.14 431.016 1252.24 429.608C1252.33 428.552 1252.33 427.144 1252.33 426.024V417.512C1252.33 416.392 1252.33 414.984 1252.24 413.928C1252.14 412.52 1251.92 411.816 1250.64 411.304L1250.73 410.504C1251.98 410.6 1252.84 410.6 1253.64 410.6C1254.44 410.6 1255.28 410.6 1256.52 410.504L1256.62 411.304C1255.31 411.848 1255.05 412.424 1254.99 413.928C1254.96 414.984 1254.89 416.392 1254.89 417.512Z" fill="#E8E4DF"/>
<path d="M1261.17 410.6H1272.72C1274.03 410.6 1275.09 410.6 1276.34 410.504C1276.4 412.04 1276.43 413.608 1276.43 415.176L1275.51 415.24C1275.15 414.056 1274.83 413.384 1274.35 412.872C1273.87 412.36 1273.14 412.104 1272.53 412.008C1271.73 411.88 1271.03 411.848 1270 411.848C1268.5 411.848 1268.31 412.104 1268.21 413.384C1268.11 414.376 1268.11 415.528 1268.11 416.68V426.024C1268.11 427.144 1268.18 428.552 1268.21 429.608C1268.27 431.24 1268.63 431.752 1270.16 432.168L1270.07 433.032C1268.82 432.936 1267.67 432.936 1266.87 432.936C1266.07 432.936 1264.85 432.936 1263.6 433.032L1263.51 432.168C1265.04 431.752 1265.39 431.24 1265.46 429.608C1265.49 428.552 1265.55 427.144 1265.55 426.024V416.68C1265.55 415.528 1265.55 414.376 1265.46 413.384C1265.36 412.104 1265.17 411.848 1263.67 411.848C1262.64 411.848 1261.97 411.88 1261.17 412.008C1260.56 412.104 1259.83 412.36 1259.35 412.872C1258.87 413.384 1258.51 414.056 1258.16 415.24L1257.23 415.176C1257.33 413.608 1257.43 412.072 1257.55 410.504C1258.8 410.6 1259.86 410.6 1261.17 410.6Z" fill="#E8E4DF"/>
<path d="M1283.81 410.024H1284.42L1290.34 426.024C1290.72 427.048 1291.3 428.552 1291.78 429.608C1292.39 431.016 1292.93 431.688 1293.99 432.232L1293.89 433.032C1292.64 432.936 1292.07 432.936 1291.27 432.936C1290.47 432.936 1289.28 432.936 1288.03 433.032L1287.94 432.232C1288.8 431.848 1289.15 431.56 1289.15 430.952C1289.15 430.216 1288.67 428.968 1287.62 426.024L1287.36 425.384H1279.55L1279.33 426.024C1278.21 428.968 1278.02 430.184 1278.02 430.92C1278.02 431.528 1278.31 431.88 1279.23 432.232L1279.14 433.032C1277.89 432.936 1277.25 432.936 1276.45 432.936C1275.65 432.936 1275.2 432.936 1274.08 433.032L1273.99 432.232C1275.04 431.688 1275.59 431.016 1276.19 429.608C1276.67 428.552 1277.25 427.048 1277.63 426.024L1283.81 410.024ZM1283.59 414.952L1280.1 424.008H1286.88L1283.59 414.952Z" fill="#E8E4DF"/>
<path d="M1298.72 417.512V426.344C1298.72 427.464 1298.75 429.192 1298.82 429.832C1298.98 431.4 1299.42 431.688 1300.86 431.688C1302.24 431.688 1303.2 431.688 1304.13 431.528C1305.28 431.304 1305.89 430.792 1306.37 430.056C1306.78 429.448 1307.14 428.712 1307.55 427.464L1308.48 427.624C1308.32 429.672 1308.03 431.304 1307.68 433.096C1305.15 432.968 1302.34 432.936 1298.24 432.936C1296.67 432.936 1295.81 432.936 1294.56 433.032L1294.46 432.232C1295.74 431.72 1295.97 431.016 1296.06 429.608C1296.16 428.552 1296.16 427.144 1296.16 426.024V417.512C1296.16 416.392 1296.16 414.984 1296.06 413.928C1295.97 412.52 1295.74 411.816 1294.46 411.304L1294.56 410.504C1295.81 410.6 1296.67 410.6 1297.41 410.6C1298.21 410.6 1299.07 410.6 1300.32 410.504L1300.42 411.304C1299.14 411.816 1298.91 412.52 1298.82 413.928C1298.72 414.984 1298.72 416.392 1298.72 417.512Z" fill="#E8E4DF"/>
<path d="M1313.72 417.512V426.024C1313.72 427.144 1313.79 428.552 1313.82 429.608C1313.88 431.112 1314.14 431.688 1315.45 432.232L1315.36 433.032C1314.11 432.936 1313.28 432.936 1312.48 432.936C1311.68 432.936 1310.81 432.936 1309.56 433.032L1309.47 432.232C1310.75 431.72 1310.97 431.016 1311.07 429.608C1311.16 428.552 1311.16 427.144 1311.16 426.024V417.512C1311.16 416.392 1311.16 414.984 1311.07 413.928C1310.97 412.52 1310.75 411.816 1309.47 411.304L1309.56 410.504C1310.81 410.6 1311.68 410.6 1312.48 410.6C1313.28 410.6 1314.11 410.6 1315.36 410.504L1315.45 411.304C1314.14 411.848 1313.88 412.424 1313.82 413.928C1313.79 414.984 1313.72 416.392 1313.72 417.512Z" fill="#E8E4DF"/>
<path d="M1325.76 410.024H1326.37L1332.29 426.024C1332.68 427.048 1333.25 428.552 1333.73 429.608C1334.34 431.016 1334.88 431.688 1335.94 432.232L1335.84 433.032C1334.6 432.936 1334.02 432.936 1333.22 432.936C1332.42 432.936 1331.24 432.936 1329.99 433.032L1329.89 432.232C1330.76 431.848 1331.11 431.56 1331.11 430.952C1331.11 430.216 1330.63 428.968 1329.57 426.024L1329.32 425.384H1321.51L1321.28 426.024C1320.16 428.968 1319.97 430.184 1319.97 430.92C1319.97 431.528 1320.26 431.88 1321.19 432.232L1321.09 433.032C1319.84 432.936 1319.2 432.936 1318.4 432.936C1317.6 432.936 1317.16 432.936 1316.04 433.032L1315.94 432.232C1317 431.688 1317.54 431.016 1318.15 429.608C1318.63 428.552 1319.2 427.048 1319.59 426.024L1325.76 410.024ZM1325.54 414.952L1322.05 424.008H1328.84L1325.54 414.952Z" fill="#E8E4DF"/>
<path d="M1190.19 17.024V21.024C1190.19 22.144 1190.19 23.552 1190.26 24.608C1190.35 26.24 1190.71 26.752 1192.24 27.168L1192.15 28.032C1190.9 27.936 1189.75 27.936 1188.95 27.936C1188.15 27.936 1187.28 27.936 1186.03 28.032L1185.94 27.232C1187.22 26.72 1187.44 26.016 1187.54 24.608C1187.63 23.552 1187.63 22.144 1187.63 21.024V12.512C1187.63 11.392 1187.63 9.984 1187.54 8.928C1187.44 7.52 1187.22 6.816 1185.94 6.304L1186.03 5.504C1187.28 5.6 1188.15 5.6 1188.95 5.6H1194.83C1196.15 5.6 1197.14 5.6 1198.39 5.504C1198.61 7.136 1198.74 8.32 1198.83 10.08L1197.91 10.24C1197.49 9.056 1197.14 8.384 1196.66 7.872C1196.18 7.36 1195.44 7.104 1194.83 7.008C1194.03 6.88 1193.11 6.848 1192.08 6.848C1190.58 6.848 1190.32 7.104 1190.26 8.384C1190.19 9.44 1190.19 10.688 1190.19 11.84V15.776C1191.31 15.776 1192.91 15.744 1193.97 15.616C1195.41 15.456 1195.86 14.944 1196.34 13.472L1197.14 13.632C1197.04 14.88 1197.04 15.584 1197.04 16.384C1197.04 17.184 1197.04 17.92 1197.14 19.168L1196.34 19.328C1195.86 17.856 1195.41 17.344 1193.97 17.184C1192.91 17.056 1191.31 17.024 1190.19 17.024Z" fill="#E8E4DF"/>
<path d="M1204.54 12.512V21.344C1204.54 22.464 1204.58 24.192 1204.64 24.832C1204.8 26.4 1205.25 26.688 1206.69 26.688C1208.06 26.688 1209.02 26.688 1209.95 26.528C1211.1 26.304 1211.71 25.792 1212.19 25.056C1212.61 24.448 1212.96 23.712 1213.38 22.464L1214.3 22.624C1214.14 24.672 1213.86 26.304 1213.5 28.096C1210.98 27.968 1208.16 27.936 1204.06 27.936C1202.5 27.936 1201.63 27.936 1200.38 28.032L1200.29 27.232C1201.57 26.72 1201.79 26.016 1201.89 24.608C1201.98 23.552 1201.98 22.144 1201.98 21.024V12.512C1201.98 11.392 1201.98 9.984 1201.89 8.928C1201.79 7.52 1201.57 6.816 1200.29 6.304L1200.38 5.504C1201.63 5.6 1202.5 5.6 1203.23 5.6C1204.03 5.6 1204.9 5.6 1206.14 5.504L1206.24 6.304C1204.96 6.816 1204.74 7.52 1204.64 8.928C1204.54 9.984 1204.54 11.392 1204.54 12.512Z" fill="#E8E4DF"/>
<path d="M1215.23 16.8C1215.23 9.984 1220.41 5.088 1226.81 5.088C1233.56 5.088 1238.49 10.144 1238.49 16.8C1238.49 23.552 1233.37 28.512 1227.1 28.512C1220.16 28.512 1215.23 23.744 1215.23 16.8ZM1226.33 6.688C1221.88 6.688 1218.24 10.144 1218.24 16.384C1218.24 22.88 1222.52 26.944 1227.52 26.944C1232.16 26.944 1235.48 22.976 1235.48 17.184C1235.48 11.008 1231.36 6.688 1226.33 6.688Z" fill="#E8E4DF"/>
<path d="M1246.54 17.472C1246.02 17.472 1245.03 17.44 1244.65 17.344V21.024C1244.65 22.144 1244.65 23.552 1244.71 24.608C1244.81 26.112 1245.06 26.688 1246.38 27.232L1246.28 28.032C1245.03 27.936 1244.2 27.936 1243.4 27.936C1242.6 27.936 1241.74 27.936 1240.49 28.032L1240.39 27.232C1241.67 26.72 1241.9 26.016 1241.99 24.608C1242.09 23.552 1242.09 22.144 1242.09 21.024V12.512C1242.09 11.392 1242.09 9.984 1241.99 8.928C1241.9 7.52 1241.67 6.816 1240.39 6.304L1240.49 5.504C1241.74 5.6 1242.6 5.6 1243.4 5.6C1244.65 5.6 1245.77 5.536 1247.34 5.536C1251.69 5.536 1254.12 8.224 1254.12 11.232C1254.12 13.824 1252.81 15.776 1250.5 16.768C1252.2 19.904 1253.61 22.368 1255.91 25.28C1256.78 26.336 1257.96 27.328 1258.86 27.584V28.256C1258.34 28.48 1257.7 28.512 1257.22 28.512C1255.85 28.512 1254.57 27.776 1253.19 25.856C1251.3 23.296 1249.99 20.992 1248.3 17.344C1247.82 17.44 1247.21 17.472 1246.54 17.472ZM1246.54 6.784C1245.03 6.784 1244.84 7.104 1244.74 8.384C1244.65 9.376 1244.65 10.528 1244.65 11.68V16.16C1244.9 16.192 1245.13 16.192 1246.12 16.192C1249.67 16.192 1251.4 14.4 1251.4 11.552C1251.4 8.608 1249.74 6.784 1246.54 6.784Z" fill="#E8E4DF"/>
<path d="M1263.11 27.936C1261.54 27.936 1260.68 27.936 1259.43 28.032L1259.33 27.232C1260.61 26.72 1260.84 26.016 1260.93 24.608C1261.03 23.552 1261.03 22.144 1261.03 21.024V12.512C1261.03 11.392 1261.03 9.984 1260.93 8.928C1260.84 7.52 1260.61 6.816 1259.33 6.304L1259.43 5.504C1260.68 5.6 1261.54 5.6 1262.34 5.6H1268.23C1269.54 5.6 1270.53 5.6 1271.78 5.504C1272.01 7.136 1272.13 8.32 1272.23 10.08L1271.3 10.24C1270.89 9.056 1270.53 8.384 1270.05 7.872C1269.57 7.36 1268.84 7.104 1268.23 7.008C1267.43 6.88 1266.73 6.848 1265.48 6.848C1263.97 6.848 1263.78 7.104 1263.69 8.384C1263.59 9.376 1263.59 10.528 1263.59 11.68V15.776C1264.68 15.776 1266.92 15.712 1267.94 15.616C1269.38 15.456 1269.83 14.944 1270.31 13.472L1271.08 13.632C1270.98 14.88 1270.98 15.584 1270.98 16.384C1270.98 17.184 1270.98 17.92 1271.08 19.168L1270.31 19.328C1269.83 17.856 1269.38 17.376 1267.94 17.184C1266.92 17.056 1264.65 17.024 1263.59 17.024V21.344C1263.59 22.464 1263.65 24.192 1263.69 24.832C1263.75 26.4 1264.29 26.688 1265.73 26.688C1267.11 26.688 1268.26 26.656 1269.13 26.528C1270.25 26.368 1270.76 25.92 1271.24 25.248C1271.62 24.64 1271.94 23.968 1272.36 22.784L1273.22 22.944C1273.06 24.864 1272.81 26.432 1272.45 28.096C1270.12 27.968 1267.21 27.936 1263.11 27.936Z" fill="#E8E4DF"/>
<path d="M1295.18 28.256L1294.41 28.512L1278.64 9.472V21.056C1278.64 22.176 1278.64 23.584 1278.73 24.64C1278.86 26.144 1279.15 26.72 1280.46 27.264L1280.37 28.064C1279.37 28 1278.51 27.968 1277.77 27.968C1277.01 27.968 1276.24 27.968 1275.25 28.064L1275.15 27.264C1276.46 26.72 1276.72 26.144 1276.85 24.64C1276.94 23.584 1276.94 22.176 1276.94 21.056V12.512C1276.94 11.392 1276.94 10.176 1276.85 9.12C1276.72 7.616 1276.3 6.848 1274.99 6.304L1275.09 5.504C1276.08 5.568 1277.33 5.6 1278.83 5.6L1293.36 23.04V12.512C1293.36 11.392 1293.36 9.984 1293.26 8.928C1293.13 7.424 1292.85 6.848 1291.53 6.304L1291.63 5.504C1292.62 5.568 1293.49 5.6 1294.22 5.6C1294.99 5.6 1295.76 5.6 1296.75 5.504L1296.85 6.304C1295.53 6.848 1295.28 7.424 1295.15 8.928C1295.05 9.984 1295.05 11.392 1295.05 12.512V23.008C1295.05 24.544 1295.09 26.592 1295.18 28.256Z" fill="#E8E4DF"/>
<path d="M1311.36 27.072C1314.02 27.072 1315.36 26.144 1316.48 24.128C1316.96 23.264 1317.22 22.4 1317.6 21.28L1318.56 21.44C1318.4 23.392 1318.24 24.928 1317.89 26.816C1315.94 27.968 1313.54 28.512 1310.94 28.512C1304.74 28.512 1298.5 24.512 1298.5 16.736C1298.5 9.696 1304.16 5.088 1310.91 5.088C1313.63 5.088 1315.84 5.632 1317.98 6.688C1318.02 7.552 1318.05 8.288 1318.05 9.024C1318.05 9.76 1318.02 10.528 1317.98 11.424L1317.02 11.488C1316.74 10.304 1316.38 9.28 1315.65 8.416C1314.75 7.392 1313.28 6.56 1310.94 6.56C1305.31 6.56 1301.5 10.688 1301.5 16.704C1301.5 23.232 1306.4 27.072 1311.36 27.072Z" fill="#E8E4DF"/>
<path d="M1324.34 27.936C1322.78 27.936 1321.91 27.936 1320.66 28.032L1320.57 27.232C1321.85 26.72 1322.07 26.016 1322.17 24.608C1322.26 23.552 1322.26 22.144 1322.26 21.024V12.512C1322.26 11.392 1322.26 9.984 1322.17 8.928C1322.07 7.52 1321.85 6.816 1320.57 6.304L1320.66 5.504C1321.91 5.6 1322.78 5.6 1323.58 5.6H1329.46C1330.78 5.6 1331.77 5.6 1333.02 5.504C1333.24 7.136 1333.37 8.32 1333.46 10.08L1332.54 10.24C1332.12 9.056 1331.77 8.384 1331.29 7.872C1330.81 7.36 1330.07 7.104 1329.46 7.008C1328.66 6.88 1327.96 6.848 1326.71 6.848C1325.21 6.848 1325.02 7.104 1324.92 8.384C1324.82 9.376 1324.82 10.528 1324.82 11.68V15.776C1325.91 15.776 1328.15 15.712 1329.18 15.616C1330.62 15.456 1331.06 14.944 1331.54 13.472L1332.31 13.632C1332.22 14.88 1332.22 15.584 1332.22 16.384C1332.22 17.184 1332.22 17.92 1332.31 19.168L1331.54 19.328C1331.06 17.856 1330.62 17.376 1329.18 17.184C1328.15 17.056 1325.88 17.024 1324.82 17.024V21.344C1324.82 22.464 1324.89 24.192 1324.92 24.832C1324.98 26.4 1325.53 26.688 1326.97 26.688C1328.34 26.688 1329.5 26.656 1330.36 26.528C1331.48 26.368 1331.99 25.92 1332.47 25.248C1332.86 24.64 1333.18 23.968 1333.59 22.784L1334.46 22.944C1334.3 24.864 1334.04 26.432 1333.69 28.096C1331.35 27.968 1328.44 27.936 1324.34 27.936Z" fill="#E8E4DF"/>
</svg>
