<svg width="82" height="52" viewBox="0 0 82 52" fill="none" xmlns="http://www.w3.org/2000/svg">
<path d="M4.08597 0.507679V20.0533H15.1403V23.0994H0.696832V0.507679H4.08597Z" fill="#E8E4DF"/>
<path d="M37.5109 23.0994H33.9317L31.7145 17.2293H21.5788L19.3933 23.0994H15.8774L24.6828 0.507679H28.5788L37.5109 23.0994ZM23.1308 13.041L22.6557 14.2785H30.6059L30.1308 13.041C28.9905 10.2488 27.8186 7.17096 26.615 3.77586C25.158 7.67863 23.986 10.7564 23.1308 13.041Z" fill="#E8E4DF"/>
<path d="M47.3222 23.607C44.3448 23.607 42.001 22.9407 40.3539 21.5763C38.7068 20.2437 37.8516 18.2447 37.8516 15.6428H41.2408C41.3041 19.0379 43.3313 20.7196 47.3856 20.7196C49.0326 20.7196 50.3313 20.4023 51.2181 19.7677C52.105 19.1331 52.5801 18.1812 52.5801 16.9438C52.5801 15.9601 52.2 15.1986 51.4715 14.6592C50.7114 14.1198 49.381 13.6439 47.4806 13.1996L45.5485 12.7871C43.2046 12.3429 41.4625 11.5814 40.2906 10.5026C39.0869 9.45551 38.5168 7.99593 38.5168 6.12387C38.5168 4.28353 39.2136 2.79223 40.6706 1.68169C42.096 0.571138 44.0281 0 46.4987 0C49.4444 0 51.6616 0.634599 53.1503 1.90379C54.639 3.17299 55.3991 4.91813 55.4625 7.13923H52.105C51.9783 5.67965 51.5032 4.63256 50.648 3.93451C49.7928 3.23645 48.4308 2.88742 46.5304 2.88742C45.0417 2.88742 43.9014 3.17299 43.1412 3.7124C42.3494 4.28353 41.9693 5.04505 41.9693 6.06041C41.9693 7.1075 42.3177 7.90074 43.0145 8.40842C43.7114 8.97956 44.9783 9.48724 46.8788 9.868L48.8426 10.2805C51.4082 10.8516 53.2453 11.6449 54.3856 12.6602C55.5258 13.7073 56.096 15.1034 56.096 16.8486C56.096 18.9427 55.3041 20.5927 53.7521 21.7984C52.2 23.0042 50.0462 23.607 47.3222 23.607Z" fill="#E8E4DF"/>
<path d="M56.0012 0.507679H74.4039V3.55375H66.9288V23.0994H63.4763V3.55375H56.0012V0.507679Z" fill="#E8E4DF"/>
<path d="M11.5611 52C4.97285 52 0 46.7963 0 39.9426C0 33.089 4.97285 27.8218 11.5611 27.8218C18.1493 27.8218 23.1538 33.089 23.1538 39.9426C23.1538 46.7963 18.1493 52 11.5611 52ZM11.5611 51.3654C17.4208 51.3654 21.0633 46.5107 21.0633 39.9426C21.0633 33.4063 17.4208 28.4564 11.5611 28.4564C5.70135 28.4564 2.0905 33.4063 2.0905 39.9426C2.0905 46.479 5.70135 51.3654 11.5611 51.3654Z" fill="#E8E4DF"/>
<path d="M43.9494 51.6192L27.9223 31.4708L28.049 47.1453C28.049 49.1126 28.4291 49.9376 30.2662 51.4606V51.5241H25.7368V51.4606C27.0671 49.9376 27.3205 49.1126 27.3205 47.1453V30.7727C26.592 29.7256 25.7051 28.8055 24.7865 28.3612V28.2978H27.6055L43.601 48.4145L43.506 32.6765C43.4743 30.7092 43.1892 29.8843 41.6055 28.3612V28.2978H45.8182V28.3612C44.4879 29.8843 44.2345 30.6775 44.2345 32.6765V51.5241L43.9494 51.6192Z" fill="#E8E4DF"/>
<path d="M65.1338 46.3838L63.7084 51.5241H48.7265V51.4606C49.55 50.1597 49.9618 49.2712 49.9618 47.8751V31.9467C49.9618 30.5189 49.55 29.6622 48.7265 28.3612V28.2978H62.1247L63.36 32.8986L63.1066 32.9938C61.6496 30.9948 60.446 29.091 59.4957 29.0276L51.7039 28.8372V39.5302H56.8034C57.6586 39.5302 58.4188 37.8167 59.0523 36.8331H59.3057V42.7031H59.0523C58.4505 41.8464 57.6586 40.1648 56.8034 40.1648H51.7039V50.9846L59.7175 50.7625C61.7446 50.6991 63.1699 48.9222 64.8804 46.2886L65.1338 46.3838Z" fill="#E8E4DF"/>
<path d="M79.7828 28.7737L80.4163 33.1842L80.1629 33.2794C78.8643 29.5035 76.7104 28.4564 74.1448 28.4564C70.5973 28.4564 69.172 30.5506 69.172 32.7082C69.172 36.1033 72.276 37.1504 75.4434 38.5148C78.7059 39.9109 82 41.4657 82 45.7175C82 50.2866 78.2308 52 74.0498 52C71.8326 52 69.6787 51.5241 67.9683 50.7943L67.3349 46.2886L67.5882 46.1934C69.0136 49.7789 71.0407 51.3654 74.6833 51.3654C78.4525 51.3654 80.3213 49.3982 80.3213 46.3521C80.3213 42.5445 77.3756 41.307 74.2715 39.9744C71.0724 38.61 67.8416 37.2773 67.8416 33.2794C67.8416 29.6939 70.5656 27.8218 74.6516 27.8218C76.6154 27.8218 78.4525 28.2343 79.7828 28.7737Z" fill="#E8E4DF"/>
</svg>
