<svg width="335" height="69" viewBox="0 0 335 69" fill="none" xmlns="http://www.w3.org/2000/svg">
<path d="M13.7815 50.7118C19.5539 50.7118 23.378 46.9851 23.378 41.9432C23.378 39.2395 22.44 36.9743 20.6362 35.1475C19.0488 33.5399 17.9665 32.4438 13.565 29.3018C7.35975 24.9175 5.98882 23.7483 4.04065 21.1908C2.23679 18.8525 1.51524 16.7334 1.51524 13.2991C1.51524 5.99188 7.57622 0.511504 15.9461 0.511504C20.4919 0.511504 24.0996 1.53451 27.7795 3.50745C27.8516 5.48038 27.9238 6.86874 27.9238 8.54939C27.9238 10.23 27.8516 11.7645 27.7795 13.7375L25.7591 13.8836C25.1097 11.3261 24.3882 9.20704 22.7286 7.2341C20.7805 4.96888 18.8323 3.8728 15.3689 3.8728C10.2459 3.8728 6.78252 7.08796 6.78252 12.0568C6.78252 14.3221 7.2876 16.1489 9.30792 18.2679C10.6789 19.6563 11.6169 20.4601 16.2348 23.7483C21.935 27.7673 23.6667 29.0095 25.687 31.3478C27.7073 33.7591 29.0782 37.2666 29.0782 40.5548C29.0782 48.7388 22.7286 54 13.2764 54C8.36992 54 4.9065 53.2693 1.44309 51.5886C0.64939 47.5697 0.432927 43.9161 0 39.751L2.23679 39.2395C3.03049 41.5778 3.67988 43.4777 4.76219 45.3045C6.85467 49.0311 8.94715 50.7118 13.7815 50.7118Z" fill="#E8E4DF"/>
<path d="M67.1995 47.862C67.1995 49.2503 67.921 50.2003 69.7249 51.0771L69.3641 52.9039C66.7665 52.7578 64.3133 52.6847 62.5094 52.6847C60.7056 52.6847 59.3346 52.7578 56.5206 52.9039L56.5928 51.0771C58.6131 50.2003 59.6232 49.5426 60.4169 48.1543C61.4271 46.4736 61.7879 43.6969 62.5094 37.5589L63.0145 33.2476H47.7178L44.9037 36.9012C38.3377 45.3775 37.6161 47.4235 37.6161 48.885C37.6161 49.908 37.9769 50.4195 39.7808 51.0771L39.4922 52.9039C36.8946 52.7578 35.8123 52.6847 34.0806 52.6847C32.2767 52.6847 31.1222 52.6847 27.8031 52.9039L27.731 51.0771C30.1842 49.6888 31.3387 48.8119 40.5023 36.9012L69.0033 0L72.106 0.657646L68.0653 36.9012C67.2716 43.843 67.1995 46.3275 67.1995 47.862ZM65.6842 9.79161L50.0989 30.1055H63.3753L65.6842 9.79161Z" fill="#E8E4DF"/>
<path d="M121.003 53.4154L119.271 54L83.6992 10.5223V36.9743C83.6992 39.5318 83.6991 42.747 83.9156 45.1583C84.2042 48.5927 84.8536 49.908 87.812 51.1502L87.5955 52.977C85.3587 52.8309 83.4105 52.7578 81.751 52.7578C80.0193 52.7578 78.2876 52.7578 76.0508 52.977L75.8343 51.1502C78.7926 49.908 79.3699 48.5927 79.6585 45.1583C79.875 42.747 79.875 39.5318 79.875 36.9743V17.4641C79.875 14.9066 79.875 12.1299 79.6585 9.71854C79.3699 6.28417 78.4319 4.53045 75.4735 3.28823L75.69 1.46144C77.9268 1.60758 80.7408 1.68065 84.1321 1.68065L116.89 41.5047V17.4641C116.89 14.9066 116.89 11.6915 116.674 9.28011C116.385 5.84574 115.736 4.53045 112.777 3.28823L112.994 1.46144C115.231 1.60758 117.179 1.68065 118.838 1.68065C120.57 1.68065 122.302 1.68065 124.539 1.46144L124.755 3.28823C121.797 4.53045 121.219 5.84574 120.931 9.28011C120.714 11.6915 120.714 14.9066 120.714 17.4641V41.4317C120.714 44.9391 120.787 49.6157 121.003 53.4154Z" fill="#E8E4DF"/>
<path d="M157.122 50.7118C163.111 50.7118 166.141 48.5927 168.667 43.9892C169.749 42.0162 170.326 40.0433 171.192 37.4858L173.357 37.8512C172.996 42.3085 172.635 45.816 171.841 50.1272C167.44 52.7578 162.028 54 156.184 54C142.186 54 128.116 44.866 128.116 27.1096C128.116 11.0338 140.887 0.511504 156.112 0.511504C162.245 0.511504 167.224 1.75372 172.058 4.16509C172.13 6.13802 172.202 7.81867 172.202 9.49932C172.202 11.18 172.13 12.9337 172.058 14.9797L169.893 15.1258C169.244 12.4222 168.45 10.0839 166.791 8.11096C164.77 5.77266 161.451 3.8728 156.184 3.8728C143.485 3.8728 134.898 13.2991 134.898 27.0365C134.898 41.9432 145.938 50.7118 157.122 50.7118Z" fill="#E8E4DF"/>
<path d="M183.365 1.68065H209.412C212.371 1.68065 214.752 1.68065 217.566 1.46144C217.71 4.96888 217.782 8.54939 217.782 12.1299L215.69 12.2761C214.896 9.5724 214.175 8.03789 213.092 6.86874C212.01 5.69959 210.35 5.11502 208.98 4.89581C207.176 4.60352 205.588 4.53045 203.279 4.53045C199.888 4.53045 199.455 5.11502 199.239 8.03789C199.022 10.3031 199.022 12.9337 199.022 15.5643V36.9012C199.022 39.4587 199.167 42.6739 199.239 45.0853C199.383 48.8119 200.177 49.9811 203.64 50.931L203.424 52.9039C200.61 52.6847 198.012 52.6847 196.208 52.6847C194.404 52.6847 191.662 52.6847 188.848 52.9039L188.632 50.931C192.095 49.9811 192.889 48.8119 193.033 45.0853C193.106 42.6739 193.25 39.4587 193.25 36.9012V15.5643C193.25 12.9337 193.25 10.3031 193.033 8.03789C192.817 5.11502 192.384 4.53045 188.993 4.53045C186.684 4.53045 185.169 4.60352 183.365 4.89581C181.994 5.11502 180.334 5.69959 179.252 6.86874C178.17 8.03789 177.376 9.5724 176.582 12.2761L174.49 12.1299C174.706 8.54939 174.923 5.04195 175.211 1.46144C178.025 1.68065 180.406 1.68065 183.365 1.68065Z" fill="#E8E4DF"/>
<path d="M258.716 17.4641V34.2706C258.716 45.7429 251.14 54 239.956 54C228.411 54 221.556 47.1313 221.556 35.3667V17.4641C221.556 14.9066 221.556 11.6915 221.34 9.28011C221.123 6.06495 220.618 4.45737 217.732 3.28823L217.949 1.46144C220.763 1.68065 222.711 1.68065 224.515 1.68065C226.319 1.68065 228.195 1.68065 231.009 1.46144L231.225 3.28823C228.267 4.53045 227.617 5.84574 227.545 9.28011C227.473 11.6915 227.329 14.9066 227.329 17.4641V35.2206C227.329 44.6468 232.235 49.9811 240.389 49.9811C249.047 49.9811 254.892 44.2084 254.892 33.3207V17.4641C254.892 14.9066 254.892 11.6915 254.675 9.28011C254.387 5.84574 253.737 4.53045 250.779 3.28823L250.995 1.46144C253.232 1.60758 255.18 1.68065 256.84 1.68065C258.572 1.68065 260.303 1.68065 262.54 1.46144L262.757 3.28823C259.798 4.53045 259.221 5.84574 258.932 9.28011C258.716 11.6915 258.716 14.9066 258.716 17.4641Z" fill="#E8E4DF"/>
<path d="M313.739 7.96482L294.474 54H292.958L273.621 9.5724L272.683 36.9743C272.611 38.6549 272.539 40.774 272.539 42.747C272.539 46.5467 272.683 49.9811 276.579 51.1502L276.363 52.977C274.126 52.8309 272.178 52.7578 270.446 52.7578C268.714 52.7578 266.983 52.7578 264.746 52.977L264.529 51.1502C267.488 49.908 268.137 48.5927 268.426 45.1583C268.642 42.747 268.642 39.5318 268.787 36.9743L269.652 17.4641C269.725 15.7835 269.725 14.6874 269.725 13.2991C269.725 9.20704 269.652 4.67659 265.251 3.28823L265.467 1.46144C269.508 1.68065 272.466 1.68065 276.724 1.68065L294.906 44.0622L312.007 1.68065C315.976 1.68065 320.449 1.68065 323.263 1.46144L323.48 3.28823C320.521 4.45737 319.944 5.99188 319.728 9.28011C319.655 11.0338 319.583 13.2991 319.583 15.3451C319.583 16.1488 319.728 16.8065 320.088 36.9743C320.161 39.5318 320.161 42.747 320.377 45.1583C320.377 48.5927 321.171 49.908 324.129 51.1502L323.913 52.977C321.099 52.7578 319.295 52.7578 317.491 52.7578C315.687 52.7578 313.739 52.7578 310.925 52.977L310.708 51.1502C314.388 50.2003 314.46 46.4005 314.46 42.8931C314.46 41.0663 314.46 38.8011 314.388 36.9743L313.739 7.96482Z" fill="#E8E4DF"/>
<path d="M324.692 0.636771H328.849V1.44314H327.248V5.38169H326.293V1.44314H324.692V0.636771Z" fill="#E8E4DF"/>
<path d="M332.788 2.89594L333.624 0.636771H335V5.38169H334.094V3.93555C334.094 3.04921 334.101 2.26284 334.122 1.58309C334.017 1.9163 333.891 2.28283 333.743 2.67602L332.732 5.38169H331.953L330.935 2.67602C330.752 2.18287 330.633 1.823 330.563 1.59642C330.577 2.27617 330.591 3.05588 330.591 3.93555V5.38169H329.678V0.636771H331.054L331.918 2.94259C331.974 3.10253 332.114 3.52904 332.346 4.22878C332.494 3.73563 332.641 3.29579 332.788 2.89594Z" fill="#E8E4DF"/>
<path d="M91.768 68.8596C91.5741 68.8596 91.3181 68.8674 91.0078 68.883L91 68.6879C91.3103 68.5553 91.3724 68.407 91.4577 68.0481C91.5198 67.7906 91.5819 67.4395 91.6284 67.1743L91.993 65.0988C92.1016 64.4824 92.156 64.2874 92.156 64.0143C92.156 63.8036 92.0784 63.6866 91.8224 63.5852L91.8611 63.3901C92.156 63.4057 92.3344 63.4135 92.5283 63.4135C92.7223 63.4135 92.9007 63.4057 93.211 63.3901L93.2188 63.5852C92.9085 63.7178 92.8464 63.8661 92.7611 64.225C92.699 64.4824 92.637 64.8336 92.5904 65.0988L92.2103 67.2523C92.1016 67.8531 92.0784 68.0325 92.0784 68.2432C92.0784 68.4772 92.2025 68.5553 92.5128 68.5553C92.8464 68.5553 93.0481 68.5553 93.2809 68.5163C93.5679 68.4694 93.7464 68.3446 93.9015 68.1573C94.0334 67.9935 94.142 67.7906 94.2972 67.4863L94.4989 67.5644C94.398 68.0559 94.2817 68.4694 94.142 68.8986C93.5446 68.8674 92.7533 68.8596 91.768 68.8596Z" fill="#E8E4DF"/>
<path d="M95.0567 68.1183C95.0567 68.368 95.1576 68.5007 95.3205 68.5007C95.5843 68.5007 96.1661 68.0013 96.5851 66.948C96.6937 66.6671 96.748 66.4954 96.8256 66.199C96.7325 65.9571 96.5851 65.801 96.4066 65.801C96.2049 65.801 95.9644 65.9415 95.7162 66.277C95.305 66.8231 95.0567 67.541 95.0567 68.1183ZM94.5602 68.2666C94.5602 67.6268 94.9636 66.6905 95.4757 66.0741C95.8248 65.6528 96.1972 65.3641 96.5463 65.3641C96.7945 65.3641 96.9419 65.4655 97.0738 65.6294L97.2523 65.3095C97.3609 65.3095 97.5238 65.3797 97.6091 65.4733C97.4385 65.9415 97.2911 66.3706 97.1359 66.8544C97.004 67.2757 96.8876 67.7126 96.8178 67.9623C96.7558 68.1886 96.7402 68.3056 96.7402 68.3758C96.7402 68.4304 96.7635 68.4538 96.8101 68.4538C96.9419 68.4538 97.1049 68.3368 97.4928 67.7906L97.6635 67.9077C97.2368 68.6801 96.8799 68.9688 96.5773 68.9688C96.3834 68.9688 96.2515 68.8518 96.2515 68.6177C96.2515 68.446 96.3213 68.1183 96.4377 67.7516C95.8946 68.6723 95.4989 69 95.1654 69C94.7774 69 94.5602 68.6957 94.5602 68.2666Z" fill="#E8E4DF"/>
<path d="M101.003 68.6489C101.623 68.6489 102.034 68.251 102.034 67.7126C102.034 67.4239 101.934 67.1821 101.74 66.987C101.569 66.8153 101.453 66.6983 100.979 66.3628C100.312 65.8947 100.165 65.7698 99.9552 65.4967C99.7613 65.2471 99.6837 65.0208 99.6837 64.6541C99.6837 63.8739 100.335 63.2887 101.235 63.2887C101.724 63.2887 102.112 63.3979 102.508 63.6086C102.515 63.8192 102.523 63.9675 102.523 64.1469C102.523 64.3264 102.515 64.4902 102.508 64.7009L102.29 64.7165C102.221 64.4434 102.143 64.2172 101.965 64.0065C101.755 63.7646 101.546 63.6476 101.173 63.6476C100.622 63.6476 100.25 63.9909 100.25 64.5215C100.25 64.7633 100.304 64.9584 100.522 65.1847C100.669 65.3329 100.77 65.4187 101.266 65.7698C101.879 66.199 102.065 66.3316 102.283 66.5813C102.5 66.8388 102.647 67.2133 102.647 67.5644C102.647 68.4382 101.965 69 100.948 69C100.421 69 100.048 68.922 99.6759 68.7425C99.5906 68.3134 99.5673 67.9233 99.5208 67.4785L99.7613 67.4239C99.8466 67.6736 99.9164 67.8765 100.033 68.0715C100.258 68.4694 100.483 68.6489 101.003 68.6489Z" fill="#E8E4DF"/>
<path d="M103.022 66.1443C103.022 64.4824 104.279 63.2887 105.831 63.2887C107.468 63.2887 108.662 64.5215 108.662 66.1443C108.662 67.7906 107.421 69 105.9 69C104.217 69 103.022 67.8375 103.022 66.1443ZM105.714 63.6788C104.636 63.6788 103.751 64.5215 103.751 66.0429C103.751 67.6268 104.791 68.6177 106.001 68.6177C107.126 68.6177 107.933 67.6502 107.933 66.238C107.933 64.7321 106.932 63.6788 105.714 63.6788Z" fill="#E8E4DF"/>
<path d="M113.374 65.0988V66.8934C113.374 68.1183 112.559 69 111.357 69C110.116 69 109.379 68.2666 109.379 67.0104V65.0988C109.379 64.8257 109.379 64.4824 109.355 64.225C109.332 63.8817 109.278 63.71 108.967 63.5852L108.991 63.3901C109.293 63.4135 109.503 63.4135 109.697 63.4135C109.891 63.4135 110.092 63.4135 110.395 63.3901L110.418 63.5852C110.1 63.7178 110.03 63.8583 110.023 64.225C110.015 64.4824 109.999 64.8257 109.999 65.0988V66.9948C109.999 68.0013 110.527 68.5709 111.404 68.5709C112.334 68.5709 112.963 67.9545 112.963 66.7919V65.0988C112.963 64.8257 112.963 64.4824 112.94 64.225C112.909 63.8583 112.839 63.7178 112.521 63.5852L112.544 63.3901C112.784 63.4057 112.994 63.4135 113.172 63.4135C113.359 63.4135 113.545 63.4135 113.785 63.3901L113.809 63.5852C113.49 63.7178 113.428 63.8583 113.397 64.225C113.374 64.4824 113.374 64.8257 113.374 65.0988Z" fill="#E8E4DF"/>
<path d="M115.574 66.3082C115.45 66.3082 115.209 66.3004 115.116 66.277V67.1743C115.116 67.4473 115.116 67.7906 115.132 68.0481C115.155 68.4148 115.217 68.5553 115.535 68.6879L115.512 68.883C115.209 68.8596 115.008 68.8596 114.814 68.8596C114.62 68.8596 114.41 68.8596 114.108 68.883L114.084 68.6879C114.395 68.5631 114.449 68.3914 114.472 68.0481C114.496 67.7906 114.496 67.4473 114.496 67.1743V65.0988C114.496 64.8257 114.496 64.4824 114.472 64.225C114.449 63.8817 114.395 63.71 114.084 63.5852L114.108 63.3901C114.41 63.4135 114.62 63.4135 114.814 63.4135C115.116 63.4135 115.388 63.3979 115.768 63.3979C116.823 63.3979 117.413 64.0533 117.413 64.7867C117.413 65.4187 117.095 65.8947 116.536 66.1365C116.947 66.9012 117.289 67.502 117.847 68.212C118.057 68.4694 118.344 68.7113 118.561 68.7737V68.9376C118.437 68.9922 118.282 69 118.165 69C117.832 69 117.521 68.8205 117.188 68.3524C116.73 67.7282 116.412 67.1664 116.001 66.277C115.884 66.3004 115.737 66.3082 115.574 66.3082ZM115.574 63.7022C115.209 63.7022 115.163 63.7802 115.14 64.0923C115.116 64.3342 115.116 64.6151 115.116 64.896V65.9883C115.178 65.9961 115.233 65.9961 115.473 65.9961C116.334 65.9961 116.753 65.5592 116.753 64.8648C116.753 64.1469 116.35 63.7022 115.574 63.7022Z" fill="#E8E4DF"/>
<path d="M121.491 68.6489C122.135 68.6489 122.461 68.4226 122.732 67.9311C122.849 67.7204 122.911 67.5098 123.004 67.2367L123.237 67.2757C123.198 67.7516 123.159 68.1261 123.074 68.5865C122.6 68.8674 122.019 69 121.39 69C119.885 69 118.372 68.0247 118.372 66.1287C118.372 64.4122 119.745 63.2887 121.382 63.2887C122.042 63.2887 122.577 63.4213 123.097 63.6788C123.105 63.8895 123.112 64.0689 123.112 64.2484C123.112 64.4278 123.105 64.6151 123.097 64.8336L122.864 64.8492C122.794 64.5605 122.709 64.3108 122.531 64.1001C122.313 63.8505 121.956 63.6476 121.39 63.6476C120.025 63.6476 119.101 64.6541 119.101 66.1209C119.101 67.7126 120.288 68.6489 121.491 68.6489Z" fill="#E8E4DF"/>
<path d="M124.6 68.8596C124.219 68.8596 124.01 68.8596 123.707 68.883L123.684 68.6879C123.995 68.5631 124.049 68.3914 124.072 68.0481C124.095 67.7906 124.095 67.4473 124.095 67.1743V65.0988C124.095 64.8257 124.095 64.4824 124.072 64.225C124.049 63.8817 123.995 63.71 123.684 63.5852L123.707 63.3901C124.01 63.4135 124.219 63.4135 124.413 63.4135H125.841C126.159 63.4135 126.4 63.4135 126.702 63.3901C126.756 63.788 126.787 64.0767 126.811 64.5059L126.586 64.5449C126.485 64.2562 126.4 64.0923 126.283 63.9675C126.167 63.8427 125.988 63.7802 125.841 63.7568C125.647 63.7256 125.476 63.7178 125.174 63.7178C124.809 63.7178 124.763 63.7802 124.739 64.0923C124.716 64.3342 124.716 64.6151 124.716 64.896V65.8947C124.98 65.8947 125.523 65.8791 125.771 65.8557C126.12 65.8166 126.229 65.6918 126.345 65.3329L126.531 65.3719C126.508 65.6762 126.508 65.8479 126.508 66.0429C126.508 66.238 126.508 66.4174 126.531 66.7217L126.345 66.7607C126.229 66.4018 126.12 66.2848 125.771 66.238C125.523 66.2068 124.972 66.199 124.716 66.199V67.2523C124.716 67.5254 124.732 67.9467 124.739 68.1027C124.755 68.485 124.887 68.5553 125.236 68.5553C125.569 68.5553 125.849 68.5475 126.058 68.5163C126.33 68.4772 126.454 68.368 126.57 68.2042C126.663 68.0559 126.741 67.8921 126.842 67.6034L127.051 67.6424C127.012 68.1105 126.95 68.4928 126.865 68.8986C126.299 68.8674 125.593 68.8596 124.6 68.8596Z" fill="#E8E4DF"/>
<path d="M132.15 64.4824L131.281 67.7594C131.165 68.1808 131.157 68.29 131.157 68.3212C131.157 68.368 131.181 68.407 131.243 68.407C131.328 68.407 131.576 68.2588 131.995 67.697L132.166 67.814C131.646 68.6723 131.274 68.9532 131.002 68.9532C130.808 68.9532 130.653 68.8283 130.653 68.6177C130.653 68.4304 130.692 68.212 130.847 67.6346C130.288 68.6957 129.846 69 129.505 69C129.063 69 128.853 68.6801 128.853 68.251C128.853 67.6112 129.272 66.6827 129.8 66.0663C130.157 65.645 130.568 65.3641 130.979 65.3641C131.119 65.3641 131.258 65.4031 131.375 65.4655L131.638 64.4824C131.724 64.1782 131.762 63.8739 131.762 63.7022C131.762 63.5306 131.677 63.4213 131.406 63.3433L131.421 63.1482C131.809 63.117 132.096 63.0858 132.445 63.0078L132.562 63.1326C132.383 63.6632 132.306 63.8973 132.15 64.4824ZM129.342 68.1027C129.342 68.3524 129.443 68.5007 129.644 68.5007C129.916 68.5007 130.521 68.0559 131.049 66.6671C131.134 66.4486 131.165 66.2926 131.235 65.9961C131.103 65.8713 130.963 65.8166 130.847 65.8166C130.575 65.8166 130.296 65.9493 130.04 66.277C129.613 66.8231 129.342 67.5488 129.342 68.1027Z" fill="#E8E4DF"/>
<path d="M133.609 63C133.896 63 134.121 63.2887 134.121 63.6398C134.121 64.3498 133.702 64.857 132.771 65.0364L132.716 64.8336C133.345 64.6463 133.632 64.3654 133.632 64.0221C133.632 63.9129 133.578 63.8192 133.461 63.7568C133.322 63.6788 133.197 63.5696 133.197 63.3823C133.197 63.1873 133.36 63 133.609 63Z" fill="#E8E4DF"/>
<path d="M134.92 68.8596C134.54 68.8596 134.33 68.8596 134.027 68.883L134.004 68.6879C134.315 68.5631 134.369 68.3914 134.392 68.0481C134.415 67.7906 134.415 67.4473 134.415 67.1743V65.0988C134.415 64.8257 134.415 64.4824 134.392 64.225C134.369 63.8817 134.315 63.71 134.004 63.5852L134.027 63.3901C134.33 63.4135 134.54 63.4135 134.733 63.4135H136.161C136.479 63.4135 136.72 63.4135 137.022 63.3901C137.076 63.788 137.107 64.0767 137.131 64.5059L136.906 64.5449C136.805 64.2562 136.72 64.0923 136.603 63.9675C136.487 63.8427 136.308 63.7802 136.161 63.7568C135.967 63.7256 135.796 63.7178 135.494 63.7178C135.129 63.7178 135.083 63.7802 135.059 64.0923C135.036 64.3342 135.036 64.6151 135.036 64.896V65.8947C135.3 65.8947 135.843 65.8791 136.091 65.8557C136.44 65.8166 136.549 65.6918 136.665 65.3329L136.851 65.3719C136.828 65.6762 136.828 65.8479 136.828 66.0429C136.828 66.238 136.828 66.4174 136.851 66.7217L136.665 66.7607C136.549 66.4018 136.44 66.2848 136.091 66.238C135.843 66.2068 135.292 66.199 135.036 66.199V67.2523C135.036 67.5254 135.052 67.9467 135.059 68.1027C135.075 68.485 135.207 68.5553 135.556 68.5553C135.889 68.5553 136.169 68.5475 136.378 68.5163C136.65 68.4772 136.774 68.368 136.89 68.2042C136.983 68.0559 137.061 67.8921 137.162 67.6034L137.371 67.6424C137.332 68.1105 137.27 68.4928 137.185 68.8986C136.619 68.8674 135.913 68.8596 134.92 68.8596Z" fill="#E8E4DF"/>
<path d="M138.964 63.8973C138.964 64.0767 139.22 64.4668 139.654 65.0988L140.019 65.645L140.383 65.091C140.81 64.4434 141.074 64.0845 141.074 63.9051C141.074 63.7568 141.027 63.671 140.802 63.5852L140.826 63.3901C141.128 63.4135 141.307 63.4135 141.501 63.4135C141.695 63.4135 141.819 63.4135 142.075 63.3901L142.098 63.5852C141.881 63.7178 141.702 63.8817 141.454 64.2172C141.252 64.4824 140.981 64.8726 140.818 65.0988L140.228 65.9571L141.043 67.1743C141.19 67.3849 141.446 67.7906 141.617 68.0481C141.834 68.3836 141.989 68.5397 142.214 68.6879L142.191 68.883C141.889 68.8596 141.749 68.8596 141.555 68.8596C141.361 68.8596 141.066 68.8596 140.764 68.883L140.74 68.6879C140.95 68.6021 141.035 68.5241 141.035 68.3758C141.035 68.2354 140.88 67.9701 140.422 67.3069L139.833 66.433L139.313 67.1743C138.84 67.8531 138.646 68.1886 138.646 68.368C138.646 68.5163 138.708 68.6021 138.933 68.6879L138.909 68.883C138.607 68.8674 138.359 68.8596 138.157 68.8596C137.963 68.8596 137.839 68.8596 137.583 68.883L137.56 68.6879C137.777 68.5553 137.916 68.3914 138.188 68.0559C138.397 67.7828 138.692 67.4005 138.855 67.1743L139.623 66.1209L138.94 65.0988C138.793 64.8804 138.545 64.4824 138.374 64.225C138.165 63.8895 138.01 63.7334 137.785 63.5852L137.808 63.3901C138.11 63.4135 138.25 63.4135 138.444 63.4135C138.638 63.4135 138.933 63.4135 139.235 63.3901L139.259 63.5852C139.049 63.671 138.964 63.749 138.964 63.8973Z" fill="#E8E4DF"/>
<path d="M145.335 68.6489C145.979 68.6489 146.305 68.4226 146.577 67.9311C146.693 67.7204 146.755 67.5098 146.848 67.2367L147.081 67.2757C147.042 67.7516 147.003 68.1261 146.918 68.5865C146.445 68.8674 145.863 69 145.235 69C143.73 69 142.217 68.0247 142.217 66.1287C142.217 64.4122 143.59 63.2887 145.227 63.2887C145.886 63.2887 146.422 63.4213 146.941 63.6788C146.949 63.8895 146.957 64.0689 146.957 64.2484C146.957 64.4278 146.949 64.6151 146.941 64.8336L146.709 64.8492C146.639 64.5605 146.554 64.3108 146.375 64.1001C146.158 63.8505 145.801 63.6476 145.235 63.6476C143.869 63.6476 142.946 64.6541 142.946 66.1209C142.946 67.7126 144.133 68.6489 145.335 68.6489Z" fill="#E8E4DF"/>
<path d="M148.444 68.8596C148.064 68.8596 147.855 68.8596 147.552 68.883L147.529 68.6879C147.839 68.5631 147.893 68.3914 147.917 68.0481C147.94 67.7906 147.94 67.4473 147.94 67.1743V65.0988C147.94 64.8257 147.94 64.4824 147.917 64.225C147.893 63.8817 147.839 63.71 147.529 63.5852L147.552 63.3901C147.855 63.4135 148.064 63.4135 148.258 63.4135H149.685C150.004 63.4135 150.244 63.4135 150.547 63.3901C150.601 63.788 150.632 64.0767 150.655 64.5059L150.43 64.5449C150.329 64.2562 150.244 64.0923 150.128 63.9675C150.011 63.8427 149.833 63.7802 149.685 63.7568C149.492 63.7256 149.321 63.7178 149.018 63.7178C148.654 63.7178 148.607 63.7802 148.584 64.0923C148.561 64.3342 148.561 64.6151 148.561 64.896V65.8947C148.824 65.8947 149.367 65.8791 149.616 65.8557C149.965 65.8166 150.073 65.6918 150.19 65.3329L150.376 65.3719C150.353 65.6762 150.353 65.8479 150.353 66.0429C150.353 66.238 150.353 66.4174 150.376 66.7217L150.19 66.7607C150.073 66.4018 149.965 66.2848 149.616 66.238C149.367 66.2068 148.817 66.199 148.561 66.199V67.2523C148.561 67.5254 148.576 67.9467 148.584 68.1027C148.599 68.485 148.731 68.5553 149.08 68.5553C149.414 68.5553 149.693 68.5475 149.903 68.5163C150.174 68.4772 150.298 68.368 150.415 68.2042C150.508 68.0559 150.585 67.8921 150.686 67.6034L150.896 67.6424C150.857 68.1105 150.795 68.4928 150.71 68.8986C150.143 68.8674 149.437 68.8596 148.444 68.8596Z" fill="#E8E4DF"/>
<path d="M152.364 65.0988V67.2523C152.364 67.5254 152.372 67.9467 152.387 68.1027C152.426 68.485 152.535 68.5553 152.884 68.5553C153.217 68.5553 153.45 68.5553 153.675 68.5163C153.955 68.4616 154.102 68.3368 154.218 68.1573C154.319 68.0091 154.404 67.8296 154.505 67.5254L154.73 67.5644C154.692 68.0637 154.622 68.4616 154.536 68.8986C153.923 68.8674 153.241 68.8596 152.248 68.8596C151.868 68.8596 151.658 68.8596 151.356 68.883L151.332 68.6879C151.643 68.5631 151.697 68.3914 151.72 68.0481C151.743 67.7906 151.743 67.4473 151.743 67.1743V65.0988C151.743 64.8257 151.743 64.4824 151.72 64.225C151.697 63.8817 151.643 63.71 151.332 63.5852L151.356 63.3901C151.658 63.4135 151.868 63.4135 152.046 63.4135C152.24 63.4135 152.449 63.4135 152.752 63.3901L152.775 63.5852C152.465 63.71 152.411 63.8817 152.387 64.225C152.364 64.4824 152.364 64.8257 152.364 65.0988Z" fill="#E8E4DF"/>
<path d="M155.963 65.0988V67.2523C155.963 67.5254 155.971 67.9467 155.986 68.1027C156.025 68.485 156.134 68.5553 156.483 68.5553C156.817 68.5553 157.049 68.5553 157.274 68.5163C157.554 68.4616 157.701 68.3368 157.817 68.1573C157.918 68.0091 158.003 67.8296 158.104 67.5254L158.329 67.5644C158.291 68.0637 158.221 68.4616 158.135 68.8986C157.522 68.8674 156.84 68.8596 155.847 68.8596C155.467 68.8596 155.257 68.8596 154.955 68.883L154.931 68.6879C155.242 68.5631 155.296 68.3914 155.319 68.0481C155.342 67.7906 155.342 67.4473 155.342 67.1743V65.0988C155.342 64.8257 155.342 64.4824 155.319 64.225C155.296 63.8817 155.242 63.71 154.931 63.5852L154.955 63.3901C155.257 63.4135 155.467 63.4135 155.645 63.4135C155.839 63.4135 156.048 63.4135 156.351 63.3901L156.374 63.5852C156.064 63.71 156.01 63.8817 155.986 64.225C155.963 64.4824 155.963 64.8257 155.963 65.0988Z" fill="#E8E4DF"/>
<path d="M159.446 68.8596C159.066 68.8596 158.856 68.8596 158.554 68.883L158.53 68.6879C158.841 68.5631 158.895 68.3914 158.918 68.0481C158.941 67.7906 158.941 67.4473 158.941 67.1743V65.0988C158.941 64.8257 158.941 64.4824 158.918 64.225C158.895 63.8817 158.841 63.71 158.53 63.5852L158.554 63.3901C158.856 63.4135 159.066 63.4135 159.26 63.4135H160.687C161.005 63.4135 161.246 63.4135 161.548 63.3901C161.603 63.788 161.634 64.0767 161.657 64.5059L161.432 64.5449C161.331 64.2562 161.246 64.0923 161.129 63.9675C161.013 63.8427 160.834 63.7802 160.687 63.7568C160.493 63.7256 160.322 63.7178 160.02 63.7178C159.655 63.7178 159.609 63.7802 159.585 64.0923C159.562 64.3342 159.562 64.6151 159.562 64.896V65.8947C159.826 65.8947 160.369 65.8791 160.617 65.8557C160.966 65.8166 161.075 65.6918 161.191 65.3329L161.378 65.3719C161.354 65.6762 161.354 65.8479 161.354 66.0429C161.354 66.238 161.354 66.4174 161.378 66.7217L161.191 66.7607C161.075 66.4018 160.966 66.2848 160.617 66.238C160.369 66.2068 159.818 66.199 159.562 66.199V67.2523C159.562 67.5254 159.578 67.9467 159.585 68.1027C159.601 68.485 159.733 68.5553 160.082 68.5553C160.416 68.5553 160.695 68.5475 160.904 68.5163C161.176 68.4772 161.3 68.368 161.416 68.2042C161.509 68.0559 161.587 67.8921 161.688 67.6034L161.897 67.6424C161.859 68.1105 161.796 68.4928 161.711 68.8986C161.145 68.8674 160.439 68.8596 159.446 68.8596Z" fill="#E8E4DF"/>
<path d="M167.183 68.9376L166.996 69L163.172 64.3576V67.1821C163.172 67.4551 163.172 67.7984 163.195 68.0559C163.226 68.4226 163.296 68.5631 163.614 68.6957L163.591 68.8908C163.35 68.8752 163.141 68.8674 162.962 68.8674C162.776 68.8674 162.59 68.8674 162.349 68.8908L162.326 68.6957C162.644 68.5631 162.706 68.4226 162.737 68.0559C162.761 67.7984 162.761 67.4551 162.761 67.1821V65.0988C162.761 64.8257 162.761 64.5293 162.737 64.2718C162.706 63.9051 162.605 63.7178 162.287 63.5852L162.311 63.3901C162.551 63.4057 162.854 63.4135 163.218 63.4135L166.74 67.6658V65.0988C166.74 64.8257 166.74 64.4824 166.717 64.225C166.686 63.8583 166.616 63.7178 166.298 63.5852L166.322 63.3901C166.562 63.4057 166.771 63.4135 166.95 63.4135C167.136 63.4135 167.322 63.4135 167.563 63.3901L167.586 63.5852C167.268 63.7178 167.206 63.8583 167.175 64.225C167.152 64.4824 167.152 64.8257 167.152 65.0988V67.658C167.152 68.0325 167.159 68.5319 167.183 68.9376Z" fill="#E8E4DF"/>
<path d="M171.066 68.6489C171.71 68.6489 172.036 68.4226 172.307 67.9311C172.424 67.7204 172.486 67.5098 172.579 67.2367L172.812 67.2757C172.773 67.7516 172.734 68.1261 172.649 68.5865C172.176 68.8674 171.594 69 170.965 69C169.46 69 167.947 68.0247 167.947 66.1287C167.947 64.4122 169.321 63.2887 170.958 63.2887C171.617 63.2887 172.152 63.4213 172.672 63.6788C172.68 63.8895 172.688 64.0689 172.688 64.2484C172.688 64.4278 172.68 64.6151 172.672 64.8336L172.439 64.8492C172.37 64.5605 172.284 64.3108 172.106 64.1001C171.889 63.8505 171.532 63.6476 170.965 63.6476C169.6 63.6476 168.677 64.6541 168.677 66.1209C168.677 67.7126 169.864 68.6489 171.066 68.6489Z" fill="#E8E4DF"/>
<path d="M174.175 68.8596C173.795 68.8596 173.585 68.8596 173.283 68.883L173.259 68.6879C173.57 68.5631 173.624 68.3914 173.647 68.0481C173.671 67.7906 173.671 67.4473 173.671 67.1743V65.0988C173.671 64.8257 173.671 64.4824 173.647 64.225C173.624 63.8817 173.57 63.71 173.259 63.5852L173.283 63.3901C173.585 63.4135 173.795 63.4135 173.989 63.4135H175.416C175.734 63.4135 175.975 63.4135 176.277 63.3901C176.332 63.788 176.363 64.0767 176.386 64.5059L176.161 64.5449C176.06 64.2562 175.975 64.0923 175.858 63.9675C175.742 63.8427 175.564 63.7802 175.416 63.7568C175.222 63.7256 175.052 63.7178 174.749 63.7178C174.384 63.7178 174.338 63.7802 174.315 64.0923C174.291 64.3342 174.291 64.6151 174.291 64.896V65.8947C174.555 65.8947 175.098 65.8791 175.346 65.8557C175.695 65.8166 175.804 65.6918 175.92 65.3329L176.107 65.3719C176.083 65.6762 176.083 65.8479 176.083 66.0429C176.083 66.238 176.083 66.4174 176.107 66.7217L175.92 66.7607C175.804 66.4018 175.695 66.2848 175.346 66.238C175.098 66.2068 174.547 66.199 174.291 66.199V67.2523C174.291 67.5254 174.307 67.9467 174.315 68.1027C174.33 68.485 174.462 68.5553 174.811 68.5553C175.145 68.5553 175.424 68.5475 175.633 68.5163C175.905 68.4772 176.029 68.368 176.145 68.2042C176.239 68.0559 176.316 67.8921 176.417 67.6034L176.626 67.6424C176.588 68.1105 176.526 68.4928 176.44 68.8986C175.874 68.8674 175.168 68.8596 174.175 68.8596Z" fill="#E8E4DF"/>
<path d="M180.911 65.8947C180.911 66.3784 180.477 67.0026 179.065 67.2601C179.003 67.4863 178.971 67.7126 178.971 67.9311C178.971 68.3524 179.119 68.4928 179.313 68.4928C179.6 68.4928 179.84 68.2744 180.259 67.6892L180.422 67.7906C180.089 68.5319 179.615 69 179.196 69C178.762 69 178.475 68.6879 178.475 68.1417C178.475 66.7841 179.53 65.3173 180.352 65.3173C180.756 65.3173 180.911 65.6216 180.911 65.8947ZM180.189 65.7152C179.802 65.7152 179.367 66.2926 179.134 67.0026C180.127 66.7373 180.407 66.3316 180.407 65.9805C180.407 65.8244 180.329 65.7152 180.189 65.7152Z" fill="#E8E4DF"/>
<path d="M181.011 65.5826L181.647 65.5514C181.717 65.2549 181.756 65.013 181.802 64.7867C181.872 64.7399 181.95 64.7165 182.043 64.7165C182.128 64.7165 182.237 64.7555 182.314 64.857L182.143 65.5124L182.834 65.4733L182.896 65.5982L182.795 65.8869H182.043L181.492 68.0247C181.453 68.1886 181.438 68.2822 181.438 68.3368C181.438 68.3992 181.476 68.446 181.546 68.446C181.662 68.446 181.856 68.3524 182.291 67.7438L182.462 67.8687C181.942 68.7503 181.647 68.9532 181.36 68.9532C181.119 68.9532 180.941 68.8127 180.941 68.5241C180.941 68.3368 180.98 68.1573 181.081 67.7672L181.554 65.8869H180.995L181.011 65.5826Z" fill="#E8E4DF"/>
<path d="M187.469 64.4824L186.6 67.7594C186.484 68.1808 186.476 68.29 186.476 68.3212C186.476 68.368 186.5 68.407 186.562 68.407C186.647 68.407 186.895 68.2588 187.314 67.697L187.485 67.814C186.965 68.6723 186.593 68.9532 186.321 68.9532C186.127 68.9532 185.972 68.8283 185.972 68.6177C185.972 68.4304 186.011 68.212 186.166 67.6346C185.607 68.6957 185.165 69 184.824 69C184.382 69 184.172 68.6801 184.172 68.251C184.172 67.6112 184.591 66.6827 185.119 66.0663C185.475 65.645 185.887 65.3641 186.298 65.3641C186.437 65.3641 186.577 65.4031 186.693 65.4655L186.957 64.4824C187.043 64.1782 187.081 63.8739 187.081 63.7022C187.081 63.5306 186.996 63.4213 186.725 63.3433L186.74 63.1482C187.128 63.117 187.415 63.0858 187.764 63.0078L187.88 63.1326C187.702 63.6632 187.624 63.8973 187.469 64.4824ZM184.661 68.1027C184.661 68.3524 184.762 68.5007 184.963 68.5007C185.235 68.5007 185.84 68.0559 186.368 66.6671C186.453 66.4486 186.484 66.2926 186.554 65.9961C186.422 65.8713 186.282 65.8166 186.166 65.8166C185.894 65.8166 185.615 65.9493 185.359 66.277C184.932 66.8231 184.661 67.5488 184.661 68.1027Z" fill="#E8E4DF"/>
<path d="M189.913 65.8947C189.913 66.3784 189.478 67.0026 188.066 67.2601C188.004 67.4863 187.973 67.7126 187.973 67.9311C187.973 68.3524 188.121 68.4928 188.315 68.4928C188.602 68.4928 188.842 68.2744 189.261 67.6892L189.424 67.7906C189.09 68.5319 188.617 69 188.198 69C187.764 69 187.477 68.6879 187.477 68.1417C187.477 66.7841 188.532 65.3173 189.354 65.3173C189.758 65.3173 189.913 65.6216 189.913 65.8947ZM189.191 65.7152C188.803 65.7152 188.369 66.2926 188.136 67.0026C189.129 66.7373 189.408 66.3316 189.408 65.9805C189.408 65.8244 189.331 65.7152 189.191 65.7152Z" fill="#E8E4DF"/>
<path d="M193.131 63.7022C192.767 63.7022 192.72 63.7802 192.697 64.0923C192.674 64.3342 192.674 64.6151 192.674 64.896V67.1743C192.674 67.4473 192.674 67.7906 192.689 68.0481C192.712 68.4148 192.774 68.5553 193.093 68.6879L193.069 68.883C192.767 68.8596 192.565 68.8596 192.371 68.8596C192.177 68.8596 191.968 68.8596 191.665 68.883L191.642 68.6879C191.952 68.5631 192.006 68.3914 192.03 68.0481C192.053 67.7906 192.053 67.4473 192.053 67.1743V65.0988C192.053 64.8257 192.053 64.4824 192.03 64.225C192.006 63.8817 191.952 63.71 191.642 63.5852L191.665 63.3901C191.968 63.4135 192.177 63.4135 192.371 63.4135C192.674 63.4135 192.968 63.3979 193.426 63.3979C194.38 63.3979 195.125 63.9753 195.125 64.8492C195.125 65.7854 194.38 66.3862 193.364 66.3862C193.248 66.3862 193.139 66.3706 193.046 66.3472L193.062 66.1053C194.016 66.1053 194.473 65.6372 194.473 64.8804C194.473 64.0767 193.93 63.7022 193.131 63.7022Z" fill="#E8E4DF"/>
<path d="M196.27 68.8596C195.89 68.8596 195.68 68.8596 195.378 68.883L195.354 68.6879C195.665 68.5631 195.719 68.3914 195.742 68.0481C195.766 67.7906 195.766 67.4473 195.766 67.1743V65.0988C195.766 64.8257 195.766 64.4824 195.742 64.225C195.719 63.8817 195.665 63.71 195.354 63.5852L195.378 63.3901C195.68 63.4135 195.89 63.4135 196.084 63.4135H197.511C197.829 63.4135 198.07 63.4135 198.372 63.3901C198.427 63.788 198.458 64.0767 198.481 64.5059L198.256 64.5449C198.155 64.2562 198.07 64.0923 197.953 63.9675C197.837 63.8427 197.659 63.7802 197.511 63.7568C197.317 63.7256 197.147 63.7178 196.844 63.7178C196.479 63.7178 196.433 63.7802 196.41 64.0923C196.386 64.3342 196.386 64.6151 196.386 64.896V65.8947C196.65 65.8947 197.193 65.8791 197.441 65.8557C197.79 65.8166 197.899 65.6918 198.015 65.3329L198.202 65.3719C198.178 65.6762 198.178 65.8479 198.178 66.0429C198.178 66.238 198.178 66.4174 198.202 66.7217L198.015 66.7607C197.899 66.4018 197.79 66.2848 197.441 66.238C197.193 66.2068 196.642 66.199 196.386 66.199V67.2523C196.386 67.5254 196.402 67.9467 196.41 68.1027C196.425 68.485 196.557 68.5553 196.906 68.5553C197.24 68.5553 197.519 68.5475 197.728 68.5163C198 68.4772 198.124 68.368 198.24 68.2042C198.334 68.0559 198.411 67.8921 198.512 67.6034L198.721 67.6424C198.683 68.1105 198.621 68.4928 198.535 68.8986C197.969 68.8674 197.263 68.8596 196.27 68.8596Z" fill="#E8E4DF"/>
<path d="M200.648 66.3082C200.523 66.3082 200.283 66.3004 200.19 66.277V67.1743C200.19 67.4473 200.19 67.7906 200.205 68.0481C200.229 68.4148 200.291 68.5553 200.609 68.6879L200.586 68.883C200.283 68.8596 200.081 68.8596 199.887 68.8596C199.693 68.8596 199.484 68.8596 199.181 68.883L199.158 68.6879C199.468 68.5631 199.523 68.3914 199.546 68.0481C199.569 67.7906 199.569 67.4473 199.569 67.1743V65.0988C199.569 64.8257 199.569 64.4824 199.546 64.225C199.523 63.8817 199.468 63.71 199.158 63.5852L199.181 63.3901C199.484 63.4135 199.693 63.4135 199.887 63.4135C200.19 63.4135 200.461 63.3979 200.842 63.3979C201.897 63.3979 202.486 64.0533 202.486 64.7867C202.486 65.4187 202.168 65.8947 201.61 66.1365C202.021 66.9012 202.362 67.502 202.921 68.212C203.13 68.4694 203.417 68.7113 203.634 68.7737V68.9376C203.51 68.9922 203.355 69 203.239 69C202.905 69 202.595 68.8205 202.261 68.3524C201.804 67.7282 201.485 67.1664 201.074 66.277C200.958 66.3004 200.81 66.3082 200.648 66.3082ZM200.648 63.7022C200.283 63.7022 200.236 63.7802 200.213 64.0923C200.19 64.3342 200.19 64.6151 200.19 64.896V65.9883C200.252 65.9961 200.306 65.9961 200.547 65.9961C201.408 65.9961 201.827 65.5592 201.827 64.8648C201.827 64.1469 201.423 63.7022 200.648 63.7022Z" fill="#E8E4DF"/>
<path d="M205.139 68.6489C205.76 68.6489 206.171 68.251 206.171 67.7126C206.171 67.4239 206.07 67.1821 205.876 66.987C205.705 66.8153 205.589 66.6983 205.116 66.3628C204.449 65.8947 204.301 65.7698 204.092 65.4967C203.898 65.2471 203.82 65.0208 203.82 64.6541C203.82 63.8739 204.472 63.2887 205.372 63.2887C205.861 63.2887 206.249 63.3979 206.644 63.6086C206.652 63.8192 206.66 63.9675 206.66 64.1469C206.66 64.3264 206.652 64.4902 206.644 64.7009L206.427 64.7165C206.357 64.4434 206.28 64.2172 206.101 64.0065C205.892 63.7646 205.682 63.6476 205.31 63.6476C204.759 63.6476 204.387 63.9909 204.387 64.5215C204.387 64.7633 204.441 64.9584 204.658 65.1847C204.806 65.3329 204.906 65.4187 205.403 65.7698C206.016 66.199 206.202 66.3316 206.419 66.5813C206.636 66.8388 206.784 67.2133 206.784 67.5644C206.784 68.4382 206.101 69 205.085 69C204.557 69 204.185 68.922 203.812 68.7425C203.727 68.3134 203.704 67.9233 203.657 67.4785L203.898 67.4239C203.983 67.6736 204.053 67.8765 204.169 68.0715C204.394 68.4694 204.619 68.6489 205.139 68.6489Z" fill="#E8E4DF"/>
<path d="M208.09 68.8596C207.71 68.8596 207.5 68.8596 207.198 68.883L207.174 68.6879C207.485 68.5631 207.539 68.3914 207.562 68.0481C207.585 67.7906 207.585 67.4473 207.585 67.1743V65.0988C207.585 64.8257 207.585 64.4824 207.562 64.225C207.539 63.8817 207.485 63.71 207.174 63.5852L207.198 63.3901C207.5 63.4135 207.71 63.4135 207.904 63.4135H209.331C209.649 63.4135 209.89 63.4135 210.192 63.3901C210.246 63.788 210.278 64.0767 210.301 64.5059L210.076 64.5449C209.975 64.2562 209.89 64.0923 209.773 63.9675C209.657 63.8427 209.478 63.7802 209.331 63.7568C209.137 63.7256 208.966 63.7178 208.664 63.7178C208.299 63.7178 208.253 63.7802 208.229 64.0923C208.206 64.3342 208.206 64.6151 208.206 64.896V65.8947C208.47 65.8947 209.013 65.8791 209.261 65.8557C209.61 65.8166 209.719 65.6918 209.835 65.3329L210.021 65.3719C209.998 65.6762 209.998 65.8479 209.998 66.0429C209.998 66.238 209.998 66.4174 210.021 66.7217L209.835 66.7607C209.719 66.4018 209.61 66.2848 209.261 66.238C209.013 66.2068 208.462 66.199 208.206 66.199V67.2523C208.206 67.5254 208.222 67.9467 208.229 68.1027C208.245 68.485 208.377 68.5553 208.726 68.5553C209.059 68.5553 209.339 68.5475 209.548 68.5163C209.82 68.4772 209.944 68.368 210.06 68.2042C210.153 68.0559 210.231 67.8921 210.332 67.6034L210.541 67.6424C210.502 68.1105 210.44 68.4928 210.355 68.8986C209.789 68.8674 209.083 68.8596 208.09 68.8596Z" fill="#E8E4DF"/>
<path d="M213.049 69H212.894L211.49 65.0988C211.397 64.8492 211.265 64.4824 211.149 64.225C211.001 63.8817 210.877 63.7178 210.621 63.5852L210.644 63.3901C210.947 63.4135 211.086 63.4135 211.28 63.4135C211.474 63.4135 211.761 63.4135 212.064 63.3901L212.087 63.5852C211.878 63.6788 211.8 63.749 211.8 63.8973C211.8 64.0767 211.901 64.381 212.149 65.0988L213.096 67.7984L214.089 65.0988C214.353 64.381 214.407 64.0923 214.407 63.9051C214.407 63.7568 214.337 63.671 214.112 63.5852L214.135 63.3901C214.438 63.4135 214.601 63.4135 214.795 63.4135C214.989 63.4135 215.113 63.4135 215.369 63.3901L215.392 63.5852C215.136 63.7178 215.004 63.8817 214.857 64.225C214.741 64.4824 214.601 64.8492 214.508 65.0988L213.049 69Z" fill="#E8E4DF"/>
<path d="M216.386 68.8596C216.006 68.8596 215.797 68.8596 215.494 68.883L215.471 68.6879C215.781 68.5631 215.835 68.3914 215.859 68.0481C215.882 67.7906 215.882 67.4473 215.882 67.1743V65.0988C215.882 64.8257 215.882 64.4824 215.859 64.225C215.835 63.8817 215.781 63.71 215.471 63.5852L215.494 63.3901C215.797 63.4135 216.006 63.4135 216.2 63.4135H217.628C217.946 63.4135 218.186 63.4135 218.489 63.3901C218.543 63.788 218.574 64.0767 218.597 64.5059L218.372 64.5449C218.272 64.2562 218.186 64.0923 218.07 63.9675C217.953 63.8427 217.775 63.7802 217.628 63.7568C217.434 63.7256 217.263 63.7178 216.96 63.7178C216.596 63.7178 216.549 63.7802 216.526 64.0923C216.503 64.3342 216.503 64.6151 216.503 64.896V65.8947C216.766 65.8947 217.31 65.8791 217.558 65.8557C217.907 65.8166 218.016 65.6918 218.132 65.3329L218.318 65.3719C218.295 65.6762 218.295 65.8479 218.295 66.0429C218.295 66.238 218.295 66.4174 218.318 66.7217L218.132 66.7607C218.016 66.4018 217.907 66.2848 217.558 66.238C217.31 66.2068 216.759 66.199 216.503 66.199V67.2523C216.503 67.5254 216.518 67.9467 216.526 68.1027C216.541 68.485 216.673 68.5553 217.022 68.5553C217.356 68.5553 217.635 68.5475 217.845 68.5163C218.116 68.4772 218.241 68.368 218.357 68.2042C218.45 68.0559 218.528 67.8921 218.628 67.6034L218.838 67.6424C218.799 68.1105 218.737 68.4928 218.652 68.8986C218.085 68.8674 217.379 68.8596 216.386 68.8596Z" fill="#E8E4DF"/>
<path d="M220.764 66.3082C220.64 66.3082 220.399 66.3004 220.306 66.277V67.1743C220.306 67.4473 220.306 67.7906 220.322 68.0481C220.345 68.4148 220.407 68.5553 220.725 68.6879L220.702 68.883C220.399 68.8596 220.198 68.8596 220.004 68.8596C219.81 68.8596 219.6 68.8596 219.298 68.883L219.274 68.6879C219.585 68.5631 219.639 68.3914 219.662 68.0481C219.686 67.7906 219.686 67.4473 219.686 67.1743V65.0988C219.686 64.8257 219.686 64.4824 219.662 64.225C219.639 63.8817 219.585 63.71 219.274 63.5852L219.298 63.3901C219.6 63.4135 219.81 63.4135 220.004 63.4135C220.306 63.4135 220.578 63.3979 220.958 63.3979C222.013 63.3979 222.603 64.0533 222.603 64.7867C222.603 65.4187 222.285 65.8947 221.726 66.1365C222.137 66.9012 222.479 67.502 223.037 68.212C223.247 68.4694 223.534 68.7113 223.751 68.7737V68.9376C223.627 68.9922 223.472 69 223.355 69C223.022 69 222.711 68.8205 222.378 68.3524C221.92 67.7282 221.602 67.1664 221.191 66.277C221.074 66.3004 220.927 66.3082 220.764 66.3082ZM220.764 63.7022C220.399 63.7022 220.353 63.7802 220.33 64.0923C220.306 64.3342 220.306 64.6151 220.306 64.896V65.9883C220.368 65.9961 220.423 65.9961 220.663 65.9961C221.524 65.9961 221.943 65.5592 221.943 64.8648C221.943 64.1469 221.54 63.7022 220.764 63.7022Z" fill="#E8E4DF"/>
<path d="M226.164 63.2731H226.311L227.746 67.1743C227.839 67.4239 227.979 67.7906 228.095 68.0481C228.243 68.3914 228.375 68.5553 228.631 68.6879L228.607 68.883C228.305 68.8596 228.165 68.8596 227.971 68.8596C227.777 68.8596 227.49 68.8596 227.188 68.883L227.164 68.6879C227.374 68.5943 227.459 68.5241 227.459 68.3758C227.459 68.1964 227.343 67.8921 227.087 67.1743L227.025 67.0182H225.132L225.077 67.1743C224.806 67.8921 224.759 68.1886 224.759 68.368C224.759 68.5163 224.829 68.6021 225.054 68.6879L225.031 68.883C224.728 68.8596 224.573 68.8596 224.379 68.8596C224.185 68.8596 224.077 68.8596 223.805 68.883L223.782 68.6879C224.038 68.5553 224.17 68.3914 224.317 68.0481C224.433 67.7906 224.573 67.4239 224.666 67.1743L226.164 63.2731ZM226.109 64.4746L225.264 66.6827H226.908L226.109 64.4746Z" fill="#E8E4DF"/>
<path d="M233.556 68.9376L233.37 69L229.545 64.3576V67.1821C229.545 67.4551 229.545 67.7984 229.569 68.0559C229.6 68.4226 229.669 68.5631 229.988 68.6957L229.964 68.8908C229.724 68.8752 229.514 68.8674 229.336 68.8674C229.15 68.8674 228.963 68.8674 228.723 68.8908L228.7 68.6957C229.018 68.5631 229.08 68.4226 229.111 68.0559C229.134 67.7984 229.134 67.4551 229.134 67.1821V65.0988C229.134 64.8257 229.134 64.5293 229.111 64.2718C229.08 63.9051 228.979 63.7178 228.661 63.5852L228.684 63.3901C228.925 63.4057 229.227 63.4135 229.592 63.4135L233.114 67.6658V65.0988C233.114 64.8257 233.114 64.4824 233.091 64.225C233.06 63.8583 232.99 63.7178 232.672 63.5852L232.695 63.3901C232.936 63.4057 233.145 63.4135 233.324 63.4135C233.51 63.4135 233.696 63.4135 233.936 63.3901L233.96 63.5852C233.642 63.7178 233.58 63.8583 233.548 64.225C233.525 64.4824 233.525 64.8257 233.525 65.0988V67.658C233.525 68.0325 233.533 68.5319 233.556 68.9376Z" fill="#E8E4DF"/>
<path d="M237.44 68.6489C238.084 68.6489 238.41 68.4226 238.681 67.9311C238.797 67.7204 238.859 67.5098 238.953 67.2367L239.185 67.2757C239.147 67.7516 239.108 68.1261 239.022 68.5865C238.549 68.8674 237.967 69 237.339 69C235.834 69 234.321 68.0247 234.321 66.1287C234.321 64.4122 235.694 63.2887 237.331 63.2887C237.991 63.2887 238.526 63.4213 239.046 63.6788C239.053 63.8895 239.061 64.0689 239.061 64.2484C239.061 64.4278 239.053 64.6151 239.046 64.8336L238.813 64.8492C238.743 64.5605 238.658 64.3108 238.479 64.1001C238.262 63.8505 237.905 63.6476 237.339 63.6476C235.973 63.6476 235.05 64.6541 235.05 66.1209C235.05 67.7126 236.237 68.6489 237.44 68.6489Z" fill="#E8E4DF"/>
<path d="M240.548 68.8596C240.168 68.8596 239.959 68.8596 239.656 68.883L239.633 68.6879C239.943 68.5631 239.998 68.3914 240.021 68.0481C240.044 67.7906 240.044 67.4473 240.044 67.1743V65.0988C240.044 64.8257 240.044 64.4824 240.021 64.225C239.998 63.8817 239.943 63.71 239.633 63.5852L239.656 63.3901C239.959 63.4135 240.168 63.4135 240.362 63.4135H241.79C242.108 63.4135 242.348 63.4135 242.651 63.3901C242.705 63.788 242.736 64.0767 242.759 64.5059L242.535 64.5449C242.434 64.2562 242.348 64.0923 242.232 63.9675C242.116 63.8427 241.937 63.7802 241.79 63.7568C241.596 63.7256 241.425 63.7178 241.123 63.7178C240.758 63.7178 240.711 63.7802 240.688 64.0923C240.665 64.3342 240.665 64.6151 240.665 64.896V65.8947C240.929 65.8947 241.472 65.8791 241.72 65.8557C242.069 65.8166 242.178 65.6918 242.294 65.3329L242.48 65.3719C242.457 65.6762 242.457 65.8479 242.457 66.0429C242.457 66.238 242.457 66.4174 242.48 66.7217L242.294 66.7607C242.178 66.4018 242.069 66.2848 241.72 66.238C241.472 66.2068 240.921 66.199 240.665 66.199V67.2523C240.665 67.5254 240.68 67.9467 240.688 68.1027C240.704 68.485 240.835 68.5553 241.185 68.5553C241.518 68.5553 241.797 68.5475 242.007 68.5163C242.278 68.4772 242.403 68.368 242.519 68.2042C242.612 68.0559 242.69 67.8921 242.791 67.6034L243 67.6424C242.961 68.1105 242.899 68.4928 242.814 68.8986C242.247 68.8674 241.541 68.8596 240.548 68.8596Z" fill="#E8E4DF"/>
</svg>
