<svg width="339" height="144" viewBox="0 0 339 144" fill="none" xmlns="http://www.w3.org/2000/svg">
<path fill-rule="evenodd" clip-rule="evenodd" d="M142.836 105.832C144.686 105.415 147.49 104.951 150.219 104.951C151.065 104.951 151.869 104.983 152.625 105.047C153.413 103.793 154.42 103 155.788 103C158.655 103 160.068 106.453 160.498 110.862C160.929 106.452 162.342 103 165.21 103C166.578 103 167.585 103.794 168.373 105.047C169.129 104.984 169.933 104.951 170.78 104.951C173.51 104.951 176.314 105.415 178.164 105.832L178.168 105.836C178.585 107.686 179.049 110.49 179.049 113.22C179.049 114.066 179.016 114.87 178.953 115.626C180.206 116.414 181 117.421 181 118.789C181 121.66 177.538 123.073 173.119 123.502C177.538 123.93 181 125.343 181 128.214C181 129.582 180.207 130.589 178.953 131.376C179.017 132.132 179.049 132.936 179.049 133.782C179.049 136.511 178.585 139.315 178.168 141.165L178.165 141.168C176.315 141.585 173.511 142.049 170.781 142.049C169.935 142.049 169.131 142.017 168.375 141.953C167.588 143.207 166.581 144 165.212 144C162.345 144 160.932 140.547 160.502 136.138C160.071 140.548 158.658 144 155.791 144C154.422 144 153.415 143.206 152.628 141.953C151.871 142.016 151.067 142.049 150.221 142.049C147.491 142.049 144.686 141.585 142.836 141.168L142.832 141.164C142.415 139.314 141.952 136.51 141.952 133.78C141.952 132.934 141.984 132.13 142.048 131.374C140.794 130.586 140 129.579 140 128.211C140 125.34 143.462 123.927 147.881 123.498C143.463 123.07 140 121.657 140 118.786C140 117.418 140.794 116.411 142.047 115.624C141.984 114.868 141.951 114.064 141.951 113.218C141.951 110.489 142.415 107.685 142.832 105.835L142.836 105.832ZM160.155 113.174C160.155 116.813 159.521 119.292 158.137 121.135C156.294 122.52 153.814 123.153 150.175 123.153C148.406 123.153 146.937 122.979 145.768 122.659C149.035 119.83 150.215 118.515 151.232 114.231C155.517 113.214 156.832 112.034 159.661 108.768C159.981 109.937 160.155 111.405 160.155 113.174ZM150.008 113.007C150.078 112.711 150.148 112.414 150.219 112.117C150.798 109.683 151.412 107.237 152.365 105.492C151.916 105.459 151.436 105.442 150.924 105.442C148.313 105.442 146.008 105.875 144.252 107.252C142.876 109.008 142.442 111.312 142.442 113.923C142.442 114.434 142.459 114.914 142.493 115.364C144.238 114.411 146.684 113.797 149.118 113.218C149.415 113.147 149.712 113.077 150.008 113.007ZM151.531 111.529C152.16 108.757 152.893 105.526 154.179 104.608C157.106 102.519 158.973 106.027 157.839 108.729C156.705 111.43 154.424 112.551 151.173 113.071C151.291 112.588 151.409 112.067 151.531 111.529ZM148.53 114.53C145.757 115.159 142.527 115.892 141.609 117.178C139.519 120.105 143.028 121.971 145.729 120.837C148.431 119.703 149.552 117.422 150.072 114.172C149.591 114.289 149.074 114.407 148.539 114.528L148.53 114.53ZM160.846 133.826C160.846 130.187 161.479 127.708 162.863 125.865C164.706 124.48 167.186 123.847 170.825 123.847C172.595 123.847 174.063 124.021 175.232 124.341C171.965 127.17 170.785 128.485 169.768 132.769C165.484 133.786 164.169 134.966 161.339 138.232C161.019 137.063 160.846 135.595 160.846 133.826ZM171.883 133.782C171.585 133.853 171.288 133.923 170.992 133.993L170.824 134.703L170.781 134.883C170.202 137.317 169.588 139.763 168.635 141.508C169.085 141.541 169.565 141.558 170.077 141.558C172.688 141.558 174.992 141.125 176.748 139.748C178.125 137.992 178.558 135.688 178.558 133.077C178.558 132.566 178.541 132.086 178.508 131.636C176.763 132.589 174.316 133.203 171.883 133.782ZM169.469 135.471C168.84 138.243 168.107 141.474 166.821 142.392C163.894 144.481 162.027 140.973 163.161 138.271C164.295 135.57 166.577 134.449 169.827 133.929C169.709 134.412 169.591 134.933 169.469 135.471ZM172.47 132.47C175.243 131.841 178.474 131.108 179.392 129.822C181.481 126.895 177.973 125.029 175.271 126.163C172.569 127.297 171.448 129.578 170.928 132.828C171.152 132.773 171.384 132.719 171.622 132.664C171.898 132.6 172.182 132.536 172.47 132.47ZM158.14 125.862C159.525 127.705 160.158 130.185 160.158 133.824C160.158 135.594 159.985 137.062 159.665 138.231C156.835 134.964 155.519 133.784 151.234 132.767C150.217 128.482 149.037 127.167 145.769 124.337C146.938 124.017 148.407 123.844 150.177 123.844C153.817 123.844 156.297 124.477 158.14 125.862ZM150.221 134.882C150.149 134.584 150.079 134.287 150.01 133.991C149.854 133.955 149.698 133.918 149.542 133.881C149.401 133.848 149.26 133.814 149.119 133.78C146.685 133.201 144.238 132.587 142.493 131.634C142.46 132.084 142.442 132.564 142.442 133.076C142.442 135.687 142.876 137.991 144.253 139.747C146.009 141.124 148.314 141.558 150.926 141.558C151.437 141.558 151.918 141.54 152.367 141.507C151.414 139.762 150.8 137.315 150.221 134.882ZM154.182 142.391C152.896 141.473 152.162 138.242 151.533 135.469L151.532 135.462L151.529 135.453C151.409 134.921 151.292 134.405 151.175 133.927C154.426 134.447 156.708 135.568 157.842 138.27C158.976 140.972 157.109 144.481 154.182 142.391ZM148.532 132.468L148.533 132.468C149.07 132.59 149.591 132.708 150.074 132.826C149.554 129.575 148.433 127.294 145.73 126.16C143.028 125.026 139.519 126.892 141.609 129.82C142.527 131.106 145.758 131.839 148.532 132.468ZM160.842 113.176C160.842 116.815 161.475 119.295 162.86 121.138C164.704 122.523 167.184 123.156 170.824 123.156C172.593 123.156 174.062 122.983 175.231 122.663C171.964 119.833 170.784 118.518 169.766 114.233C165.481 113.216 164.166 112.036 161.336 108.769C161.015 109.938 160.842 111.406 160.842 113.176ZM170.991 113.009C170.921 112.713 170.851 112.416 170.78 112.118C170.2 109.685 169.586 107.238 168.633 105.493C169.083 105.46 169.563 105.442 170.075 105.442C172.686 105.442 174.991 105.876 176.747 107.253C178.124 109.009 178.558 111.313 178.558 113.924C178.558 114.436 178.54 114.916 178.507 115.366C176.762 114.413 174.315 113.799 171.881 113.22C171.583 113.148 171.286 113.078 170.991 113.009ZM169.467 111.531C168.838 108.758 168.105 105.527 166.819 104.609C163.891 102.519 162.024 106.028 163.158 108.73C164.293 111.432 166.574 112.553 169.825 113.073C169.708 112.592 169.59 112.073 169.469 111.538L169.467 111.531ZM172.469 114.532C175.242 115.161 178.473 115.894 179.391 117.18C181.482 120.108 177.972 121.974 175.27 120.84C172.568 119.706 171.447 117.425 170.926 114.174C171.41 114.292 171.93 114.41 172.468 114.532L172.469 114.532ZM160.436 130.758C161.056 124.686 161.559 124.184 167.63 123.563C161.559 122.944 161.056 122.441 160.436 116.37C159.816 122.441 159.314 122.943 153.242 123.563C159.314 124.184 159.816 124.686 160.436 130.758Z" fill="#E8E4DF"/>
<path d="M14.5444 49.941C20.2244 49.941 23.9874 46.32 23.9874 41.421C23.9874 38.794 23.0644 36.593 21.2894 34.818C19.7274 33.256 18.6624 32.191 14.3314 29.138C8.2254 24.878 6.8764 23.742 4.9594 21.257C3.1844 18.985 2.4744 16.926 2.4744 13.589C2.4744 6.48899 8.4384 1.16399 16.6744 1.16399C21.1474 1.16399 24.6974 2.15799 28.3184 4.07499C28.3894 5.992 28.4604 7.341 28.4604 8.974C28.4604 10.607 28.3894 12.098 28.3184 14.015L26.3304 14.157C25.6914 11.672 24.9814 9.613 23.3484 7.69599C21.4314 5.49499 19.5144 4.42999 16.1064 4.42999C11.0654 4.42999 7.6574 7.55399 7.6574 12.382C7.6574 14.583 8.1544 16.358 10.1424 18.417C11.4914 19.766 12.4144 20.547 16.9584 23.742C22.5674 27.647 24.2714 28.854 26.2594 31.126C28.2474 33.469 29.5964 36.877 29.5964 40.072C29.5964 48.024 23.3484 53.136 14.0474 53.136C9.2194 53.136 5.8114 52.426 2.4034 50.793C1.6224 46.888 1.4094 43.338 0.983398 39.291L3.1844 38.794C3.9654 41.066 4.6044 42.912 5.6694 44.687C7.7284 48.308 9.7874 49.941 14.5444 49.941Z" fill="#E8E4DF"/>
<path d="M67.1077 47.172C67.1077 48.521 67.8177 49.444 69.5927 50.296L69.2377 52.071C66.6817 51.929 64.2677 51.858 62.4927 51.858C60.7177 51.858 59.3687 51.929 56.5997 52.071L56.6707 50.296C58.6587 49.444 59.6527 48.805 60.4337 47.456C61.4277 45.823 61.7827 43.125 62.4927 37.161L62.9897 32.972H47.9377L45.1687 36.522C38.7077 44.758 37.9977 46.746 37.9977 48.166C37.9977 49.16 38.3527 49.657 40.1277 50.296L39.8437 52.071C37.2877 51.929 36.2227 51.858 34.5187 51.858C32.7437 51.858 31.6077 51.858 28.3417 52.071L28.2707 50.296C30.6847 48.947 31.8207 48.095 40.8377 36.522L68.8827 0.666992L71.9357 1.30599L67.9597 36.522C67.1787 43.267 67.1077 45.681 67.1077 47.172ZM65.6167 10.181L50.2807 29.919H63.3447L65.6167 10.181Z" fill="#E8E4DF"/>
<path d="M120.05 52.568L118.346 53.136L83.3434 10.891V36.593C83.3434 39.078 83.3434 42.202 83.5564 44.545C83.8404 47.882 84.4794 49.16 87.3904 50.367L87.1774 52.142C84.9764 52 83.0594 51.929 81.4264 51.929C79.7224 51.929 78.0184 51.929 75.8174 52.142L75.6044 50.367C78.5154 49.16 79.0834 47.882 79.3674 44.545C79.5804 42.202 79.5804 39.078 79.5804 36.593V17.636C79.5804 15.151 79.5804 12.453 79.3674 10.11C79.0834 6.77299 78.1604 5.06899 75.2494 3.86199L75.4624 2.087C77.6634 2.22899 80.4324 2.29999 83.7694 2.29999L116.003 40.995V17.636C116.003 15.151 116.003 12.027 115.79 9.68399C115.506 6.34699 114.867 5.06899 111.956 3.86199L112.169 2.087C114.37 2.22899 116.287 2.29999 117.92 2.29999C119.624 2.29999 121.328 2.29999 123.529 2.087L123.742 3.86199C120.831 5.06899 120.263 6.34699 119.979 9.68399C119.766 12.027 119.766 15.151 119.766 17.636V40.924C119.766 44.332 119.837 48.876 120.05 52.568Z" fill="#E8E4DF"/>
<path d="M155.591 49.941C161.484 49.941 164.466 47.882 166.951 43.409C168.016 41.492 168.584 39.575 169.436 37.09L171.566 37.445C171.211 41.776 170.856 45.184 170.075 49.373C165.744 51.929 160.419 53.136 154.668 53.136C140.894 53.136 127.049 44.261 127.049 27.008C127.049 11.388 139.616 1.16399 154.597 1.16399C160.632 1.16399 165.531 2.37099 170.288 4.71399C170.359 6.63099 170.43 8.26399 170.43 9.89699C170.43 11.53 170.359 13.234 170.288 15.222L168.158 15.364C167.519 12.737 166.738 10.465 165.105 8.54799C163.117 6.27599 159.851 4.42999 154.668 4.42999C142.172 4.42999 133.723 13.589 133.723 26.937C133.723 41.421 144.586 49.941 155.591 49.941Z" fill="#E8E4DF"/>
<path d="M181.414 2.29999H207.045C209.956 2.29999 212.299 2.29999 215.068 2.087C215.21 5.49499 215.281 8.97399 215.281 12.453L213.222 12.595C212.441 9.968 211.731 8.47699 210.666 7.341C209.601 6.20499 207.968 5.63699 206.619 5.42399C204.844 5.13999 203.282 5.06899 201.01 5.06899C197.673 5.06899 197.247 5.63699 197.034 8.47699C196.821 10.678 196.821 13.234 196.821 15.79V36.522C196.821 39.007 196.963 42.131 197.034 44.474C197.176 48.095 197.957 49.231 201.365 50.154L201.152 52.071C198.383 51.858 195.827 51.858 194.052 51.858C192.277 51.858 189.579 51.858 186.81 52.071L186.597 50.154C190.005 49.231 190.786 48.095 190.928 44.474C190.999 42.131 191.141 39.007 191.141 36.522V15.79C191.141 13.234 191.141 10.678 190.928 8.47699C190.715 5.63699 190.289 5.06899 186.952 5.06899C184.68 5.06899 183.189 5.13999 181.414 5.42399C180.065 5.63699 178.432 6.20499 177.367 7.341C176.302 8.47699 175.521 9.968 174.74 12.595L172.681 12.453C172.894 8.97399 173.107 5.56599 173.391 2.087C176.16 2.29999 178.503 2.29999 181.414 2.29999Z" fill="#E8E4DF"/>
<path d="M255.56 17.636V33.966C255.56 45.113 248.105 53.136 237.1 53.136C225.74 53.136 218.995 46.462 218.995 35.031V17.636C218.995 15.151 218.995 12.027 218.782 9.68399C218.569 6.55999 218.072 4.99799 215.232 3.86199L215.445 2.087C218.214 2.29999 220.131 2.29999 221.906 2.29999C223.681 2.29999 225.527 2.29999 228.296 2.087L228.509 3.86199C225.598 5.06899 224.959 6.34699 224.888 9.68399C224.817 12.027 224.675 15.151 224.675 17.636V34.889C224.675 44.048 229.503 49.231 237.526 49.231C246.046 49.231 251.797 43.622 251.797 33.043V17.636C251.797 15.151 251.797 12.027 251.584 9.68399C251.3 6.34699 250.661 5.06899 247.75 3.86199L247.963 2.087C250.164 2.22899 252.081 2.29999 253.714 2.29999C255.418 2.29999 257.122 2.29999 259.323 2.087L259.536 3.86199C256.625 5.06899 256.057 6.34699 255.773 9.68399C255.56 12.027 255.56 15.151 255.56 17.636Z" fill="#E8E4DF"/>
<path d="M309.702 8.40599L290.745 53.136H289.254L270.226 9.96799L269.303 36.593C269.232 38.226 269.161 40.285 269.161 42.202C269.161 45.894 269.303 49.231 273.137 50.367L272.924 52.142C270.723 52 268.806 51.929 267.102 51.929C265.398 51.929 263.694 51.929 261.493 52.142L261.28 50.367C264.191 49.16 264.83 47.882 265.114 44.545C265.327 42.202 265.327 39.078 265.469 36.593L266.321 17.636C266.392 16.003 266.392 14.938 266.392 13.589C266.392 9.613 266.321 5.21099 261.99 3.86199L262.203 2.087C266.179 2.29999 269.09 2.29999 273.279 2.29999L291.171 43.48L307.998 2.29999C311.903 2.29999 316.305 2.29999 319.074 2.087L319.287 3.86199C316.376 4.99799 315.808 6.48899 315.595 9.68399C315.524 11.388 315.453 13.589 315.453 15.577C315.453 16.358 315.595 16.997 315.95 36.593C316.021 39.078 316.021 42.202 316.234 44.545C316.234 47.882 317.015 49.16 319.926 50.367L319.713 52.142C316.944 51.929 315.169 51.929 313.394 51.929C311.619 51.929 309.702 51.929 306.933 52.142L306.72 50.367C310.341 49.444 310.412 45.752 310.412 42.344C310.412 40.569 310.412 38.368 310.341 36.593L309.702 8.40599Z" fill="#E8E4DF"/>
<path d="M325.414 2.47656H323V0.999996H329.623V2.47656H327.24V8H325.414V2.47656ZM335.286 4.28125L336.586 0.999996H339V8H337.236V5.8125C337.236 4.6914 337.236 3.95312 337.267 3.59765C337.205 3.73437 337.143 3.89843 337.081 4.08984L335.534 8H334.079L332.532 4.08984C332.47 3.89843 332.408 3.73437 332.346 3.59765C332.346 3.95312 332.377 4.6914 332.377 5.8125V8H330.613V0.999996H333.027L334.358 4.33593L334.822 5.64843C334.946 5.1289 335.101 4.66406 335.286 4.28125Z" fill="#E8E4DF"/>
<path d="M54.6494 73.456V80.548H58.7174V82H53.0294V73.456H54.6494Z" fill="#E8E4DF"/>
<path d="M66.5036 73.456V74.908H61.8236V76.924H66.0596V78.316H61.8236V80.548H66.4796V82H60.2036V73.456H66.5036Z" fill="#E8E4DF"/>
<path d="M74.5462 82.192C73.3822 82.192 72.4822 81.94 71.8462 81.412C71.2102 80.896 70.8862 80.152 70.8862 79.18H72.4822C72.4822 79.792 72.6622 80.224 73.0222 80.488C73.3822 80.752 73.8982 80.884 74.5942 80.884C75.1462 80.884 75.5782 80.788 75.8782 80.572C76.1662 80.356 76.3222 80.056 76.3222 79.648C76.3222 79.312 76.1902 79.06 75.9382 78.88C75.6862 78.712 75.2302 78.556 74.5702 78.412L73.8502 78.268C72.0142 77.932 71.1022 77.068 71.1022 75.676C71.1022 74.944 71.3782 74.356 71.9422 73.924C72.4942 73.492 73.2742 73.264 74.2702 73.264C75.3982 73.264 76.2502 73.504 76.8262 73.984C77.4022 74.464 77.7142 75.136 77.7502 76H76.1782C76.1422 75.52 75.9742 75.16 75.6862 74.92C75.3982 74.692 74.9302 74.572 74.2942 74.572C73.7902 74.572 73.4182 74.668 73.1542 74.848C72.8902 75.04 72.7582 75.292 72.7582 75.628C72.7582 75.976 72.8782 76.24 73.1182 76.42C73.3582 76.612 73.8022 76.768 74.4262 76.888L75.1702 77.032C76.1662 77.236 76.8862 77.536 77.3302 77.932C77.7742 78.328 78.0022 78.868 78.0022 79.564C78.0022 80.404 77.6902 81.052 77.0902 81.508C76.4782 81.964 75.6262 82.192 74.5462 82.192Z" fill="#E8E4DF"/>
<path d="M87.1599 82H85.4439L84.7719 80.116H81.0279L80.3679 82H78.6999L81.9519 73.456H83.8479L87.1599 82ZM81.8439 77.812L81.5199 78.736H84.2799L83.9439 77.812C83.6559 77.104 83.3079 76.132 82.8879 74.884C82.5519 75.88 82.2039 76.852 81.8439 77.812Z" fill="#E8E4DF"/>
<path d="M94.0368 75.688V73.456H95.5968V82H93.7968L91.4208 78.196C90.7728 77.188 90.2568 76.324 89.8968 75.628C89.9208 76.528 89.9448 77.908 89.9448 79.768V82H88.3848V73.456H90.1848L92.5728 77.26C93.2808 78.412 93.7848 79.276 94.0848 79.828C94.0488 78.64 94.0368 77.26 94.0368 75.688Z" fill="#E8E4DF"/>
<path d="M101.378 82.192C100.142 82.192 99.1461 81.796 98.3901 80.98C97.6221 80.176 97.2381 79.096 97.2381 77.728C97.2381 76.36 97.6101 75.28 98.3781 74.464C99.1221 73.672 100.13 73.264 101.378 73.264C102.374 73.264 103.226 73.54 103.934 74.068C104.63 74.608 105.074 75.388 105.254 76.396H103.61C103.466 75.844 103.19 75.412 102.806 75.124C102.422 74.836 101.942 74.68 101.378 74.68C100.61 74.68 100.01 74.956 99.5781 75.496C99.1461 76.036 98.9301 76.78 98.9301 77.728C98.9301 78.688 99.1461 79.444 99.5781 79.972C100.01 80.512 100.61 80.776 101.378 80.776C101.966 80.776 102.47 80.608 102.902 80.248C103.322 79.9 103.574 79.408 103.67 78.784H105.29C105.182 79.876 104.762 80.716 104.018 81.304C103.274 81.904 102.398 82.192 101.378 82.192Z" fill="#E8E4DF"/>
<path d="M105.768 73.456H112.872V74.908H110.136V82H108.504V74.908H105.768V73.456Z" fill="#E8E4DF"/>
<path d="M117.664 82.18C116.548 82.18 115.672 81.892 115.036 81.292C114.4 80.692 114.088 79.864 114.088 78.784V73.456H115.708V78.796C115.708 79.444 115.876 79.936 116.212 80.272C116.548 80.608 117.028 80.776 117.664 80.776C118.288 80.776 118.78 80.608 119.116 80.272C119.452 79.936 119.62 79.444 119.62 78.796V73.456H121.24V78.784C121.24 79.876 120.916 80.716 120.292 81.304C119.656 81.892 118.78 82.18 117.664 82.18Z" fill="#E8E4DF"/>
<path d="M130.402 82H128.686L128.014 80.116H124.27L123.61 82H121.942L125.194 73.456H127.09L130.402 82ZM125.086 77.812L124.762 78.736H127.522L127.186 77.812C126.898 77.104 126.55 76.132 126.13 74.884C125.794 75.88 125.446 76.852 125.086 77.812Z" fill="#E8E4DF"/>
<path d="M133.247 82H131.627V73.456H133.247V82Z" fill="#E8E4DF"/>
<path d="M141.946 79.732L142.018 81.004C142.018 81.412 142.114 81.748 142.282 82H140.614C140.47 81.76 140.386 81.424 140.386 80.98L140.35 80.044C140.326 79.528 140.206 79.168 139.99 78.964C139.774 78.76 139.438 78.652 138.982 78.652H136.87V82H135.25V73.456H139.126C140.074 73.456 140.818 73.672 141.346 74.104C141.874 74.536 142.138 75.124 142.138 75.868C142.138 76.9 141.658 77.572 140.71 77.908C141.142 78.052 141.442 78.268 141.634 78.556C141.826 78.844 141.922 79.24 141.946 79.732ZM136.87 74.788V77.38H139.03C139.486 77.38 139.834 77.272 140.086 77.044C140.338 76.816 140.47 76.48 140.47 76.048C140.47 75.64 140.338 75.328 140.074 75.112C139.81 74.896 139.45 74.788 138.97 74.788H136.87Z" fill="#E8E4DF"/>
<path d="M150.131 73.456V74.908H145.451V76.924H149.687V78.316H145.451V80.548H150.107V82H143.831V73.456H150.131Z" fill="#E8E4DF"/>
<path d="M154.922 73.456H158.186C159.554 73.456 160.61 73.84 161.354 74.596C162.098 75.364 162.47 76.408 162.47 77.728C162.47 79.048 162.098 80.092 161.354 80.848C160.61 81.616 159.554 82 158.186 82H154.922V73.456ZM156.542 80.608H158.162C159.002 80.608 159.65 80.368 160.106 79.876C160.562 79.384 160.79 78.664 160.79 77.728C160.79 76.792 160.562 76.084 160.106 75.592C159.65 75.1 159.002 74.848 158.162 74.848H156.542V80.608Z" fill="#E8E4DF"/>
<path d="M170.411 73.456V74.908H165.731V76.924H169.967V78.316H165.731V80.548H170.387V82H164.111V73.456H170.411Z" fill="#E8E4DF"/>
<path d="M176.822 73.456V80.548H180.89V82H175.202V73.456H176.822Z" fill="#E8E4DF"/>
<path d="M181.656 75.064V73.456H183.312V75.196C183.312 76.276 182.82 76.828 181.86 76.852L181.656 76.864V76.036L181.848 76.024C182.184 76 182.364 75.748 182.364 75.256V75.064H181.656Z" fill="#E8E4DF"/>
<path d="M186.682 82H185.062V73.456H186.682V82Z" fill="#E8E4DF"/>
<path d="M194.338 75.688V73.456H195.898V82H194.098L191.722 78.196C191.074 77.188 190.558 76.324 190.198 75.628C190.222 76.528 190.246 77.908 190.246 79.768V82H188.686V73.456H190.486L192.874 77.26C193.582 78.412 194.086 79.276 194.386 79.828C194.35 78.64 194.338 77.26 194.338 75.688Z" fill="#E8E4DF"/>
<path d="M201.151 82.192C199.987 82.192 199.087 81.94 198.451 81.412C197.815 80.896 197.491 80.152 197.491 79.18H199.087C199.087 79.792 199.267 80.224 199.627 80.488C199.987 80.752 200.503 80.884 201.199 80.884C201.751 80.884 202.183 80.788 202.483 80.572C202.771 80.356 202.927 80.056 202.927 79.648C202.927 79.312 202.795 79.06 202.543 78.88C202.291 78.712 201.835 78.556 201.175 78.412L200.455 78.268C198.619 77.932 197.707 77.068 197.707 75.676C197.707 74.944 197.983 74.356 198.547 73.924C199.099 73.492 199.879 73.264 200.875 73.264C202.003 73.264 202.855 73.504 203.431 73.984C204.007 74.464 204.319 75.136 204.355 76H202.783C202.747 75.52 202.579 75.16 202.291 74.92C202.003 74.692 201.535 74.572 200.899 74.572C200.395 74.572 200.023 74.668 199.759 74.848C199.495 75.04 199.363 75.292 199.363 75.628C199.363 75.976 199.483 76.24 199.723 76.42C199.963 76.612 200.407 76.768 201.031 76.888L201.775 77.032C202.771 77.236 203.491 77.536 203.935 77.932C204.379 78.328 204.607 78.868 204.607 79.564C204.607 80.404 204.295 81.052 203.695 81.508C203.083 81.964 202.231 82.192 201.151 82.192Z" fill="#E8E4DF"/>
<path d="M206.14 73.456H209.896C210.844 73.456 211.588 73.708 212.116 74.212C212.644 74.716 212.92 75.388 212.92 76.24C212.92 77.092 212.644 77.764 212.116 78.268C211.588 78.772 210.844 79.012 209.896 79.012H207.76V82H206.14V73.456ZM207.76 77.62H209.824C210.292 77.62 210.652 77.512 210.904 77.272C211.156 77.032 211.288 76.696 211.288 76.24C211.288 75.796 211.156 75.448 210.904 75.208C210.652 74.968 210.292 74.848 209.824 74.848H207.76V77.62Z" fill="#E8E4DF"/>
<path d="M216.141 82H214.521V73.456H216.141V82Z" fill="#E8E4DF"/>
<path d="M224.84 79.732L224.912 81.004C224.912 81.412 225.008 81.748 225.176 82H223.508C223.364 81.76 223.28 81.424 223.28 80.98L223.244 80.044C223.22 79.528 223.1 79.168 222.884 78.964C222.668 78.76 222.332 78.652 221.876 78.652H219.764V82H218.144V73.456H222.02C222.968 73.456 223.712 73.672 224.24 74.104C224.768 74.536 225.032 75.124 225.032 75.868C225.032 76.9 224.552 77.572 223.604 77.908C224.036 78.052 224.336 78.268 224.528 78.556C224.72 78.844 224.816 79.24 224.84 79.732ZM219.764 74.788V77.38H221.924C222.38 77.38 222.728 77.272 222.98 77.044C223.232 76.816 223.364 76.48 223.364 76.048C223.364 75.64 223.232 75.328 222.968 75.112C222.704 74.896 222.344 74.788 221.864 74.788H219.764Z" fill="#E8E4DF"/>
<path d="M234.373 82H232.657L231.985 80.116H228.241L227.581 82H225.913L229.165 73.456H231.061L234.373 82ZM229.057 77.812L228.733 78.736H231.493L231.157 77.812C230.869 77.104 230.521 76.132 230.101 74.884C229.765 75.88 229.417 76.852 229.057 77.812Z" fill="#E8E4DF"/>
<path d="M233.793 73.456H240.897V74.908H238.161V82H236.529V74.908H233.793V73.456Z" fill="#E8E4DF"/>
<path d="M243.935 82H242.315V73.456H243.935V82Z" fill="#E8E4DF"/>
<path d="M249.851 82.192C248.567 82.192 247.535 81.784 246.755 80.968C245.963 80.152 245.579 79.072 245.579 77.728C245.579 76.396 245.963 75.316 246.755 74.488C247.535 73.672 248.567 73.264 249.851 73.264C251.123 73.264 252.155 73.672 252.947 74.488C253.715 75.304 254.111 76.384 254.111 77.728C254.111 79.084 253.715 80.164 252.947 80.968C252.155 81.784 251.123 82.192 249.851 82.192ZM247.979 79.948C248.447 80.5 249.071 80.764 249.851 80.764C250.631 80.764 251.255 80.5 251.735 79.948C252.191 79.42 252.431 78.676 252.431 77.728C252.431 76.792 252.191 76.048 251.735 75.508C251.255 74.968 250.631 74.692 249.851 74.692C249.071 74.692 248.447 74.968 247.979 75.508C247.499 76.06 247.271 76.792 247.271 77.728C247.271 78.664 247.499 79.408 247.979 79.948Z" fill="#E8E4DF"/>
<path d="M261.402 75.688V73.456H262.962V82H261.162L258.786 78.196C258.138 77.188 257.622 76.324 257.262 75.628C257.286 76.528 257.31 77.908 257.31 79.768V82H255.75V73.456H257.55L259.938 77.26C260.646 78.412 261.15 79.276 261.45 79.828C261.414 78.64 261.402 77.26 261.402 75.688Z" fill="#E8E4DF"/>
</svg>
