<svg width="309" height="150" viewBox="0 0 309 150" fill="none" xmlns="http://www.w3.org/2000/svg">
<path d="M30.048 70.272H28.128L10.752 22.272C9.6 19.2 7.968 14.688 6.528 11.52C4.704 7.296 3.168 5.28 0 3.648L0.288 1.248C4.032 1.536 5.76 1.536 8.16 1.536C10.56 1.536 14.112 1.536 17.856 1.248L18.144 3.648C15.552 4.8 14.592 5.664 14.592 7.488C14.592 9.696 15.84 13.44 18.912 22.272L30.624 55.488L42.912 22.272C46.176 13.44 46.848 9.888 46.848 7.584C46.848 5.76 45.984 4.704 43.2 3.648L43.488 1.248C47.232 1.536 49.248 1.536 51.648 1.536C54.048 1.536 55.584 1.536 58.752 1.248L59.04 3.648C55.872 5.28 54.24 7.296 52.416 11.52C50.976 14.688 49.248 19.2 48.096 22.272L30.048 70.272Z" fill="#E8E4DF"/>
<path d="M72.7815 22.272V47.808C72.7815 51.168 72.9735 55.392 73.0695 58.56C73.2615 63.072 74.0295 64.8 77.9655 66.432L77.6775 68.832C73.9335 68.544 71.4375 68.544 69.0375 68.544C66.6375 68.544 64.0455 68.544 60.3015 68.832L60.0135 66.432C63.8535 64.896 64.5255 62.784 64.8135 58.56C65.1015 55.392 65.1015 51.168 65.1015 47.808V22.272C65.1015 18.912 65.1015 14.688 64.8135 11.52C64.5255 7.296 63.8535 5.184 60.0135 3.648L60.3015 1.248C64.0455 1.536 66.6375 1.536 69.0375 1.536C71.4375 1.536 73.9335 1.536 77.6775 1.248L77.9655 3.648C74.0295 5.28 73.2615 7.008 73.0695 11.52C72.9735 14.688 72.7815 18.912 72.7815 22.272Z" fill="#E8E4DF"/>
<path d="M101.025 65.952C108.705 65.952 113.793 61.056 113.793 54.432C113.793 50.88 112.545 47.904 110.145 45.504C108.033 43.392 106.593 41.952 100.737 37.824C92.481 32.064 90.657 30.528 88.065 27.168C85.665 24.096 84.705 21.312 84.705 16.8C84.705 7.2 92.769 0 103.905 0C109.953 0 114.753 1.344 119.649 3.936C119.745 6.528 119.841 8.352 119.841 10.56C119.841 12.768 119.745 14.784 119.649 17.376L116.961 17.568C116.097 14.208 115.137 11.424 112.929 8.832C110.337 5.856 107.745 4.416 103.137 4.416C96.321 4.416 91.713 8.64 91.713 15.168C91.713 18.144 92.385 20.544 95.073 23.328C96.897 25.152 98.145 26.208 104.289 30.528C111.873 35.808 114.177 37.44 116.865 40.512C119.553 43.68 121.377 48.288 121.377 52.608C121.377 63.36 112.929 70.272 100.353 70.272C93.825 70.272 89.217 69.312 84.609 67.104C83.553 61.824 83.265 57.024 82.689 51.552L85.665 50.88C86.721 53.952 87.585 56.448 89.025 58.848C91.809 63.744 94.593 65.952 101.025 65.952Z" fill="#E8E4DF"/>
<path d="M143.105 22.272L138.592 47.808C137.248 55.392 136.577 57.792 136.577 61.152C136.577 63.744 137.536 65.184 140.704 66.432L140.225 68.832C136.577 68.64 134.369 68.544 131.969 68.544C129.569 68.544 127.265 68.64 123.425 68.832L123.329 66.432C127.169 64.8 127.937 62.976 128.993 58.56C129.761 55.392 130.625 51.072 131.201 47.808L135.713 22.272C137.057 14.688 137.633 12.288 137.633 8.928C137.633 6.336 136.673 4.896 133.505 3.648L133.984 1.248C137.632 1.44 139.841 1.536 142.241 1.536C144.641 1.536 146.944 1.44 150.785 1.248L150.881 3.648C147.041 5.28 146.273 7.104 145.217 11.52C144.449 14.688 143.681 19.008 143.105 22.272Z" fill="#E8E4DF"/>
<path d="M149.364 35.136C149.364 14.688 164.916 0 184.116 0C204.372 0 219.156 15.168 219.156 35.136C219.156 55.392 203.796 70.272 184.98 70.272C164.148 70.272 149.364 55.968 149.364 35.136ZM182.676 4.8C169.332 4.8 158.388 15.168 158.388 33.888C158.388 53.376 171.252 65.568 186.228 65.568C200.148 65.568 210.132 53.664 210.132 36.288C210.132 17.76 197.748 4.8 182.676 4.8Z" fill="#E8E4DF"/>
<path d="M284.372 69.504L282.068 70.272L234.74 13.152V47.904C234.74 51.264 234.74 55.488 235.028 58.656C235.412 63.168 236.276 64.896 240.212 66.528L239.924 68.928C236.948 68.736 234.356 68.64 232.148 68.64C229.844 68.64 227.54 68.64 224.564 68.928L224.276 66.528C228.212 64.896 228.98 63.168 229.364 58.656C229.652 55.488 229.652 51.264 229.652 47.904V22.272C229.652 18.912 229.652 15.264 229.364 12.096C228.98 7.584 227.732 5.28 223.796 3.648L224.084 1.248C227.06 1.44 230.804 1.536 235.316 1.536L278.9 53.856V22.272C278.9 18.912 278.9 14.688 278.612 11.52C278.228 7.008 277.364 5.28 273.428 3.648L273.716 1.248C276.692 1.44 279.284 1.536 281.492 1.536C283.796 1.536 286.1 1.536 289.076 1.248L289.364 3.648C285.428 5.28 284.66 7.008 284.276 11.52C283.988 14.688 283.988 18.912 283.988 22.272V53.76C283.988 58.368 284.084 64.512 284.372 69.504Z" fill="#E8E4DF"/>
<path fill-rule="evenodd" clip-rule="evenodd" d="M138.428 125.532C139.601 125.267 141.379 124.973 143.11 124.973C143.647 124.973 144.157 124.994 144.636 125.034C145.135 124.239 145.774 123.736 146.642 123.736C148.46 123.736 149.356 125.925 149.629 128.721C149.902 125.925 150.798 123.736 152.616 123.736C153.484 123.736 154.123 124.239 154.622 125.034C155.102 124.994 155.612 124.973 156.149 124.973C157.88 124.973 159.658 125.268 160.832 125.532L160.834 125.534C161.098 126.708 161.392 128.486 161.392 130.217C161.392 130.753 161.372 131.263 161.331 131.743C162.127 132.242 162.63 132.881 162.63 133.749C162.63 135.569 160.434 136.465 157.632 136.737C160.434 137.009 162.63 137.905 162.63 139.725C162.63 140.593 162.127 141.231 161.332 141.73C161.372 142.21 161.393 142.72 161.393 143.256C161.393 144.987 161.098 146.765 160.834 147.938L160.832 147.94C159.659 148.205 157.881 148.499 156.15 148.499C155.613 148.499 155.103 148.478 154.624 148.438C154.124 149.233 153.486 149.736 152.618 149.736C150.8 149.736 149.904 147.547 149.631 144.751C149.358 147.547 148.462 149.736 146.643 149.736C145.776 149.736 145.137 149.233 144.637 148.438C144.158 148.478 143.648 148.499 143.111 148.499C141.38 148.499 139.602 148.204 138.428 147.94L138.426 147.938C138.162 146.765 137.867 144.986 137.867 143.255C137.867 142.719 137.888 142.209 137.928 141.729C137.133 141.23 136.63 140.591 136.63 139.723C136.63 137.903 138.826 137.007 141.627 136.735C138.826 136.463 136.63 135.567 136.63 133.747C136.63 132.879 137.133 132.241 137.928 131.742C137.888 131.262 137.867 130.752 137.867 130.216C137.867 128.485 138.161 126.707 138.426 125.534L138.428 125.532ZM149.411 130.188C149.411 132.495 149.009 134.068 148.131 135.236C146.962 136.114 145.39 136.516 143.082 136.516C141.96 136.516 141.029 136.406 140.288 136.203C142.359 134.409 143.108 133.575 143.753 130.858C146.47 130.213 147.304 129.465 149.098 127.394C149.301 128.135 149.411 129.066 149.411 130.188ZM142.976 130.082C143.02 129.894 143.065 129.706 143.11 129.517C143.477 127.974 143.867 126.423 144.471 125.316C144.186 125.295 143.882 125.284 143.557 125.284C141.901 125.284 140.44 125.559 139.326 126.432C138.453 127.546 138.178 129.007 138.178 130.663C138.178 130.987 138.189 131.291 138.21 131.576C139.317 130.972 140.868 130.583 142.412 130.216C142.6 130.17 142.789 130.126 142.976 130.082ZM143.942 129.145C144.341 127.387 144.806 125.338 145.622 124.756C147.478 123.431 148.661 125.656 147.942 127.369C147.223 129.082 145.776 129.793 143.715 130.123C143.79 129.816 143.865 129.486 143.942 129.145ZM142.039 131.048C140.281 131.447 138.232 131.912 137.65 132.727C136.325 134.583 138.55 135.766 140.263 135.047C141.976 134.328 142.687 132.882 143.017 130.821C142.712 130.895 142.384 130.969 142.045 131.046L142.039 131.048ZM149.849 143.284C149.849 140.977 150.25 139.404 151.129 138.236C152.297 137.358 153.87 136.956 156.178 136.956C157.3 136.956 158.231 137.066 158.972 137.269C156.9 139.063 156.152 139.897 155.507 142.614C152.79 143.259 151.956 144.007 150.162 146.078C149.959 145.337 149.849 144.406 149.849 143.284ZM156.848 143.256C156.659 143.302 156.471 143.346 156.284 143.39L156.177 143.84L156.15 143.955C155.782 145.498 155.393 147.049 154.789 148.156C155.074 148.177 155.378 148.188 155.703 148.188C157.358 148.188 158.82 147.913 159.933 147.04C160.806 145.926 161.081 144.465 161.081 142.809C161.081 142.485 161.07 142.181 161.049 141.896C159.943 142.5 158.391 142.889 156.848 143.256ZM155.318 144.327C154.919 146.085 154.454 148.134 153.638 148.716C151.782 150.041 150.598 147.816 151.317 146.103C152.037 144.39 153.483 143.679 155.544 143.349C155.47 143.656 155.395 143.986 155.318 144.327ZM157.221 142.424C158.979 142.025 161.028 141.56 161.61 140.745C162.935 138.889 160.71 137.706 158.997 138.425C157.283 139.144 156.573 140.59 156.243 142.651C156.385 142.617 156.532 142.582 156.683 142.547C156.858 142.507 157.038 142.466 157.221 142.424ZM148.133 138.234C149.011 139.402 149.413 140.975 149.413 143.283C149.413 144.405 149.303 145.336 149.1 146.078C147.305 144.006 146.471 143.258 143.754 142.612C143.109 139.895 142.36 139.061 140.288 137.267C141.03 137.064 141.961 136.954 143.083 136.954C145.392 136.954 146.964 137.356 148.133 138.234ZM143.111 143.954C143.066 143.765 143.022 143.576 142.977 143.389C142.879 143.366 142.78 143.342 142.681 143.319C142.592 143.298 142.502 143.277 142.413 143.255C140.869 142.888 139.318 142.498 138.211 141.894C138.19 142.179 138.179 142.484 138.179 142.808C138.179 144.464 138.454 145.926 139.327 147.039C140.441 147.912 141.902 148.187 143.558 148.187C143.883 148.187 144.187 148.176 144.472 148.155C143.868 147.049 143.478 145.497 143.111 143.954ZM145.623 148.716C144.808 148.134 144.343 146.085 143.943 144.326L143.942 144.322L143.941 144.316C143.864 143.978 143.79 143.652 143.717 143.348C145.778 143.678 147.225 144.389 147.944 146.102C148.664 147.816 147.48 150.041 145.623 148.716ZM142.04 142.423C142.381 142.5 142.712 142.575 143.018 142.65C142.688 140.589 141.977 139.142 140.264 138.423C138.55 137.703 136.325 138.887 137.65 140.744C138.232 141.559 140.281 142.024 142.04 142.423ZM149.847 130.189C149.847 132.497 150.248 134.07 151.127 135.238C152.295 136.116 153.868 136.518 156.176 136.518C157.299 136.518 158.23 136.408 158.971 136.205C156.899 134.411 156.151 133.577 155.506 130.86C152.788 130.214 151.954 129.466 150.16 127.394C149.957 128.136 149.847 129.067 149.847 130.189ZM156.282 130.083C156.238 129.896 156.194 129.707 156.149 129.518C155.781 127.975 155.392 126.423 154.787 125.317C155.072 125.296 155.377 125.285 155.702 125.285C157.358 125.285 158.819 125.56 159.933 126.433C160.806 127.546 161.081 129.008 161.081 130.664C161.081 130.988 161.07 131.293 161.049 131.578C159.942 130.974 158.391 130.584 156.847 130.217C156.658 130.172 156.47 130.127 156.282 130.083ZM155.316 129.146C154.917 127.387 154.452 125.338 153.637 124.756C151.78 123.431 150.596 125.656 151.316 127.37C152.035 129.083 153.482 129.794 155.543 130.124C155.469 129.819 155.394 129.49 155.317 129.15L155.316 129.146ZM157.22 131.049C158.979 131.448 161.027 131.913 161.61 132.728C162.935 134.585 160.71 135.769 158.996 135.049C157.282 134.33 156.572 132.883 156.242 130.822C156.548 130.897 156.879 130.972 157.22 131.049ZM149.589 141.338C149.983 137.488 150.301 137.17 154.152 136.776C150.301 136.383 149.983 136.064 149.589 132.214C149.196 136.064 148.878 136.383 145.027 136.776C148.877 137.17 149.196 137.488 149.589 141.338Z" fill="#E8E4DF"/>
<path d="M56.7197 102.992C55.0717 102.992 53.7437 102.464 52.7357 101.376C51.7117 100.304 51.1997 98.864 51.1997 97.04C51.1997 95.216 51.6957 93.776 52.7197 92.688C53.7117 91.632 55.0557 91.088 56.7197 91.088C58.0477 91.088 59.1837 91.456 60.1277 92.16C61.0557 92.88 61.6477 93.92 61.8877 95.264H59.6957C59.5037 94.528 59.1357 93.952 58.6237 93.568C58.1117 93.184 57.4717 92.976 56.7197 92.976C55.6957 92.976 54.8957 93.344 54.3197 94.064C53.7437 94.784 53.4557 95.776 53.4557 97.04C53.4557 98.32 53.7437 99.328 54.3197 100.032C54.8957 100.752 55.6957 101.104 56.7197 101.104C57.5037 101.104 58.1757 100.88 58.7517 100.4C59.3117 99.936 59.6477 99.28 59.7757 98.448H61.9357C61.7917 99.904 61.2317 101.024 60.2397 101.808C59.2477 102.608 58.0797 102.992 56.7197 102.992Z" fill="#E8E4DF"/>
<path d="M69.2895 102.992C67.5775 102.992 66.2015 102.448 65.1615 101.36C64.1055 100.272 63.5935 98.832 63.5935 97.04C63.5935 95.264 64.1055 93.824 65.1615 92.72C66.2015 91.632 67.5775 91.088 69.2895 91.088C70.9855 91.088 72.3615 91.632 73.4175 92.72C74.4415 93.808 74.9695 95.248 74.9695 97.04C74.9695 98.848 74.4415 100.288 73.4175 101.36C72.3615 102.448 70.9855 102.992 69.2895 102.992ZM66.7935 100C67.4175 100.736 68.2495 101.088 69.2895 101.088C70.3295 101.088 71.1615 100.736 71.8015 100C72.4095 99.296 72.7295 98.304 72.7295 97.04C72.7295 95.792 72.4095 94.8 71.8015 94.08C71.1615 93.36 70.3295 92.992 69.2895 92.992C68.2495 92.992 67.4175 93.36 66.7935 94.08C66.1535 94.816 65.8495 95.792 65.8495 97.04C65.8495 98.288 66.1535 99.28 66.7935 100Z" fill="#E8E4DF"/>
<path d="M84.2427 96.768L86.1467 91.344H89.2827V102.736H87.2187V99.264C87.2187 97.136 87.2347 95.248 87.2827 93.616C87.0427 94.416 86.7547 95.296 86.4187 96.24L84.1147 102.736H82.3387L80.0187 96.24C79.6027 95.056 79.3307 94.192 79.1707 93.648C79.2027 95.28 79.2347 97.152 79.2347 99.264V102.736H77.1547V91.344H80.2907L82.2587 96.88C82.3867 97.264 82.7067 98.288 83.2347 99.968C83.5707 98.784 83.9067 97.728 84.2427 96.768Z" fill="#E8E4DF"/>
<path d="M91.9547 91.344H96.9627C98.2267 91.344 99.2187 91.68 99.9227 92.352C100.627 93.024 100.995 93.92 100.995 95.056C100.995 96.192 100.627 97.088 99.9227 97.76C99.2187 98.432 98.2267 98.752 96.9627 98.752H94.1147V102.736H91.9547V91.344ZM94.1147 96.896H96.8667C97.4907 96.896 97.9707 96.752 98.3067 96.432C98.6427 96.112 98.8187 95.664 98.8187 95.056C98.8187 94.464 98.6427 94 98.3067 93.68C97.9707 93.36 97.4907 93.2 96.8667 93.2H94.1147V96.896Z" fill="#E8E4DF"/>
<path d="M111.906 102.736H109.618L108.722 100.224H103.73L102.85 102.736H100.626L104.962 91.344H107.49L111.906 102.736ZM104.818 97.152L104.386 98.384H108.066L107.618 97.152C107.234 96.208 106.77 94.912 106.21 93.248C105.762 94.576 105.298 95.872 104.818 97.152Z" fill="#E8E4DF"/>
<path d="M117.625 102.992C116.073 102.992 114.873 102.656 114.025 101.952C113.177 101.264 112.745 100.272 112.745 98.976H114.873C114.873 99.792 115.113 100.368 115.593 100.72C116.073 101.072 116.761 101.248 117.689 101.248C118.425 101.248 119.001 101.12 119.401 100.832C119.785 100.544 119.993 100.144 119.993 99.6C119.993 99.152 119.817 98.816 119.481 98.576C119.145 98.352 118.537 98.144 117.657 97.952L116.697 97.76C114.249 97.312 113.033 96.16 113.033 94.304C113.033 93.328 113.401 92.544 114.153 91.968C114.889 91.392 115.929 91.088 117.257 91.088C118.761 91.088 119.897 91.408 120.665 92.048C121.433 92.688 121.849 93.584 121.897 94.736H119.801C119.753 94.096 119.529 93.616 119.145 93.296C118.761 92.992 118.137 92.832 117.289 92.832C116.617 92.832 116.121 92.96 115.769 93.2C115.417 93.456 115.241 93.792 115.241 94.24C115.241 94.704 115.401 95.056 115.721 95.296C116.041 95.552 116.633 95.76 117.465 95.92L118.457 96.112C119.785 96.384 120.745 96.784 121.337 97.312C121.929 97.84 122.233 98.56 122.233 99.488C122.233 100.608 121.817 101.472 121.017 102.08C120.201 102.688 119.065 102.992 117.625 102.992Z" fill="#E8E4DF"/>
<path d="M128.722 102.992C127.17 102.992 125.97 102.656 125.122 101.952C124.274 101.264 123.842 100.272 123.842 98.976H125.97C125.97 99.792 126.21 100.368 126.69 100.72C127.17 101.072 127.858 101.248 128.786 101.248C129.522 101.248 130.098 101.12 130.498 100.832C130.882 100.544 131.09 100.144 131.09 99.6C131.09 99.152 130.914 98.816 130.578 98.576C130.242 98.352 129.634 98.144 128.754 97.952L127.794 97.76C125.346 97.312 124.13 96.16 124.13 94.304C124.13 93.328 124.498 92.544 125.25 91.968C125.986 91.392 127.026 91.088 128.354 91.088C129.858 91.088 130.994 91.408 131.762 92.048C132.53 92.688 132.946 93.584 132.994 94.736H130.898C130.85 94.096 130.626 93.616 130.242 93.296C129.858 92.992 129.234 92.832 128.386 92.832C127.714 92.832 127.218 92.96 126.866 93.2C126.514 93.456 126.338 93.792 126.338 94.24C126.338 94.704 126.498 95.056 126.818 95.296C127.138 95.552 127.73 95.76 128.562 95.92L129.554 96.112C130.882 96.384 131.842 96.784 132.434 97.312C133.026 97.84 133.33 98.56 133.33 99.488C133.33 100.608 132.914 101.472 132.114 102.08C131.298 102.688 130.162 102.992 128.722 102.992Z" fill="#E8E4DF"/>
<path d="M144.843 102.992C143.131 102.992 141.755 102.448 140.715 101.36C139.659 100.272 139.147 98.832 139.147 97.04C139.147 95.264 139.659 93.824 140.715 92.72C141.755 91.632 143.131 91.088 144.843 91.088C146.539 91.088 147.915 91.632 148.971 92.72C149.995 93.808 150.523 95.248 150.523 97.04C150.523 98.848 149.995 100.288 148.971 101.36C147.915 102.448 146.539 102.992 144.843 102.992ZM142.347 100C142.971 100.736 143.803 101.088 144.843 101.088C145.883 101.088 146.715 100.736 147.355 100C147.963 99.296 148.283 98.304 148.283 97.04C148.283 95.792 147.963 94.8 147.355 94.08C146.715 93.36 145.883 92.992 144.843 92.992C143.803 92.992 142.971 93.36 142.347 94.08C141.707 94.816 141.403 95.792 141.403 97.04C141.403 98.288 141.707 99.28 142.347 100Z" fill="#E8E4DF"/>
<path d="M160.756 91.344V93.28H154.868V95.968H160.228V97.824H154.868V102.736H152.708V91.344H160.756Z" fill="#E8E4DF"/>
<path d="M171.316 102.992C169.764 102.992 168.564 102.656 167.716 101.952C166.868 101.264 166.436 100.272 166.436 98.976H168.564C168.564 99.792 168.804 100.368 169.284 100.72C169.764 101.072 170.452 101.248 171.38 101.248C172.116 101.248 172.692 101.12 173.092 100.832C173.476 100.544 173.684 100.144 173.684 99.6C173.684 99.152 173.508 98.816 173.172 98.576C172.836 98.352 172.228 98.144 171.348 97.952L170.388 97.76C167.94 97.312 166.724 96.16 166.724 94.304C166.724 93.328 167.092 92.544 167.844 91.968C168.58 91.392 169.62 91.088 170.948 91.088C172.452 91.088 173.588 91.408 174.356 92.048C175.124 92.688 175.54 93.584 175.588 94.736H173.492C173.444 94.096 173.22 93.616 172.836 93.296C172.452 92.992 171.828 92.832 170.98 92.832C170.308 92.832 169.812 92.96 169.46 93.2C169.108 93.456 168.932 93.792 168.932 94.24C168.932 94.704 169.092 95.056 169.412 95.296C169.732 95.552 170.324 95.76 171.156 95.92L172.148 96.112C173.476 96.384 174.436 96.784 175.028 97.312C175.62 97.84 175.924 98.56 175.924 99.488C175.924 100.608 175.508 101.472 174.708 102.08C173.892 102.688 172.756 102.992 171.316 102.992Z" fill="#E8E4DF"/>
<path d="M182.575 102.976C181.087 102.976 179.919 102.592 179.071 101.792C178.223 100.992 177.807 99.888 177.807 98.448V91.344H179.967V98.464C179.967 99.328 180.191 99.984 180.639 100.432C181.087 100.88 181.727 101.104 182.575 101.104C183.407 101.104 184.063 100.88 184.511 100.432C184.959 99.984 185.183 99.328 185.183 98.464V91.344H187.343V98.448C187.343 99.904 186.911 101.024 186.079 101.808C185.231 102.592 184.063 102.976 182.575 102.976Z" fill="#E8E4DF"/>
<path d="M194.885 102.992C193.237 102.992 191.909 102.464 190.901 101.376C189.877 100.304 189.365 98.864 189.365 97.04C189.365 95.216 189.861 93.776 190.885 92.688C191.877 91.632 193.221 91.088 194.885 91.088C196.213 91.088 197.349 91.456 198.293 92.16C199.221 92.88 199.813 93.92 200.053 95.264H197.861C197.669 94.528 197.301 93.952 196.789 93.568C196.277 93.184 195.637 92.976 194.885 92.976C193.861 92.976 193.061 93.344 192.485 94.064C191.909 94.784 191.621 95.776 191.621 97.04C191.621 98.32 191.909 99.328 192.485 100.032C193.061 100.752 193.861 101.104 194.885 101.104C195.669 101.104 196.341 100.88 196.917 100.4C197.477 99.936 197.813 99.28 197.941 98.448H200.101C199.957 99.904 199.397 101.024 198.405 101.808C197.413 102.608 196.245 102.992 194.885 102.992Z" fill="#E8E4DF"/>
<path d="M207.279 102.992C205.631 102.992 204.303 102.464 203.295 101.376C202.271 100.304 201.759 98.864 201.759 97.04C201.759 95.216 202.255 93.776 203.279 92.688C204.271 91.632 205.615 91.088 207.279 91.088C208.607 91.088 209.743 91.456 210.687 92.16C211.615 92.88 212.207 93.92 212.447 95.264H210.255C210.063 94.528 209.695 93.952 209.183 93.568C208.671 93.184 208.031 92.976 207.279 92.976C206.255 92.976 205.455 93.344 204.879 94.064C204.303 94.784 204.015 95.776 204.015 97.04C204.015 98.32 204.303 99.328 204.879 100.032C205.455 100.752 206.255 101.104 207.279 101.104C208.063 101.104 208.735 100.88 209.311 100.4C209.871 99.936 210.207 99.28 210.335 98.448H212.495C212.351 99.904 211.791 101.024 210.799 101.808C209.807 102.608 208.639 102.992 207.279 102.992Z" fill="#E8E4DF"/>
<path d="M223.033 91.344V93.28H216.793V95.968H222.441V97.824H216.793V100.8H223.001V102.736H214.633V91.344H223.033Z" fill="#E8E4DF"/>
<path d="M229.488 102.992C227.936 102.992 226.736 102.656 225.888 101.952C225.04 101.264 224.608 100.272 224.608 98.976H226.736C226.736 99.792 226.976 100.368 227.456 100.72C227.936 101.072 228.624 101.248 229.552 101.248C230.288 101.248 230.864 101.12 231.264 100.832C231.648 100.544 231.856 100.144 231.856 99.6C231.856 99.152 231.68 98.816 231.344 98.576C231.008 98.352 230.4 98.144 229.52 97.952L228.56 97.76C226.112 97.312 224.896 96.16 224.896 94.304C224.896 93.328 225.264 92.544 226.016 91.968C226.752 91.392 227.792 91.088 229.12 91.088C230.624 91.088 231.76 91.408 232.528 92.048C233.296 92.688 233.712 93.584 233.76 94.736H231.664C231.616 94.096 231.392 93.616 231.008 93.296C230.624 92.992 230 92.832 229.152 92.832C228.48 92.832 227.984 92.96 227.632 93.2C227.28 93.456 227.104 93.792 227.104 94.24C227.104 94.704 227.264 95.056 227.584 95.296C227.904 95.552 228.496 95.76 229.328 95.92L230.32 96.112C231.648 96.384 232.608 96.784 233.2 97.312C233.792 97.84 234.096 98.56 234.096 99.488C234.096 100.608 233.68 101.472 232.88 102.08C232.064 102.688 230.928 102.992 229.488 102.992Z" fill="#E8E4DF"/>
<path d="M240.585 102.992C239.033 102.992 237.832 102.656 236.984 101.952C236.136 101.264 235.704 100.272 235.704 98.976H237.833C237.833 99.792 238.072 100.368 238.552 100.72C239.032 101.072 239.72 101.248 240.648 101.248C241.384 101.248 241.961 101.12 242.361 100.832C242.745 100.544 242.952 100.144 242.952 99.6C242.952 99.152 242.776 98.816 242.44 98.576C242.104 98.352 241.497 98.144 240.617 97.952L239.656 97.76C237.208 97.312 235.992 96.16 235.992 94.304C235.992 93.328 236.361 92.544 237.113 91.968C237.849 91.392 238.888 91.088 240.216 91.088C241.72 91.088 242.856 91.408 243.624 92.048C244.392 92.688 244.808 93.584 244.856 94.736H242.76C242.712 94.096 242.488 93.616 242.104 93.296C241.72 92.992 241.097 92.832 240.249 92.832C239.577 92.832 239.081 92.96 238.729 93.2C238.377 93.456 238.201 93.792 238.201 94.24C238.201 94.704 238.36 95.056 238.68 95.296C239 95.552 239.592 95.76 240.424 95.92L241.417 96.112C242.745 96.384 243.704 96.784 244.296 97.312C244.888 97.84 245.193 98.56 245.193 99.488C245.193 100.608 244.777 101.472 243.977 102.08C243.161 102.688 242.025 102.992 240.585 102.992Z" fill="#E8E4DF"/>
<path d="M295.414 2.47656H293V1H299.623V2.47656H297.24V8H295.414V2.47656ZM305.286 4.28125L306.586 1H309V8H307.236V5.8125C307.236 4.69141 307.236 3.95312 307.267 3.59766C307.205 3.73437 307.143 3.89844 307.081 4.08984L305.534 8H304.079L302.532 4.08984C302.47 3.89844 302.408 3.73437 302.346 3.59766C302.346 3.95312 302.377 4.69141 302.377 5.8125V8H300.613V1H303.027L304.358 4.33594L304.822 5.64844C304.946 5.12891 305.101 4.66406 305.286 4.28125Z" fill="#E8E4DF"/>
</svg>
