<svg width="1348" height="222" viewBox="0 0 1348 222" fill="none" xmlns="http://www.w3.org/2000/svg">
<path d="M57.6 208.3C81.6 208.3 97.5 193 97.5 172.3C97.5 161.2 93.6 151.9 86.1 144.4C79.5 137.8 75 133.3 56.7 120.4C30.9 102.4 25.2 97.6 17.1 87.1C9.6 77.5 6.6 68.8 6.6 54.7C6.6 24.7 31.8 2.19999 66.6 2.19999C85.5 2.19999 100.5 6.39999 115.8 14.5C116.1 22.6 116.4 28.3 116.4 35.2C116.4 42.1 116.1 48.4 115.8 56.5L107.4 57.1C104.7 46.6 101.7 37.9 94.8 29.8C86.7 20.5 78.6 16 64.2 16C42.9 16 28.5 29.2 28.5 49.6C28.5 58.9 30.6 66.4 39 75.1C44.7 80.8 48.6 84.1 67.8 97.6C91.5 114.1 98.7 119.2 107.1 128.8C115.5 138.7 121.2 153.1 121.2 166.6C121.2 200.2 94.8 221.8 55.5 221.8C35.1 221.8 20.7 218.8 6.3 211.9C3 195.4 2.1 180.4 0.3 163.3L9.6 161.2C12.9 170.8 15.6 178.6 20.1 186.1C28.8 201.4 37.5 208.3 57.6 208.3ZM279.698 196.6C279.698 202.3 282.698 206.2 290.198 209.8L288.698 217.3C277.898 216.7 267.698 216.4 260.198 216.4C252.698 216.4 246.998 216.7 235.298 217.3L235.598 209.8C243.998 206.2 248.198 203.5 251.498 197.8C255.698 190.9 257.198 179.5 260.198 154.3L262.298 136.6H198.698L186.998 151.6C159.698 186.4 156.698 194.8 156.698 200.8C156.698 205 158.198 207.1 165.698 209.8L164.498 217.3C153.698 216.7 149.198 216.4 141.998 216.4C134.498 216.4 129.698 216.4 115.898 217.3L115.598 209.8C125.798 204.1 130.598 200.5 168.698 151.6L287.198 0.0999851L300.098 2.79999L283.298 151.6C279.998 180.1 279.698 190.3 279.698 196.6ZM273.398 40.3L208.598 123.7H263.798L273.398 40.3ZM503.4 219.4L496.2 221.8L348.3 43.3V151.9C348.3 162.4 348.3 175.6 349.2 185.5C350.4 199.6 353.1 205 365.4 210.1L364.5 217.6C355.2 217 347.1 216.7 340.2 216.7C333 216.7 325.8 216.7 316.5 217.6L315.6 210.1C327.9 205 330.3 199.6 331.5 185.5C332.4 175.6 332.4 162.4 332.4 151.9V71.8C332.4 61.3 332.4 49.9 331.5 40C330.3 25.9 326.4 18.7 314.1 13.6L315 6.1C324.3 6.69999 336 6.99999 350.1 6.99999L486.3 170.5V71.8C486.3 61.3 486.3 48.1 485.4 38.2C484.2 24.1 481.5 18.7 469.2 13.6L470.1 6.1C479.4 6.69999 487.5 6.99999 494.4 6.99999C501.6 6.99999 508.8 6.99999 518.1 6.1L519 13.6C506.7 18.7 504.3 24.1 503.1 38.2C502.2 48.1 502.2 61.3 502.2 71.8V170.2C502.2 184.6 502.5 203.8 503.4 219.4ZM653.573 208.3C678.473 208.3 691.073 199.6 701.573 180.7C706.073 172.6 708.473 164.5 712.073 154L721.073 155.5C719.573 173.8 718.073 188.2 714.773 205.9C696.473 216.7 673.973 221.8 649.673 221.8C591.473 221.8 532.973 184.3 532.973 111.4C532.973 45.4 586.073 2.19999 649.373 2.19999C674.873 2.19999 695.573 7.29998 715.673 17.2C715.973 25.3 716.273 32.2 716.273 39.1C716.273 46 715.973 53.2 715.673 61.6L706.673 62.2C703.973 51.1 700.673 41.5 693.773 33.4C685.373 23.8 671.573 16 649.673 16C596.873 16 561.173 54.7 561.173 111.1C561.173 172.3 607.073 208.3 653.573 208.3ZM762.684 6.99999H870.984C883.284 6.99999 893.184 6.99999 904.884 6.1C905.484 20.5 905.784 35.2 905.784 49.9L897.084 50.5C893.784 39.4 890.784 33.1 886.284 28.3C881.784 23.5 874.884 21.1 869.184 20.2C861.684 19 855.084 18.7 845.484 18.7C831.384 18.7 829.584 21.1 828.684 33.1C827.784 42.4 827.784 53.2 827.784 64V151.6C827.784 162.1 828.384 175.3 828.684 185.2C829.284 200.5 832.584 205.3 846.984 209.2L846.084 217.3C834.384 216.4 823.584 216.4 816.084 216.4C808.584 216.4 797.184 216.4 785.484 217.3L784.584 209.2C798.984 205.3 802.284 200.5 802.884 185.2C803.184 175.3 803.784 162.1 803.784 151.6V64C803.784 53.2 803.784 42.4 802.884 33.1C801.984 21.1 800.184 18.7 786.084 18.7C776.484 18.7 770.184 19 762.684 20.2C756.984 21.1 750.084 23.5 745.584 28.3C741.084 33.1 737.784 39.4 734.484 50.5L725.784 49.9C726.684 35.2 727.584 20.8 728.784 6.1C740.484 6.99999 750.384 6.99999 762.684 6.99999ZM1075.98 71.8V140.8C1075.98 187.9 1044.48 221.8 997.976 221.8C949.976 221.8 921.476 193.6 921.476 145.3V71.8C921.476 61.3 921.476 48.1 920.576 38.2C919.676 25 917.576 18.4 905.576 13.6L906.476 6.1C918.176 6.99999 926.276 6.99999 933.776 6.99999C941.276 6.99999 949.076 6.99999 960.776 6.1L961.676 13.6C949.376 18.7 946.676 24.1 946.376 38.2C946.076 48.1 945.476 61.3 945.476 71.8V144.7C945.476 183.4 965.876 205.3 999.776 205.3C1035.78 205.3 1060.08 181.6 1060.08 136.9V71.8C1060.08 61.3 1060.08 48.1 1059.18 38.2C1057.98 24.1 1055.28 18.7 1042.98 13.6L1043.88 6.1C1053.18 6.69999 1061.28 6.99999 1068.18 6.99999C1075.38 6.99999 1082.58 6.99999 1091.88 6.1L1092.78 13.6C1080.48 18.7 1078.08 24.1 1076.88 38.2C1075.98 48.1 1075.98 61.3 1075.98 71.8ZM1304.75 32.8L1224.65 221.8H1218.35L1137.95 39.4L1134.05 151.9C1133.75 158.8 1133.45 167.5 1133.45 175.6C1133.45 191.2 1134.05 205.3 1150.25 210.1L1149.35 217.6C1140.05 217 1131.95 216.7 1124.75 216.7C1117.55 216.7 1110.35 216.7 1101.05 217.6L1100.15 210.1C1112.45 205 1115.15 199.6 1116.35 185.5C1117.25 175.6 1117.25 162.4 1117.85 151.9L1121.45 71.8C1121.75 64.9 1121.75 60.4 1121.75 54.7C1121.75 37.9 1121.45 19.3 1103.15 13.6L1104.05 6.1C1120.85 6.99999 1133.15 6.99999 1150.85 6.99999L1226.45 181L1297.55 6.99999C1314.05 6.99999 1332.65 6.99999 1344.35 6.1L1345.25 13.6C1332.95 18.4 1330.55 24.7 1329.65 38.2C1329.35 45.4 1329.05 54.7 1329.05 63.1C1329.05 66.4 1329.65 69.1 1331.15 151.9C1331.45 162.4 1331.45 175.6 1332.35 185.5C1332.35 199.6 1335.65 205 1347.95 210.1L1347.05 217.6C1335.35 216.7 1327.85 216.7 1320.35 216.7C1312.85 216.7 1304.75 216.7 1293.05 217.6L1292.15 210.1C1307.45 206.2 1307.75 190.6 1307.75 176.2C1307.75 168.7 1307.75 159.4 1307.45 151.9L1304.75 32.8Z" fill="#E8E4DF"/>
</svg>
