<svg width="1597" height="1597" viewBox="0 0 1597 1597" fill="none" xmlns="http://www.w3.org/2000/svg">
<path fill-rule="evenodd" clip-rule="evenodd" d="M624.87 624.832C643.054 620.734 670.615 616.177 697.443 616.177C705.761 616.177 713.666 616.493 721.097 617.12C728.835 604.799 738.733 597 752.182 597C780.365 597 794.252 630.936 798.483 674.273C802.717 630.935 816.606 597 844.792 597C858.243 597 868.142 604.801 875.882 617.124C883.314 616.497 891.22 616.181 899.54 616.181C926.373 616.181 953.938 620.739 972.126 624.837L972.161 624.872C976.259 643.058 980.818 670.621 980.818 697.451C980.818 705.77 980.502 713.676 979.874 721.107C992.199 728.846 1000 738.745 1000 752.195C1000 780.417 965.968 794.304 922.539 798.517C965.967 802.727 1000 816.612 1000 844.832C1000 858.28 992.2 868.177 979.878 875.915C980.505 883.344 980.821 891.249 980.821 899.566C980.821 926.392 976.263 953.95 972.166 972.133L972.13 972.168C953.946 976.266 926.385 980.823 899.557 980.823C891.239 980.823 883.334 980.507 875.903 979.88C868.165 992.201 858.267 1000 844.818 1000C816.635 1000 802.748 966.064 798.517 922.727C794.283 966.065 780.394 1000 752.208 1000C738.757 1000 728.858 992.199 721.118 979.876C713.686 980.504 705.78 980.819 697.46 980.819C670.627 980.819 643.062 976.261 624.874 972.163L624.839 972.128C620.741 953.942 616.182 926.379 616.182 899.549C616.182 891.23 616.498 883.324 617.126 875.893C604.801 868.154 597 858.255 597 844.805C597 816.583 631.032 802.696 674.461 798.483C631.033 794.273 597 780.388 597 752.168C597 738.72 604.8 728.823 617.122 721.085C616.495 713.656 616.179 705.751 616.179 697.434C616.179 670.609 620.736 643.05 624.834 624.867L624.87 624.832ZM795.105 697.001C795.105 732.77 788.881 757.141 775.27 775.254C757.156 788.864 732.782 795.087 697.01 795.087C679.619 795.087 665.187 793.383 653.699 790.236C685.808 762.428 697.404 749.503 707.405 707.395C749.517 697.395 762.442 685.801 790.253 653.694C793.401 665.181 795.105 679.611 795.105 697.001ZM695.369 695.36C696.053 692.456 696.743 689.536 697.443 686.611C703.135 662.692 709.173 638.648 718.537 621.497C714.12 621.171 709.401 621 704.37 621C678.706 621 656.056 625.261 638.797 638.793C625.264 656.051 621.002 678.699 621.002 704.361C621.002 709.391 621.173 714.109 621.499 718.526C638.652 709.163 662.698 703.125 686.619 697.434C689.544 696.734 692.464 696.045 695.369 695.36ZM710.34 680.838C716.526 653.583 723.732 621.833 736.37 612.81C765.143 592.27 783.489 626.757 772.342 653.309C761.195 679.863 738.773 690.88 706.824 695.991C707.979 691.242 709.14 686.124 710.34 680.838ZM680.842 710.331C653.586 716.516 621.835 723.721 612.812 736.358C592.269 765.128 626.759 783.473 653.314 772.326C679.87 761.18 690.888 738.76 696 706.814C691.275 707.963 686.186 709.118 680.927 710.311L680.842 710.331ZM801.895 899.999C801.895 864.23 808.119 839.859 821.73 821.746C839.844 808.136 864.218 801.913 899.99 801.913C917.381 801.913 931.813 803.617 943.301 806.764C911.192 834.572 899.596 847.497 889.595 889.605C847.483 899.605 834.558 911.199 806.747 943.306C803.599 931.819 801.895 917.389 801.895 899.999ZM910.381 899.566C907.456 900.266 904.536 900.955 901.631 901.64L899.979 908.619L899.557 910.389C893.865 934.308 887.827 958.352 878.463 975.503C882.88 975.829 887.599 976 892.63 976C918.294 976 940.944 971.739 958.203 958.207C971.736 940.949 975.998 918.301 975.998 892.639C975.998 887.609 975.827 882.891 975.501 878.474C958.348 887.837 934.302 893.875 910.381 899.566ZM886.66 916.162C880.474 943.417 873.268 975.167 860.63 984.19C831.857 1004.73 813.511 970.243 824.658 943.691C835.805 917.137 858.227 906.12 890.176 901.009C889.021 905.759 887.86 910.876 886.66 916.162ZM916.158 886.669C943.414 880.484 975.165 873.279 984.188 860.642C1004.73 831.872 970.241 813.527 943.686 824.674C917.13 835.82 906.112 858.24 901 890.186C903.201 889.65 905.482 889.114 907.822 888.573C910.531 887.946 913.32 887.313 916.158 886.669ZM775.301 821.714C788.914 839.831 795.139 864.206 795.139 899.981C795.139 917.374 793.435 931.807 790.287 943.296C762.471 911.184 749.543 899.588 707.424 889.586C697.421 847.47 685.824 834.543 653.708 806.73C665.199 803.582 679.633 801.878 697.027 801.878C732.805 801.878 757.184 808.103 775.301 821.714ZM697.46 910.373C696.76 907.448 696.07 904.527 695.386 901.623C693.857 901.262 692.324 900.9 690.788 900.537C689.405 900.209 688.021 899.88 686.635 899.548C662.709 893.856 638.659 887.817 621.503 878.452C621.177 882.87 621.006 887.589 621.006 892.62C621.006 918.287 625.268 940.938 638.804 958.199C656.067 971.733 678.72 975.995 704.389 975.995C709.42 975.995 714.14 975.825 718.558 975.499C709.193 958.344 703.153 934.296 697.46 910.373ZM736.394 984.187C723.754 975.162 716.546 943.407 710.36 916.148L710.345 916.081L710.324 915.986C709.136 910.755 707.986 905.693 706.843 900.991C738.797 906.104 761.223 917.123 772.372 943.68C783.522 970.238 765.172 1004.73 736.394 984.187ZM680.859 886.65L680.87 886.652C686.154 887.851 691.27 889.012 696.017 890.166C690.904 858.215 679.884 835.791 653.324 824.643C626.764 813.495 592.268 831.843 612.814 860.618C621.839 873.257 653.597 880.464 680.859 886.65ZM801.861 697.019C801.861 732.794 808.086 757.169 821.699 775.286C839.816 788.897 864.195 795.122 899.973 795.122C917.367 795.122 931.801 793.418 943.292 790.27C911.176 762.457 899.579 749.53 889.576 707.414C847.457 697.412 834.529 685.816 806.713 653.704C803.565 665.193 801.861 679.626 801.861 697.019ZM901.614 695.377C900.93 692.473 900.24 689.552 899.54 686.627C893.847 662.704 887.807 638.656 878.442 621.501C882.86 621.175 887.58 621.004 892.611 621.004C918.28 621.004 940.933 625.266 958.196 638.801C971.732 656.062 975.994 678.713 975.994 704.38C975.994 709.411 975.822 714.13 975.497 718.548C958.341 709.183 934.291 703.144 910.365 697.452C907.44 696.752 904.519 696.062 901.614 695.377ZM886.64 680.852C880.454 653.593 873.246 621.838 860.606 612.813C831.828 592.269 813.478 626.762 824.628 653.32C835.777 679.877 858.203 690.896 890.157 696.009C889.007 691.279 887.85 686.184 886.656 680.921L886.64 680.852ZM916.143 710.351C943.405 716.537 975.161 723.743 984.186 736.382C1004.73 765.157 970.236 783.505 943.676 772.357C917.116 761.209 906.096 738.785 900.983 706.834C905.731 707.988 910.848 709.149 916.133 710.348L916.143 710.351ZM797.873 869.839C803.968 810.161 808.906 805.221 868.586 799.124C808.909 793.033 803.968 788.091 797.873 728.413C791.779 788.088 786.84 793.03 727.161 799.124C786.837 805.222 791.779 810.16 797.873 869.839Z" fill="#E8E4DF"/>
<path fill-rule="evenodd" clip-rule="evenodd" d="M798.5 1590C1235.63 1590 1590 1235.63 1590 798.5C1590 361.367 1235.63 7 798.5 7C361.367 7 7 361.367 7 798.5C7 1235.63 361.367 1590 798.5 1590ZM798.5 1597C1239.5 1597 1597 1239.5 1597 798.5C1597 357.501 1239.5 0 798.5 0C357.501 0 0 357.501 0 798.5C0 1239.5 357.501 1597 798.5 1597ZM1552 798.5C1552 1214.65 1214.65 1552 798.5 1552C382.353 1552 45 1214.65 45 798.5C45 382.353 382.353 45 798.5 45C1214.65 45 1552 382.353 1552 798.5ZM1559 798.5C1559 1218.51 1218.51 1559 798.5 1559C378.487 1559 38 1218.51 38 798.5C38 378.487 378.487 38 798.5 38C1218.51 38 1559 378.487 1559 798.5ZM1094 798.5C1094 961.7 961.7 1094 798.5 1094C635.3 1094 503 961.7 503 798.5C503 635.3 635.3 503 798.5 503C961.7 503 1094 635.3 1094 798.5ZM722.379 1091.34C698.406 1085.13 675.588 1076.05 654.311 1064.49C654.377 1064.53 654.444 1064.56 654.51 1064.6C654.993 1067.68 655.485 1070.75 655.984 1073.79C656.588 1077.48 657.203 1081.14 657.831 1084.77C678.895 1087.59 700.436 1089.8 722.379 1091.34ZM646.753 1060.24C557.531 1008.4 497.242 912.252 496.019 801.922C496.019 801.948 496.019 801.974 496.02 802H485.006C485.313 893.277 497.615 979.352 519.164 1055.45C560.048 1067.62 604.113 1077.2 650.556 1083.77C649.236 1076.04 647.968 1068.19 646.753 1060.24ZM496.019 795.078C497.242 684.748 557.531 588.596 646.753 536.757C647.968 528.805 649.236 520.961 650.556 513.229C604.113 519.799 560.048 529.383 519.164 541.546C497.615 617.648 485.313 703.723 485.006 795H496.02C496.019 795.026 496.019 795.052 496.019 795.078ZM654.575 532.367C675.931 520.793 698.836 511.715 722.901 505.523C722.727 505.568 722.553 505.613 722.379 505.658C700.436 507.203 678.895 509.406 657.831 512.229C656.685 518.868 655.578 525.594 654.51 532.401L654.575 532.367ZM945.976 1062.68C923.615 1075.19 899.503 1084.94 874.099 1091.48C874.274 1091.43 874.448 1091.39 874.622 1091.34C896.564 1089.8 918.104 1087.59 939.169 1084.77C939.735 1081.49 940.292 1078.19 940.839 1074.87C941.399 1071.47 941.95 1068.04 942.49 1064.6C943.656 1063.97 944.819 1063.33 945.976 1062.68ZM950.247 1060.24C949.033 1068.19 947.764 1076.04 946.444 1083.77C992.887 1077.2 1036.95 1067.62 1077.84 1055.45C1099.39 979.352 1111.69 893.277 1111.99 802H1100.98C1099.73 912.298 1039.45 1008.42 950.247 1060.24ZM1100.98 795C1099.73 684.702 1039.45 588.584 950.248 536.758C949.033 528.806 947.764 520.961 946.444 513.229C992.887 519.799 1036.95 529.383 1077.84 541.546C1099.39 617.648 1111.69 703.723 1111.99 795H1100.98ZM943.492 532.948C943.159 532.765 942.824 532.583 942.49 532.401C941.422 525.594 940.315 518.868 939.169 512.229C918.104 509.406 896.564 507.203 874.622 505.658C898.896 511.95 921.987 521.181 943.492 532.948ZM772.554 158.906C776.203 162.204 781.162 163.715 787.433 163.574C793.704 163.433 798.59 161.701 802.089 158.31C805.522 154.92 807.236 150.149 807.099 144L806.427 114L797.324 114.205L797.997 144.273C798.079 147.921 797.197 150.713 795.351 152.647C793.505 154.582 790.762 155.59 787.256 155.669C783.682 155.749 780.964 154.864 779.033 153.014C777.103 151.165 776.097 148.415 776.015 144.767L775.342 114.699L766.239 114.903L766.91 144.904C767.047 150.985 768.904 155.608 772.554 158.906ZM731.76 117.824L735.471 157.594L758.237 155.46L758.996 163.603L727.166 166.586L722.694 118.674L731.76 117.824ZM678.773 168.251C683.721 172.081 689.61 173.355 696.462 172.206C702.116 171.257 706.705 168.843 710.273 164.818C713.851 160.86 715.4 155.804 714.986 149.637L706.005 151.144C706.052 154.699 705.112 157.666 703.106 159.99C701.046 162.391 698.408 163.793 695.148 164.34C690.891 165.054 687.32 164.145 684.424 161.547C681.539 159.016 679.64 155.017 678.75 149.685C677.87 144.419 678.377 140.085 680.271 136.684C682.164 133.283 685.234 131.192 689.492 130.477C692.618 129.953 695.424 130.373 697.82 131.616C700.216 132.859 702.147 135.002 703.457 137.934L712.57 136.406C710.637 130.974 707.452 127.054 703.093 124.701C698.678 122.427 693.699 121.686 688.178 122.612C681.26 123.772 676.05 126.976 672.661 132.067C669.161 137.314 668.101 143.659 669.37 151.258C670.639 158.857 673.77 164.499 678.773 168.251ZM649.322 180.343L640.041 182.973L633.525 173.793L613.276 179.532L612.588 190.754L603.567 193.31L608.086 142.021L618.34 139.115L649.322 180.343ZM614.165 165.794L613.826 171.298L628.753 167.068L625.522 162.575C622.882 159.18 619.513 154.445 615.332 148.326C615.039 154.238 614.643 160.04 614.165 165.794ZM570.653 154.071L575.038 165.849C578.126 174.145 580.9 181.403 583.424 187.601C580.759 185.279 576.408 181.712 570.416 177.027L550.368 161.654L540.889 165.198L557.674 210.283L565.889 207.212L561.504 195.434C557.85 185.619 555.013 178.385 553.118 173.683C556.381 176.647 560.796 180.19 566.189 184.233L586.174 199.629L595.653 196.086L578.868 151L570.653 154.071ZM546.712 215.252L538.377 218.925L519.045 174.875L527.38 171.202L546.712 215.252ZM493.979 186.641L497.4 210.68C498.009 214.933 498.805 219.546 499.849 224.638C498.911 223.695 498.038 222.817 497.231 222.005C493.53 218.283 491.202 215.941 490.196 214.964L472.074 198.047L460.344 204.155L482.487 246.855L490.267 242.804L483.519 229.79C479.413 221.874 475.655 214.92 472.363 208.865C474.019 210.592 476.716 213.301 480.573 216.928L501.878 236.758L508.521 233.299L504.513 204.463C503.935 200.27 503.301 196.411 502.644 192.945C505.637 199.155 509.247 206.263 513.383 214.239L520.132 227.253L527.852 223.233L505.709 180.533L493.979 186.641ZM475.309 251.122L467.18 256.324L458.297 249.419L440.562 260.768L443.135 271.712L435.234 276.769L424.791 226.354L433.772 220.607L475.309 251.122ZM437.457 247.358L438.718 252.727L451.792 244.36L447.405 240.992C443.899 238.505 439.31 234.946 433.545 230.295C434.966 236.042 436.258 241.71 437.457 247.358ZM802 225.011C1115.96 226.888 1370.11 481.042 1371.99 795H1372V802H1371.99C1370.11 1115.96 1115.96 1370.11 802 1371.99V1372H795V1371.99C481.041 1370.11 226.887 1115.96 225.01 802H225V795H225.01C226.887 481.041 481.041 226.888 795 225.011V225H802V225.011ZM232.04 802C233.708 875.889 288.141 944.531 379.461 996.975C361.997 936.164 352.327 870.506 352.008 802H232.04ZM352.008 795H232.04C233.708 721.111 288.141 652.469 379.461 600.025C361.997 660.836 352.327 726.494 352.008 795ZM359.008 802C359.338 872.525 369.634 939.854 388.137 1001.85C390.809 1003.31 393.51 1004.77 396.24 1006.21C430.46 1024.26 469.088 1040.03 511.22 1053.05C490.226 977.328 478.307 892.128 478.006 802H359.008ZM478.006 795H359.008C359.338 724.475 369.634 657.146 388.137 595.153C390.809 593.686 393.51 592.231 396.24 590.792C430.46 572.742 469.088 556.966 511.22 543.954C490.226 619.672 478.307 704.872 478.006 795ZM1118.99 802C1118.69 892.128 1106.77 977.328 1085.78 1053.05C1127.91 1040.03 1166.54 1024.26 1200.76 1006.21C1201.03 1006.07 1201.29 1005.93 1201.56 1005.79C1202.1 1005.5 1202.65 1005.21 1203.19 1004.92C1203.53 1004.74 1203.87 1004.56 1204.2 1004.38C1204.63 1004.15 1205.06 1003.91 1205.49 1003.68C1205.78 1003.52 1206.08 1003.37 1206.37 1003.21C1206.67 1003.05 1206.97 1002.88 1207.27 1002.72C1207.8 1002.43 1208.33 1002.14 1208.86 1001.85C1227.37 939.854 1237.66 872.525 1237.99 802H1118.99ZM1237.99 795H1118.99C1118.69 704.872 1106.77 619.672 1085.78 543.954C1127.91 556.966 1166.54 572.742 1200.76 590.792C1203.49 592.231 1206.19 593.686 1208.86 595.153C1227.37 657.146 1237.66 724.475 1237.99 795ZM1244.99 802C1244.67 870.506 1235 936.164 1217.54 996.975C1308.86 944.531 1363.29 875.889 1364.96 802H1244.99ZM1364.96 795H1244.99C1244.67 726.494 1235 660.836 1217.54 600.025C1308.86 652.469 1363.29 721.111 1364.96 795ZM859.139 1322.91C840.37 1349.61 821.002 1363.36 802 1364.86V1272.99C831.66 1272.84 860.787 1270.84 889.217 1267.1C879.782 1289.14 869.701 1307.88 859.139 1322.91ZM892.338 1259.63C862.947 1263.67 832.774 1265.84 802 1265.99V1100.99C848.845 1100.85 894.358 1097.74 937.901 1092C930.728 1132.2 922.13 1169.14 912.352 1202.03C906.117 1223 899.421 1242.26 892.338 1259.63ZM795 1265.99V1100.99C748.155 1100.85 702.642 1097.74 659.099 1092C666.272 1132.2 674.869 1169.14 684.648 1202.03C690.883 1223 697.579 1242.26 704.662 1259.63C734.053 1263.67 764.226 1265.84 795 1265.99ZM659.099 504.998C702.642 499.263 748.155 496.153 795 496.006V331.009C764.226 331.162 734.053 333.335 704.662 337.373C697.579 354.738 690.883 373.997 684.648 394.969C674.869 427.861 666.272 464.804 659.099 504.998ZM802 331.009V496.006C848.845 496.153 894.358 499.263 937.901 504.998C930.728 464.804 922.13 427.861 912.352 394.969C906.117 373.997 899.421 354.738 892.338 337.373C862.947 333.335 832.774 331.162 802 331.009ZM889.217 329.903C860.787 326.164 831.66 324.155 802 324.009V232.139C821.002 233.642 840.37 247.391 859.139 274.094C869.701 289.119 879.782 307.859 889.217 329.903ZM737.861 274.094C756.63 247.391 775.998 233.642 795 232.139V324.009C765.34 324.155 736.213 326.164 707.783 329.903C717.218 307.859 727.299 289.119 737.861 274.094ZM795 1364.86V1272.99C765.34 1272.84 736.213 1270.84 707.783 1267.1C717.218 1289.14 727.299 1307.88 737.861 1322.91C756.63 1349.61 775.998 1363.36 795 1364.86ZM236.882 860.056C258.871 916.16 310.316 966.583 382.31 1006.62C401.027 1068.33 427.822 1124.84 461.025 1174.03C340.759 1100.25 257.345 988.1 236.882 860.056ZM589.402 1233.15C548.918 1219.87 510.755 1202.86 475.523 1182.63C439.941 1133.01 411.133 1075.13 391.063 1011.39C427.327 1030.7 468.489 1047.44 513.485 1061.06C532.455 1126.86 558.333 1185.25 589.402 1233.15ZM696.651 1258.48C663.318 1253.49 631.021 1246.1 600.028 1236.53C592.384 1225.2 585.027 1213.22 577.983 1200.61C555.547 1160.46 536.428 1114.25 521.467 1063.43C562.148 1075.29 605.852 1084.62 651.815 1091.01C663.348 1156.31 678.625 1213.25 696.651 1258.48ZM1019.02 1200.61C1011.97 1213.22 1004.62 1225.2 996.972 1236.53C965.979 1246.1 933.682 1253.49 900.349 1258.48C918.375 1213.25 933.652 1156.31 945.186 1091.01C991.147 1084.62 1034.85 1075.29 1075.53 1063.43C1060.57 1114.25 1041.45 1160.46 1019.02 1200.61ZM1121.48 1182.63C1086.25 1202.86 1048.08 1219.87 1007.6 1233.15C1038.67 1185.25 1064.54 1126.86 1083.51 1061.06C1128.51 1047.44 1169.67 1030.7 1205.94 1011.39C1185.87 1075.13 1157.06 1133.01 1121.48 1182.63ZM1360.12 860.056C1339.65 988.1 1256.24 1100.25 1135.98 1174.03C1169.18 1124.84 1195.97 1068.33 1214.69 1006.62C1286.68 966.583 1338.13 916.16 1360.12 860.056ZM1135.98 422.973C1256.24 496.755 1339.65 608.9 1360.12 736.944C1338.13 680.84 1286.68 630.417 1214.69 590.376C1195.97 528.673 1169.18 472.157 1135.98 422.973ZM1007.6 363.852C1048.08 377.127 1086.25 394.141 1121.48 414.367C1157.06 463.991 1185.87 521.87 1205.94 585.613C1169.67 566.305 1128.51 549.561 1083.51 535.941C1064.54 470.141 1038.67 411.754 1007.6 363.852ZM900.349 338.522C933.682 343.511 965.979 350.902 996.972 360.47C1004.62 371.799 1011.97 383.784 1019.02 396.389C1041.45 436.535 1060.57 482.749 1075.53 533.57C1034.85 521.71 991.148 512.381 945.186 505.985C933.652 440.69 918.375 383.754 900.349 338.522ZM600.028 360.47C631.021 350.902 663.318 343.511 696.651 338.522C678.625 383.754 663.348 440.69 651.815 505.985C605.852 512.381 562.149 521.71 521.467 533.57C536.428 482.749 555.547 436.535 577.983 396.389C585.027 383.784 592.384 371.799 600.028 360.47ZM475.523 414.367C510.755 394.141 548.918 377.127 589.402 363.852C558.333 411.753 532.455 470.141 513.485 535.941C468.489 549.561 427.327 566.305 391.063 585.613C411.133 521.87 439.941 463.991 475.523 414.367ZM236.882 736.944C257.345 608.9 340.759 496.755 461.025 422.973C427.822 472.157 401.027 528.673 382.31 590.376C310.316 630.417 258.871 680.84 236.882 736.944ZM247.411 666.708C284.26 561.04 364.304 470.526 470.7 409.1C528.125 329.387 602.956 270.66 687.435 242.883C470.615 285.982 298.371 452.827 247.411 666.708ZM247.411 930.292C298.371 1144.17 470.615 1311.02 687.436 1354.12C602.956 1326.34 528.125 1267.61 470.7 1187.9C364.304 1126.47 284.26 1035.96 247.411 930.292ZM909.564 1354.12C994.044 1326.34 1068.87 1267.61 1126.3 1187.9C1232.7 1126.47 1312.74 1035.96 1349.59 930.292C1298.63 1144.17 1126.38 1311.02 909.564 1354.12ZM1349.59 666.708C1312.74 561.04 1232.7 470.526 1126.3 409.1C1068.87 329.387 994.044 270.66 909.565 242.883C1126.38 285.982 1298.63 452.827 1349.59 666.708ZM726.157 1357.33C632.986 1337.37 549.389 1279.52 485.585 1196.21C519.886 1214.72 556.729 1230.28 595.586 1242.44C632.993 1297.25 677.452 1337.22 726.157 1357.33ZM766.811 1362.11C707.274 1351.21 652.049 1309.9 606.398 1245.73C636.43 1254.56 667.614 1261.38 699.714 1265.99C719.388 1313.11 742.164 1346.53 766.811 1362.11ZM830.189 1362.11C854.836 1346.53 877.612 1313.11 897.286 1265.99C929.386 1261.38 960.57 1254.56 990.602 1245.73C944.951 1309.9 889.726 1351.21 830.189 1362.11ZM870.843 1357.33C919.548 1337.22 964.007 1297.25 1001.41 1242.44C1040.27 1230.28 1077.11 1214.72 1111.42 1196.21C1047.61 1279.52 964.014 1337.37 870.843 1357.33ZM870.843 239.67C964.014 259.629 1047.61 317.482 1111.42 400.789C1077.11 382.276 1040.27 366.72 1001.41 354.556C964.007 299.747 919.548 259.777 870.843 239.67ZM830.189 234.887C889.726 245.785 944.951 287.099 990.602 351.274C960.57 342.443 929.386 335.624 897.286 331.013C877.612 283.891 854.836 250.469 830.189 234.887ZM766.811 234.887C742.164 250.469 719.388 283.891 699.714 331.013C667.614 335.624 636.43 342.443 606.398 351.274C652.049 287.099 707.274 245.785 766.811 234.887ZM726.157 239.67C677.452 259.777 632.993 299.747 595.587 354.556C556.729 366.72 519.886 382.276 485.585 400.789C549.389 317.482 632.986 259.629 726.157 239.67ZM243.64 397.821L221 430.779L227.722 435.415L236.442 422.723L269.276 445.371L274.477 437.8L241.643 415.151L250.362 402.458L243.64 397.821ZM285.613 375.706L270.602 363.567L276.321 356.466L313.691 386.688L307.973 393.788L292.017 380.884L277.996 398.293L293.952 411.197L288.234 418.297L250.863 388.076L256.582 380.976L271.593 393.115L285.613 375.706ZM316.822 324.551L310.876 318.95L286.622 344.801L321.61 377.763L345.772 352.01L339.826 346.408L321.901 365.514L312.761 356.903L329.069 339.521L323.369 334.151L307.06 351.533L298.805 343.755L316.822 324.551ZM380.29 321.518C375.357 325.823 370.612 328.082 365.967 328.192C361.367 328.353 357.247 326.391 353.659 322.263L360.424 316.359C362.683 318.959 365.04 320.128 367.541 319.918C370.041 319.707 372.716 318.359 375.666 315.785C378.005 313.743 379.482 311.737 379.956 309.71C380.38 307.728 379.933 305.876 378.427 304.144C377.187 302.716 375.697 302.134 373.965 302.302C372.277 302.521 369.768 303.545 366.439 305.374L362.856 307.426C353.833 312.79 346.779 312.494 341.64 306.582C338.938 303.473 337.938 299.954 338.734 296.033C339.479 292.157 341.943 288.303 346.165 284.619C350.946 280.447 355.443 278.315 359.656 278.223C363.869 278.131 367.672 279.831 371.014 283.368L364.351 289.182C362.427 287.277 360.386 286.369 358.279 286.415C356.217 286.512 353.79 287.733 351.095 290.086C348.958 291.95 347.736 293.734 347.281 295.475C346.871 297.267 347.242 298.825 348.482 300.252C349.767 301.73 351.25 302.408 352.932 302.285C354.658 302.212 357.115 301.233 360.203 299.434L363.888 297.294C368.863 294.476 373.022 293.087 376.366 293.127C379.709 293.166 382.669 294.617 385.238 297.573C388.339 301.14 389.408 305.047 388.548 309.203C387.638 313.403 384.868 317.523 380.29 321.518ZM402.403 241.261L370.484 265.299L375.387 271.837L387.68 262.579L411.628 294.509L418.961 288.987L395.013 257.056L407.306 247.798L402.403 241.261ZM850.277 138.699C852.852 139.787 854.789 141.449 856.16 143.555C857.529 145.728 858.141 148.13 858.002 150.694C857.764 155.081 856.1 158.375 853.139 160.65C850.179 162.925 845.941 163.845 840.553 163.552L818.127 162.33L820.733 114.28L842.419 115.461C847.402 115.733 851.179 117.089 853.748 119.53C856.25 121.968 857.433 125.078 857.235 128.723C856.979 133.447 854.637 136.771 850.277 138.699ZM841.339 122.916L829.418 122.266L828.738 134.819L840.658 135.468C842.948 135.593 844.728 135.148 846.003 134.067C847.277 132.986 848.038 131.403 848.148 129.378C848.251 127.489 847.658 125.967 846.504 124.821C845.283 123.672 843.561 123.037 841.339 122.916ZM827.628 155.267L840.492 155.968C843.051 156.107 845.033 155.674 846.443 154.6C847.852 153.526 848.613 151.943 848.73 149.783C848.972 145.329 846.466 142.959 841.213 142.673L828.35 141.972L827.628 155.267ZM886.363 156.946L903.32 159.39L905.692 142.866L888.734 140.422L886.363 156.946ZM942.196 128.445L962.747 133.283C967.934 134.505 971.681 136.845 973.922 140.288C976.164 143.732 976.81 147.772 975.714 152.443C974.619 157.115 972.245 160.443 968.708 162.527C965.171 164.61 960.792 164.967 955.605 163.746L943.918 160.995L940.076 177.377L931.212 175.29L942.196 128.445ZM945.707 153.362L957 156.021C959.561 156.624 961.67 156.496 963.357 155.504C965.044 154.513 966.199 152.841 966.785 150.341C967.356 147.906 967.081 145.828 966.01 144.188C964.94 142.547 963.125 141.426 960.564 140.823L949.271 138.164L945.707 153.362ZM1015.66 192.778L1017.43 185.824C1018.13 183.141 1018.29 180.851 1017.75 178.979C1017.2 177.106 1015.96 175.438 1013.89 173.932C1019.54 173.734 1023.25 170.939 1024.99 165.396C1026.25 161.4 1025.83 157.794 1023.73 154.579C1021.63 151.363 1018.01 148.942 1012.93 147.335L992.156 140.765L977.702 186.654L986.385 189.4L992.049 171.418L1003.37 174.999C1005.81 175.772 1007.43 176.921 1008.24 178.383C1009.06 179.845 1009.09 181.982 1008.35 184.794L1006.96 189.882C1006.2 192.267 1006.09 194.214 1006.45 195.747L1015.39 198.575C1014.92 196.936 1014.97 194.969 1015.66 192.778ZM994.201 164.587L998.585 150.665L1009.84 154.225C1012.41 155.038 1014.16 156.229 1015.21 157.836C1016.26 159.444 1016.44 161.344 1015.75 163.535C1015.02 165.855 1013.74 167.436 1012.01 168.234C1010.27 169.031 1008.22 169.021 1005.78 168.248L994.201 164.587ZM1032.48 205.215L1023.96 202L1040.88 156.964L1049.4 160.179L1032.48 205.215ZM1092.91 178.504L1075.11 197.822C1071.15 202.128 1067.78 206.104 1064.93 209.721C1065.5 205.76 1066.16 200.584 1066.78 194.139L1068.84 167.864L1059.95 163.936L1056.68 215.083L1066.43 219.393L1101.55 182.323L1092.91 178.504ZM1128.23 250.994L1119.75 246.402L1121.45 235.267L1102.94 225.247L1094.64 232.817L1086.39 228.353L1125.3 194.715L1134.67 199.789L1128.23 250.994ZM1113.13 216.013L1109.06 219.725L1122.71 227.111L1123.51 221.633C1123.98 217.354 1124.85 211.605 1126.11 204.297C1121.79 208.333 1117.47 212.219 1113.13 216.013ZM1192.52 235.105L1158.94 213.47L1154.52 220.349L1167.46 228.682L1145.91 262.282L1153.62 267.252L1175.18 233.652L1188.11 241.984L1192.52 235.105ZM1230.58 263.204L1225.69 269.756L1204.62 253.983L1197.84 263.079L1216.91 277.357L1212.23 283.638L1193.16 269.361L1185.65 279.432L1206.62 295.125L1201.73 301.677L1173.47 280.524L1202.21 241.971L1230.58 263.204ZM1230.3 318.17C1230.31 324.435 1232.92 329.879 1238.02 334.601C1242.23 338.497 1246.95 340.652 1252.31 341.011C1257.62 341.42 1262.56 339.548 1267.17 335.441L1260.48 329.252C1257.71 331.468 1254.79 332.541 1251.73 332.377C1248.57 332.217 1245.85 330.987 1243.42 328.74C1240.25 325.807 1238.78 322.422 1239.05 318.537C1239.28 314.701 1241.27 310.747 1244.93 306.774C1248.54 302.851 1252.27 300.597 1256.12 300.013C1259.96 299.428 1263.49 300.578 1266.66 303.512C1268.99 305.667 1270.38 308.146 1270.87 310.805C1271.35 313.463 1270.85 316.306 1269.34 319.14L1276.13 325.421C1279.23 320.561 1280.37 315.637 1279.55 310.743C1278.64 305.854 1276.17 301.457 1272.06 297.652C1266.9 292.884 1261.19 290.722 1255.09 291.158C1248.81 291.601 1243.16 294.649 1237.94 300.311C1232.73 305.972 1230.2 311.909 1230.3 318.17ZM1302.54 329.231L1273.45 356.539L1289.08 373.26L1283.13 378.851L1261.27 355.472L1296.31 322.573L1302.54 329.231ZM1295.14 386.708C1294.77 391.619 1296.62 396.472 1300.57 401.352C1304.53 406.231 1308.89 409.039 1313.7 409.732C1318.48 410.373 1323.29 408.808 1328.06 404.931L1351.31 386.017L1345.57 378.933L1322.27 397.891C1319.44 400.191 1316.7 401.203 1314.04 400.927C1311.39 400.651 1308.91 399.096 1306.7 396.367C1304.45 393.586 1303.48 390.891 1303.75 388.229C1304.03 385.567 1305.58 383.086 1308.41 380.786L1331.71 361.829L1325.97 354.745L1302.72 373.66C1298.01 377.494 1295.5 381.798 1295.14 386.708ZM1358.7 435.876C1359.42 438.582 1359.29 441.134 1358.47 443.511C1357.6 445.925 1356.08 447.883 1353.97 449.344C1350.37 451.843 1346.75 452.543 1343.14 451.593C1339.53 450.643 1336.21 447.851 1333.14 443.405L1320.36 424.896L1359.85 397.517L1372.21 415.414C1375.05 419.527 1376.29 423.349 1375.94 426.88C1375.55 430.355 1373.82 433.197 1370.83 435.273C1366.95 437.965 1362.89 438.147 1358.7 435.876ZM1365.67 419.127L1358.88 409.289L1348.56 416.441L1355.35 426.279C1356.66 428.169 1358.1 429.306 1359.73 429.653C1361.37 430 1363.08 429.633 1364.74 428.479C1366.3 427.402 1367.13 426.001 1367.33 424.385C1367.49 422.714 1366.93 420.961 1365.67 419.127ZM1331.75 428.093L1339.08 438.709C1340.54 440.821 1342.1 442.125 1343.81 442.583C1345.52 443.041 1347.23 442.674 1349.01 441.443C1352.67 438.905 1353 435.469 1350.01 431.133L1342.68 420.518L1331.75 428.093ZM243.304 1198.82C242.256 1205.13 243.919 1211.2 248.295 1217.03C252.63 1222.8 258 1226.09 264.405 1226.91C270.673 1227.65 276.928 1225.77 283.087 1221.16C289.191 1216.58 292.747 1211.11 293.836 1204.85C294.843 1198.48 293.179 1192.41 288.844 1186.64C284.469 1180.81 279.099 1177.52 272.735 1176.76C266.275 1175.99 260.061 1177.92 254.012 1182.45C247.907 1187.03 244.311 1192.45 243.304 1198.82ZM254.781 1212.17C252.123 1208.63 251.195 1204.9 252.108 1200.9C252.924 1196.88 255.527 1193.31 259.778 1190.13C264.029 1186.94 268.13 1185.49 272.273 1185.78C276.32 1186.07 279.701 1187.96 282.359 1191.5C285.017 1195.04 285.89 1198.81 285.073 1202.82C284.174 1206.73 281.613 1210.35 277.362 1213.54C273.056 1216.76 268.859 1218.21 264.907 1217.94C260.764 1217.64 257.439 1215.71 254.781 1212.17ZM318.612 1244.09L328.098 1235.7L333.972 1242.32L297.66 1274.46L290.882 1266.82L298.103 1242.42C299.947 1235.88 301.676 1230.44 303.278 1226.3C299.544 1229.78 293.769 1235.07 285.864 1242.07L276.378 1250.46L270.504 1243.84L306.816 1211.71L313.594 1219.35L306.419 1243.79C304.188 1251.13 302.414 1256.52 301.198 1259.87C306.111 1255.25 311.931 1250.01 318.612 1244.09ZM319.025 1284.22L347.212 1255.5L340.643 1249.07L306.685 1283.67L329.751 1306.25L335.522 1300.37L319.025 1284.22ZM383.177 1300.11L392.882 1296.93L400.603 1303.51L367.699 1314.02L355.268 1328.57L348.272 1322.6L360.703 1308.06L365.83 1273.86L373.759 1280.62L372.146 1290.79C371.29 1295.85 370.644 1299.55 370.231 1301.91C369.961 1303.46 369.791 1304.43 369.728 1304.84C372.076 1303.98 376.545 1302.42 383.177 1300.11ZM446.09 1336.1L424.79 1351.85C420.048 1355.37 415.952 1358.66 412.446 1361.71C413.752 1357.89 415.38 1352.9 417.216 1346.64L424.211 1321.04L416.133 1315.47L403.24 1365.45L412.103 1371.55L453.943 1341.51L446.09 1336.1ZM442.097 1390.73L434.254 1385.93L459.6 1344.61L467.444 1349.41L442.097 1390.73ZM457.344 1396C459.083 1400.35 462.889 1404.05 468.695 1407.2C474.082 1410.13 478.95 1411.3 483.24 1410.69C487.47 1410.04 490.784 1407.66 493.063 1403.48C494.952 1400.01 495.28 1396.7 494.139 1393.52C492.999 1390.35 490.222 1386.9 485.807 1383.19L482.487 1380.45C479.7 1378.16 477.909 1376.18 477.233 1374.58C476.524 1373.03 476.642 1371.39 477.586 1369.66C478.497 1367.98 479.84 1367.08 481.677 1366.84C483.482 1366.66 485.598 1367.19 488.112 1368.56C491.285 1370.28 493.293 1372.15 494.111 1374.06C494.897 1376.04 494.758 1378.29 493.635 1380.78L501.476 1385.04C503.641 1380.64 503.908 1376.44 502.337 1372.49C500.766 1368.54 497.168 1365.03 491.542 1361.98C486.574 1359.28 482.064 1358.3 478.139 1358.95C474.154 1359.58 471.182 1361.76 469.196 1365.41C465.419 1372.34 467.624 1379.12 475.87 1385.77L479.07 1388.44C481.972 1390.94 483.823 1392.95 484.624 1394.47C485.393 1396.05 485.367 1397.67 484.456 1399.34C483.349 1401.37 481.757 1402.45 479.734 1402.74C477.652 1403 475.236 1402.31 472.483 1400.82C469.011 1398.93 466.796 1396.87 465.716 1394.58C464.637 1392.29 464.911 1389.65 466.572 1386.6L458.611 1382.28C455.974 1387.12 455.571 1391.71 457.344 1396ZM504.034 1423.89L495.738 1419.92L516.694 1376.21L524.99 1380.18L504.034 1423.89ZM522.059 1425.9C524.401 1431.86 528.945 1436.22 535.691 1438.98C542.375 1441.72 548.676 1441.79 554.593 1439.21C560.359 1436.65 564.765 1431.83 567.684 1424.71C570.577 1417.66 570.821 1411.14 568.542 1405.21C566.137 1399.22 561.593 1394.86 554.909 1392.13C548.163 1389.37 541.862 1389.29 536.007 1391.89C530.064 1394.54 525.721 1399.38 522.854 1406.37C519.961 1413.42 519.654 1419.92 522.059 1425.9ZM538.765 1431.49C534.667 1429.81 531.957 1427.08 530.686 1423.18C529.326 1419.31 529.73 1414.92 531.744 1410.01C533.759 1405.1 536.533 1401.74 540.243 1399.88C543.864 1398.05 547.737 1397.94 551.836 1399.62C555.934 1401.3 558.618 1404.09 559.978 1407.95C561.212 1411.77 560.871 1416.19 558.856 1421.1C556.816 1426.08 553.953 1429.46 550.421 1431.26C546.711 1433.12 542.864 1433.16 538.765 1431.49ZM609.958 1426.22L613.794 1414.15L622.237 1416.83L607.553 1463.01L597.811 1459.92L591.491 1435.28C589.716 1428.72 588.409 1423.16 587.657 1418.78C586.24 1423.69 583.998 1431.19 580.801 1441.25L576.965 1453.31L568.523 1450.63L583.207 1404.45L592.948 1407.54L599.334 1432.2C601.186 1439.64 602.428 1445.18 603.103 1448.68C604.95 1442.19 607.257 1434.71 609.958 1426.22ZM680.089 1438.61L681.795 1430.55L648.263 1423.47L638.224 1470.87L647.224 1472.78L651.552 1452.33L673.884 1457.05L675.52 1449.33L653.188 1444.61L655.557 1433.43L680.089 1438.61ZM700.417 1483.36C694.141 1482.48 689.441 1480.18 686.335 1476.31C683.229 1472.44 682.123 1467.55 682.97 1461.48L687.149 1431.55L696.26 1432.82L692.071 1462.82C691.563 1466.46 692.122 1469.35 693.748 1471.5C695.374 1473.65 697.942 1474.97 701.518 1475.47C705.027 1475.96 707.926 1475.4 710.079 1473.78C712.232 1472.15 713.563 1469.52 714.071 1465.88L718.26 1435.89L727.37 1437.16L723.191 1467.08C722.334 1473.22 719.854 1477.68 715.883 1480.5C711.845 1483.3 706.693 1484.23 700.417 1483.36ZM741.972 1478.6L744.783 1438.48L735.607 1437.84L732.22 1486.17L764.438 1488.43L765.014 1480.21L741.972 1478.6ZM783.912 1440.36L783.59 1480.58L806.687 1480.77L806.621 1489L774.325 1488.74L774.714 1440.29L783.912 1440.36ZM848.526 1446.68L848.073 1438.46L813.851 1440.34L816.517 1488.72L825.701 1488.22L824.552 1467.35L847.344 1466.1L846.909 1458.22L824.118 1459.47L823.489 1448.06L848.526 1446.68ZM869.21 1484.83L860.061 1485.78L855.069 1437.58L864.219 1436.63L869.21 1484.83ZM889.767 1473.96L883.748 1434.19L874.653 1435.56L881.904 1483.47L913.838 1478.65L912.606 1470.51L889.767 1473.96ZM947.383 1445.56L950.063 1421.26L963.072 1418.24L974.034 1465.45L965.471 1467.43L962.13 1453.04C960.083 1444.23 958.333 1436.39 956.961 1429.58C956.736 1433.13 956.388 1437.05 955.902 1441.28L952.594 1470.41L945.227 1472.12L929.352 1447.43C926.487 1442.93 924.527 1439.61 923.34 1437.51C925.043 1444.24 926.977 1451.97 929.009 1460.72L932.35 1475.1L923.721 1477.1L912.76 1429.9L925.769 1426.89L939.26 1447.93C940.001 1449.14 941.699 1452.02 944.399 1456.6L944.505 1456.78C945.056 1457.71 945.648 1458.72 946.28 1459.79C946.535 1454.56 946.913 1449.86 947.383 1445.56ZM1007.69 1412.66L1005.19 1404.82L971.105 1415.67L985.842 1461.84L1019.79 1451.02L1017.29 1443.18L992.101 1451.2L988.251 1439.14L1011.17 1431.84L1008.77 1424.32L985.85 1431.62L982.373 1420.72L1007.69 1412.66ZM1046.12 1402.38L1041.4 1390.64L1049.62 1387.34L1067.7 1432.3L1058.22 1436.11L1037.65 1421.11C1032.1 1417.18 1027.55 1413.72 1024.18 1410.82C1026.21 1415.5 1029.26 1422.71 1033.2 1432.5L1037.92 1444.25L1029.7 1447.55L1011.62 1402.58L1021.1 1398.78L1041.73 1413.75C1047.9 1418.32 1052.39 1421.8 1055.14 1424.07C1052.43 1417.89 1049.45 1410.65 1046.12 1402.38ZM1091.76 1366.97L1055.54 1384.71L1059.17 1392.1L1073.12 1385.27L1090.85 1421.38L1099.17 1417.31L1081.44 1381.19L1095.39 1374.36L1091.76 1366.97ZM1149.82 1359.39L1144.31 1335.57L1155.59 1328.43L1181.55 1369.37L1174.12 1374.07L1166.21 1361.59C1161.36 1353.94 1157.12 1347.12 1153.57 1341.15C1154.53 1344.57 1155.5 1348.39 1156.44 1352.55L1162.96 1381.13L1156.57 1385.17L1133.42 1367.11C1129.22 1363.8 1126.28 1361.32 1124.46 1359.73C1128.3 1365.52 1132.68 1372.17 1137.49 1379.76L1145.4 1392.24L1137.92 1396.97L1111.96 1356.04L1123.24 1348.9L1142.94 1364.31C1144.03 1365.21 1146.58 1367.36 1150.63 1370.78L1150.79 1370.91L1153.48 1373.19C1152 1368.17 1150.8 1363.61 1149.82 1359.39ZM1219.23 1341.09L1226.99 1335.2L1182.62 1308.04L1174.06 1314.55L1188.78 1364.27L1196.31 1358.54L1192.81 1347.77L1209.72 1334.9L1219.23 1341.09ZM1190.28 1339.86L1188.56 1334.57C1186.89 1329.01 1185.11 1323.43 1183.2 1317.78C1189.39 1321.96 1194.31 1325.15 1198.05 1327.36L1202.75 1330.37L1190.28 1339.86ZM1199.78 1294.68L1229.97 1267.97L1235.44 1274.13L1223.81 1284.42L1250.51 1314.53L1243.58 1320.67L1216.87 1290.56L1205.25 1300.85L1199.78 1294.68ZM1260.59 1237.04L1232.3 1265.76L1238.18 1271.54L1249.07 1260.47L1277.78 1288.68L1284.28 1282.08L1255.57 1253.88L1266.47 1242.81L1260.59 1237.04ZM1287.92 1205.36L1294.18 1210.72L1276.88 1230.87L1285.57 1238.31L1301.23 1220.08L1307.23 1225.22L1291.57 1243.45L1301.19 1251.7L1318.4 1231.65L1324.66 1237.01L1301.46 1264.03L1264.63 1232.48L1287.92 1205.36ZM1349.57 1194.65L1343.52 1190.68C1341.2 1189.12 1339.07 1188.22 1337.1 1188.12C1335.14 1188.03 1333.14 1188.66 1331.02 1190.14C1332.7 1184.69 1331.26 1180.23 1326.56 1176.74C1323.16 1174.23 1319.59 1173.44 1315.83 1174.39C1312.08 1175.33 1308.57 1177.99 1305.36 1182.31L1292.25 1199.96L1331.2 1228.84L1336.68 1221.46L1321.42 1210.14L1328.57 1200.53C1330.11 1198.45 1331.74 1197.28 1333.4 1196.99C1335.06 1196.7 1337.11 1197.37 1339.54 1199L1343.93 1202C1345.96 1203.5 1347.77 1204.26 1349.35 1204.41L1355 1196.81C1353.28 1196.73 1351.43 1196.03 1349.57 1194.65ZM1315.62 1205.84L1303.8 1197.08L1310.91 1187.52C1312.53 1185.33 1314.24 1184.06 1316.12 1183.59C1318 1183.11 1319.87 1183.57 1321.73 1184.95C1323.7 1186.41 1324.79 1188.14 1324.97 1190.06C1325.16 1191.98 1324.47 1193.93 1322.93 1196.01L1315.62 1205.84Z" fill="white"/>
<path fill-rule="evenodd" clip-rule="evenodd" d="M1465.56 763.088C1465.03 766.513 1464.06 771.45 1463.39 774.06C1462.72 776.67 1461.48 780.282 1460.62 782.088C1459.54 784.386 1458.3 786.14 1456.5 787.94C1454.87 789.577 1452.94 790.983 1451.2 791.811C1449.69 792.526 1447.25 793.506 1445.76 793.989C1444.28 794.472 1440.68 795.331 1437.76 795.898C1434.83 796.464 1430.83 797.166 1428.85 797.457C1425.86 797.9 1425.48 798.037 1426.54 798.299C1427.23 798.471 1430.36 799.026 1433.49 799.533C1436.62 800.039 1440.98 800.915 1443.19 801.479C1445.39 802.044 1448.76 803.256 1450.69 804.171C1453.04 805.294 1454.9 806.561 1456.39 808.066C1457.61 809.293 1459.14 811.247 1459.79 812.409C1460.44 813.571 1461.6 816.422 1462.37 818.746C1463.14 821.07 1464.28 825.918 1464.9 829.519C1465.52 833.121 1466.17 836.828 1466.35 837.758C1466.63 839.244 1466.7 839.32 1466.9 838.392C1467.03 837.811 1467.62 834.389 1468.21 830.787C1468.8 827.185 1469.78 822.527 1470.38 820.436C1470.99 818.345 1472.05 815.456 1472.74 814.015C1473.42 812.575 1474.93 810.359 1476.09 809.091C1477.24 807.824 1479.11 806.193 1480.24 805.468C1481.37 804.743 1483.84 803.582 1485.74 802.888C1487.63 802.194 1490.83 801.263 1492.85 800.82C1494.87 800.377 1499.07 799.605 1502.2 799.106C1505.33 798.606 1507.94 798.146 1508 798.083C1508.06 798.021 1506.45 797.73 1504.42 797.437C1502.39 797.143 1498.74 796.533 1496.3 796.079C1493.87 795.626 1490.27 794.772 1488.29 794.18C1486.32 793.59 1483.39 792.414 1481.78 791.567C1480.16 790.72 1477.88 789.07 1476.72 787.898C1475.55 786.727 1473.99 784.633 1473.26 783.245C1472.53 781.857 1471.53 779.486 1471.04 777.976C1470.54 776.466 1469.85 773.994 1469.5 772.484C1469.15 770.973 1468.4 766.903 1467.83 763.439C1467.27 759.975 1466.74 757.078 1466.66 757.002C1466.59 756.924 1466.09 759.664 1465.56 763.088Z" fill="white"/>
<path fill-rule="evenodd" clip-rule="evenodd" d="M129.563 763.088C129.035 766.513 128.057 771.45 127.389 774.06C126.722 776.67 125.478 780.282 124.623 782.088C123.536 784.386 122.301 786.14 120.504 787.94C118.87 789.577 116.941 790.983 115.197 791.811C113.69 792.526 111.245 793.506 109.765 793.989C108.284 794.472 104.68 795.331 101.755 795.898C98.8304 796.464 94.8251 797.166 92.8543 797.457C89.8566 797.9 89.4776 798.037 90.5357 798.299C91.2313 798.471 94.3614 799.026 97.4915 799.533C100.622 800.039 104.985 800.915 107.187 801.479C109.39 802.044 112.764 803.256 114.686 804.171C117.043 805.294 118.9 806.561 120.394 808.066C121.612 809.293 123.14 811.247 123.79 812.409C124.439 813.571 125.602 816.422 126.373 818.746C127.144 821.07 128.281 825.918 128.9 829.519C129.52 833.121 130.171 836.828 130.347 837.758C130.629 839.244 130.696 839.32 130.904 838.392C131.033 837.811 131.621 834.389 132.209 830.787C132.797 827.185 133.776 822.527 134.384 820.436C134.992 818.345 136.05 815.456 136.736 814.015C137.422 812.575 138.929 810.359 140.086 809.091C141.242 807.824 143.11 806.193 144.238 805.468C145.365 804.743 147.84 803.582 149.737 802.888C151.634 802.194 154.835 801.263 156.85 800.82C158.866 800.377 163.073 799.605 166.2 799.106C169.326 798.606 171.936 798.146 171.998 798.083C172.061 798.021 170.451 797.73 168.421 797.437C166.391 797.143 162.739 796.533 160.304 796.079C157.87 795.626 154.265 794.772 152.294 794.18C150.324 793.59 147.39 792.414 145.775 791.567C144.16 790.72 141.884 789.07 140.716 787.898C139.549 786.727 137.995 784.633 137.262 783.245C136.53 781.857 135.528 779.486 135.035 777.976C134.543 776.466 133.854 773.994 133.503 772.484C133.153 770.973 132.401 766.903 131.834 763.439C131.267 759.975 130.74 757.078 130.663 757.002C130.587 756.924 130.091 759.664 129.563 763.088Z" fill="white"/>
</svg>
