<svg width="1597" height="1597" viewBox="0 0 1597 1597" fill="none" xmlns="http://www.w3.org/2000/svg">
<path fill-rule="evenodd" clip-rule="evenodd" d="M520.606 520.545C549.709 513.987 593.821 506.693 636.758 506.693C650.071 506.693 662.723 507.198 674.616 508.202C687.001 488.483 702.843 476 724.368 476C769.475 476 791.7 530.314 798.473 599.675C805.25 530.313 827.479 476.001 872.59 476.001C894.118 476.001 909.962 488.485 922.349 508.208C934.244 507.204 946.899 506.699 960.214 506.699C1003.16 506.699 1047.28 513.994 1076.39 520.553L1076.44 520.61C1083 549.716 1090.3 593.831 1090.3 636.772C1090.3 650.086 1089.79 662.739 1088.79 674.633C1108.51 687.019 1121 702.863 1121 724.389C1121 769.559 1066.53 791.785 997.023 798.527C1066.53 805.266 1121 827.488 1121 872.654C1121 894.177 1108.52 910.017 1088.79 922.402C1089.8 934.293 1090.3 946.944 1090.3 960.256C1090.3 1003.19 1083.01 1047.3 1076.45 1076.4L1076.39 1076.46C1047.29 1083.01 1003.18 1090.31 960.242 1090.31C946.929 1090.31 934.277 1089.8 922.384 1088.8C909.999 1108.52 894.157 1121 872.632 1121C827.525 1121 805.3 1066.69 798.527 997.325C791.75 1066.69 769.521 1121 724.41 1121C702.882 1121 687.038 1108.51 674.651 1088.79C662.756 1089.8 650.101 1090.3 636.786 1090.3C593.84 1090.3 549.722 1083.01 520.613 1076.45L520.556 1076.39C513.997 1047.28 506.701 1003.17 506.701 960.228C506.701 946.914 507.207 934.261 508.211 922.367C488.486 909.981 476 894.137 476 872.611C476 827.441 530.469 805.215 599.977 798.473C530.47 791.734 476 769.512 476 724.346C476 702.823 488.484 686.983 508.205 674.598C507.202 662.707 506.696 650.056 506.696 636.744C506.696 593.81 513.99 549.702 520.549 520.602L520.606 520.545ZM793.066 636.051C793.066 693.3 783.104 732.306 761.321 761.295C732.329 783.077 693.319 793.038 636.066 793.038C608.231 793.038 585.133 790.311 566.746 785.274C618.138 740.766 636.695 720.081 652.703 652.687C720.103 636.681 740.79 618.125 785.301 566.738C790.339 585.124 793.066 608.219 793.066 636.051ZM633.439 633.425C634.535 628.777 635.638 624.103 636.759 619.423C645.868 581.14 655.533 542.658 670.519 515.207C663.45 514.685 655.898 514.411 647.846 514.411C606.77 514.411 570.52 521.232 542.896 542.89C521.236 570.511 514.415 606.759 514.415 647.831C514.415 655.881 514.689 663.433 515.21 670.502C542.664 655.517 581.15 645.853 619.435 636.744C624.116 635.624 628.791 634.521 633.439 633.425ZM657.401 610.182C667.3 566.561 678.834 515.745 699.062 501.304C745.112 468.429 774.475 523.625 756.634 566.123C738.793 608.621 702.906 626.254 651.773 634.435C653.621 626.833 655.48 618.643 657.401 610.182ZM610.189 657.385C566.566 667.284 515.748 678.816 501.307 699.042C468.429 745.088 523.63 774.449 566.131 756.609C608.633 738.77 626.268 702.886 634.449 651.757C626.887 653.597 618.741 655.445 610.325 657.354L610.189 657.385ZM803.934 960.949C803.934 903.7 813.896 864.694 835.679 835.705C864.671 813.923 903.681 803.962 960.934 803.962C988.769 803.962 1011.87 806.689 1030.25 811.726C978.862 856.234 960.305 876.919 944.297 944.313C876.897 960.319 856.21 978.875 811.699 1030.26C806.661 1011.88 803.934 988.781 803.934 960.949ZM977.565 960.256C972.884 961.376 968.209 962.479 963.561 963.575L960.918 974.746L960.241 977.577C951.132 1015.86 941.467 1054.34 926.481 1081.79C933.55 1082.31 941.102 1082.59 949.154 1082.59C990.23 1082.59 1026.48 1075.77 1054.1 1054.11C1075.76 1026.49 1082.59 990.241 1082.59 949.169C1082.59 941.118 1082.31 933.567 1081.79 926.498C1054.34 941.483 1015.85 951.147 977.565 960.256ZM939.599 986.818C929.7 1030.44 918.166 1081.25 897.938 1095.7C851.888 1128.57 822.525 1073.37 840.366 1030.88C858.207 988.379 894.094 970.746 945.228 962.565C943.379 970.167 941.52 978.357 939.599 986.818ZM986.811 939.615C1030.43 929.715 1081.25 918.184 1095.69 897.958C1128.57 851.912 1073.37 822.551 1030.87 840.391C988.367 858.23 970.732 894.114 962.551 945.243C966.074 944.386 969.724 943.527 973.469 942.661C977.805 941.658 982.27 940.645 986.811 939.615ZM761.37 835.655C783.157 864.65 793.121 903.663 793.121 960.92C793.121 988.758 790.393 1011.86 785.355 1030.25C740.836 978.85 720.145 960.29 652.733 944.282C636.723 876.876 618.162 856.187 566.762 811.672C585.152 806.634 608.253 803.907 636.093 803.907C693.356 803.907 732.373 813.869 761.37 835.655ZM636.786 977.552C635.666 972.871 634.562 968.196 633.466 963.548C631.019 962.971 628.565 962.391 626.107 961.809C623.894 961.285 621.678 960.758 619.46 960.227C581.168 951.117 542.675 941.451 515.217 926.464C514.696 933.534 514.421 941.087 514.421 949.139C514.421 990.218 521.243 1026.47 542.907 1054.1C570.536 1075.76 606.793 1082.58 647.875 1082.58C655.928 1082.58 663.482 1082.31 670.553 1081.79C655.564 1054.33 645.898 1015.84 636.786 977.552ZM699.1 1095.69C678.869 1081.25 667.334 1030.42 657.432 986.795L657.409 986.688L657.374 986.535C655.473 978.164 653.633 970.062 651.803 962.537C702.946 970.719 738.839 988.355 756.683 1030.86C774.527 1073.37 745.158 1128.57 699.1 1095.69ZM610.215 939.583L610.234 939.587C618.691 941.506 626.878 943.364 634.477 945.212C626.294 894.074 608.656 858.184 566.147 840.341C523.637 822.499 468.427 851.865 501.311 897.92C515.755 918.148 566.584 929.682 610.215 939.583ZM803.879 636.08C803.879 693.337 813.843 732.35 835.63 761.345C864.627 783.131 903.644 793.093 960.907 793.093C988.747 793.093 1011.85 790.366 1030.24 785.328C978.838 740.813 960.277 720.124 944.267 652.718C876.855 636.71 856.164 618.15 811.645 566.754C806.607 585.143 803.879 608.242 803.879 636.08ZM963.534 633.452C962.438 628.804 961.334 624.129 960.214 619.448C951.102 581.159 941.436 542.67 926.447 515.214C933.518 514.693 941.072 514.419 949.125 514.419C990.207 514.419 1026.46 521.24 1054.09 542.902C1075.76 570.528 1082.58 606.782 1082.58 647.861C1082.58 655.913 1082.3 663.466 1081.78 670.536C1054.32 655.549 1015.83 645.883 977.54 636.773C972.858 635.652 968.183 634.548 963.534 633.452ZM939.568 610.205C929.666 566.577 918.131 515.752 897.9 501.309C851.842 468.428 822.473 523.634 840.317 566.139C858.161 608.645 894.055 626.281 945.197 634.463C943.356 626.893 941.505 618.739 939.593 610.315L939.568 610.205ZM986.788 657.417C1030.42 667.318 1081.24 678.852 1095.69 699.081C1128.57 745.135 1073.36 774.501 1030.85 756.659C988.344 738.816 970.706 702.926 962.523 651.788C970.124 653.636 978.312 655.494 986.771 657.414L986.788 657.417ZM797.497 912.677C807.251 817.164 815.155 809.257 910.672 799.499C815.16 789.751 807.251 781.841 797.497 686.326C787.743 781.836 779.839 789.745 684.322 799.499C779.834 809.259 787.743 817.163 797.497 912.677Z" fill="#E8E4DF"/>
<circle cx="798.5" cy="798.5" r="568" stroke="white" stroke-width="7"/>
<circle cx="798.5" cy="798.5" r="757" stroke="white" stroke-width="7"/>
<circle cx="798.5" cy="798.5" r="795" stroke="white" stroke-width="7"/>
<path d="M221 430.779L243.64 397.821L250.362 402.458L241.643 415.151L274.477 437.8L269.276 445.371L236.442 422.723L227.722 435.415L221 430.779Z" fill="white"/>
<path d="M285.613 375.706L270.602 363.567L276.321 356.466L313.691 386.688L307.973 393.788L292.017 380.884L277.996 398.293L293.952 411.197L288.234 418.297L250.863 388.076L256.582 380.976L271.593 393.115L285.613 375.706Z" fill="white"/>
<path d="M310.876 318.95L316.822 324.551L298.805 343.755L307.06 351.533L323.369 334.151L329.069 339.521L312.761 356.903L321.901 365.514L339.826 346.408L345.772 352.01L321.61 377.763L286.622 344.801L310.876 318.95Z" fill="white"/>
<path d="M380.29 321.518C375.357 325.823 370.612 328.082 365.967 328.192C361.367 328.353 357.247 326.391 353.659 322.263L360.424 316.36C362.683 318.959 365.04 320.128 367.541 319.918C370.041 319.707 372.716 318.359 375.666 315.785C378.005 313.743 379.482 311.737 379.956 309.71C380.38 307.728 379.933 305.876 378.427 304.144C377.187 302.716 375.697 302.134 373.965 302.302C372.277 302.521 369.768 303.545 366.439 305.374L362.856 307.426C353.833 312.79 346.779 312.494 341.64 306.582C338.938 303.473 337.938 299.954 338.734 296.033C339.479 292.157 341.943 288.303 346.165 284.619C350.946 280.447 355.443 278.315 359.656 278.223C363.869 278.131 367.672 279.831 371.014 283.368L364.351 289.182C362.427 287.277 360.386 286.369 358.279 286.415C356.217 286.512 353.79 287.733 351.095 290.086C348.958 291.95 347.736 293.734 347.281 295.475C346.871 297.267 347.242 298.825 348.482 300.252C349.767 301.73 351.25 302.408 352.932 302.285C354.658 302.212 357.115 301.233 360.203 299.434L363.888 297.294C368.863 294.476 373.022 293.087 376.366 293.127C379.709 293.166 382.669 294.617 385.238 297.573C388.339 301.14 389.408 305.047 388.548 309.203C387.638 313.403 384.868 317.523 380.29 321.518Z" fill="white"/>
<path d="M370.484 265.299L402.403 241.261L407.306 247.798L395.013 257.056L418.961 288.987L411.628 294.509L387.68 262.579L375.387 271.837L370.484 265.299Z" fill="white"/>
<path d="M475.309 251.122L467.18 256.324L458.297 249.419L440.562 260.769L443.135 271.712L435.234 276.769L424.791 226.354L433.772 220.607L475.309 251.122ZM437.457 247.358L438.718 252.727L451.792 244.36L447.405 240.992C443.899 238.505 439.31 234.946 433.545 230.295C434.966 236.042 436.258 241.71 437.457 247.358Z" fill="white"/>
<path d="M497.4 210.68L493.979 186.641L505.709 180.533L527.852 223.233L520.132 227.253L513.383 214.239C509.247 206.263 505.637 199.155 502.644 192.945C503.301 196.411 503.935 200.27 504.513 204.463L508.521 233.299L501.878 236.758L480.573 216.929C476.716 213.301 474.019 210.592 472.363 208.865C475.655 214.92 479.413 221.874 483.519 229.79L490.267 242.804L482.487 246.855L460.344 204.155L472.074 198.047L490.196 214.964C491.421 216.154 494.609 219.369 499.849 224.638C498.805 219.546 498.009 214.933 497.4 210.68Z" fill="white"/>
<path d="M546.712 215.252L538.377 218.925L519.045 174.875L527.38 171.202L546.712 215.252Z" fill="white"/>
<path d="M575.038 165.849L570.653 154.071L578.868 151L595.653 196.086L586.174 199.629L566.189 184.233C560.796 180.19 556.381 176.647 553.118 173.683C555.013 178.385 557.85 185.619 561.504 195.434L565.889 207.212L557.674 210.283L540.889 165.198L550.368 161.654L570.416 177.027C576.408 181.712 580.759 185.279 583.424 187.601C580.9 181.403 578.126 174.144 575.038 165.849Z" fill="white"/>
<path d="M649.322 180.343L640.041 182.973L633.525 173.793L613.276 179.532L612.588 190.754L603.567 193.31L608.086 142.021L618.34 139.115L649.322 180.343ZM614.165 165.794L613.826 171.298L628.753 167.068L625.522 162.575C622.882 159.18 619.513 154.445 615.332 148.326C615.039 154.238 614.643 160.04 614.165 165.794Z" fill="white"/>
<path d="M696.462 172.206C689.61 173.355 683.721 172.081 678.773 168.251C673.77 164.499 670.639 158.857 669.37 151.258C668.101 143.659 669.161 137.314 672.661 132.067C676.05 126.976 681.26 123.772 688.178 122.612C693.699 121.686 698.678 122.427 703.093 124.701C707.452 127.054 710.637 130.974 712.57 136.406L703.457 137.934C702.147 135.002 700.216 132.859 697.82 131.616C695.424 130.373 692.618 129.953 689.492 130.477C685.234 131.192 682.164 133.283 680.271 136.684C678.377 140.085 677.87 144.419 678.75 149.685C679.64 155.017 681.539 159.016 684.424 161.547C687.32 164.145 690.891 165.054 695.148 164.34C698.408 163.793 701.046 162.391 703.106 159.99C705.112 157.666 706.052 154.699 706.005 151.144L714.986 149.637C715.4 155.804 713.851 160.86 710.273 164.818C706.705 168.843 702.116 171.257 696.462 172.206Z" fill="white"/>
<path d="M731.76 117.824L735.471 157.594L758.237 155.46L758.996 163.603L727.166 166.586L722.694 118.674L731.76 117.824Z" fill="white"/>
<path d="M787.433 163.574C781.162 163.715 776.203 162.204 772.554 158.906C768.904 155.608 767.047 150.985 766.91 144.904L766.239 114.903L775.342 114.699L776.015 144.767C776.097 148.415 777.103 151.165 779.033 153.014C780.964 154.864 783.682 155.749 787.256 155.669C790.762 155.59 793.505 154.582 795.351 152.647C797.197 150.713 798.079 147.921 797.997 144.273L797.324 114.205L806.427 114L807.099 144C807.236 150.149 805.522 154.92 802.089 158.31C798.59 161.701 793.704 163.433 787.433 163.574Z" fill="white"/>
<path d="M850.277 138.699C852.852 139.787 854.789 141.449 856.16 143.555C857.529 145.728 858.141 148.13 858.002 150.694C857.764 155.081 856.1 158.375 853.139 160.65C850.179 162.925 845.941 163.845 840.553 163.552L818.127 162.33L820.733 114.28L842.419 115.461C847.402 115.733 851.179 117.089 853.748 119.53C856.251 121.968 857.433 125.078 857.235 128.723C856.979 133.447 854.637 136.771 850.277 138.699ZM841.339 122.916L829.418 122.266L828.738 134.819L840.658 135.468C842.948 135.593 844.728 135.148 846.003 134.067C847.277 132.986 848.038 131.403 848.148 129.378C848.251 127.489 847.658 125.967 846.504 124.821C845.283 123.672 843.561 123.037 841.339 122.916ZM827.628 155.267L840.492 155.968C843.051 156.107 845.033 155.674 846.443 154.6C847.852 153.526 848.613 151.943 848.73 149.783C848.972 145.329 846.466 142.959 841.213 142.673L828.35 141.972L827.628 155.267Z" fill="white"/>
<path d="M903.32 159.39L886.363 156.946L888.734 140.422L905.692 142.866L903.32 159.39Z" fill="white"/>
<path d="M942.196 128.445L962.747 133.283C967.934 134.505 971.681 136.845 973.922 140.288C976.163 143.732 976.81 147.772 975.714 152.443C974.619 157.115 972.245 160.443 968.708 162.527C965.171 164.61 960.792 164.967 955.605 163.746L943.918 160.995L940.076 177.377L931.212 175.29L942.196 128.445ZM945.707 153.362L957 156.021C959.561 156.624 961.67 156.496 963.357 155.504C965.044 154.513 966.199 152.841 966.785 150.341C967.356 147.906 967.081 145.828 966.01 144.188C964.94 142.547 963.125 141.426 960.564 140.823L949.271 138.164L945.707 153.362Z" fill="white"/>
<path d="M1017.43 185.824L1015.66 192.778C1014.97 194.969 1014.92 196.936 1015.39 198.575L1006.45 195.747C1006.09 194.214 1006.2 192.267 1006.96 189.882L1008.35 184.794C1009.09 181.982 1009.06 179.845 1008.24 178.383C1007.43 176.921 1005.81 175.772 1003.37 174.999L992.049 171.418L986.385 189.4L977.702 186.654L992.156 140.765L1012.93 147.335C1018.01 148.942 1021.63 151.363 1023.73 154.579C1025.83 157.794 1026.25 161.4 1024.99 165.396C1023.25 170.939 1019.54 173.734 1013.89 173.932C1015.96 175.438 1017.2 177.106 1017.75 178.979C1018.29 180.851 1018.13 183.14 1017.43 185.824ZM998.585 150.665L994.201 164.587L1005.78 168.248C1008.22 169.021 1010.27 169.031 1012.01 168.234C1013.74 167.436 1015.02 165.855 1015.75 163.535C1016.44 161.344 1016.26 159.444 1015.21 157.836C1014.16 156.229 1012.41 155.038 1009.84 154.225L998.585 150.665Z" fill="white"/>
<path d="M1032.48 205.215L1023.96 202L1040.88 156.964L1049.4 160.179L1032.48 205.215Z" fill="white"/>
<path d="M1075.11 197.822L1092.91 178.504L1101.55 182.323L1066.43 219.393L1056.68 215.083L1059.95 163.936L1068.84 167.864L1066.78 194.139C1066.16 200.584 1065.5 205.76 1064.93 209.721C1067.78 206.104 1071.15 202.128 1075.11 197.822Z" fill="white"/>
<path d="M1128.23 250.994L1119.75 246.402L1121.45 235.267L1102.94 225.247L1094.64 232.817L1086.39 228.353L1125.3 194.715L1134.67 199.789L1128.23 250.994ZM1113.13 216.013L1109.06 219.725L1122.71 227.111L1123.51 221.633C1123.98 217.354 1124.85 211.605 1126.11 204.297C1121.79 208.333 1117.47 212.219 1113.13 216.013Z" fill="white"/>
<path d="M1158.94 213.47L1192.52 235.105L1188.11 241.984L1175.18 233.652L1153.62 267.252L1145.91 262.282L1167.46 228.682L1154.52 220.349L1158.94 213.47Z" fill="white"/>
<path d="M1230.58 263.204L1225.69 269.756L1204.62 253.983L1197.84 263.079L1216.91 277.357L1212.23 283.638L1193.16 269.361L1185.65 279.432L1206.62 295.125L1201.73 301.677L1173.47 280.524L1202.21 241.971L1230.58 263.204Z" fill="white"/>
<path d="M1238.02 334.601C1232.92 329.879 1230.31 324.435 1230.3 318.17C1230.2 311.909 1232.73 305.972 1237.94 300.311C1243.16 294.649 1248.81 291.601 1255.09 291.158C1261.19 290.722 1266.9 292.884 1272.06 297.652C1276.17 301.457 1278.64 305.854 1279.55 310.743C1280.37 315.637 1279.23 320.561 1276.13 325.421L1269.34 319.14C1270.85 316.306 1271.35 313.463 1270.87 310.805C1270.38 308.146 1268.99 305.667 1266.66 303.512C1263.49 300.578 1259.96 299.428 1256.12 300.013C1252.27 300.597 1248.54 302.851 1244.93 306.774C1241.27 310.747 1239.28 314.701 1239.05 318.537C1238.78 322.422 1240.25 325.807 1243.42 328.74C1245.85 330.987 1248.57 332.217 1251.73 332.377C1254.79 332.541 1257.71 331.468 1260.48 329.252L1267.17 335.441C1262.56 339.548 1257.63 341.42 1252.31 341.011C1246.95 340.652 1242.23 338.497 1238.02 334.601Z" fill="white"/>
<path d="M1302.54 329.231L1273.45 356.539L1289.08 373.26L1283.13 378.851L1261.27 355.472L1296.31 322.573L1302.54 329.231Z" fill="white"/>
<path d="M1300.57 401.352C1296.62 396.472 1294.77 391.619 1295.14 386.708C1295.5 381.798 1298.01 377.494 1302.72 373.66L1325.97 354.745L1331.71 361.829L1308.41 380.786C1305.58 383.086 1304.03 385.567 1303.75 388.229C1303.48 390.891 1304.45 393.586 1306.7 396.367C1308.91 399.096 1311.39 400.651 1314.04 400.927C1316.7 401.203 1319.44 400.191 1322.27 397.891L1345.57 378.933L1351.31 386.017L1328.06 404.931C1323.29 408.808 1318.48 410.373 1313.7 409.732C1308.89 409.039 1304.53 406.231 1300.57 401.352Z" fill="white"/>
<path d="M1358.7 435.876C1359.42 438.582 1359.29 441.134 1358.47 443.511C1357.6 445.925 1356.08 447.883 1353.97 449.344C1350.37 451.843 1346.75 452.543 1343.14 451.593C1339.53 450.643 1336.21 447.851 1333.14 443.405L1320.36 424.896L1359.85 397.517L1372.21 415.414C1375.05 419.527 1376.29 423.349 1375.94 426.88C1375.55 430.355 1373.82 433.197 1370.83 435.273C1366.95 437.965 1362.89 438.147 1358.7 435.876ZM1365.67 419.127L1358.88 409.289L1348.56 416.441L1355.35 426.279C1356.66 428.169 1358.1 429.306 1359.73 429.653C1361.37 430 1363.08 429.633 1364.74 428.479C1366.3 427.402 1367.13 426.001 1367.33 424.385C1367.49 422.714 1366.93 420.961 1365.67 419.127ZM1331.75 428.093L1339.08 438.709C1340.54 440.821 1342.1 442.125 1343.81 442.583C1345.52 443.041 1347.23 442.674 1349.01 441.443C1352.67 438.905 1353 435.469 1350.01 431.133L1342.68 420.518L1331.75 428.093Z" fill="white"/>
<path d="M248.295 1217.03C243.92 1211.2 242.256 1205.13 243.304 1198.82C244.311 1192.45 247.907 1187.03 254.012 1182.45C260.061 1177.92 266.275 1175.99 272.735 1176.76C279.099 1177.52 284.469 1180.81 288.844 1186.64C293.179 1192.41 294.843 1198.48 293.836 1204.85C292.747 1211.11 289.191 1216.58 283.087 1221.16C276.928 1225.77 270.673 1227.65 264.405 1226.91C258 1226.09 252.63 1222.8 248.295 1217.03ZM252.108 1200.9C251.195 1204.9 252.123 1208.63 254.781 1212.17C257.439 1215.71 260.764 1217.64 264.907 1217.94C268.859 1218.21 273.056 1216.76 277.362 1213.54C281.613 1210.35 284.174 1206.73 285.073 1202.82C285.89 1198.81 285.017 1195.04 282.359 1191.5C279.7 1187.96 276.321 1186.07 272.273 1185.78C268.13 1185.49 264.029 1186.94 259.778 1190.13C255.526 1193.31 252.924 1196.88 252.108 1200.9Z" fill="white"/>
<path d="M318.612 1244.09L328.098 1235.7L333.972 1242.32L297.66 1274.46L290.882 1266.82L298.103 1242.42C299.947 1235.88 301.676 1230.44 303.278 1226.3C299.544 1229.78 293.769 1235.07 285.864 1242.07L276.378 1250.46L270.504 1243.84L306.816 1211.71L313.594 1219.35L306.419 1243.79C304.188 1251.13 302.414 1256.52 301.198 1259.87C306.111 1255.25 311.931 1250.01 318.612 1244.09Z" fill="white"/>
<path d="M347.212 1255.5L319.025 1284.22L335.522 1300.37L329.751 1306.25L306.685 1283.67L340.643 1249.07L347.212 1255.5Z" fill="white"/>
<path d="M383.177 1300.11L392.882 1296.93L400.603 1303.51L367.699 1314.02L355.268 1328.57L348.272 1322.6L360.703 1308.06L365.83 1273.86L373.759 1280.62L372.146 1290.79C370.729 1299.16 369.889 1303.81 369.728 1304.84C372.076 1303.98 376.545 1302.42 383.177 1300.11Z" fill="white"/>
<path d="M424.79 1351.85L446.09 1336.1L453.943 1341.51L412.103 1371.55L403.24 1365.45L416.133 1315.47L424.211 1321.04L417.216 1346.64C415.38 1352.9 413.752 1357.89 412.446 1361.71C415.952 1358.66 420.048 1355.37 424.79 1351.85Z" fill="white"/>
<path d="M442.097 1390.73L434.254 1385.93L459.6 1344.61L467.444 1349.41L442.097 1390.73Z" fill="white"/>
<path d="M468.695 1407.2C462.889 1404.05 459.083 1400.35 457.344 1396C455.571 1391.71 455.974 1387.12 458.611 1382.28L466.572 1386.6C464.911 1389.65 464.637 1392.29 465.716 1394.58C466.796 1396.87 469.011 1398.93 472.483 1400.82C475.236 1402.31 477.652 1403 479.734 1402.74C481.757 1402.45 483.349 1401.37 484.456 1399.34C485.367 1397.67 485.393 1396.05 484.624 1394.47C483.823 1392.95 481.972 1390.94 479.07 1388.44L475.87 1385.77C467.624 1379.12 465.419 1372.34 469.196 1365.41C471.182 1361.76 474.154 1359.58 478.139 1358.95C482.064 1358.3 486.574 1359.28 491.542 1361.98C497.168 1365.03 500.766 1368.54 502.337 1372.49C503.908 1376.44 503.641 1380.64 501.476 1385.04L493.635 1380.78C494.758 1378.29 494.897 1376.04 494.111 1374.06C493.293 1372.15 491.285 1370.28 488.112 1368.56C485.598 1367.19 483.482 1366.66 481.677 1366.84C479.84 1367.08 478.497 1367.98 477.586 1369.66C476.642 1371.39 476.524 1373.03 477.233 1374.58C477.909 1376.18 479.7 1378.16 482.487 1380.45L485.807 1383.19C490.222 1386.9 492.999 1390.35 494.139 1393.52C495.279 1396.7 494.952 1400.01 493.063 1403.48C490.784 1407.66 487.47 1410.04 483.24 1410.69C478.95 1411.3 474.082 1410.13 468.695 1407.2Z" fill="white"/>
<path d="M504.034 1423.88L495.738 1419.92L516.694 1376.21L524.99 1380.18L504.034 1423.88Z" fill="white"/>
<path d="M535.691 1438.98C528.945 1436.22 524.401 1431.86 522.059 1425.9C519.654 1419.92 519.961 1413.42 522.854 1406.37C525.721 1399.38 530.064 1394.54 536.007 1391.89C541.862 1389.29 548.163 1389.37 554.909 1392.13C561.593 1394.86 566.137 1399.22 568.542 1405.21C570.821 1411.14 570.577 1417.66 567.684 1424.71C564.765 1431.83 560.359 1436.65 554.593 1439.21C548.676 1441.79 542.375 1441.72 535.691 1438.98ZM530.686 1423.18C531.957 1427.08 534.667 1429.81 538.765 1431.49C542.864 1433.16 546.711 1433.12 550.421 1431.26C553.953 1429.46 556.816 1426.08 558.856 1421.1C560.871 1416.19 561.212 1411.77 559.978 1407.95C558.618 1404.09 555.934 1401.3 551.836 1399.62C547.737 1397.94 543.864 1398.05 540.243 1399.88C536.533 1401.74 533.759 1405.1 531.744 1410.01C529.73 1414.92 529.326 1419.31 530.686 1423.18Z" fill="white"/>
<path d="M609.958 1426.22L613.794 1414.15L622.237 1416.83L607.553 1463.01L597.811 1459.92L591.491 1435.28C589.716 1428.72 588.409 1423.16 587.657 1418.78C586.24 1423.69 583.998 1431.19 580.801 1441.25L576.965 1453.31L568.523 1450.63L583.207 1404.45L592.948 1407.54L599.334 1432.2C601.186 1439.64 602.428 1445.18 603.103 1448.68C604.95 1442.19 607.257 1434.71 609.958 1426.22Z" fill="white"/>
<path d="M681.795 1430.55L680.089 1438.61L655.557 1433.43L653.188 1444.61L675.52 1449.33L673.884 1457.05L651.552 1452.33L647.224 1472.78L638.224 1470.87L648.263 1423.47L681.795 1430.55Z" fill="white"/>
<path d="M700.417 1483.36C694.141 1482.48 689.441 1480.18 686.335 1476.31C683.229 1472.44 682.123 1467.55 682.97 1461.48L687.149 1431.55L696.26 1432.82L692.071 1462.82C691.563 1466.46 692.122 1469.35 693.748 1471.5C695.374 1473.65 697.942 1474.97 701.518 1475.47C705.027 1475.96 707.926 1475.4 710.079 1473.78C712.232 1472.15 713.563 1469.52 714.071 1465.88L718.26 1435.89L727.37 1437.16L723.191 1467.08C722.334 1473.22 719.854 1477.68 715.883 1480.5C711.845 1483.3 706.693 1484.23 700.417 1483.36Z" fill="white"/>
<path d="M744.783 1438.48L741.972 1478.6L765.014 1480.21L764.438 1488.43L732.22 1486.17L735.607 1437.84L744.783 1438.48Z" fill="white"/>
<path d="M783.912 1440.36L783.59 1480.58L806.687 1480.77L806.621 1489L774.325 1488.74L774.714 1440.29L783.912 1440.36Z" fill="white"/>
<path d="M848.073 1438.46L848.526 1446.68L823.489 1448.06L824.118 1459.47L846.909 1458.22L847.344 1466.1L824.552 1467.35L825.701 1488.22L816.517 1488.72L813.851 1440.34L848.073 1438.46Z" fill="white"/>
<path d="M869.21 1484.83L860.061 1485.78L855.069 1437.58L864.219 1436.63L869.21 1484.83Z" fill="white"/>
<path d="M883.748 1434.19L889.767 1473.96L912.606 1470.51L913.838 1478.65L881.904 1483.47L874.653 1435.56L883.748 1434.19Z" fill="white"/>
<path d="M947.383 1445.56L950.063 1421.26L963.072 1418.24L974.034 1465.45L965.471 1467.43L962.13 1453.04C960.083 1444.23 958.333 1436.39 956.961 1429.58C956.736 1433.13 956.388 1437.05 955.902 1441.28L952.594 1470.41L945.227 1472.12L929.352 1447.43C926.487 1442.93 924.527 1439.61 923.34 1437.51C925.043 1444.24 926.977 1451.97 929.009 1460.72L932.35 1475.1L923.721 1477.1L912.76 1429.9L925.769 1426.89L939.26 1447.93C940.161 1449.4 942.474 1453.34 946.28 1459.79C946.535 1454.56 946.913 1449.86 947.383 1445.56Z" fill="white"/>
<path d="M1005.19 1404.82L1007.69 1412.66L982.373 1420.72L985.85 1431.62L1008.77 1424.32L1011.17 1431.84L988.251 1439.14L992.101 1451.2L1017.29 1443.18L1019.79 1451.02L985.842 1461.84L971.105 1415.67L1005.19 1404.82Z" fill="white"/>
<path d="M1046.12 1402.38L1041.4 1390.64L1049.62 1387.34L1067.7 1432.3L1058.22 1436.11L1037.65 1421.11C1032.1 1417.18 1027.55 1413.72 1024.18 1410.82C1026.21 1415.5 1029.26 1422.71 1033.2 1432.5L1037.92 1444.25L1029.7 1447.55L1011.62 1402.58L1021.1 1398.78L1041.73 1413.75C1047.9 1418.32 1052.39 1421.8 1055.14 1424.07C1052.43 1417.89 1049.45 1410.65 1046.12 1402.38Z" fill="white"/>
<path d="M1055.54 1384.71L1091.76 1366.97L1095.39 1374.36L1081.44 1381.19L1099.17 1417.31L1090.85 1421.38L1073.12 1385.27L1059.17 1392.1L1055.54 1384.71Z" fill="white"/>
<path d="M1149.82 1359.39L1144.31 1335.57L1155.59 1328.43L1181.55 1369.37L1174.13 1374.07L1166.21 1361.59C1161.36 1353.94 1157.12 1347.12 1153.57 1341.15C1154.53 1344.57 1155.5 1348.39 1156.44 1352.54L1162.96 1381.13L1156.57 1385.17L1133.42 1367.11C1129.22 1363.8 1126.28 1361.32 1124.46 1359.73C1128.3 1365.52 1132.68 1372.17 1137.49 1379.76L1145.4 1392.24L1137.92 1396.97L1111.96 1356.04L1123.24 1348.9L1142.94 1364.31C1144.27 1365.4 1147.76 1368.35 1153.48 1373.19C1152 1368.17 1150.8 1363.61 1149.82 1359.39Z" fill="white"/>
<path d="M1226.99 1335.2L1219.23 1341.09L1209.72 1334.9L1192.81 1347.77L1196.31 1358.54L1188.78 1364.27L1174.06 1314.55L1182.62 1308.04L1226.99 1335.2ZM1188.56 1334.57L1190.28 1339.86L1202.75 1330.37L1198.05 1327.36C1194.31 1325.15 1189.39 1321.96 1183.2 1317.78C1185.11 1323.43 1186.89 1329.01 1188.56 1334.57Z" fill="white"/>
<path d="M1199.78 1294.68L1229.97 1267.97L1235.44 1274.13L1223.81 1284.42L1250.51 1314.53L1243.58 1320.67L1216.87 1290.56L1205.25 1300.85L1199.78 1294.68Z" fill="white"/>
<path d="M1232.3 1265.76L1260.59 1237.04L1266.47 1242.81L1255.57 1253.88L1284.28 1282.08L1277.78 1288.68L1249.07 1260.47L1238.18 1271.54L1232.3 1265.76Z" fill="white"/>
<path d="M1287.92 1205.36L1294.18 1210.72L1276.88 1230.87L1285.57 1238.31L1301.23 1220.08L1307.23 1225.22L1291.57 1243.45L1301.19 1251.7L1318.4 1231.65L1324.66 1237.01L1301.46 1264.03L1264.63 1232.48L1287.92 1205.36Z" fill="white"/>
<path d="M1343.52 1190.68L1349.57 1194.65C1351.43 1196.03 1353.28 1196.73 1355 1196.81L1349.35 1204.41C1347.77 1204.26 1345.96 1203.5 1343.93 1202L1339.54 1199C1337.11 1197.37 1335.06 1196.7 1333.4 1196.99C1331.74 1197.28 1330.11 1198.45 1328.57 1200.53L1321.42 1210.14L1336.68 1221.46L1331.2 1228.84L1292.25 1199.96L1305.36 1182.31C1308.57 1177.99 1312.08 1175.33 1315.83 1174.39C1319.59 1173.44 1323.16 1174.23 1326.56 1176.74C1331.26 1180.23 1332.7 1184.69 1331.02 1190.14C1333.14 1188.66 1335.14 1188.02 1337.1 1188.12C1339.07 1188.22 1341.2 1189.12 1343.52 1190.68ZM1303.8 1197.08L1315.62 1205.84L1322.93 1196.01C1324.47 1193.93 1325.16 1191.98 1324.97 1190.06C1324.79 1188.14 1323.7 1186.41 1321.73 1184.95C1319.87 1183.57 1318 1183.11 1316.12 1183.59C1314.24 1184.06 1312.53 1185.33 1310.91 1187.52L1303.8 1197.08Z" fill="white"/>
<path fill-rule="evenodd" clip-rule="evenodd" d="M1465.56 763.088C1465.03 766.513 1464.06 771.45 1463.39 774.06C1462.72 776.67 1461.48 780.282 1460.62 782.088C1459.54 784.386 1458.3 786.14 1456.5 787.94C1454.87 789.577 1452.94 790.983 1451.2 791.811C1449.69 792.526 1447.25 793.506 1445.76 793.989C1444.28 794.472 1440.68 795.331 1437.76 795.898C1434.83 796.464 1430.83 797.166 1428.85 797.457C1425.86 797.9 1425.48 798.037 1426.54 798.299C1427.23 798.471 1430.36 799.026 1433.49 799.533C1436.62 800.039 1440.98 800.915 1443.19 801.479C1445.39 802.044 1448.76 803.256 1450.69 804.171C1453.04 805.294 1454.9 806.561 1456.39 808.066C1457.61 809.293 1459.14 811.247 1459.79 812.409C1460.44 813.571 1461.6 816.422 1462.37 818.746C1463.14 821.07 1464.28 825.918 1464.9 829.519C1465.52 833.121 1466.17 836.828 1466.35 837.758C1466.63 839.244 1466.7 839.32 1466.9 838.392C1467.03 837.811 1467.62 834.389 1468.21 830.787C1468.8 827.185 1469.78 822.527 1470.38 820.436C1470.99 818.345 1472.05 815.456 1472.74 814.015C1473.42 812.575 1474.93 810.359 1476.09 809.091C1477.24 807.824 1479.11 806.193 1480.24 805.468C1481.37 804.743 1483.84 803.582 1485.74 802.888C1487.63 802.194 1490.83 801.263 1492.85 800.82C1494.87 800.377 1499.07 799.605 1502.2 799.106C1505.33 798.606 1507.94 798.146 1508 798.083C1508.06 798.021 1506.45 797.73 1504.42 797.437C1502.39 797.143 1498.74 796.533 1496.3 796.079C1493.87 795.626 1490.27 794.772 1488.29 794.18C1486.32 793.59 1483.39 792.414 1481.78 791.567C1480.16 790.72 1477.88 789.07 1476.72 787.898C1475.55 786.727 1473.99 784.633 1473.26 783.245C1472.53 781.857 1471.53 779.486 1471.04 777.976C1470.54 776.466 1469.85 773.994 1469.5 772.484C1469.15 770.973 1468.4 766.903 1467.83 763.439C1467.27 759.975 1466.74 757.078 1466.66 757.002C1466.59 756.924 1466.09 759.664 1465.56 763.088Z" fill="white"/>
<path fill-rule="evenodd" clip-rule="evenodd" d="M129.563 763.088C129.035 766.513 128.057 771.45 127.389 774.06C126.722 776.67 125.478 780.282 124.623 782.088C123.536 784.386 122.301 786.14 120.504 787.94C118.87 789.577 116.941 790.983 115.197 791.811C113.69 792.526 111.245 793.506 109.765 793.989C108.284 794.472 104.68 795.331 101.755 795.898C98.8304 796.464 94.8251 797.166 92.8543 797.457C89.8566 797.9 89.4776 798.037 90.5357 798.299C91.2313 798.471 94.3614 799.026 97.4915 799.533C100.622 800.039 104.985 800.915 107.187 801.479C109.39 802.044 112.764 803.256 114.686 804.171C117.043 805.294 118.9 806.561 120.394 808.066C121.612 809.293 123.14 811.247 123.79 812.409C124.439 813.571 125.602 816.422 126.373 818.746C127.144 821.07 128.281 825.918 128.9 829.519C129.52 833.121 130.171 836.828 130.347 837.758C130.629 839.244 130.696 839.32 130.904 838.392C131.033 837.811 131.621 834.389 132.209 830.787C132.797 827.185 133.776 822.527 134.384 820.436C134.992 818.345 136.05 815.456 136.736 814.015C137.422 812.575 138.929 810.359 140.086 809.091C141.242 807.824 143.11 806.193 144.238 805.468C145.365 804.743 147.84 803.582 149.737 802.888C151.634 802.194 154.835 801.263 156.85 800.82C158.866 800.377 163.073 799.605 166.2 799.106C169.326 798.606 171.936 798.146 171.998 798.083C172.061 798.021 170.451 797.73 168.421 797.437C166.391 797.143 162.739 796.533 160.304 796.079C157.87 795.626 154.265 794.772 152.294 794.18C150.324 793.59 147.39 792.414 145.775 791.567C144.16 790.72 141.884 789.07 140.716 787.898C139.549 786.727 137.995 784.633 137.262 783.245C136.53 781.857 135.528 779.486 135.035 777.976C134.543 776.466 133.854 773.994 133.503 772.484C133.153 770.973 132.401 766.903 131.834 763.439C131.267 759.975 130.74 757.078 130.663 757.002C130.587 756.924 130.091 759.664 129.563 763.088Z" fill="white"/>
</svg>
