<svg width="691" height="111" viewBox="0 0 691 111" fill="none" xmlns="http://www.w3.org/2000/svg">
<path d="M28.4269 104.241C40.3335 104.241 48.2216 96.5805 48.2216 86.2165C48.2216 80.659 46.2868 76.0027 42.566 72.2476C39.2917 68.9432 37.0592 66.6901 27.9804 60.2314C15.1809 51.2192 12.3531 48.816 8.33459 43.5589C4.61379 38.7524 3.12547 34.3965 3.12547 27.3369C3.12547 12.3166 15.6274 1.05143 32.8919 1.05143C42.2683 1.05143 49.7099 3.15427 57.3003 7.20975C57.4492 11.2652 57.598 14.1191 57.598 17.5738C57.598 21.0284 57.4492 24.1827 57.3003 28.2382L53.133 28.5386C51.7935 23.2815 50.3052 18.9256 46.8821 14.8701C42.8636 10.2138 38.8452 7.96076 31.7012 7.96076C21.1341 7.96076 13.9902 14.5697 13.9902 24.7835C13.9902 29.4398 15.032 33.1949 19.1993 37.5507C22.0271 40.4046 23.962 42.0568 33.4872 48.816C45.2449 57.0771 48.8169 59.6306 52.9842 64.4371C57.1515 69.3938 59.9793 76.6035 59.9793 83.3627C59.9793 100.185 46.8821 111 27.3851 111C17.2645 111 10.1206 109.498 2.97664 106.043C1.33949 97.7821 0.892992 90.272 0 81.7104L4.61379 80.659C6.25094 85.4655 7.59043 89.3708 9.82291 93.1258C14.139 100.786 18.4552 104.241 28.4269 104.241Z" fill="#E8E4DF"/>
<path d="M138.611 98.383C138.611 101.237 140.1 103.189 143.821 104.992L143.076 108.747C137.718 108.447 132.658 108.296 128.937 108.296C125.217 108.296 122.389 108.447 116.584 108.747L116.733 104.992C120.9 103.189 122.984 101.838 124.621 98.9838C126.705 95.5291 127.449 89.8214 128.937 77.2043L129.979 68.3424H98.4268L92.6223 75.8525C79.0786 93.2761 77.5903 97.4817 77.5903 100.486C77.5903 102.589 78.3345 103.64 82.0553 104.992L81.4599 108.747C76.102 108.447 73.8695 108.296 70.2975 108.296C66.5767 108.296 64.1954 108.296 57.3492 108.747L57.2003 104.992C62.2606 102.138 64.6419 100.336 83.5436 75.8525L142.332 0L148.732 1.35183L140.397 75.8525C138.76 90.1218 138.611 95.2287 138.611 98.383ZM135.486 20.1272L103.338 61.8836H130.723L135.486 20.1272Z" fill="#E8E4DF"/>
<path d="M249.591 109.798L246.019 111L172.645 21.6292V76.0027C172.645 81.2598 172.645 87.8687 173.092 92.8254C173.687 99.885 175.026 102.589 181.129 105.142L180.682 108.897C176.068 108.597 172.05 108.447 168.627 108.447C165.055 108.447 161.483 108.447 156.869 108.897L156.422 105.142C162.525 102.589 163.715 99.885 164.311 92.8254C164.757 87.8687 164.757 81.2598 164.757 76.0027V35.8985C164.757 30.6414 164.757 24.9337 164.311 19.977C163.715 12.9175 161.78 9.31259 155.678 6.75914L156.125 3.00407C160.739 3.30447 166.543 3.45467 173.538 3.45467L241.108 85.3153V35.8985C241.108 30.6414 241.108 24.0325 240.661 19.0758C240.066 12.0162 238.727 9.31259 232.624 6.75914L233.071 3.00407C237.685 3.30447 241.703 3.45467 245.126 3.45467C248.698 3.45467 252.27 3.45467 256.884 3.00407L257.331 6.75914C251.228 9.31259 250.038 12.0162 249.442 19.0758C248.996 24.0325 248.996 30.6414 248.996 35.8985V85.1651C248.996 92.3748 249.145 101.988 249.591 109.798Z" fill="#E8E4DF"/>
<path d="M324.093 104.241C336.446 104.241 342.697 99.885 347.906 90.4222C350.139 86.3667 351.33 82.3112 353.116 77.0541L357.581 77.8051C356.836 86.9675 356.092 94.1773 354.455 103.039C345.376 108.447 334.214 111 322.159 111C293.285 111 264.263 92.2246 264.263 55.7253C264.263 22.6807 290.606 1.05143 322.01 1.05143C334.66 1.05143 344.93 3.60487 354.902 8.56158C355.05 12.6171 355.199 16.0717 355.199 19.5264C355.199 22.9811 355.05 26.5859 354.902 30.7916L350.437 31.092C349.097 25.5345 347.46 20.728 344.037 16.6725C339.87 11.866 333.023 7.96076 322.159 7.96076C295.964 7.96076 278.253 27.337 278.253 55.5751C278.253 86.2165 301.024 104.241 324.093 104.241Z" fill="#E8E4DF"/>
<path d="M378.224 3.45467H431.952C438.054 3.45467 442.966 3.45467 448.77 3.00407C449.068 10.2138 449.217 17.5738 449.217 24.9337L444.901 25.2341C443.264 19.6766 441.775 16.5223 439.543 14.1191C437.31 11.7158 433.887 10.5142 431.059 10.0636C427.339 9.46279 424.064 9.31259 419.302 9.31259C412.306 9.31259 411.414 10.5142 410.967 16.5223C410.521 21.1786 410.521 26.5859 410.521 31.9932V75.8525C410.521 81.1096 410.818 87.7185 410.967 92.6752C411.265 100.336 412.902 102.739 420.046 104.691L419.599 108.747C413.795 108.296 408.437 108.296 404.716 108.296C400.995 108.296 395.34 108.296 389.535 108.747L389.089 104.691C396.233 102.739 397.87 100.336 398.167 92.6752C398.316 87.7185 398.614 81.1096 398.614 75.8525V31.9932C398.614 26.5859 398.614 21.1786 398.167 16.5223C397.721 10.5142 396.828 9.31259 389.833 9.31259C385.07 9.31259 381.945 9.46279 378.224 10.0636C375.396 10.5142 371.973 11.7158 369.741 14.1191C367.508 16.5223 365.871 19.6766 364.234 25.2341L359.918 24.9337C360.364 17.5738 360.811 10.364 361.406 3.00407C367.21 3.45467 372.122 3.45467 378.224 3.45467Z" fill="#E8E4DF"/>
<path d="M533.65 35.8985V70.4452C533.65 94.0271 518.023 111 494.954 111C471.141 111 457.001 96.8809 457.001 72.6982V35.8985C457.001 30.6414 457.001 24.0325 456.555 19.0758C456.108 12.4668 455.067 9.16238 449.113 6.75914L449.56 3.00407C455.364 3.45467 459.383 3.45467 463.104 3.45467C466.824 3.45467 470.694 3.45467 476.498 3.00407L476.945 6.75914C470.843 9.31259 469.503 12.0162 469.355 19.0758C469.206 24.0325 468.908 30.6414 468.908 35.8985V72.3978C468.908 91.774 479.029 102.739 495.847 102.739C513.706 102.739 525.762 90.8728 525.762 68.4926V35.8985C525.762 30.6414 525.762 24.0325 525.315 19.0758C524.72 12.0162 523.381 9.31259 517.278 6.75914L517.725 3.00407C522.339 3.30447 526.357 3.45467 529.78 3.45467C533.352 3.45467 536.924 3.45467 541.538 3.00407L541.985 6.75914C535.882 9.31259 534.692 12.0162 534.096 19.0758C533.65 24.0325 533.65 30.6414 533.65 35.8985Z" fill="#E8E4DF"/>
<path d="M647.145 16.3721L607.407 111H604.281L564.394 19.6766L562.459 76.0027C562.311 79.4574 562.162 83.8133 562.162 87.8687C562.162 95.6793 562.459 102.739 570.496 105.142L570.05 108.897C565.436 108.597 561.418 108.447 557.846 108.447C554.274 108.447 550.702 108.447 546.088 108.897L545.641 105.142C551.743 102.589 553.083 99.885 553.678 92.8254C554.125 87.8687 554.125 81.2598 554.422 76.0027L556.208 35.8985C556.357 32.4438 556.357 30.1908 556.357 27.3369C556.357 18.9256 556.208 9.61299 547.13 6.75914L547.576 3.00407C555.911 3.45467 562.013 3.45467 570.794 3.45467L608.3 90.5724L643.573 3.45467C651.759 3.45467 660.986 3.45467 666.791 3.00407L667.237 6.75914C661.135 9.16238 659.944 12.3166 659.498 19.0758C659.349 22.6807 659.2 27.3369 659.2 31.5426C659.2 33.1949 659.498 34.5467 660.242 76.0027C660.391 81.2598 660.391 87.8687 660.837 92.8254C660.837 99.885 662.475 102.589 668.577 105.142L668.13 108.897C662.326 108.447 658.605 108.447 654.884 108.447C651.163 108.447 647.145 108.447 641.34 108.897L640.894 105.142C648.484 103.189 648.633 95.3789 648.633 88.1692C648.633 84.4141 648.633 79.7578 648.484 76.0027L647.145 16.3721Z" fill="#E8E4DF"/>
<path d="M669.738 1.30892H678.311V2.96646H675.01V11.0624H673.04V2.96646H669.738V1.30892Z" fill="#E8E4DF"/>
<path d="M686.438 5.95276L688.162 1.30892H691V11.0624H689.132V8.08975C689.132 6.26783 689.146 4.65139 689.19 3.25413C688.973 3.93906 688.712 4.69249 688.408 5.50071L686.322 11.0624H684.715L682.615 5.50071C682.239 4.48701 681.992 3.74728 681.848 3.28152C681.876 4.67879 681.905 6.28153 681.905 8.08975V11.0624H680.023V1.30892H682.861L684.642 6.04865C684.758 6.37742 685.048 7.25413 685.526 8.69249C685.83 7.67879 686.134 6.77468 686.438 5.95276Z" fill="#E8E4DF"/>
</svg>
