<svg width="145" height="116" viewBox="0 0 145 116" fill="none" xmlns="http://www.w3.org/2000/svg">
<path d="M6.80502 83.4539C9.65529 83.4539 11.5436 81.6438 11.5436 79.1949C11.5436 77.8817 11.0804 76.7814 10.1897 75.8941C9.40589 75.1133 8.87147 74.5809 6.69814 73.0548C3.6341 70.9253 2.95716 70.3574 1.99519 69.1152C1.10448 67.9795 0.748196 66.9502 0.748196 65.2821C0.748196 61.7329 3.74098 59.071 7.87387 59.071C10.1185 59.071 11.8999 59.5679 13.7169 60.5262C13.7526 61.4844 13.7882 62.1588 13.7882 62.9751C13.7882 63.7914 13.7526 64.5367 13.7169 65.495L12.7193 65.566C12.3987 64.3238 12.0424 63.2945 11.2229 62.3362C10.261 61.236 9.29901 60.7036 7.58885 60.7036C5.05923 60.7036 3.34907 62.2653 3.34907 64.6787C3.34907 65.779 3.59847 66.6663 4.59606 67.6955C5.273 68.3699 5.73617 68.7603 8.01639 70.3574C10.831 72.3095 11.6861 72.9128 12.6837 74.0486C13.6813 75.2198 14.3582 76.9234 14.3582 78.5206C14.3582 82.4956 11.2229 85.0511 6.55562 85.0511C4.13289 85.0511 2.42273 84.6961 0.712568 83.8798C0.320655 81.9278 0.21377 80.1532 0 78.1301L1.10448 77.8817C1.49639 79.0174 1.81705 79.9402 2.35147 80.8275C3.3847 82.6376 4.41792 83.4539 6.80502 83.4539Z" fill="#E8E4DF"/>
<path d="M19.5717 59.6389H32.4335C33.8943 59.6389 35.07 59.6389 36.4595 59.5324C36.5308 61.236 36.5664 62.9751 36.5664 64.7142L35.5332 64.7852C35.1413 63.472 34.785 62.7267 34.2506 62.1588C33.7161 61.5909 32.8967 61.307 32.2197 61.2005C31.329 61.0585 30.5452 61.023 29.4051 61.023C27.7306 61.023 27.5168 61.307 27.4099 62.7267C27.303 63.8269 27.303 65.1046 27.303 66.3823V76.746C27.303 77.9882 27.3743 79.5498 27.4099 80.721C27.4812 82.5311 27.8731 83.099 29.5832 83.5604L29.4764 84.5187C28.0869 84.4122 26.8042 84.4122 25.9135 84.4122C25.0228 84.4122 23.6689 84.4122 22.2794 84.5187L22.1725 83.5604C23.8827 83.099 24.2746 82.5311 24.3459 80.721C24.3815 79.5498 24.4528 77.9882 24.4528 76.746V66.3823C24.4528 65.1046 24.4528 63.8269 24.3459 62.7267C24.239 61.307 24.0252 61.023 22.3507 61.023C21.2106 61.023 20.4624 61.0585 19.5717 61.2005C18.8947 61.307 18.0753 61.5909 17.5409 62.1588C17.0064 62.7267 16.6145 63.472 16.2226 64.7852L15.1894 64.7142C15.2963 62.9751 15.4032 61.2715 15.5457 59.5324C16.9352 59.6389 18.1109 59.6389 19.5717 59.6389Z" fill="#E8E4DF"/>
<path d="M45.135 59H45.812L52.4032 76.746C52.8308 77.8817 53.4721 79.5498 54.0065 80.721C54.6834 82.2827 55.2891 83.028 56.4649 83.6314L56.358 84.5187C54.9685 84.4122 54.3272 84.4122 53.4364 84.4122C52.5457 84.4122 51.2275 84.4122 49.838 84.5187L49.7311 83.6314C50.6931 83.2055 51.085 82.8861 51.085 82.2117C51.085 81.3954 50.5506 80.0112 49.3748 76.746L49.0898 76.0361H40.3965L40.1471 76.746C38.9001 80.0112 38.6863 81.3599 38.6863 82.1762C38.6863 82.8506 39.007 83.241 40.0402 83.6314L39.9333 84.5187C38.5438 84.4122 37.8312 84.4122 36.9405 84.4122C36.0498 84.4122 35.551 84.4122 34.304 84.5187L34.1971 83.6314C35.3729 83.028 35.9785 82.2827 36.6555 80.721C37.1899 79.5498 37.8312 77.8817 38.2588 76.746L45.135 59ZM44.8856 64.4658L41.0021 74.51H48.5554L44.8856 64.4658Z" fill="#E8E4DF"/>
<path d="M81.2589 62.6912L71.7461 85.0511H70.9979L61.4495 63.472L60.9863 76.7814C60.9507 77.5978 60.9151 78.627 60.9151 79.5853C60.9151 81.4309 60.9863 83.099 62.9103 83.6669L62.8034 84.5542C61.6989 84.4832 60.7369 84.4477 59.8818 84.4477C59.0268 84.4477 58.1717 84.4477 57.0672 84.5542L56.9603 83.6669C58.4211 83.0635 58.7417 82.4247 58.8843 80.7565C58.9911 79.5853 58.9911 78.0237 59.0624 76.7814L59.4899 67.3051C59.5256 66.4888 59.5256 65.9564 59.5256 65.2821C59.5256 63.2945 59.4899 61.094 57.3166 60.4197L57.4235 59.5324C59.4187 59.6389 60.8794 59.6389 62.9815 59.6389L71.9599 80.2242L80.4038 59.6389C82.3634 59.6389 84.5723 59.6389 85.9618 59.5324L86.0687 60.4197C84.6079 60.9875 84.3229 61.7329 84.216 63.33C84.1804 64.1818 84.1448 65.2821 84.1448 66.2758C84.1448 66.6663 84.216 66.9857 84.3942 76.7814C84.4298 78.0237 84.4298 79.5853 84.5367 80.7565C84.5367 82.4247 84.9286 83.0635 86.3894 83.6669L86.2825 84.5542C84.893 84.4477 84.0023 84.4477 83.1116 84.4477C82.2208 84.4477 81.2589 84.4477 79.8694 84.5542L79.7625 83.6669C81.5795 83.2055 81.6152 81.3599 81.6152 79.6563C81.6152 78.769 81.6152 77.6687 81.5795 76.7814L81.2589 62.6912Z" fill="#E8E4DF"/>
<path d="M93.4535 67.3051V76.746C93.4535 77.9882 93.5248 79.5498 93.5604 80.721C93.6317 82.3892 93.9167 83.028 95.3775 83.6314L95.2706 84.5187C93.8811 84.4122 92.9547 84.4122 92.064 84.4122C91.1733 84.4122 90.2113 84.4122 88.8218 84.5187L88.7149 83.6314C90.1401 83.0635 90.3895 82.2827 90.4964 80.721C90.6033 79.5498 90.6033 77.9882 90.6033 76.746V67.3051C90.6033 66.0629 90.6033 64.5012 90.4964 63.33C90.3895 61.7684 90.1401 60.9875 88.7149 60.4197L88.8218 59.5324C90.2113 59.6389 91.1733 59.6389 92.064 59.6389C92.9547 59.6389 93.8811 59.6389 95.2706 59.5324L95.3775 60.4197C93.9167 61.023 93.6317 61.6619 93.5604 63.33C93.5248 64.5012 93.4535 66.0629 93.4535 67.3051Z" fill="#E8E4DF"/>
<path d="M120.182 84.7671L119.327 85.0511L101.762 63.9334V76.7814C101.762 78.0237 101.762 79.5853 101.869 80.7565C102.012 82.4247 102.332 83.0635 103.793 83.6669L103.686 84.5542C102.582 84.4832 101.62 84.4477 100.8 84.4477C99.9451 84.4477 99.09 84.4477 97.9856 84.5542L97.8787 83.6669C99.3394 83.0635 99.6245 82.4247 99.767 80.7565C99.8739 79.5853 99.8739 78.0237 99.8739 76.7814V67.3051C99.8739 66.0629 99.8739 64.7142 99.767 63.543C99.6245 61.8748 99.1613 61.023 97.7005 60.4197L97.8074 59.5324C98.9119 59.6034 100.301 59.6389 101.976 59.6389L118.151 78.9819V67.3051C118.151 66.0629 118.151 64.5012 118.044 63.33C117.902 61.6619 117.581 61.023 116.12 60.4197L116.227 59.5324C117.332 59.6034 118.294 59.6389 119.113 59.6389C119.968 59.6389 120.823 59.6389 121.928 59.5324L122.035 60.4197C120.574 61.023 120.289 61.6619 120.146 63.33C120.04 64.5012 120.04 66.0629 120.04 67.3051V78.9465C120.04 80.6501 120.075 82.9215 120.182 84.7671Z" fill="#E8E4DF"/>
<path d="M133.67 59H134.347L140.938 76.746C141.366 77.8817 142.007 79.5498 142.542 80.721C143.219 82.2827 143.824 83.028 145 83.6314L144.893 84.5187C143.504 84.4122 142.862 84.4122 141.972 84.4122C141.081 84.4122 139.763 84.4122 138.373 84.5187L138.266 83.6314C139.228 83.2055 139.62 82.8861 139.62 82.2117C139.62 81.3954 139.086 80.0112 137.91 76.746L137.625 76.0361H128.932L128.682 76.746C127.435 80.0112 127.221 81.3599 127.221 82.1762C127.221 82.8506 127.542 83.241 128.575 83.6314L128.468 84.5187C127.079 84.4122 126.366 84.4122 125.476 84.4122C124.585 84.4122 124.086 84.4122 122.839 84.5187L122.732 83.6314C123.908 83.028 124.514 82.2827 125.191 80.721C125.725 79.5498 126.366 77.8817 126.794 76.746L133.67 59ZM133.421 64.4658L129.537 74.51H137.09L133.421 64.4658Z" fill="#E8E4DF"/>
<path d="M58.3949 103.365C57.6824 103.365 57.2548 102.939 57.041 102.123C56.8629 101.413 56.6135 101.129 56.0078 101.129C54.3689 101.129 52.3737 103.755 51.3761 106.95C50.7704 108.866 50.6279 110.215 50.6279 111.386C50.6279 113.125 51.4118 113.693 52.3025 113.693C53.692 113.693 54.8677 112.699 56.9342 110.037L57.6824 110.499C56.0078 113.87 53.692 116 51.6612 116C49.7728 116 48.3477 114.58 48.3477 112.096C48.3477 105.92 53.0863 99.2478 57.0767 99.2478C58.6087 99.2478 59.7488 100.384 59.7488 101.874C59.7488 102.691 59.1787 103.365 58.3949 103.365Z" fill="#E8E4DF"/>
<path d="M66.1714 95.4502L62.0741 112.167C62.0028 112.522 61.9672 112.77 61.9672 112.912C61.9672 113.125 62.0741 113.303 62.3591 113.303C62.751 113.303 63.8912 112.628 65.8151 110.073L66.5989 110.605C64.2118 114.616 62.3591 115.787 61.1121 115.787C60.2214 115.787 59.5089 115.219 59.5089 114.261C59.5089 113.338 59.6514 112.593 60.2214 110.215L63.713 95.4857C64.0337 94.1015 64.2474 92.6818 64.2474 91.901C64.2474 91.1202 63.8555 90.6233 62.6085 90.2684L62.6798 89.3811C64.4612 89.2391 65.7795 89.0971 67.3827 88.7422L67.9172 89.3101C67.1333 91.7235 66.8127 92.7528 66.1714 95.4502Z" fill="#E8E4DF"/>
<path d="M77.0695 108.618C73.9342 114.616 72.2953 115.787 70.5495 115.787C69.0531 115.787 68.1268 114.545 68.1268 113.267C68.1268 112.415 68.4474 111.315 69.0887 109.647L71.2264 104.11C71.6183 103.081 71.7965 102.513 71.7965 102.087C71.7965 101.768 71.654 101.484 71.3333 101.484C70.7276 101.484 70.0863 102.194 68.4474 104.217L67.7348 103.613C69.73 100.632 71.0839 99.2478 72.5447 99.2478C73.3998 99.2478 74.148 100.029 74.148 101.164C74.148 101.981 73.9698 102.691 73.0791 105.033L70.9414 110.712C70.5851 111.634 70.4782 112.096 70.4782 112.593C70.4782 113.161 70.7633 113.516 71.4402 113.516C72.7228 113.516 75.8581 110.676 79.2428 101.093L79.7416 99.6737C79.9554 99.5672 80.2404 99.4963 80.5254 99.4963C81.0599 99.4963 81.6299 99.8157 81.9506 100.455C80.9173 103.294 80.5254 104.217 79.8841 106.417C78.8153 110.108 78.4946 111.67 78.4234 112.309C78.3877 112.664 78.3877 112.948 78.3877 113.125C78.3877 113.303 78.5302 113.516 78.744 113.516C79.1359 113.516 79.7772 113.161 81.6299 110.747L82.3781 111.315C80.2404 114.758 78.8153 115.787 77.5683 115.787C76.5707 115.787 76.0719 115.077 76.0719 114.048C76.0719 113.232 76.0719 112.238 77.0695 108.618Z" fill="#E8E4DF"/>
<path d="M94.3303 103.649C94.3303 102.336 93.6534 101.519 92.7983 101.519C89.9837 101.519 86.1002 107.801 86.1002 111.918C86.1002 113.196 86.8127 113.835 87.7391 113.835C88.5229 113.835 89.4849 113.516 90.625 112.309C92.7983 110.002 94.3303 106.417 94.3303 103.649ZM84.4256 108.866L88.2379 95.4857C88.6298 94.137 89.0573 92.6818 89.0573 91.901C89.0573 91.1202 88.6654 90.6233 87.4184 90.2684L87.4897 89.3811C89.2711 89.2391 90.4825 89.0971 92.0857 88.7422L92.6202 89.3101C91.8363 91.7235 91.4444 92.7528 90.625 95.4502L88.0597 103.862C90.4112 100.455 92.157 99.2478 93.689 99.2478C95.3279 99.2478 96.6462 100.809 96.6462 103.471C96.6462 106.524 94.9716 110.25 91.4444 113.658C89.8768 115.148 88.5229 115.858 86.9196 115.858C85.0313 115.858 83.8199 114.332 83.8199 112.38C83.8199 111.351 83.9981 110.25 84.4256 108.866Z" fill="#E8E4DF"/>
<path fill-rule="evenodd" clip-rule="evenodd" d="M52.112 3.10776C54.1425 2.65024 57.22 2.14138 60.2157 2.14138C61.1445 2.14138 62.0272 2.17663 62.857 2.24667C63.721 0.87088 64.8263 0 66.328 0C69.475 0 71.0256 3.78937 71.4981 8.62852C71.9709 3.78925 73.5218 4.20126e-05 76.669 4.20126e-05C78.171 4.20126e-05 79.2765 0.871048 80.1406 2.24709C80.9705 2.17705 81.8534 2.1418 82.7824 2.1418C85.7786 2.1418 88.8566 2.65075 90.8875 3.10835L90.8914 3.1123C91.3491 5.14298 91.858 8.22074 91.858 11.2167C91.858 12.1456 91.8228 13.0283 91.7527 13.8581C93.1289 14.7223 94 15.8276 94 17.3295C94 20.4808 90.1999 22.0315 85.3505 22.5019C90.1997 22.972 94 24.5224 94 27.6736C94 29.1751 93.129 30.2803 91.7531 31.1443C91.8231 31.9739 91.8584 32.8566 91.8584 33.7853C91.8584 36.7807 91.3495 39.858 90.892 41.8883L90.888 41.8922C88.8575 42.3498 85.78 42.8586 82.7843 42.8586C81.8555 42.8586 80.9728 42.8234 80.143 42.7533C79.279 44.1292 78.1737 45 76.672 45C73.525 45 71.9744 41.2106 71.5019 36.3715C71.0291 41.2108 69.4782 45 66.331 45C64.829 45 63.7235 44.1289 62.8594 42.7529C62.0295 42.823 61.1466 42.8582 60.2176 42.8582C57.2214 42.8582 54.1434 42.3493 52.1125 41.8917L52.1086 41.8877C51.6509 39.8571 51.142 36.7793 51.142 33.7833C51.142 32.8544 51.1772 31.9717 51.2473 31.1419C49.8711 30.2777 49 29.1724 49 27.6705C49 24.5192 52.8001 22.9685 57.6495 22.4981C52.8003 22.028 49 20.4776 49 17.3264C49 15.8249 49.871 14.7197 51.2469 13.8557C51.1769 13.0261 51.1416 12.1434 51.1416 11.2147C51.1416 8.21931 51.6505 5.14201 52.108 3.11175L52.112 3.10776ZM71.1209 11.1664C71.1209 15.1604 70.4259 17.8818 68.9061 19.9043C66.8834 21.424 64.1618 22.1189 60.1674 22.1189C58.2254 22.1189 56.614 21.9287 55.3311 21.5772C58.9166 18.4721 60.2113 17.0289 61.3281 12.327C66.0304 11.2103 67.4737 9.9157 70.5791 6.33055C70.9306 7.61328 71.1209 9.22459 71.1209 11.1664ZM59.9841 10.9831C60.0606 10.6589 60.1375 10.3328 60.2157 10.0062C60.8513 7.33537 61.5255 4.65055 62.5711 2.73536C62.0779 2.69898 61.551 2.67986 60.9892 2.67986C58.1235 2.67986 55.5944 3.1557 53.6671 4.66672C52.156 6.5938 51.6801 9.12271 51.6801 11.9882C51.6801 12.5499 51.6993 13.0767 51.7356 13.5699C53.651 12.5244 56.336 11.8502 59.0071 11.2147C59.3337 11.1365 59.6598 11.0596 59.9841 10.9831ZM61.6559 9.36151C62.3465 6.3182 63.1512 2.77288 64.5624 1.76537C67.7752 -0.528183 69.8239 3.3227 68.5791 6.28766C67.3344 9.25266 64.8307 10.4829 61.2632 11.0536C61.3922 10.5232 61.5219 9.95183 61.6559 9.36151ZM58.3621 12.6548C55.3186 13.3454 51.7731 14.15 50.7656 15.5611C48.4718 18.7736 52.323 20.822 55.2882 19.5774C58.2535 18.3328 59.4838 15.8293 60.0546 12.2621C59.527 12.3905 58.9587 12.5194 58.3715 12.6526L58.3621 12.6548ZM71.8791 33.8336C71.8791 29.8396 72.5741 27.1182 74.0939 25.0957C76.1166 23.576 78.8382 22.8811 82.8326 22.8811C84.7746 22.8811 86.386 23.0713 87.6689 23.4228C84.0834 26.5279 82.7887 27.9711 81.6719 32.673C76.9696 33.7897 75.5263 35.0843 72.4209 38.6695C72.0694 37.3867 71.8791 35.7754 71.8791 33.8336ZM83.9929 33.7853C83.6663 33.8635 83.3402 33.9404 83.0159 34.0169L82.8315 34.7962L82.7843 34.9938C82.1487 37.6646 81.4745 40.3495 80.4289 42.2646C80.9221 42.301 81.449 42.3201 82.0108 42.3201C84.8765 42.3201 87.4056 41.8443 89.3329 40.3333C90.844 38.4062 91.3199 35.8773 91.3199 33.0118C91.3199 32.4501 91.3007 31.9233 91.2644 31.4301C89.349 32.4756 86.664 33.1498 83.9929 33.7853ZM81.3441 35.6385C80.6535 38.6818 79.8488 42.2271 78.4376 43.2346C75.2248 45.5282 73.1761 41.6773 74.4209 38.7123C75.6656 35.7473 78.1693 34.5171 81.7368 33.9464C81.6078 34.4768 81.4781 35.0482 81.3441 35.6385ZM84.6379 32.3452C87.6814 31.6546 91.2269 30.85 92.2344 29.4389C94.5282 26.2264 90.677 24.178 87.7118 25.4226C84.7465 26.6672 83.5162 29.1707 82.9454 32.7379C83.1912 32.6781 83.4459 32.6182 83.7071 32.5577C84.0096 32.4878 84.3211 32.4171 84.6379 32.3452ZM68.9095 25.0922C70.4296 27.1151 71.1247 29.8369 71.1247 33.8317C71.1247 35.7738 70.9344 37.3854 70.5829 38.6683C67.4769 35.0826 66.0334 33.7877 61.3302 32.6708C60.2132 27.9681 58.9183 26.5247 55.3322 23.419C56.6153 23.0675 58.227 22.8772 60.1693 22.8772C64.1644 22.8772 66.8865 23.5723 68.9095 25.0922ZM60.2177 34.992C60.1395 34.6654 60.0624 34.3392 59.986 34.015C59.8153 33.9747 59.6441 33.9343 59.4726 33.8937C59.3182 33.8571 59.1636 33.8204 59.0088 33.7833C56.3373 33.1477 53.6518 32.4733 51.7361 31.4277C51.6997 31.921 51.6806 32.4479 51.6806 33.0097C51.6806 35.8757 52.1565 38.405 53.6679 40.3324C55.5955 41.8437 58.1251 42.3196 60.9913 42.3196C61.5531 42.3196 62.0802 42.3005 62.5735 42.2641C61.5277 40.3486 60.8533 37.6633 60.2177 34.992ZM64.5651 43.2343C63.1536 42.2266 62.3489 38.6807 61.6581 35.6369L61.6564 35.6294L61.654 35.6187C61.5214 35.0347 61.393 34.4694 61.2653 33.9444C64.8334 34.5153 67.3376 35.7457 68.5825 38.7112C69.8275 41.6767 67.7785 45.5283 64.5651 43.2343ZM58.3639 32.343L58.3652 32.3433C58.9552 32.4772 59.5264 32.6068 60.0565 32.7357C59.4856 29.168 58.2551 26.664 55.2893 25.4192C52.3235 24.1743 48.4716 26.2232 50.7659 29.4362C51.7736 30.8475 55.3198 31.6523 58.3639 32.343ZM71.8753 11.1683C71.8753 15.1631 72.5704 17.8849 74.0905 19.9078C76.1135 21.4277 78.8356 22.1228 82.8307 22.1228C84.773 22.1228 86.3847 21.9325 87.6678 21.581C84.0817 18.4753 82.7868 17.0319 81.6698 12.3292C76.9666 11.2123 75.5231 9.91742 72.4171 6.33168C72.0656 7.61462 71.8753 9.22619 71.8753 11.1683ZM83.014 10.985C82.9375 10.6608 82.8605 10.3346 82.7823 10.008C82.1467 7.33667 81.4723 4.65139 80.4265 2.73586C80.9198 2.69948 81.4468 2.68036 82.0087 2.68036C84.8749 2.68036 87.4045 3.15628 89.3321 4.66756C90.8435 6.59498 91.3194 9.12431 91.3194 11.9903C91.3194 12.5521 91.3003 13.079 91.2639 13.5723C89.3482 12.5267 86.6627 11.8523 83.9912 11.2167C83.6645 11.1385 83.3383 11.0615 83.014 10.985ZM81.3419 9.36315C80.6511 6.31933 79.8464 2.77342 78.4349 1.76575C75.2215 -0.528267 73.1725 3.32328 74.4175 6.28879C75.6624 9.25429 78.1666 10.4847 81.7347 11.0556C81.6062 10.5274 81.4771 9.95853 81.3437 9.37079L81.3419 9.36315ZM84.6364 12.657C87.6804 13.3478 91.2264 14.1525 92.2341 15.5638C94.5284 18.7768 90.6765 20.8257 87.7107 19.5808C84.7449 18.336 83.5144 15.832 82.9435 12.2643C83.4737 12.3932 84.045 12.5229 84.6352 12.6568L84.6364 12.657ZM71.43 30.4658C72.1106 23.8021 72.662 23.2505 79.326 22.5697C72.6623 21.8896 72.1106 21.3377 71.43 14.6739C70.7495 21.3374 70.198 21.8892 63.5341 22.5697C70.1977 23.2506 70.7495 23.802 71.43 30.4658Z" fill="#E8E4DF"/>
</svg>
