<svg width="1147" height="1147" viewBox="0 0 1147 1147" fill="none" xmlns="http://www.w3.org/2000/svg">
<circle cx="573.5" cy="573.5" r="299" stroke="#E8E4DF" stroke-width="7"/>
<path fill-rule="evenodd" clip-rule="evenodd" d="M1146.99 570C1145.11 256.042 890.959 1.8877 577 0.0107422V0H570V0.0107422C256.041 1.8877 1.88672 256.041 0.010498 570H0V577H0.010498C1.88672 890.958 256.041 1145.11 570 1146.99V1147H577V1146.99C890.958 1145.11 1145.11 890.958 1146.99 577H1147V570H1146.99ZM154.461 771.975C63.1409 719.531 8.70801 650.889 7.03955 577H127.008C127.327 645.506 136.997 711.164 154.461 771.975ZM7.03955 570H127.008C127.327 501.494 136.997 435.836 154.461 375.025C63.1409 427.469 8.70801 496.111 7.03955 570ZM163.137 776.847C144.634 714.854 134.338 647.525 134.008 577H253.006C253.307 667.128 265.226 752.328 286.22 828.046C244.088 815.034 205.46 799.258 171.24 781.208C168.51 779.769 165.809 778.314 163.137 776.847ZM134.008 570H253.006C253.307 479.872 265.226 394.672 286.22 318.954C244.088 331.966 205.46 347.742 171.24 365.792C168.51 367.231 165.809 368.686 163.137 370.153C144.634 432.146 134.338 499.475 134.008 570ZM294.164 830.454C272.615 754.352 260.313 668.277 260.006 577H271.02C271.007 575.835 271 574.668 271 573.5C271 572.332 271.007 571.165 271.02 570H260.006C260.313 478.723 272.615 392.648 294.164 316.546C335.048 304.383 379.113 294.799 425.556 288.229C424.236 295.961 422.968 303.805 421.753 311.757C414.688 315.862 407.805 320.245 401.118 324.89C407.805 320.245 414.688 315.862 421.753 311.758C421.753 311.758 421.753 311.758 421.753 311.757C426.92 308.755 432.184 305.902 437.539 303.203C434.839 304.563 432.163 305.963 429.51 307.401C430.578 300.594 431.685 293.868 432.831 287.229C453.895 284.406 475.436 282.203 497.379 280.658C521.699 274.354 547.208 271 573.5 271C599.792 271 625.301 274.354 649.622 280.658C671.564 282.203 693.104 284.406 714.169 287.229C715.315 293.868 716.422 300.594 717.49 307.401C720.099 308.816 722.685 310.269 725.248 311.758C724.033 303.806 722.764 295.961 721.444 288.229C767.887 294.799 811.952 304.383 852.836 316.546C874.385 392.648 886.688 478.723 886.994 570H875.98C875.993 571.165 876 572.332 876 573.5C876 574.668 875.993 575.835 875.98 577H886.994C886.688 668.277 874.385 754.352 852.836 830.454C811.952 842.617 767.887 852.201 721.444 858.77C722.764 851.039 724.033 843.194 725.247 835.242C722.685 836.731 720.099 838.184 717.49 839.599C716.95 843.043 716.399 846.467 715.839 849.869C715.292 853.19 714.735 856.491 714.169 859.771C693.104 862.594 671.564 864.797 649.622 866.342C625.301 872.646 599.792 876 573.5 876C547.208 876 521.699 872.646 497.379 866.342C475.436 864.797 453.895 862.594 432.831 859.771C432.203 856.138 431.588 852.479 430.984 848.794C430.485 845.746 429.993 842.681 429.51 839.599C426.901 838.184 424.315 836.731 421.753 835.242C422.968 843.194 424.236 851.039 425.556 858.77C379.113 852.201 335.048 842.617 294.164 830.454ZM860.78 828.046C881.773 752.328 893.693 667.128 893.994 577H1012.99C1012.66 647.525 1002.37 714.854 983.862 776.847C982.319 777.694 980.765 778.538 979.202 779.377C978.06 779.99 976.913 780.601 975.76 781.208C941.54 799.258 902.912 815.034 860.78 828.046ZM893.994 570H1012.99C1012.66 499.475 1002.37 432.146 983.862 370.153C981.191 368.686 978.49 367.231 975.76 365.792C941.54 347.742 902.912 331.966 860.78 318.954C881.774 394.672 893.693 479.872 893.994 570ZM992.539 771.975C1010 711.164 1019.67 645.506 1019.99 577H1139.96C1138.29 650.889 1083.86 719.531 992.539 771.975ZM1019.99 570H1139.96C1138.29 496.111 1083.86 427.469 992.539 375.025C1010 435.836 1019.67 501.494 1019.99 570ZM577 1139.86C596.002 1138.36 615.37 1124.61 634.139 1097.91C644.701 1082.88 654.782 1064.14 664.217 1042.1C635.787 1045.84 606.66 1047.84 577 1047.99V1139.86ZM577 1040.99C607.774 1040.84 637.947 1038.67 667.338 1034.63C674.421 1017.26 681.117 998.003 687.352 977.031C697.13 944.139 705.728 907.196 712.901 867.002C669.358 872.737 623.845 875.847 577 875.994V1040.99ZM570 875.994V1040.99C539.226 1040.84 509.053 1038.67 479.662 1034.63C472.579 1017.26 465.883 998.003 459.648 977.031C449.869 944.139 441.272 907.196 434.099 867.001C477.642 872.737 523.155 875.847 570 875.994ZM570 271.006C523.155 271.153 477.642 274.263 434.099 279.998C441.272 239.804 449.869 202.861 459.648 169.969C465.883 148.997 472.579 129.738 479.662 112.373C509.053 108.335 539.226 106.162 570 106.009V271.006ZM577 271.006V106.009C607.774 106.162 637.947 108.335 667.338 112.373C674.421 129.738 681.117 148.997 687.352 169.969C697.13 202.861 705.728 239.804 712.901 279.998C669.358 274.263 623.845 271.153 577 271.006ZM577 99.0088C606.66 99.1553 635.787 101.164 664.217 104.903C654.782 82.8594 644.701 64.1191 634.139 49.0938C615.37 22.3906 596.002 8.6416 577 7.13867V99.0088ZM570 7.13867C550.998 8.6416 531.63 22.3906 512.861 49.0938C502.299 64.1191 492.218 82.8594 482.783 104.903C511.213 101.164 540.34 99.1553 570 99.0088V7.13867ZM570 1047.99V1139.86C550.998 1138.36 531.63 1124.61 512.861 1097.91C502.299 1082.88 492.218 1064.14 482.783 1042.1C511.213 1045.84 540.34 1047.84 570 1047.99ZM157.31 781.624C85.3162 741.583 33.8706 691.16 11.8823 635.056C32.3455 763.1 115.759 875.245 236.025 949.027C202.822 899.843 176.027 843.327 157.31 781.624ZM250.523 957.633C285.755 977.859 323.918 994.873 364.402 1008.15C333.333 960.246 307.455 901.859 288.485 836.059C243.489 822.439 202.327 805.695 166.063 786.387C186.133 850.13 214.941 908.009 250.523 957.633ZM375.028 1011.53C406.021 1021.1 438.318 1028.49 471.651 1033.48C453.625 988.246 438.348 931.31 426.815 866.015C380.852 859.619 337.148 850.29 296.467 838.43C311.428 889.251 330.547 935.465 352.983 975.611C360.027 988.216 367.384 1000.2 375.028 1011.53ZM675.349 1033.48C708.682 1028.49 740.979 1021.1 771.972 1011.53C779.616 1000.2 786.973 988.216 794.017 975.611C816.453 935.465 835.572 889.251 850.533 838.43C809.852 850.29 766.147 859.619 720.186 866.015C708.652 931.31 693.375 988.246 675.349 1033.48ZM782.598 1008.15C823.082 994.873 861.245 977.859 896.478 957.633C932.059 908.009 960.867 850.13 980.938 786.387C944.673 805.695 903.511 822.439 858.515 836.059C839.545 901.859 813.667 960.246 782.598 1008.15ZM910.975 949.027C1031.24 875.245 1114.65 763.1 1135.12 635.056C1113.13 691.16 1061.68 741.583 989.689 781.624C970.973 843.327 944.178 899.843 910.975 949.027ZM1135.12 511.944C1114.65 383.9 1031.24 271.755 910.976 197.973C944.179 247.157 970.973 303.673 989.689 365.376C1061.68 405.417 1113.13 455.84 1135.12 511.944ZM896.478 189.367C861.245 169.141 823.082 152.127 782.598 138.852C813.667 186.754 839.545 245.141 858.515 310.941C903.511 324.561 944.673 341.305 980.938 360.613C960.867 296.87 932.059 238.991 896.478 189.367ZM771.972 135.47C740.979 125.902 708.682 118.511 675.349 113.522C693.375 158.754 708.652 215.69 720.186 280.985C766.148 287.381 809.852 296.71 850.533 308.57C835.572 257.749 816.453 211.535 794.017 171.389C786.973 158.784 779.616 146.799 771.972 135.47ZM471.651 113.522C438.318 118.511 406.021 125.902 375.028 135.47C367.384 146.799 360.027 158.784 352.983 171.389C330.547 211.535 311.428 257.749 296.467 308.57C337.149 296.71 380.852 287.381 426.815 280.985C438.348 215.69 453.625 158.754 471.651 113.522ZM364.402 138.852C323.918 152.127 285.755 169.141 250.523 189.367C214.941 238.991 186.133 296.87 166.063 360.613C202.327 341.305 243.489 324.561 288.485 310.941C307.455 245.141 333.333 186.753 364.402 138.852ZM236.025 197.973C115.759 271.755 32.3455 383.9 11.8823 511.944C33.8706 455.84 85.3162 405.417 157.31 365.376C176.027 303.673 202.822 247.157 236.025 197.973ZM245.7 184.1C139.304 245.526 59.26 336.04 22.4106 441.708C73.3708 227.827 245.615 60.9824 462.435 17.8828C377.956 45.6602 303.125 104.387 245.7 184.1ZM462.436 1129.12C245.615 1086.02 73.3708 919.173 22.4106 705.292C59.26 810.96 139.304 901.474 245.7 962.9C303.125 1042.61 377.956 1101.34 462.436 1129.12ZM901.3 962.9C843.875 1042.61 769.044 1101.34 684.564 1129.12C901.385 1086.02 1073.63 919.173 1124.59 705.292C1087.74 810.96 1007.7 901.474 901.3 962.9ZM901.3 184.1C1007.7 245.526 1087.74 336.04 1124.59 441.708C1073.63 227.827 901.385 60.9824 684.565 17.8828C769.044 45.6602 843.875 104.387 901.3 184.1ZM260.585 971.211C324.389 1054.52 407.986 1112.37 501.157 1132.33C452.452 1112.22 407.993 1072.25 370.586 1017.44C331.729 1005.28 294.886 989.724 260.585 971.211ZM381.398 1020.73C427.049 1084.9 482.274 1126.21 541.811 1137.11C517.164 1121.53 494.388 1088.11 474.714 1040.99C442.614 1036.38 411.43 1029.56 381.398 1020.73ZM672.286 1040.99C652.612 1088.11 629.836 1121.53 605.189 1137.11C664.726 1126.21 719.951 1084.9 765.602 1020.73C735.57 1029.56 704.386 1036.38 672.286 1040.99ZM776.414 1017.44C739.007 1072.25 694.548 1112.22 645.843 1132.33C739.014 1112.37 822.611 1054.52 886.415 971.211C852.114 989.724 815.271 1005.28 776.414 1017.44ZM886.415 175.789C822.611 92.4824 739.014 34.6289 645.843 14.6699C694.548 34.7773 739.007 74.7471 776.414 129.556C815.271 141.72 852.114 157.276 886.415 175.789ZM765.602 126.274C719.951 62.0986 664.726 20.7852 605.189 9.88672C629.836 25.4688 652.612 58.8906 672.286 106.013C704.386 110.624 735.57 117.443 765.602 126.274ZM474.714 106.013C494.388 58.8906 517.164 25.4688 541.811 9.88672C482.274 20.7852 427.049 62.0986 381.398 126.274C411.43 117.443 442.614 110.624 474.714 106.013ZM370.587 129.556C407.993 74.7471 452.452 34.7773 501.157 14.6699C407.986 34.6289 324.389 92.4824 260.585 175.789C294.886 157.276 331.729 141.72 370.587 129.556Z" fill="#E8E4DF"/>
<path fill-rule="evenodd" clip-rule="evenodd" d="M399.87 399.832C418.054 395.734 445.615 391.177 472.443 391.177C480.761 391.177 488.666 391.493 496.097 392.12C503.835 379.799 513.733 372 527.182 372C555.365 372 569.252 405.936 573.483 449.273C577.717 405.935 591.606 372 619.792 372C633.243 372 643.142 379.801 650.882 392.124C658.314 391.497 666.22 391.181 674.54 391.181C701.373 391.181 728.938 395.739 747.126 399.837L747.161 399.872C751.259 418.058 755.818 445.621 755.818 472.451C755.818 480.77 755.502 488.676 754.874 496.107C767.199 503.846 775 513.745 775 527.195C775 555.417 740.968 569.304 697.539 573.517C740.967 577.727 775 591.612 775 619.832C775 633.28 767.2 643.177 754.878 650.915C755.505 658.344 755.821 666.249 755.821 674.566C755.821 701.392 751.263 728.95 747.166 747.133L747.13 747.168C728.946 751.266 701.385 755.823 674.557 755.823C666.239 755.823 658.334 755.507 650.903 754.88C643.165 767.201 633.267 775 619.818 775C591.635 775 577.748 741.064 573.517 697.727C569.283 741.065 555.394 775 527.208 775C513.757 775 503.858 767.199 496.118 754.876C488.686 755.504 480.78 755.819 472.46 755.819C445.627 755.819 418.062 751.261 399.874 747.163L399.839 747.128C395.741 728.942 391.182 701.379 391.182 674.549C391.182 666.23 391.498 658.324 392.126 650.893C379.801 643.154 372 633.255 372 619.805C372 591.583 406.032 577.696 449.461 573.483C406.033 569.273 372 555.388 372 527.168C372 513.72 379.8 503.823 392.122 496.085C391.495 488.656 391.179 480.751 391.179 472.434C391.179 445.609 395.736 418.05 399.834 399.867L399.87 399.832ZM570.105 472.001C570.105 507.77 563.881 532.141 550.27 550.254C532.156 563.864 507.782 570.087 472.01 570.087C454.619 570.087 440.187 568.383 428.699 565.236C460.808 537.428 472.404 524.503 482.405 482.395C524.517 472.395 537.442 460.801 565.253 428.694C568.401 440.181 570.105 454.611 570.105 472.001ZM470.369 470.36C471.053 467.456 471.743 464.536 472.443 461.611C478.135 437.692 484.173 413.648 493.537 396.497C489.12 396.171 484.401 396 479.37 396C453.706 396 431.056 400.261 413.797 413.793C400.264 431.051 396.002 453.699 396.002 479.361C396.002 484.391 396.173 489.109 396.499 493.526C413.652 484.163 437.698 478.125 461.619 472.434C464.544 471.734 467.464 471.045 470.369 470.36ZM485.34 455.838C491.526 428.583 498.732 396.833 511.37 387.81C540.143 367.27 558.489 401.757 547.342 428.309C536.195 454.863 513.773 465.88 481.824 470.991C482.979 466.242 484.14 461.124 485.34 455.838ZM455.842 485.331C428.586 491.516 396.835 498.721 387.812 511.358C367.269 540.128 401.759 558.473 428.314 547.326C454.87 536.18 465.888 513.76 471 481.814C466.275 482.963 461.186 484.118 455.927 485.311L455.842 485.331ZM576.895 674.999C576.895 639.23 583.119 614.859 596.73 596.746C614.844 583.136 639.218 576.913 674.99 576.913C692.381 576.913 706.813 578.617 718.301 581.764C686.192 609.572 674.596 622.497 664.595 664.605C622.483 674.605 609.558 686.199 581.747 718.306C578.599 706.819 576.895 692.389 576.895 674.999ZM685.381 674.566C682.456 675.266 679.536 675.955 676.631 676.64L674.979 683.619L674.557 685.389C668.865 709.308 662.827 733.352 653.463 750.503C657.88 750.829 662.599 751 667.63 751C693.294 751 715.944 746.739 733.203 733.207C746.736 715.949 750.998 693.301 750.998 667.639C750.998 662.609 750.827 657.891 750.501 653.474C733.348 662.837 709.302 668.875 685.381 674.566ZM661.66 691.162C655.474 718.417 648.268 750.167 635.63 759.19C606.857 779.73 588.511 745.243 599.658 718.691C610.805 692.137 633.227 681.12 665.176 676.009C664.021 680.759 662.86 685.876 661.66 691.162ZM691.158 661.669C718.414 655.484 750.165 648.279 759.188 635.642C779.731 606.872 745.241 588.527 718.686 599.674C692.13 610.82 681.112 633.24 676 665.186C678.201 664.65 680.482 664.114 682.822 663.573C685.531 662.946 688.32 662.313 691.158 661.669ZM550.301 596.714C563.914 614.831 570.139 639.206 570.139 674.981C570.139 692.374 568.435 706.807 565.287 718.296C537.471 686.184 524.543 674.588 482.424 664.586C472.421 622.47 460.824 609.543 428.708 581.73C440.199 578.582 454.633 576.878 472.027 576.878C507.805 576.878 532.184 583.103 550.301 596.714ZM472.46 685.373C471.76 682.448 471.07 679.527 470.386 676.623C468.857 676.262 467.324 675.9 465.788 675.537C464.405 675.209 463.021 674.88 461.635 674.548C437.709 668.856 413.659 662.817 396.503 653.452C396.177 657.87 396.006 662.589 396.006 667.62C396.006 693.287 400.268 715.938 413.804 733.199C431.067 746.733 453.72 750.995 479.389 750.995C484.42 750.995 489.14 750.825 493.558 750.499C484.193 733.344 478.153 709.296 472.46 685.373ZM511.394 759.187C498.754 750.162 491.546 718.407 485.36 691.148L485.345 691.081L485.324 690.986C484.136 685.755 482.986 680.693 481.843 675.991C513.797 681.104 536.223 692.123 547.372 718.68C558.522 745.238 540.172 779.731 511.394 759.187ZM455.859 661.65L455.87 661.652C461.154 662.851 466.27 664.012 471.017 665.166C465.904 633.215 454.884 610.791 428.324 599.643C401.764 588.495 367.268 606.843 387.814 635.618C396.839 648.257 428.597 655.464 455.859 661.65ZM576.861 472.019C576.861 507.794 583.086 532.169 596.699 550.286C614.816 563.897 639.195 570.122 674.973 570.122C692.367 570.122 706.801 568.418 718.292 565.27C686.176 537.457 674.579 524.53 664.576 482.414C622.457 472.412 609.529 460.816 581.713 428.704C578.565 440.193 576.861 454.626 576.861 472.019ZM676.614 470.377C675.93 467.473 675.24 464.552 674.54 461.627C668.847 437.704 662.807 413.656 653.442 396.501C657.86 396.175 662.58 396.004 667.611 396.004C693.28 396.004 715.933 400.266 733.196 413.801C746.732 431.062 750.994 453.713 750.994 479.38C750.994 484.411 750.822 489.13 750.497 493.548C733.341 484.183 709.291 478.144 685.365 472.452C682.44 471.752 679.519 471.062 676.614 470.377ZM661.64 455.852C655.454 428.593 648.246 396.838 635.606 387.813C606.828 367.269 588.478 401.762 599.628 428.32C610.777 454.877 633.203 465.896 665.157 471.009C664.007 466.279 662.85 461.184 661.656 455.921L661.64 455.852ZM691.143 485.351C718.405 491.537 750.161 498.743 759.186 511.382C779.732 540.157 745.236 558.505 718.676 547.357C692.116 536.209 681.096 513.785 675.983 481.834C680.731 482.988 685.848 484.149 691.133 485.348L691.143 485.351ZM572.873 644.839C578.968 585.161 583.906 580.221 643.586 574.124C583.909 568.033 578.968 563.091 572.873 503.413C566.779 563.088 561.84 568.03 502.161 574.124C561.837 580.222 566.779 585.16 572.873 644.839Z" fill="#E8E4DF"/>
</svg>
