<svg width="145" height="116" viewBox="0 0 145 116" fill="none" xmlns="http://www.w3.org/2000/svg">
<path fill-rule="evenodd" clip-rule="evenodd" d="M52.112 3.10776C54.1425 2.65024 57.22 2.14138 60.2157 2.14138C61.1445 2.14138 62.0272 2.17663 62.857 2.24667C63.721 0.87088 64.8263 0 66.328 0C69.475 0 71.0256 3.78937 71.4981 8.62852C71.9709 3.78925 73.5218 4.20126e-05 76.669 4.20126e-05C78.171 4.20126e-05 79.2765 0.871048 80.1406 2.24709C80.9705 2.17705 81.8534 2.1418 82.7824 2.1418C85.7786 2.1418 88.8566 2.65075 90.8875 3.10835L90.8914 3.1123C91.3491 5.14298 91.858 8.22074 91.858 11.2167C91.858 12.1456 91.8227 13.0283 91.7527 13.8581C93.1289 14.7223 94 15.8276 94 17.3295C94 20.4808 90.1999 22.0315 85.3505 22.5019C90.1997 22.972 94 24.5224 94 27.6736C94 29.1751 93.129 30.2803 91.7531 31.1443C91.8231 31.9739 91.8584 32.8566 91.8584 33.7853C91.8584 36.7807 91.3495 39.858 90.892 41.8883L90.888 41.8922C88.8575 42.3498 85.78 42.8586 82.7843 42.8586C81.8555 42.8586 80.9728 42.8234 80.143 42.7533C79.279 44.1292 78.1737 45 76.672 45C73.525 45 71.9744 41.2106 71.5019 36.3715C71.0291 41.2108 69.4782 45 66.331 45C64.829 45 63.7235 44.1289 62.8594 42.7529C62.0295 42.823 61.1466 42.8582 60.2176 42.8582C57.2214 42.8582 54.1434 42.3493 52.1125 41.8917L52.1086 41.8877C51.6509 39.8571 51.142 36.7793 51.142 33.7833C51.142 32.8544 51.1772 31.9717 51.2473 31.1419C49.8711 30.2777 49 29.1724 49 27.6705C49 24.5192 52.8001 22.9685 57.6495 22.4981C52.8003 22.028 49 20.4776 49 17.3264C49 15.8249 49.871 14.7197 51.2469 13.8557C51.1769 13.0261 51.1416 12.1434 51.1416 11.2147C51.1416 8.21931 51.6505 5.14201 52.108 3.11175L52.112 3.10776ZM71.1209 11.1664C71.1209 15.1604 70.4259 17.8818 68.9061 19.9043C66.8834 21.424 64.1618 22.1189 60.1674 22.1189C58.2254 22.1189 56.614 21.9287 55.3311 21.5772C58.9166 18.4721 60.2113 17.0289 61.3281 12.327C66.0304 11.2103 67.4737 9.9157 70.5791 6.33055C70.9306 7.61328 71.1209 9.22459 71.1209 11.1664ZM59.9841 10.9831C60.0606 10.6589 60.1375 10.3328 60.2157 10.0062C60.8513 7.33537 61.5255 4.65055 62.5711 2.73536C62.0779 2.69898 61.551 2.67986 60.9892 2.67986C58.1235 2.67986 55.5944 3.1557 53.6671 4.66672C52.156 6.5938 51.6801 9.12271 51.6801 11.9882C51.6801 12.5499 51.6993 13.0767 51.7356 13.5699C53.651 12.5244 56.336 11.8502 59.0071 11.2147C59.3337 11.1365 59.6598 11.0596 59.9841 10.9831ZM61.6559 9.36151C62.3465 6.3182 63.1512 2.77288 64.5624 1.76537C67.7752 -0.528183 69.8239 3.3227 68.5791 6.28766C67.3344 9.25266 64.8307 10.4829 61.2632 11.0536C61.3922 10.5232 61.5219 9.95183 61.6559 9.36151ZM58.3621 12.6548C55.3186 13.3454 51.7731 14.15 50.7656 15.5611C48.4718 18.7736 52.323 20.822 55.2882 19.5774C58.2535 18.3328 59.4838 15.8293 60.0546 12.2621C59.527 12.3905 58.9587 12.5194 58.3715 12.6526L58.3621 12.6548ZM71.8791 33.8336C71.8791 29.8396 72.5741 27.1182 74.0939 25.0957C76.1166 23.576 78.8382 22.8811 82.8326 22.8811C84.7746 22.8811 86.386 23.0713 87.6689 23.4228C84.0834 26.5279 82.7887 27.9711 81.6719 32.673C76.9696 33.7897 75.5263 35.0843 72.4209 38.6694C72.0694 37.3867 71.8791 35.7754 71.8791 33.8336ZM83.9929 33.7853C83.6663 33.8635 83.3402 33.9404 83.0159 34.0169L82.8315 34.7962L82.7843 34.9938C82.1487 37.6646 81.4745 40.3495 80.4289 42.2646C80.9221 42.301 81.449 42.3201 82.0107 42.3201C84.8765 42.3201 87.4056 41.8443 89.3329 40.3333C90.844 38.4062 91.3199 35.8773 91.3199 33.0118C91.3199 32.4501 91.3007 31.9233 91.2644 31.4301C89.349 32.4756 86.664 33.1498 83.9929 33.7853ZM81.3441 35.6385C80.6535 38.6818 79.8488 42.2271 78.4376 43.2346C75.2248 45.5282 73.1761 41.6773 74.4209 38.7123C75.6656 35.7473 78.1693 34.5171 81.7368 33.9464C81.6078 34.4768 81.4781 35.0482 81.3441 35.6385ZM84.6379 32.3452C87.6814 31.6546 91.2269 30.85 92.2344 29.4389C94.5282 26.2264 90.677 24.178 87.7118 25.4226C84.7465 26.6672 83.5162 29.1707 82.9454 32.7379C83.1912 32.6781 83.4459 32.6182 83.7071 32.5577C84.0096 32.4878 84.3211 32.4171 84.6379 32.3452ZM68.9095 25.0922C70.4296 27.1151 71.1247 29.8369 71.1247 33.8316C71.1247 35.7738 70.9344 37.3854 70.5829 38.6683C67.4769 35.0826 66.0334 33.7877 61.3302 32.6708C60.2132 27.9681 58.9183 26.5247 55.3322 23.419C56.6153 23.0675 58.227 22.8772 60.1693 22.8772C64.1644 22.8772 66.8865 23.5723 68.9095 25.0922ZM60.2177 34.992C60.1395 34.6654 60.0624 34.3393 59.986 34.015C59.8153 33.9747 59.6441 33.9343 59.4726 33.8937C59.3182 33.8571 59.1636 33.8203 59.0088 33.7833C56.3373 33.1477 53.6518 32.4733 51.7361 31.4277C51.6997 31.921 51.6806 32.4479 51.6806 33.0097C51.6806 35.8757 52.1565 38.405 53.6679 40.3324C55.5955 41.8437 58.1251 42.3196 60.9913 42.3196C61.5531 42.3196 62.0802 42.3005 62.5735 42.2641C61.5277 40.3486 60.8533 37.6633 60.2177 34.992ZM64.5651 43.2343C63.1536 42.2266 62.3489 38.6807 61.6581 35.6369L61.6564 35.6294L61.654 35.6187C61.5214 35.0347 61.393 34.4694 61.2653 33.9444C64.8334 34.5153 67.3376 35.7457 68.5825 38.7112C69.8275 41.6767 67.7785 45.5283 64.5651 43.2343ZM58.3639 32.343L58.3652 32.3433C58.9552 32.4772 59.5264 32.6068 60.0565 32.7357C59.4856 29.168 58.2551 26.664 55.2893 25.4192C52.3235 24.1743 48.4716 26.2232 50.7659 29.4362C51.7736 30.8475 55.3198 31.6523 58.3639 32.343ZM71.8753 11.1683C71.8753 15.1631 72.5704 17.8849 74.0905 19.9078C76.1135 21.4277 78.8356 22.1228 82.8307 22.1228C84.773 22.1228 86.3847 21.9325 87.6678 21.581C84.0817 18.4753 82.7868 17.0319 81.6698 12.3292C76.9666 11.2123 75.5231 9.91742 72.4171 6.33168C72.0656 7.61462 71.8753 9.22619 71.8753 11.1683ZM83.014 10.985C82.9376 10.6608 82.8605 10.3346 82.7823 10.008C82.1467 7.33667 81.4723 4.65139 80.4265 2.73586C80.9198 2.69948 81.4468 2.68036 82.0087 2.68036C84.8749 2.68036 87.4045 3.15628 89.3321 4.66756C90.8435 6.59498 91.3194 9.12431 91.3194 11.9903C91.3194 12.5521 91.3003 13.079 91.2639 13.5723C89.3482 12.5267 86.6627 11.8523 83.9911 11.2167C83.6645 11.1385 83.3383 11.0615 83.014 10.985ZM81.3419 9.36315C80.6511 6.31933 79.8464 2.77342 78.4349 1.76575C75.2215 -0.528267 73.1725 3.32328 74.4175 6.28879C75.6624 9.25429 78.1666 10.4847 81.7347 11.0556C81.6062 10.5274 81.4771 9.95853 81.3437 9.37079L81.3419 9.36315ZM84.6364 12.657C87.6804 13.3478 91.2264 14.1525 92.2341 15.5638C94.5284 18.7768 90.6765 20.8257 87.7107 19.5808C84.7449 18.336 83.5144 15.832 82.9435 12.2643C83.4737 12.3932 84.045 12.5229 84.6352 12.6568L84.6364 12.657ZM71.43 30.4658C72.1106 23.8021 72.662 23.2505 79.326 22.5697C72.6623 21.8896 72.1106 21.3377 71.43 14.6739C70.7495 21.3374 70.198 21.8892 63.5341 22.5697C70.1977 23.2506 70.7495 23.802 71.43 30.4658Z" fill="#E8E4DF"/>
<path d="M58.3949 103.365C57.6823 103.365 57.2548 102.939 57.041 102.123C56.8628 101.413 56.6134 101.129 56.0078 101.129C54.3689 101.129 52.3737 103.755 51.3761 106.95C50.7704 108.866 50.6279 110.215 50.6279 111.386C50.6279 113.125 51.4117 113.693 52.3024 113.693C53.6919 113.693 54.8677 112.699 56.9341 110.037L57.6823 110.499C56.0078 113.87 53.6919 116 51.6611 116C49.7728 116 48.3477 114.58 48.3477 112.096C48.3477 105.92 53.0862 99.2478 57.0766 99.2478C58.6086 99.2478 59.7487 100.384 59.7487 101.874C59.7487 102.691 59.1787 103.365 58.3949 103.365Z" fill="#E8E4DF"/>
<path d="M66.1713 95.4502L62.074 112.167C62.0028 112.522 61.9672 112.77 61.9672 112.912C61.9672 113.125 62.074 113.303 62.3591 113.303C62.751 113.303 63.8911 112.628 65.815 110.073L66.5989 110.605C64.2117 114.616 62.3591 115.787 61.1121 115.787C60.2214 115.787 59.5088 115.219 59.5088 114.261C59.5088 113.338 59.6513 112.593 60.2214 110.215L63.713 95.4856C64.0336 94.1015 64.2474 92.6818 64.2474 91.901C64.2474 91.1201 63.8555 90.6233 62.6085 90.2683L62.6797 89.381C64.4611 89.2391 65.7794 89.0971 67.3827 88.7422L67.9171 89.3101C67.1333 91.7235 66.8126 92.7528 66.1713 95.4502Z" fill="#E8E4DF"/>
<path d="M77.0694 108.618C73.9341 114.616 72.2952 115.787 70.5494 115.787C69.053 115.787 68.1267 114.545 68.1267 113.267C68.1267 112.415 68.4474 111.315 69.0887 109.647L71.2264 104.11C71.6183 103.081 71.7964 102.513 71.7964 102.087C71.7964 101.768 71.6539 101.484 71.3333 101.484C70.7276 101.484 70.0863 102.194 68.4474 104.217L67.7348 103.613C69.73 100.632 71.0839 99.2478 72.5446 99.2478C73.3997 99.2478 74.1479 100.029 74.1479 101.164C74.1479 101.981 73.9698 102.691 73.079 105.033L70.9413 110.712C70.5851 111.634 70.4782 112.096 70.4782 112.593C70.4782 113.161 70.7632 113.516 71.4401 113.516C72.7228 113.516 75.8581 110.676 79.2428 101.093L79.7416 99.6737C79.9553 99.5672 80.2403 99.4962 80.5254 99.4962C81.0598 99.4962 81.6299 99.8157 81.9505 100.455C80.9173 103.294 80.5254 104.217 79.8841 106.417C78.8152 110.108 78.4946 111.67 78.4233 112.309C78.3877 112.664 78.3877 112.948 78.3877 113.125C78.3877 113.303 78.5302 113.516 78.744 113.516C79.1359 113.516 79.7772 113.161 81.6299 110.747L82.378 111.315C80.2403 114.758 78.8152 115.787 77.5682 115.787C76.5706 115.787 76.0718 115.077 76.0718 114.048C76.0718 113.232 76.0718 112.238 77.0694 108.618Z" fill="#E8E4DF"/>
<path d="M94.3303 103.649C94.3303 102.336 93.6533 101.519 92.7982 101.519C89.9836 101.519 86.1001 107.801 86.1001 111.918C86.1001 113.196 86.8127 113.835 87.739 113.835C88.5228 113.835 89.4848 113.516 90.6249 112.309C92.7982 110.002 94.3303 106.417 94.3303 103.649ZM84.4256 108.866L88.2378 95.4856C88.6297 94.137 89.0573 92.6818 89.0573 91.901C89.0573 91.1201 88.6653 90.6233 87.4184 90.2683L87.4896 89.381C89.271 89.2391 90.4824 89.0971 92.0857 88.7422L92.6201 89.3101C91.8363 91.7235 91.4444 92.7528 90.6249 95.4502L88.0597 103.862C90.4111 100.455 92.1569 99.2478 93.6889 99.2478C95.3279 99.2478 96.6461 100.809 96.6461 103.471C96.6461 106.524 94.9716 110.25 91.4444 113.658C89.8767 115.148 88.5228 115.858 86.9196 115.858C85.0313 115.858 83.8199 114.332 83.8199 112.38C83.8199 111.351 83.998 110.25 84.4256 108.866Z" fill="#E8E4DF"/>
<path d="M6.85556 84.3447C9.72699 84.3447 11.6293 82.4687 11.6293 79.9305C11.6293 78.5695 11.1627 77.4292 10.2654 76.5095C9.47574 75.7003 8.93735 75.1485 6.74788 73.5668C3.66108 71.3597 2.97912 70.7711 2.01001 69.4837C1.11268 68.3065 0.753752 67.2398 0.753752 65.5109C0.753752 61.8324 3.76876 59.0736 7.93234 59.0736C10.1936 59.0736 11.9882 59.5886 13.8188 60.5817C13.8547 61.5749 13.8906 62.2738 13.8906 63.1199C13.8906 63.9659 13.8547 64.7384 13.8188 65.7316L12.8138 65.8052C12.4908 64.5177 12.1318 63.451 11.3063 62.4578C10.3372 61.3174 9.36806 60.7657 7.6452 60.7657C5.0968 60.7657 3.37394 62.3842 3.37394 64.8856C3.37394 66.0259 3.62519 66.9455 4.63019 68.0123C5.31216 68.7112 5.77877 69.1158 8.07592 70.7711C10.9115 72.7943 11.7729 73.4196 12.7779 74.5967C13.7829 75.8106 14.4649 77.5763 14.4649 79.2316C14.4649 83.3515 11.3063 86 6.60431 86C4.16358 86 2.44072 85.6322 0.717859 84.7861C0.323037 82.7629 0.215358 80.9237 0 78.827L1.11268 78.5695C1.5075 79.7466 1.83054 80.703 2.36894 81.6226C3.40983 83.4986 4.45073 84.3447 6.85556 84.3447Z" fill="#E8E4DF"/>
<path d="M19.5375 59.6621H32.4949C33.9665 59.6621 35.151 59.6621 36.5508 59.5518C36.6226 61.3174 36.6585 63.1199 36.6585 64.9223L35.6176 64.9959C35.2228 63.6349 34.8638 62.8624 34.3254 62.2738C33.7871 61.6853 32.9615 61.391 32.2795 61.2807C31.3822 61.1335 30.5926 61.0967 29.444 61.0967C27.757 61.0967 27.5417 61.391 27.434 62.8624C27.3263 64.0027 27.3263 65.327 27.3263 66.6512V77.3924C27.3263 78.6798 27.3981 80.2984 27.434 81.5123C27.5058 83.3883 27.9006 83.9768 29.6235 84.455L29.5158 85.4482C28.116 85.3379 26.8238 85.3379 25.9265 85.3379C25.0292 85.3379 23.6652 85.3379 22.2654 85.4482L22.1577 84.455C23.8806 83.9768 24.2754 83.3883 24.3472 81.5123C24.3831 80.2984 24.4549 78.6798 24.4549 77.3924V66.6512C24.4549 65.327 24.4549 64.0027 24.3472 62.8624C24.2395 61.391 24.0242 61.0967 22.3372 61.0967C21.1886 61.0967 20.4349 61.1335 19.5375 61.2807C18.8556 61.391 18.03 61.6853 17.4916 62.2738C16.9533 62.8624 16.5584 63.6349 16.1636 64.9959L15.1227 64.9223C15.2304 63.1199 15.3381 61.3542 15.4816 59.5518C16.8815 59.6621 18.0659 59.6621 19.5375 59.6621Z" fill="#E8E4DF"/>
<path d="M45.1113 59H45.7932L52.4334 77.3924C52.8642 78.5695 53.5102 80.2984 54.0486 81.5123C54.7306 83.1308 55.3408 83.9033 56.5252 84.5286L56.4176 85.4482C55.0177 85.3379 54.3717 85.3379 53.4743 85.3379C52.577 85.3379 51.249 85.3379 49.8492 85.4482L49.7415 84.5286C50.7106 84.0872 51.1054 83.7561 51.1054 83.0572C51.1054 82.2112 50.567 80.7766 49.3825 77.3924L49.0954 76.6567H40.3375L40.0863 77.3924C38.83 80.7766 38.6147 82.1744 38.6147 83.0204C38.6147 83.7193 38.9377 84.124 39.9786 84.5286L39.8709 85.4482C38.4711 85.3379 37.7532 85.3379 36.8559 85.3379C35.9586 85.3379 35.4561 85.3379 34.1998 85.4482L34.0921 84.5286C35.2766 83.9033 35.8868 83.1308 36.5688 81.5123C37.1072 80.2984 37.7532 78.5695 38.1839 77.3924L45.1113 59ZM44.86 64.6649L40.9477 75.0749H48.557L44.86 64.6649Z" fill="#E8E4DF"/>
<path d="M81.3239 62.8256L71.7405 86H70.9867L61.3674 63.6349L60.9008 77.4292C60.8649 78.2752 60.829 79.342 60.829 80.3351C60.829 82.248 60.9008 83.9768 62.839 84.5654L62.7314 85.485C61.6187 85.4114 60.6496 85.3747 59.7881 85.3747C58.9267 85.3747 58.0653 85.3747 56.9526 85.485L56.8449 84.5654C58.3165 83.9401 58.6396 83.2779 58.7831 81.549C58.8908 80.3351 58.8908 78.7166 58.9626 77.4292L59.3933 67.6076C59.4292 66.7616 59.4292 66.2098 59.4292 65.5109C59.4292 63.451 59.3933 61.1703 57.2038 60.4714L57.3115 59.5518C59.3215 59.6621 60.7931 59.6621 62.9108 59.6621L71.9558 80.9973L80.4625 59.6621C82.4366 59.6621 84.662 59.6621 86.0618 59.5518L86.1695 60.4714C84.6979 61.0599 84.4107 61.8324 84.303 63.4877C84.2671 64.3706 84.2312 65.5109 84.2312 66.5409C84.2312 66.9455 84.303 67.2766 84.4825 77.4292C84.5184 78.7166 84.5184 80.3351 84.6261 81.549C84.6261 83.2779 85.0209 83.9401 86.4925 84.5654L86.3848 85.485C84.985 85.3747 84.0877 85.3747 83.1903 85.3747C82.293 85.3747 81.3239 85.3747 79.9241 85.485L79.8164 84.5654C81.647 84.0872 81.6828 82.1744 81.6828 80.4087C81.6828 79.4891 81.6828 78.3488 81.647 77.4292L81.3239 62.8256Z" fill="#E8E4DF"/>
<path d="M93.4297 67.6076V77.3924C93.4297 78.6798 93.5014 80.2984 93.5373 81.5123C93.6091 83.2411 93.8963 83.9033 95.3679 84.5286L95.2602 85.4482C93.8604 85.3379 92.9272 85.3379 92.0298 85.3379C91.1325 85.3379 90.1634 85.3379 88.7636 85.4482L88.6559 84.5286C90.0916 83.9401 90.3429 83.1308 90.4505 81.5123C90.5582 80.2984 90.5582 78.6798 90.5582 77.3924V67.6076C90.5582 66.3202 90.5582 64.7016 90.4505 63.4877C90.3429 61.8692 90.0916 61.0599 88.6559 60.4714L88.7636 59.5518C90.1634 59.6621 91.1325 59.6621 92.0298 59.6621C92.9272 59.6621 93.8604 59.6621 95.2602 59.5518L95.3679 60.4714C93.8963 61.0967 93.6091 61.7589 93.5373 63.4877C93.5014 64.7016 93.4297 66.3202 93.4297 67.6076Z" fill="#E8E4DF"/>
<path d="M120.177 85.7057L119.316 86L101.621 64.1131V77.4292C101.621 78.7166 101.621 80.3351 101.728 81.549C101.872 83.2779 102.195 83.9401 103.666 84.5654L103.559 85.485C102.446 85.4114 101.477 85.3747 100.651 85.3747C99.79 85.3747 98.9286 85.3747 97.8159 85.485L97.7082 84.5654C99.1798 83.9401 99.467 83.2779 99.6105 81.549C99.7182 80.3351 99.7182 78.7166 99.7182 77.4292V67.6076C99.7182 66.3202 99.7182 64.9223 99.6105 63.7084C99.467 61.9796 99.0004 61.0967 97.5287 60.4714L97.6364 59.5518C98.7491 59.6253 100.149 59.6621 101.836 59.6621L118.131 79.7098V67.6076C118.131 66.3202 118.131 64.7016 118.024 63.4877C117.88 61.7589 117.557 61.0967 116.085 60.4714L116.193 59.5518C117.306 59.6253 118.275 59.6621 119.1 59.6621C119.962 59.6621 120.823 59.6621 121.936 59.5518L122.044 60.4714C120.572 61.0967 120.285 61.7589 120.141 63.4877C120.034 64.7016 120.034 66.3202 120.034 67.6076V79.673C120.034 81.4387 120.07 83.7929 120.177 85.7057Z" fill="#E8E4DF"/>
<path d="M133.586 59H134.268L140.908 77.3924C141.339 78.5695 141.985 80.2984 142.523 81.5123C143.205 83.1308 143.816 83.9033 145 84.5286L144.892 85.4482C143.492 85.3379 142.846 85.3379 141.949 85.3379C141.052 85.3379 139.724 85.3379 138.324 85.4482L138.216 84.5286C139.185 84.0872 139.58 83.7561 139.58 83.0572C139.58 82.2112 139.042 80.7766 137.857 77.3924L137.57 76.6567H128.812L128.561 77.3924C127.305 80.7766 127.089 82.1744 127.089 83.0204C127.089 83.7193 127.412 84.124 128.453 84.5286L128.346 85.4482C126.946 85.3379 126.228 85.3379 125.331 85.3379C124.433 85.3379 123.931 85.3379 122.675 85.4482L122.567 84.5286C123.751 83.9033 124.362 83.1308 125.044 81.5123C125.582 80.2984 126.228 78.5695 126.659 77.3924L133.586 59ZM133.335 64.6649L129.422 75.0749H137.032L133.335 64.6649Z" fill="#E8E4DF"/>
</svg>
