<svg width="478" height="281" viewBox="0 0 478 281" fill="none" xmlns="http://www.w3.org/2000/svg">
<path d="M166.786 159.19L165.908 158.972C160.199 173.702 151.745 182.212 135.387 182.212C112.99 182.212 102.451 165.191 102.451 142.715C102.451 120.238 113.649 103.435 137.363 103.435C149.659 103.435 158.223 108.891 165.469 122.311L166.347 122.093L164.151 106.709C158.772 104.308 148.342 101.253 137.802 101.253C111.453 101.253 95.205 119.475 95.205 142.715C95.205 165.955 112.325 184.395 137.466 184.395C151.08 184.395 160.419 179.048 164.59 175.884L166.786 159.19Z" fill="#001D23"/>
<path d="M225.53 182.758L230.58 165.082L229.702 164.755C223.773 175.12 218.833 179.812 211.697 180.139L188.861 180.903V116.419C188.861 110.2 189.63 107.691 193.253 103.108V102.89H178.541V103.108C182.164 107.691 182.933 110.309 182.933 116.419V169.228C182.933 175.338 182.164 177.957 178.541 182.54V182.758H225.53Z" fill="#001D23"/>
<path d="M271.894 184.395C292.644 184.395 296.932 170.974 296.932 155.371V118.165C296.932 111.291 298.249 108.454 303.739 103.108V102.89H286.722V103.108C293.199 108.454 294.626 111.291 294.626 118.165V155.481C294.626 169.337 289.247 181.994 270.364 181.994C256.64 181.994 245.332 175.229 245.332 156.463V116.747C245.332 110.418 246.759 107.036 249.723 103.108V102.89H235.012V103.108C238.635 107.8 239.404 110.418 239.404 116.747V156.79C239.404 176.43 255.645 184.395 271.894 184.395Z" fill="#001D23"/>
<path d="M337.069 182.758C357.27 182.758 366.492 173.811 366.492 160.609C366.492 151.007 361.442 142.06 348.378 140.642C357.929 138.132 362.869 130.276 362.869 120.893C362.869 112.928 359.246 102.344 336.74 102.453C329.494 102.453 329.604 102.89 311.379 102.89V103.108C315.002 107.691 315.771 110.309 315.771 116.419V169.228C315.771 175.338 315.002 177.957 311.379 182.54V182.758H337.069ZM321.699 140.096V105.181C325.871 104.854 331.031 104.636 336.411 104.636C349.915 104.636 356.831 110.309 356.831 121.657C356.831 130.495 352.769 140.096 340.363 140.096H321.699ZM336.74 180.576C331.361 180.576 326.091 180.248 321.699 179.812V142.278H341.461C353.867 142.278 359.905 150.025 359.905 161.045C359.905 172.829 352.879 180.576 336.74 180.576Z" fill="#001D23"/>
<path d="M33.5884 89.5973C43.0068 89.5973 50.3826 87.4296 55.8294 82.8534C61.1627 78.3976 63.886 72.2559 63.886 64.4282C63.886 58.0456 61.8435 52.8672 57.9854 49.0136C54.0138 45.1599 47.5457 42.1493 38.6948 39.9816L31.5459 38.2956C24.0566 36.6097 19.0637 34.5624 16.5673 32.1539C13.8439 29.8658 12.5957 26.6143 12.5957 22.3993C12.5957 18.3048 14.0708 15.0533 17.1346 12.6448C20.1984 10.3567 24.6239 9.15242 30.2976 9.15242C37.787 9.15242 43.1203 10.5975 46.411 13.4878C49.7018 16.378 51.6308 20.8338 52.0847 26.8551H61.8435C61.73 23.2423 61.1627 19.8704 60.0279 16.7393C58.8932 13.7286 57.1911 10.9588 54.9216 8.30943C52.5386 5.66005 49.2479 3.6128 45.0493 2.16768C40.8508 0.722557 35.9714 0 30.2976 0C21.9005 0 15.2056 2.04725 10.2127 6.14175C5.21982 10.2363 2.72338 15.6554 2.72338 22.3993C2.72338 29.3841 4.76592 34.6828 8.851 38.5365C12.9361 42.3901 19.0637 45.2804 27.2338 47.2072L34.3827 48.8932C41.6451 50.5791 46.638 52.6264 49.5883 54.9145C52.5386 57.2026 54.0138 60.3337 54.0138 64.4282C54.0138 69.7269 52.1982 73.701 48.6805 76.3504C45.1628 79.1202 40.1699 80.4449 33.5884 80.4449C17.9289 80.4449 10.0992 73.4602 9.87227 59.3703H0C0 69.4861 3.06381 76.9525 8.96447 82.0104C14.8651 87.0684 23.0353 89.5973 33.5884 89.5973Z" fill="#001D23"/>
<path d="M65.6289 1.92683V11.0792H93.0897V87.6705H102.962V11.0792H130.423V1.92683H65.6289Z" fill="#001D23"/>
<path d="M195.874 87.6705L163.194 1.92683H152.527L120.301 87.6705H130.286L139.591 62.7422H176.357L185.775 87.6705H195.874ZM143.336 52.6264C147.534 41.4267 152.3 28.1798 157.747 12.8856C165.69 34.442 170.57 47.6889 172.499 52.5059L172.953 53.5898H142.995L143.336 52.6264Z" fill="#001D23"/>
<path d="M254.967 49.2544C253.151 53.7102 249.974 62.3809 245.435 75.387C242.031 66.2346 238.967 58.0456 236.244 50.6996L217.521 1.92683H205.038V87.6705H214.343V60.2132C214.343 42.1493 214.23 27.5777 214.003 16.4984C215.818 21.7972 218.201 28.3002 221.152 36.0075L241.237 87.6705H249.407L269.378 36.0075C272.329 28.3002 274.712 21.7972 276.527 16.4984C276.3 27.5777 276.187 42.1493 276.187 60.2132V87.6705H285.492V1.92683H273.009L254.967 49.2544Z" fill="#001D23"/>
<path d="M312.03 87.6705V1.92683H302.498V87.6705H312.03Z" fill="#001D23"/>
<path d="M383.844 30.8292C383.844 49.134 383.957 63.9465 384.184 75.1461C380.667 68.884 375.106 59.1294 367.39 46.1233L340.61 1.92683H329.036V87.6705H338.454V58.7681C338.454 40.4633 338.341 25.7713 338.114 14.4512C341.518 20.8338 347.192 30.4679 354.908 43.474L381.688 87.6705H393.262V1.92683H383.844V30.8292Z" fill="#001D23"/>
<path d="M478 87.6705L445.319 1.92683H434.653L402.426 87.6705H412.412L421.717 62.7422H458.482L467.901 87.6705H478ZM425.461 52.6264C429.66 41.4267 434.426 28.1798 439.873 12.8856C447.816 34.442 452.695 47.6889 454.624 52.5059L455.078 53.5898H425.121L425.461 52.6264Z" fill="#001D23"/>
<path fill-rule="evenodd" clip-rule="evenodd" d="M204.676 207.138C208.271 206.332 213.719 205.434 219.023 205.434C220.667 205.434 222.23 205.497 223.699 205.62C225.228 203.194 227.185 201.659 229.844 201.659C235.415 201.659 238.16 208.34 238.997 216.872C239.834 208.34 242.579 201.659 248.151 201.659C250.81 201.659 252.767 203.195 254.297 205.621C255.766 205.497 257.329 205.435 258.974 205.435C264.278 205.435 269.728 206.332 273.323 207.139L273.33 207.146C274.14 210.727 275.041 216.153 275.041 221.435C275.041 223.073 274.979 224.63 274.855 226.093C277.291 227.616 278.833 229.565 278.833 232.213C278.833 237.769 272.106 240.503 263.52 241.333C272.105 242.162 278.833 244.895 278.833 250.451C278.833 253.099 277.291 255.047 274.856 256.571C274.979 258.033 275.042 259.589 275.042 261.227C275.042 266.508 274.141 271.934 273.331 275.514L273.324 275.521C269.729 276.327 264.281 277.224 258.977 277.224C257.333 277.224 255.77 277.162 254.301 277.039C252.772 279.465 250.815 281 248.156 281C242.585 281 239.84 274.319 239.003 265.787C238.166 274.319 235.421 281 229.849 281C227.19 281 225.233 279.464 223.703 277.038C222.234 277.162 220.671 277.224 219.026 277.224C213.722 277.224 208.272 276.326 204.677 275.52L204.67 275.513C203.86 271.932 202.959 266.506 202.959 261.223C202.959 259.586 203.021 258.029 203.145 256.566C200.709 255.043 199.167 253.094 199.167 250.446C199.167 244.889 205.894 242.155 214.48 241.326C205.895 240.497 199.167 237.764 199.167 232.208C199.167 229.56 200.709 227.612 203.144 226.088C203.021 224.626 202.958 223.069 202.958 221.432C202.958 216.151 203.859 210.725 204.669 207.145L204.676 207.138ZM238.329 221.347C238.329 228.389 237.098 233.187 234.408 236.753C230.827 239.432 226.009 240.657 218.937 240.657C215.499 240.657 212.646 240.322 210.375 239.702C216.723 234.228 219.015 231.683 220.992 223.393C229.317 221.424 231.872 219.142 237.37 212.82C237.992 215.082 238.329 217.923 238.329 221.347ZM218.613 221.024C218.748 220.452 218.884 219.877 219.023 219.301C220.148 214.592 221.342 209.858 223.193 206.482C222.319 206.417 221.387 206.384 220.392 206.384C215.319 206.384 210.841 207.223 207.429 209.887C204.754 213.285 203.911 217.743 203.911 222.796C203.911 223.786 203.945 224.715 204.01 225.584C207.401 223.741 212.154 222.552 216.883 221.432C217.461 221.294 218.038 221.158 218.613 221.024ZM221.572 218.164C222.795 212.799 224.22 206.548 226.718 204.771C232.406 200.728 236.033 207.517 233.829 212.745C231.625 217.973 227.193 220.142 220.877 221.148C221.105 220.213 221.335 219.205 221.572 218.164ZM215.741 223.971C210.353 225.189 204.076 226.607 202.292 229.095C198.231 234.759 205.05 238.371 210.299 236.176C215.549 233.982 217.727 229.568 218.737 223.279C217.803 223.505 216.797 223.732 215.758 223.967L215.741 223.971L215.741 223.971ZM239.671 261.312C239.671 254.27 240.902 249.472 243.592 245.906C247.173 243.227 251.991 242.001 259.063 242.001C262.501 242.001 265.354 242.337 267.625 242.956C261.277 248.431 258.985 250.976 257.008 259.266C248.683 261.235 246.128 263.517 240.63 269.838C240.008 267.577 239.671 264.736 239.671 261.312ZM261.117 261.227C260.539 261.365 259.962 261.5 259.387 261.635L259.061 263.009L258.977 263.358C257.852 268.067 256.658 272.8 254.807 276.177C255.681 276.241 256.613 276.275 257.608 276.275C262.681 276.275 267.159 275.436 270.571 272.772C273.246 269.374 274.089 264.915 274.089 259.863C274.089 258.873 274.055 257.944 273.99 257.074C270.599 258.918 265.846 260.106 261.117 261.227ZM256.428 264.494C255.205 269.86 253.78 276.111 251.282 277.887C245.594 281.931 241.967 275.142 244.171 269.914C246.375 264.686 250.807 262.517 257.123 261.511C256.895 262.446 256.665 263.454 256.428 264.494ZM262.259 258.688C267.647 257.47 273.924 256.052 275.708 253.564C279.768 247.9 272.95 244.288 267.701 246.482C262.451 248.677 260.273 253.091 259.263 259.38C259.698 259.275 260.149 259.169 260.611 259.063C261.147 258.939 261.698 258.815 262.259 258.688ZM234.414 245.9C237.105 249.466 238.336 254.265 238.336 261.309C238.336 264.733 237.999 267.574 237.376 269.836C231.878 263.514 229.322 261.231 220.996 259.262C219.018 250.97 216.726 248.425 210.377 242.95C212.648 242.33 215.502 241.995 218.94 241.995C226.013 241.995 230.832 243.22 234.414 245.9ZM219.026 263.355C218.888 262.779 218.751 262.204 218.616 261.632C218.314 261.561 218.011 261.49 217.707 261.418C217.434 261.354 217.16 261.289 216.886 261.223C212.156 260.103 207.402 258.914 204.01 257.07C203.946 257.94 203.912 258.869 203.912 259.859C203.912 264.913 204.755 269.372 207.431 272.77C210.843 275.435 215.321 276.274 220.396 276.274C221.39 276.274 222.323 276.24 223.197 276.176C221.345 272.799 220.151 268.064 219.026 263.355ZM226.723 277.887C224.224 276.11 222.799 269.858 221.576 264.491L221.573 264.478L221.569 264.459C221.334 263.43 221.107 262.433 220.881 261.507C227.198 262.514 231.631 264.683 233.835 269.912C236.039 275.141 232.411 281.931 226.723 277.887ZM215.744 258.684L215.744 258.684L215.746 258.684C216.791 258.92 217.802 259.149 218.741 259.376C217.73 253.086 215.552 248.671 210.301 246.476C205.051 244.281 198.231 247.894 202.293 253.559C204.077 256.047 210.355 257.466 215.744 258.684ZM239.664 221.35C239.664 228.393 240.895 233.192 243.586 236.759C247.168 239.439 251.987 240.664 259.06 240.664C262.498 240.664 265.352 240.329 267.623 239.709C261.274 234.233 258.982 231.688 257.004 223.397C248.678 221.428 246.122 219.145 240.624 212.822C240.001 215.084 239.664 217.926 239.664 221.35ZM259.384 221.027C259.249 220.455 259.112 219.88 258.974 219.304C257.849 214.594 256.655 209.86 254.803 206.483C255.677 206.418 256.61 206.385 257.604 206.385C262.679 206.385 267.157 207.224 270.569 209.888C273.245 213.287 274.088 217.746 274.088 222.799C274.088 223.79 274.054 224.719 273.989 225.589C270.598 223.745 265.844 222.556 261.114 221.435C260.536 221.298 259.958 221.162 259.384 221.027ZM256.424 218.167C255.201 212.801 253.776 206.549 251.277 204.772C245.588 200.727 241.961 207.518 244.165 212.747C246.369 217.975 250.802 220.145 257.119 221.151C256.892 220.22 256.663 219.217 256.427 218.18L256.424 218.167ZM262.256 223.975C267.645 225.193 273.923 226.612 275.707 229.1C279.769 234.765 272.949 238.377 267.699 236.183C262.448 233.988 260.27 229.573 259.259 223.282C260.198 223.51 261.209 223.738 262.254 223.974L262.256 223.975ZM238.876 255.374C240.081 243.625 241.057 242.653 252.855 241.452C241.058 240.253 240.081 239.28 238.876 227.531C237.671 239.28 236.695 240.252 224.897 241.452C236.695 242.653 237.671 243.625 238.876 255.374Z" fill="#001D23"/>
</svg>
