<svg width="180" height="163" viewBox="0 0 180 163" fill="none" xmlns="http://www.w3.org/2000/svg">
<path fill-rule="evenodd" clip-rule="evenodd" d="M68.112 3.10776C70.1425 2.65024 73.22 2.14138 76.2157 2.14138C77.1445 2.14138 78.0272 2.17663 78.857 2.24667C79.721 0.87088 80.8263 0 82.328 0C85.475 0 87.0256 3.78937 87.4981 8.62852C87.9709 3.78925 89.5218 4.20126e-05 92.669 4.20126e-05C94.171 4.20126e-05 95.2765 0.871048 96.1406 2.24709C96.9705 2.17705 97.8534 2.1418 98.7824 2.1418C101.779 2.1418 104.857 2.65075 106.887 3.10835L106.891 3.1123C107.349 5.14298 107.858 8.22074 107.858 11.2167C107.858 12.1456 107.823 13.0283 107.753 13.8581C109.129 14.7223 110 15.8276 110 17.3295C110 20.4808 106.2 22.0315 101.35 22.5019C106.2 22.972 110 24.5224 110 27.6736C110 29.1751 109.129 30.2803 107.753 31.1443C107.823 31.9739 107.858 32.8566 107.858 33.7853C107.858 36.7807 107.35 39.858 106.892 41.8883L106.888 41.8922C104.858 42.3498 101.78 42.8586 98.7843 42.8586C97.8555 42.8586 96.9728 42.8234 96.143 42.7533C95.279 44.1292 94.1737 45 92.672 45C89.525 45 87.9744 41.2106 87.5019 36.3715C87.0291 41.2108 85.4782 45 82.331 45C80.829 45 79.7235 44.1289 78.8594 42.7529C78.0295 42.823 77.1466 42.8582 76.2176 42.8582C73.2214 42.8582 70.1434 42.3493 68.1125 41.8917L68.1086 41.8877C67.6509 39.8571 67.142 36.7793 67.142 33.7833C67.142 32.8544 67.1772 31.9717 67.2473 31.1419C65.8711 30.2777 65 29.1724 65 27.6705C65 24.5192 68.8001 22.9685 73.6495 22.4981C68.8003 22.028 65 20.4776 65 17.3264C65 15.8249 65.871 14.7197 67.2469 13.8557C67.1769 13.0261 67.1416 12.1434 67.1416 11.2147C67.1416 8.21931 67.6505 5.14201 68.108 3.11175L68.112 3.10776ZM87.1209 11.1664C87.1209 15.1604 86.4259 17.8818 84.9061 19.9043C82.8834 21.424 80.1618 22.1189 76.1674 22.1189C74.2254 22.1189 72.614 21.9287 71.3311 21.5772C74.9166 18.4721 76.2113 17.0289 77.3281 12.327C82.0304 11.2103 83.4737 9.9157 86.5791 6.33055C86.9306 7.61328 87.1209 9.22459 87.1209 11.1664ZM75.9841 10.9831C76.0606 10.6589 76.1375 10.3328 76.2157 10.0062C76.8513 7.33537 77.5255 4.65055 78.5711 2.73536C78.0779 2.69898 77.551 2.67986 76.9892 2.67986C74.1235 2.67986 71.5944 3.1557 69.6671 4.66672C68.156 6.5938 67.6801 9.12271 67.6801 11.9882C67.6801 12.5499 67.6993 13.0767 67.7356 13.5699C69.651 12.5244 72.336 11.8502 75.0071 11.2147C75.3337 11.1365 75.6598 11.0596 75.9841 10.9831ZM77.6559 9.36151C78.3465 6.3182 79.1512 2.77288 80.5624 1.76537C83.7752 -0.528183 85.8239 3.3227 84.5791 6.28766C83.3344 9.25266 80.8307 10.4829 77.2632 11.0536C77.3922 10.5232 77.5219 9.95183 77.6559 9.36151ZM74.3621 12.6548C71.3186 13.3454 67.7731 14.15 66.7656 15.5611C64.4718 18.7736 68.323 20.822 71.2882 19.5774C74.2535 18.3328 75.4838 15.8293 76.0546 12.2621C75.527 12.3905 74.9587 12.5194 74.3715 12.6526L74.3621 12.6548ZM87.8791 33.8336C87.8791 29.8396 88.5741 27.1182 90.0939 25.0957C92.1166 23.576 94.8382 22.8811 98.8326 22.8811C100.775 22.8811 102.386 23.0713 103.669 23.4228C100.083 26.5279 98.7887 27.9711 97.6719 32.673C92.9696 33.7897 91.5263 35.0843 88.4209 38.6694C88.0694 37.3867 87.8791 35.7754 87.8791 33.8336ZM99.9929 33.7853C99.6663 33.8635 99.3402 33.9404 99.0159 34.0169L98.8315 34.7962L98.7843 34.9938C98.1487 37.6646 97.4745 40.3495 96.4289 42.2646C96.9221 42.301 97.449 42.3201 98.0107 42.3201C100.876 42.3201 103.406 41.8443 105.333 40.3333C106.844 38.4062 107.32 35.8773 107.32 33.0118C107.32 32.4501 107.301 31.9233 107.264 31.4301C105.349 32.4756 102.664 33.1498 99.9929 33.7853ZM97.3441 35.6385C96.6535 38.6818 95.8488 42.2271 94.4376 43.2346C91.2248 45.5282 89.1761 41.6773 90.4209 38.7123C91.6656 35.7473 94.1693 34.5171 97.7368 33.9464C97.6078 34.4768 97.4781 35.0482 97.3441 35.6385ZM100.638 32.3452C103.681 31.6546 107.227 30.85 108.234 29.4389C110.528 26.2264 106.677 24.178 103.712 25.4226C100.747 26.6672 99.5162 29.1707 98.9454 32.7379C99.1912 32.6781 99.4459 32.6182 99.7071 32.5577C100.01 32.4878 100.321 32.4171 100.638 32.3452ZM84.9095 25.0922C86.4296 27.1151 87.1247 29.8369 87.1247 33.8316C87.1247 35.7738 86.9344 37.3854 86.5829 38.6683C83.4769 35.0826 82.0334 33.7877 77.3302 32.6708C76.2132 27.9681 74.9183 26.5247 71.3322 23.419C72.6153 23.0675 74.227 22.8772 76.1693 22.8772C80.1644 22.8772 82.8865 23.5723 84.9095 25.0922ZM76.2177 34.992C76.1395 34.6654 76.0624 34.3393 75.986 34.015C75.8153 33.9747 75.6441 33.9343 75.4726 33.8937C75.3182 33.8571 75.1636 33.8203 75.0088 33.7833C72.3373 33.1477 69.6518 32.4733 67.7361 31.4277C67.6997 31.921 67.6806 32.4479 67.6806 33.0097C67.6806 35.8757 68.1565 38.405 69.6679 40.3324C71.5955 41.8437 74.1251 42.3196 76.9913 42.3196C77.5531 42.3196 78.0802 42.3005 78.5735 42.2641C77.5277 40.3486 76.8533 37.6633 76.2177 34.992ZM80.5651 43.2343C79.1536 42.2266 78.3489 38.6807 77.6581 35.6369L77.6564 35.6294L77.654 35.6187C77.5214 35.0347 77.393 34.4694 77.2653 33.9444C80.8334 34.5153 83.3376 35.7457 84.5825 38.7112C85.8275 41.6767 83.7785 45.5283 80.5651 43.2343ZM74.3639 32.343L74.3652 32.3433C74.9552 32.4772 75.5264 32.6068 76.0565 32.7357C75.4856 29.168 74.2551 26.664 71.2893 25.4192C68.3235 24.1743 64.4716 26.2232 66.7659 29.4362C67.7736 30.8475 71.3198 31.6523 74.3639 32.343ZM87.8753 11.1683C87.8753 15.1631 88.5704 17.8849 90.0905 19.9078C92.1135 21.4277 94.8356 22.1228 98.8307 22.1228C100.773 22.1228 102.385 21.9325 103.668 21.581C100.082 18.4753 98.7868 17.0319 97.6698 12.3292C92.9666 11.2123 91.5231 9.91742 88.4171 6.33168C88.0656 7.61462 87.8753 9.22619 87.8753 11.1683ZM99.014 10.985C98.9376 10.6608 98.8605 10.3346 98.7823 10.008C98.1467 7.33667 97.4723 4.65139 96.4265 2.73586C96.9198 2.69948 97.4468 2.68036 98.0087 2.68036C100.875 2.68036 103.404 3.15628 105.332 4.66756C106.843 6.59498 107.319 9.12431 107.319 11.9903C107.319 12.5521 107.3 13.079 107.264 13.5723C105.348 12.5267 102.663 11.8523 99.9911 11.2167C99.6645 11.1385 99.3383 11.0615 99.014 10.985ZM97.3419 9.36315C96.6511 6.31933 95.8464 2.77342 94.4349 1.76575C91.2215 -0.528267 89.1725 3.32328 90.4175 6.28879C91.6624 9.25429 94.1666 10.4847 97.7347 11.0556C97.6062 10.5274 97.4771 9.95853 97.3437 9.37079L97.3419 9.36315ZM100.636 12.657C103.68 13.3478 107.226 14.1525 108.234 15.5638C110.528 18.7768 106.676 20.8257 103.711 19.5808C100.745 18.336 99.5144 15.832 98.9435 12.2643C99.4737 12.3932 100.045 12.5229 100.635 12.6568L100.636 12.657ZM87.43 30.4658C88.1106 23.8021 88.662 23.2505 95.326 22.5697C88.6623 21.8896 88.1106 21.3377 87.43 14.6739C86.7495 21.3374 86.198 21.8892 79.5341 22.5697C86.1977 23.2506 86.7495 23.802 87.43 30.4658Z" fill="#E8E4DF"/>
<path d="M74.3949 103.365C73.6823 103.365 73.2548 102.939 73.041 102.123C72.8628 101.413 72.6134 101.129 72.0078 101.129C70.3689 101.129 68.3737 103.755 67.3761 106.95C66.7704 108.866 66.6279 110.215 66.6279 111.386C66.6279 113.125 67.4117 113.693 68.3024 113.693C69.6919 113.693 70.8677 112.699 72.9341 110.037L73.6823 110.499C72.0078 113.87 69.6919 116 67.6611 116C65.7728 116 64.3477 114.58 64.3477 112.096C64.3477 105.92 69.0862 99.2478 73.0766 99.2478C74.6086 99.2478 75.7487 100.384 75.7487 101.874C75.7487 102.691 75.1787 103.365 74.3949 103.365Z" fill="#E8E4DF"/>
<path d="M82.1713 95.4502L78.074 112.167C78.0028 112.522 77.9672 112.77 77.9672 112.912C77.9672 113.125 78.074 113.303 78.3591 113.303C78.751 113.303 79.8911 112.628 81.815 110.073L82.5989 110.605C80.2117 114.616 78.3591 115.787 77.1121 115.787C76.2214 115.787 75.5088 115.219 75.5088 114.261C75.5088 113.338 75.6513 112.593 76.2214 110.215L79.713 95.4856C80.0336 94.1015 80.2474 92.6818 80.2474 91.901C80.2474 91.1201 79.8555 90.6233 78.6085 90.2683L78.6797 89.381C80.4611 89.2391 81.7794 89.0971 83.3827 88.7422L83.9171 89.3101C83.1333 91.7235 82.8126 92.7528 82.1713 95.4502Z" fill="#E8E4DF"/>
<path d="M93.0694 108.618C89.9341 114.616 88.2952 115.787 86.5494 115.787C85.053 115.787 84.1267 114.545 84.1267 113.267C84.1267 112.415 84.4474 111.315 85.0887 109.647L87.2264 104.11C87.6183 103.081 87.7964 102.513 87.7964 102.087C87.7964 101.768 87.6539 101.484 87.3333 101.484C86.7276 101.484 86.0863 102.194 84.4474 104.217L83.7348 103.613C85.73 100.632 87.0839 99.2478 88.5446 99.2478C89.3997 99.2478 90.1479 100.029 90.1479 101.164C90.1479 101.981 89.9698 102.691 89.079 105.033L86.9413 110.712C86.5851 111.634 86.4782 112.096 86.4782 112.593C86.4782 113.161 86.7632 113.516 87.4401 113.516C88.7228 113.516 91.8581 110.676 95.2428 101.093L95.7416 99.6737C95.9553 99.5672 96.2403 99.4962 96.5254 99.4962C97.0598 99.4962 97.6299 99.8157 97.9505 100.455C96.9173 103.294 96.5254 104.217 95.8841 106.417C94.8152 110.108 94.4946 111.67 94.4233 112.309C94.3877 112.664 94.3877 112.948 94.3877 113.125C94.3877 113.303 94.5302 113.516 94.744 113.516C95.1359 113.516 95.7772 113.161 97.6299 110.747L98.378 111.315C96.2403 114.758 94.8152 115.787 93.5682 115.787C92.5706 115.787 92.0718 115.077 92.0718 114.048C92.0718 113.232 92.0718 112.238 93.0694 108.618Z" fill="#E8E4DF"/>
<path d="M110.33 103.649C110.33 102.336 109.653 101.519 108.798 101.519C105.984 101.519 102.1 107.801 102.1 111.918C102.1 113.196 102.813 113.835 103.739 113.835C104.523 113.835 105.485 113.516 106.625 112.309C108.798 110.002 110.33 106.417 110.33 103.649ZM100.426 108.866L104.238 95.4856C104.63 94.137 105.057 92.6818 105.057 91.901C105.057 91.1201 104.665 90.6233 103.418 90.2683L103.49 89.381C105.271 89.2391 106.482 89.0971 108.086 88.7422L108.62 89.3101C107.836 91.7235 107.444 92.7528 106.625 95.4502L104.06 103.862C106.411 100.455 108.157 99.2478 109.689 99.2478C111.328 99.2478 112.646 100.809 112.646 103.471C112.646 106.524 110.972 110.25 107.444 113.658C105.877 115.148 104.523 115.858 102.92 115.858C101.031 115.858 99.8199 114.332 99.8199 112.38C99.8199 111.351 99.998 110.25 100.426 108.866Z" fill="#E8E4DF"/>
<path d="M22.8556 84.3447C25.727 84.3447 27.6293 82.4687 27.6293 79.9305C27.6293 78.5695 27.1627 77.4292 26.2654 76.5095C25.4757 75.7003 24.9373 75.1485 22.7479 73.5668C19.6611 71.3597 18.9791 70.7711 18.01 69.4837C17.1127 68.3065 16.7538 67.2398 16.7538 65.5109C16.7538 61.8324 19.7688 59.0736 23.9323 59.0736C26.1936 59.0736 27.9882 59.5886 29.8188 60.5817C29.8547 61.5749 29.8906 62.2738 29.8906 63.1199C29.8906 63.9659 29.8547 64.7384 29.8188 65.7316L28.8138 65.8052C28.4908 64.5177 28.1318 63.451 27.3063 62.4578C26.3372 61.3174 25.3681 60.7657 23.6452 60.7657C21.0968 60.7657 19.3739 62.3842 19.3739 64.8856C19.3739 66.0259 19.6252 66.9455 20.6302 68.0123C21.3122 68.7112 21.7788 69.1158 24.0759 70.7711C26.9115 72.7943 27.7729 73.4196 28.7779 74.5967C29.7829 75.8106 30.4649 77.5763 30.4649 79.2316C30.4649 83.3515 27.3063 86 22.6043 86C20.1636 86 18.4407 85.6322 16.7179 84.7861C16.323 82.7629 16.2154 80.9237 16 78.827L17.1127 78.5695C17.5075 79.7466 17.8305 80.703 18.3689 81.6226C19.4098 83.4986 20.4507 84.3447 22.8556 84.3447Z" fill="#E8E4DF"/>
<path d="M35.5375 59.6621H48.4949C49.9665 59.6621 51.151 59.6621 52.5508 59.5518C52.6226 61.3174 52.6585 63.1199 52.6585 64.9223L51.6176 64.9959C51.2228 63.6349 50.8638 62.8624 50.3254 62.2738C49.7871 61.6853 48.9615 61.391 48.2795 61.2807C47.3822 61.1335 46.5926 61.0967 45.444 61.0967C43.757 61.0967 43.5417 61.391 43.434 62.8624C43.3263 64.0027 43.3263 65.327 43.3263 66.6512V77.3924C43.3263 78.6798 43.3981 80.2984 43.434 81.5123C43.5058 83.3883 43.9006 83.9768 45.6235 84.455L45.5158 85.4482C44.116 85.3379 42.8238 85.3379 41.9265 85.3379C41.0292 85.3379 39.6652 85.3379 38.2654 85.4482L38.1577 84.455C39.8806 83.9768 40.2754 83.3883 40.3472 81.5123C40.3831 80.2984 40.4549 78.6798 40.4549 77.3924V66.6512C40.4549 65.327 40.4549 64.0027 40.3472 62.8624C40.2395 61.391 40.0242 61.0967 38.3372 61.0967C37.1886 61.0967 36.4349 61.1335 35.5375 61.2807C34.8556 61.391 34.03 61.6853 33.4916 62.2738C32.9533 62.8624 32.5584 63.6349 32.1636 64.9959L31.1227 64.9223C31.2304 63.1199 31.3381 61.3542 31.4816 59.5518C32.8815 59.6621 34.0659 59.6621 35.5375 59.6621Z" fill="#E8E4DF"/>
<path d="M61.1113 59H61.7932L68.4334 77.3924C68.8642 78.5695 69.5102 80.2984 70.0486 81.5123C70.7306 83.1308 71.3408 83.9033 72.5252 84.5286L72.4176 85.4482C71.0177 85.3379 70.3717 85.3379 69.4743 85.3379C68.577 85.3379 67.249 85.3379 65.8492 85.4482L65.7415 84.5286C66.7106 84.0872 67.1054 83.7561 67.1054 83.0572C67.1054 82.2112 66.567 80.7766 65.3825 77.3924L65.0954 76.6567H56.3375L56.0863 77.3924C54.83 80.7766 54.6147 82.1744 54.6147 83.0204C54.6147 83.7193 54.9377 84.124 55.9786 84.5286L55.8709 85.4482C54.4711 85.3379 53.7532 85.3379 52.8559 85.3379C51.9586 85.3379 51.4561 85.3379 50.1998 85.4482L50.0921 84.5286C51.2766 83.9033 51.8868 83.1308 52.5688 81.5123C53.1072 80.2984 53.7532 78.5695 54.1839 77.3924L61.1113 59ZM60.86 64.6649L56.9477 75.0749H64.557L60.86 64.6649Z" fill="#E8E4DF"/>
<path d="M97.3239 62.8256L87.7405 86H86.9867L77.3674 63.6349L76.9008 77.4292C76.8649 78.2752 76.829 79.342 76.829 80.3351C76.829 82.248 76.9008 83.9768 78.839 84.5654L78.7314 85.485C77.6187 85.4114 76.6496 85.3747 75.7881 85.3747C74.9267 85.3747 74.0653 85.3747 72.9526 85.485L72.8449 84.5654C74.3165 83.9401 74.6396 83.2779 74.7831 81.549C74.8908 80.3351 74.8908 78.7166 74.9626 77.4292L75.3933 67.6076C75.4292 66.7616 75.4292 66.2098 75.4292 65.5109C75.4292 63.451 75.3933 61.1703 73.2038 60.4714L73.3115 59.5518C75.3215 59.6621 76.7931 59.6621 78.9108 59.6621L87.9558 80.9973L96.4625 59.6621C98.4366 59.6621 100.662 59.6621 102.062 59.5518L102.169 60.4714C100.698 61.0599 100.411 61.8324 100.303 63.4877C100.267 64.3706 100.231 65.5109 100.231 66.5409C100.231 66.9455 100.303 67.2766 100.482 77.4292C100.518 78.7166 100.518 80.3351 100.626 81.549C100.626 83.2779 101.021 83.9401 102.493 84.5654L102.385 85.485C100.985 85.3747 100.088 85.3747 99.1903 85.3747C98.293 85.3747 97.3239 85.3747 95.9241 85.485L95.8164 84.5654C97.647 84.0872 97.6828 82.1744 97.6828 80.4087C97.6828 79.4891 97.6828 78.3488 97.647 77.4292L97.3239 62.8256Z" fill="#E8E4DF"/>
<path d="M109.43 67.6076V77.3924C109.43 78.6798 109.501 80.2984 109.537 81.5123C109.609 83.2411 109.896 83.9033 111.368 84.5286L111.26 85.4482C109.86 85.3379 108.927 85.3379 108.03 85.3379C107.133 85.3379 106.163 85.3379 104.764 85.4482L104.656 84.5286C106.092 83.9401 106.343 83.1308 106.451 81.5123C106.558 80.2984 106.558 78.6798 106.558 77.3924V67.6076C106.558 66.3202 106.558 64.7016 106.451 63.4877C106.343 61.8692 106.092 61.0599 104.656 60.4714L104.764 59.5518C106.163 59.6621 107.133 59.6621 108.03 59.6621C108.927 59.6621 109.86 59.6621 111.26 59.5518L111.368 60.4714C109.896 61.0967 109.609 61.7589 109.537 63.4877C109.501 64.7016 109.43 66.3202 109.43 67.6076Z" fill="#E8E4DF"/>
<path d="M136.177 85.7057L135.316 86L117.621 64.1131V77.4292C117.621 78.7166 117.621 80.3351 117.728 81.549C117.872 83.2779 118.195 83.9401 119.666 84.5654L119.559 85.485C118.446 85.4114 117.477 85.3747 116.651 85.3747C115.79 85.3747 114.929 85.3747 113.816 85.485L113.708 84.5654C115.18 83.9401 115.467 83.2779 115.611 81.549C115.718 80.3351 115.718 78.7166 115.718 77.4292V67.6076C115.718 66.3202 115.718 64.9223 115.611 63.7084C115.467 61.9796 115 61.0967 113.529 60.4714L113.636 59.5518C114.749 59.6253 116.149 59.6621 117.836 59.6621L134.131 79.7098V67.6076C134.131 66.3202 134.131 64.7016 134.024 63.4877C133.88 61.7589 133.557 61.0967 132.085 60.4714L132.193 59.5518C133.306 59.6253 134.275 59.6621 135.1 59.6621C135.962 59.6621 136.823 59.6621 137.936 59.5518L138.044 60.4714C136.572 61.0967 136.285 61.7589 136.141 63.4877C136.034 64.7016 136.034 66.3202 136.034 67.6076V79.673C136.034 81.4387 136.07 83.7929 136.177 85.7057Z" fill="#E8E4DF"/>
<path d="M149.586 59H150.268L156.908 77.3924C157.339 78.5695 157.985 80.2984 158.523 81.5123C159.205 83.1308 159.816 83.9033 161 84.5286L160.892 85.4482C159.492 85.3379 158.846 85.3379 157.949 85.3379C157.052 85.3379 155.724 85.3379 154.324 85.4482L154.216 84.5286C155.185 84.0872 155.58 83.7561 155.58 83.0572C155.58 82.2112 155.042 80.7766 153.857 77.3924L153.57 76.6567H144.812L144.561 77.3924C143.305 80.7766 143.089 82.1744 143.089 83.0204C143.089 83.7193 143.412 84.124 144.453 84.5286L144.346 85.4482C142.946 85.3379 142.228 85.3379 141.331 85.3379C140.433 85.3379 139.931 85.3379 138.675 85.4482L138.567 84.5286C139.751 83.9033 140.362 83.1308 141.044 81.5123C141.582 80.2984 142.228 78.5695 142.659 77.3924L149.586 59ZM149.335 64.6649L145.422 75.0749H153.032L149.335 64.6649Z" fill="#E8E4DF"/>
<path d="M6.07516 154.875C6.50416 155.029 6.83416 155.282 7.07616 155.612C7.31816 155.953 7.43916 156.338 7.43916 156.756C7.43916 157.471 7.19716 158.021 6.73516 158.417C6.27316 158.813 5.59116 159 4.71116 159H1.04816V151.168H4.59016C5.40416 151.168 6.03116 151.355 6.47116 151.729C6.90016 152.103 7.12016 152.598 7.12016 153.192C7.12016 153.962 6.76816 154.523 6.07516 154.875ZM4.48016 152.389H2.53316V154.435H4.48016C4.85416 154.435 5.14016 154.347 5.33816 154.16C5.53616 153.973 5.64616 153.709 5.64616 153.379C5.64616 153.071 5.53616 152.829 5.33816 152.653C5.12916 152.477 4.84316 152.389 4.48016 152.389ZM2.53316 157.768H4.63416C5.05216 157.768 5.37116 157.68 5.59116 157.493C5.81116 157.306 5.92116 157.042 5.92116 156.69C5.92116 155.964 5.49216 155.601 4.63416 155.601H2.53316V157.768ZM10.3341 159H8.84913V151.168H10.3341V159ZM17.9456 151.168V152.499H13.6556V154.347H17.5386V155.623H13.6556V157.669H17.9236V159H12.1706V151.168H17.9456ZM24.594 153.214V151.168H26.024V159H24.374L22.196 155.513C21.602 154.589 21.129 153.797 20.799 153.159C20.821 153.984 20.843 155.249 20.843 156.954V159H19.413V151.168H21.063L23.252 154.655C23.901 155.711 24.363 156.503 24.638 157.009C24.605 155.92 24.594 154.655 24.594 153.214ZM31.7101 155.216L33.0961 151.168H34.6361L31.8311 159H30.0931L27.2221 151.168H28.8061L30.2251 155.216C30.5551 156.217 30.7971 157.031 30.9731 157.658C31.1601 156.932 31.4021 156.118 31.7101 155.216ZM41.5956 151.168V152.499H37.3056V154.347H41.1886V155.623H37.3056V157.669H41.5736V159H35.8206V151.168H41.5956ZM48.244 153.214V151.168H49.674V159H48.024L45.846 155.513C45.252 154.589 44.779 153.797 44.449 153.159C44.471 153.984 44.493 155.249 44.493 156.954V159H43.063V151.168H44.713L46.902 154.655C47.551 155.711 48.013 156.503 48.288 157.009C48.255 155.92 48.244 154.655 48.244 153.214ZM54.6765 159.165C53.6535 159.165 52.8505 158.901 52.2675 158.351C51.6845 157.801 51.3985 157.042 51.3985 156.052V151.168H52.8835V156.063C52.8835 156.657 53.0375 157.108 53.3455 157.416C53.6535 157.724 54.0935 157.878 54.6765 157.878C55.2485 157.878 55.6995 157.724 56.0075 157.416C56.3155 157.108 56.4695 156.657 56.4695 156.063V151.168H57.9545V156.052C57.9545 157.053 57.6575 157.823 57.0855 158.362C56.5025 158.901 55.6995 159.165 54.6765 159.165ZM65.4497 151.168V152.499H61.1597V154.347H65.0427V155.623H61.1597V157.669H65.4277V159H59.6747V151.168H65.4497ZM77.0241 159H75.4511L74.8351 157.273H71.4031L70.7981 159H69.2691L72.2501 151.168H73.9881L77.0241 159ZM72.1511 155.161L71.8541 156.008H74.3841L74.0761 155.161C73.8121 154.512 73.4931 153.621 73.1081 152.477C72.8001 153.39 72.4811 154.281 72.1511 155.161ZM80.9498 159.165C79.9268 159.165 79.1238 158.901 78.5408 158.351C77.9578 157.801 77.6718 157.042 77.6718 156.052V151.168H79.1568V156.063C79.1568 156.657 79.3108 157.108 79.6188 157.416C79.9268 157.724 80.3668 157.878 80.9498 157.878C81.5218 157.878 81.9728 157.724 82.2808 157.416C82.5888 157.108 82.7428 156.657 82.7428 156.063V151.168H84.2278V156.052C84.2278 157.053 83.9308 157.823 83.3588 158.362C82.7758 158.901 81.9728 159.165 80.9498 159.165ZM91.853 159.176C90.786 159.176 89.961 158.945 89.378 158.461C88.795 157.988 88.498 157.306 88.498 156.415H89.961C89.961 156.976 90.126 157.372 90.456 157.614C90.786 157.856 91.259 157.977 91.897 157.977C92.403 157.977 92.799 157.889 93.074 157.691C93.338 157.493 93.481 157.218 93.481 156.844C93.481 156.536 93.36 156.305 93.129 156.14C92.898 155.986 92.48 155.843 91.875 155.711L91.215 155.579C89.532 155.271 88.696 154.479 88.696 153.203C88.696 152.532 88.949 151.993 89.466 151.597C89.972 151.201 90.687 150.992 91.6 150.992C92.634 150.992 93.415 151.212 93.943 151.652C94.471 152.092 94.757 152.708 94.79 153.5H93.349C93.316 153.06 93.162 152.73 92.898 152.51C92.634 152.301 92.205 152.191 91.622 152.191C91.16 152.191 90.819 152.279 90.577 152.444C90.335 152.62 90.214 152.851 90.214 153.159C90.214 153.478 90.324 153.72 90.544 153.885C90.764 154.061 91.171 154.204 91.743 154.314L92.425 154.446C93.338 154.633 93.998 154.908 94.405 155.271C94.812 155.634 95.021 156.129 95.021 156.767C95.021 157.537 94.735 158.131 94.185 158.549C93.624 158.967 92.843 159.176 91.853 159.176ZM95.5557 151.168H102.068V152.499H99.5597V159H98.0637V152.499H95.5557V151.168ZM109.283 159H107.71L107.094 157.273H103.662L103.057 159H101.528L104.509 151.168H106.247L109.283 159ZM104.41 155.161L104.113 156.008H106.643L106.335 155.161C106.071 154.512 105.752 153.621 105.367 152.477C105.059 153.39 104.74 154.281 104.41 155.161ZM115.279 154.897L116.588 151.168H118.744V159H117.325V156.613C117.325 155.15 117.336 153.852 117.369 152.73C117.204 153.28 117.006 153.885 116.775 154.534L115.191 159H113.97L112.375 154.534C112.089 153.72 111.902 153.126 111.792 152.752C111.814 153.874 111.836 155.161 111.836 156.613V159H110.406V151.168H112.562L113.915 154.974C114.003 155.238 114.223 155.942 114.586 157.097C114.817 156.283 115.048 155.557 115.279 154.897ZM122.066 159H120.581V151.168H122.066V159ZM129.083 153.214V151.168H130.513V159H128.863L126.685 155.513C126.091 154.589 125.618 153.797 125.288 153.159C125.31 153.984 125.332 155.249 125.332 156.954V159H123.902V151.168H125.552L127.741 154.655C128.39 155.711 128.852 156.503 129.127 157.009C129.094 155.92 129.083 154.655 129.083 153.214ZM139.391 159H137.818L137.202 157.273H133.77L133.165 159H131.636L134.617 151.168H136.355L139.391 159ZM134.518 155.161L134.221 156.008H136.751L136.443 155.161C136.179 154.512 135.86 153.621 135.475 152.477C135.167 153.39 134.848 154.281 134.518 155.161ZM147.043 159.176C145.91 159.176 144.997 158.813 144.304 158.065C143.6 157.328 143.248 156.338 143.248 155.084C143.248 153.83 143.589 152.84 144.293 152.092C144.975 151.366 145.899 150.992 147.043 150.992C147.956 150.992 148.737 151.245 149.386 151.729C150.024 152.224 150.431 152.939 150.596 153.863H149.089C148.957 153.357 148.704 152.961 148.352 152.697C148 152.433 147.56 152.29 147.043 152.29C146.339 152.29 145.789 152.543 145.393 153.038C144.997 153.533 144.799 154.215 144.799 155.084C144.799 155.964 144.997 156.657 145.393 157.141C145.789 157.636 146.339 157.878 147.043 157.878C147.582 157.878 148.044 157.724 148.44 157.394C148.825 157.075 149.056 156.624 149.144 156.052H150.629C150.53 157.053 150.145 157.823 149.463 158.362C148.781 158.912 147.978 159.176 147.043 159.176ZM153.583 151.168V157.669H157.312V159H152.098V151.168H153.583ZM161.574 159.165C160.551 159.165 159.748 158.901 159.165 158.351C158.582 157.801 158.296 157.042 158.296 156.052V151.168H159.781V156.063C159.781 156.657 159.935 157.108 160.243 157.416C160.551 157.724 160.991 157.878 161.574 157.878C162.146 157.878 162.597 157.724 162.905 157.416C163.213 157.108 163.367 156.657 163.367 156.063V151.168H164.852V156.052C164.852 157.053 164.555 157.823 163.983 158.362C163.4 158.901 162.597 159.165 161.574 159.165ZM171.599 154.875C172.028 155.029 172.358 155.282 172.6 155.612C172.842 155.953 172.963 156.338 172.963 156.756C172.963 157.471 172.721 158.021 172.259 158.417C171.797 158.813 171.115 159 170.235 159H166.572V151.168H170.114C170.928 151.168 171.555 151.355 171.995 151.729C172.424 152.103 172.644 152.598 172.644 153.192C172.644 153.962 172.292 154.523 171.599 154.875ZM170.004 152.389H168.057V154.435H170.004C170.378 154.435 170.664 154.347 170.862 154.16C171.06 153.973 171.17 153.709 171.17 153.379C171.17 153.071 171.06 152.829 170.862 152.653C170.653 152.477 170.367 152.389 170.004 152.389ZM168.057 157.768H170.158C170.576 157.768 170.895 157.68 171.115 157.493C171.335 157.306 171.445 157.042 171.445 156.69C171.445 155.964 171.016 155.601 170.158 155.601H168.057V157.768ZM174.503 151.762H173.645V151.168H175.999V151.762H175.152V153.984H174.503V151.762ZM178.012 152.488L178.474 151.168H179.332V153.984H178.705V153.104C178.705 152.653 178.705 152.356 178.716 152.213C178.694 152.268 178.672 152.334 178.65 152.411L178.1 153.984H177.583L177.033 152.411C177.011 152.334 176.989 152.268 176.967 152.213C176.967 152.356 176.978 152.653 176.978 153.104V153.984H176.351V151.168H177.209L177.682 152.51L177.847 153.038C177.891 152.829 177.946 152.642 178.012 152.488Z" fill="#E8E4DF"/>
</svg>
