<svg width="530" height="86" viewBox="0 0 530 86" fill="none" xmlns="http://www.w3.org/2000/svg">
<path d="M21.7708 80.1099C30.8894 80.1099 36.9305 74.2229 36.9305 66.258C36.9305 61.9871 35.4487 58.4087 32.5992 55.5229C30.0915 52.9834 28.3818 51.2519 21.4288 46.2883C11.6263 39.3624 9.4606 37.5154 6.38305 33.4753C3.53348 29.7815 2.39365 26.434 2.39365 21.0087C2.39365 9.46544 11.9682 0.808028 25.1903 0.808028C32.3712 0.808028 38.0704 2.42408 43.8835 5.54075C43.9975 8.65742 44.1115 10.8506 44.1115 13.5056C44.1115 16.1605 43.9975 18.5846 43.8835 21.7012L40.692 21.9321C39.6661 17.892 38.5263 14.5445 35.9047 11.4278C32.8271 7.84939 29.7496 6.11791 24.2784 6.11791C16.1856 6.11791 10.7144 11.1969 10.7144 19.0463C10.7144 22.6247 11.5123 25.5105 14.7038 28.858C16.8695 31.0512 18.3513 32.321 25.6462 37.5154C34.6509 43.8642 37.3865 45.8266 40.578 49.5204C43.7695 53.3297 45.9352 58.8704 45.9352 64.0648C45.9352 76.9932 35.9047 85.3043 20.9729 85.3043C13.222 85.3043 7.75085 84.15 2.27966 81.4951C1.02585 75.1463 0.683899 69.3747 0 62.7951L3.53348 61.9871C4.78729 65.6809 5.81314 68.6821 7.52289 71.5679C10.8284 77.455 14.1339 80.1099 21.7708 80.1099Z" fill="#001D23"/>
<path d="M106.156 75.608C106.156 77.8013 107.295 79.3019 110.145 80.6871L109.575 83.5729C105.472 83.342 101.596 83.2266 98.7468 83.2266C95.8972 83.2266 93.7315 83.342 89.2862 83.5729L89.4002 80.6871C92.5917 79.3019 94.1874 78.263 95.4413 76.0698C97.037 73.4148 97.6069 69.0284 98.7468 59.3321L99.5447 52.5216H75.3802L70.9349 58.2932C60.5624 71.6834 59.4226 74.9155 59.4226 77.2241C59.4226 78.8402 59.9925 79.6482 62.8421 80.6871L62.3862 83.5729C58.2828 83.342 56.573 83.2266 53.8374 83.2266C50.9878 83.2266 49.1641 83.2266 43.9209 83.5729L43.8069 80.6871C47.6823 78.4939 49.5061 77.1087 63.9819 58.2932L109.005 0L113.907 1.03889L107.523 58.2932C106.27 69.2593 106.156 73.184 106.156 75.608ZM103.762 15.4679L79.1417 47.558H100.115L103.762 15.4679Z" fill="#001D23"/>
<path d="M191.15 84.3809L188.414 85.3043L132.22 16.6222V58.4087C132.22 62.4488 132.22 67.5278 132.562 71.3371C133.018 76.7624 134.044 78.8401 138.717 80.8025L138.375 83.6883C134.842 83.4574 131.764 83.342 129.143 83.342C126.407 83.342 123.672 83.342 120.138 83.6883L119.796 80.8025C124.47 78.8401 125.381 76.7624 125.837 71.3371C126.179 67.5278 126.179 62.4488 126.179 58.4087V27.5883C126.179 23.5482 126.179 19.1617 125.837 15.3525C125.381 9.92717 123.9 7.1568 119.226 5.19445L119.568 2.30865C123.102 2.53951 127.547 2.65494 132.904 2.65494L184.653 65.5655V27.5883C184.653 23.5482 184.653 18.4691 184.311 14.6599C183.855 9.23458 182.829 7.1568 178.156 5.19445L178.498 2.30865C182.031 2.53951 185.109 2.65494 187.73 2.65494C190.466 2.65494 193.201 2.65494 196.735 2.30865L197.077 5.19445C192.403 7.1568 191.492 9.23458 191.036 14.6599C190.694 18.4691 190.694 23.5482 190.694 27.5883V65.45C190.694 70.9908 190.808 78.3784 191.15 84.3809Z" fill="#001D23"/>
<path d="M248.207 80.1099C257.668 80.1099 262.455 76.7624 266.444 69.4901C268.154 66.3735 269.066 63.2568 270.434 59.2167L273.853 59.7938C273.283 66.8352 272.713 72.3759 271.46 79.1864C264.507 83.342 255.958 85.3043 246.725 85.3043C224.613 85.3043 202.386 70.8753 202.386 42.8253C202.386 17.4303 222.561 0.808028 246.611 0.808028C256.3 0.808028 264.165 2.77037 271.802 6.57964C271.916 9.6963 272.03 12.3512 272.03 15.0062C272.03 17.6611 271.916 20.4315 271.802 23.6636L268.382 23.8945C267.356 19.6235 266.102 15.9296 263.481 12.813C260.289 9.11914 255.046 6.11791 246.725 6.11791C226.664 6.11791 213.1 21.0087 213.1 42.7099C213.1 66.258 230.54 80.1099 248.207 80.1099Z" fill="#001D23"/>
<path d="M289.663 2.65494H330.811C335.484 2.65494 339.246 2.65494 343.691 2.30865C343.919 7.84939 344.033 13.5056 344.033 19.1617L340.728 19.3926C339.474 15.1216 338.334 12.6975 336.624 10.8506C334.914 9.00371 332.293 8.08025 330.127 7.73396C327.278 7.27223 324.77 7.1568 321.122 7.1568C315.765 7.1568 315.081 8.08025 314.739 12.6975C314.397 16.2759 314.397 20.4315 314.397 24.587V58.2932C314.397 62.3334 314.625 67.4124 314.739 71.2216C314.967 77.1087 316.221 78.9556 321.692 80.4562L321.35 83.5729C316.905 83.2266 312.802 83.2266 309.952 83.2266C307.103 83.2266 302.771 83.2266 298.326 83.5729L297.984 80.4562C303.455 78.9556 304.709 77.1087 304.937 71.2216C305.051 67.4124 305.279 62.3334 305.279 58.2932V24.587C305.279 20.4315 305.279 16.2759 304.937 12.6975C304.595 8.08025 303.911 7.1568 298.554 7.1568C294.906 7.1568 292.513 7.27223 289.663 7.73396C287.497 8.08025 284.876 9.00371 283.166 10.8506C281.456 12.6975 280.203 15.1216 278.949 19.3926L275.643 19.1617C275.985 13.5056 276.327 7.96482 276.783 2.30865C281.228 2.65494 284.99 2.65494 289.663 2.65494Z" fill="#001D23"/>
<path d="M408.696 27.5883V54.1377C408.696 72.2605 396.728 85.3043 379.061 85.3043C360.823 85.3043 349.995 74.4537 349.995 55.8692V27.5883C349.995 23.5482 349.995 18.4691 349.653 14.6599C349.311 9.58087 348.513 7.04136 343.954 5.19445L344.296 2.30865C348.741 2.65494 351.819 2.65494 354.668 2.65494C357.518 2.65494 360.481 2.65494 364.927 2.30865L365.269 5.19445C360.595 7.1568 359.57 9.23458 359.456 14.6599C359.342 18.4691 359.114 23.5482 359.114 27.5883V55.6383C359.114 70.529 366.864 78.9556 379.745 78.9556C393.422 78.9556 402.655 69.8364 402.655 52.6371V27.5883C402.655 23.5482 402.655 18.4691 402.313 14.6599C401.857 9.23458 400.831 7.1568 396.158 5.19445L396.5 2.30865C400.034 2.53951 403.111 2.65494 405.733 2.65494C408.468 2.65494 411.204 2.65494 414.737 2.30865L415.079 5.19445C410.406 7.1568 409.494 9.23458 409.038 14.6599C408.696 18.4691 408.696 23.5482 408.696 27.5883Z" fill="#001D23"/>
<path d="M495.616 12.5821L465.183 85.3043H462.789L432.242 15.1216L430.76 58.4087C430.646 61.0636 430.532 64.4111 430.532 67.5278C430.532 73.5303 430.76 78.9556 436.915 80.8025L436.573 83.6883C433.04 83.4574 429.962 83.342 427.227 83.342C424.491 83.342 421.755 83.342 418.222 83.6883L417.88 80.8025C422.553 78.8401 423.579 76.7624 424.035 71.3371C424.377 67.5278 424.377 62.4488 424.605 58.4087L425.973 27.5883C426.087 24.9333 426.087 23.2019 426.087 21.0087C426.087 14.5445 425.973 7.38766 419.02 5.19445L419.362 2.30865C425.745 2.65494 430.418 2.65494 437.143 2.65494L465.867 69.6056L492.881 2.65494C499.15 2.65494 506.217 2.65494 510.662 2.30865L511.004 5.19445C506.331 7.04136 505.419 9.46544 505.077 14.6599C504.963 17.4303 504.849 21.0087 504.849 24.2408C504.849 25.5105 505.077 26.5494 505.647 58.4087C505.761 62.4488 505.761 67.5278 506.103 71.3371C506.103 76.7624 507.357 78.8401 512.03 80.8025L511.688 83.6883C507.243 83.342 504.393 83.342 501.543 83.342C498.694 83.342 495.616 83.342 491.171 83.6883L490.829 80.8025C496.642 79.3019 496.756 73.2994 496.756 67.7587C496.756 64.8729 496.756 61.2945 496.642 58.4087L495.616 12.5821Z" fill="#001D23"/>
<path d="M512.92 1.00591H519.485V2.27974H516.957V8.50151H515.448V2.27974H512.92V1.00591Z" fill="#001D23"/>
<path d="M525.709 4.57474L527.029 1.00591H529.203V8.50151H527.772V6.21704C527.772 4.81688 527.783 3.57463 527.816 2.50082C527.65 3.0272 527.451 3.60621 527.218 4.22733L525.62 8.50151H524.389L522.781 4.22733C522.493 3.4483 522.304 2.87981 522.193 2.52188C522.216 3.59568 522.238 4.8274 522.238 6.21704V8.50151H520.796V1.00591H522.97L524.334 4.64844C524.423 4.9011 524.644 5.57486 525.01 6.68025C525.243 5.90121 525.476 5.20639 525.709 4.57474Z" fill="#001D23"/>
</svg>
