<svg width="310" height="150" viewBox="0 0 310 150" fill="none" xmlns="http://www.w3.org/2000/svg">
<path d="M30.4181 70.5357H28.4981L11.1221 22.5357C9.97012 19.4637 8.33812 14.9517 6.89812 11.7837C5.07412 7.55967 3.53812 5.54367 0.370117 3.91167L0.658117 1.51167C4.40212 1.79967 6.13012 1.79967 8.53012 1.79967C10.9301 1.79967 14.4821 1.79967 18.2261 1.51167L18.5141 3.91167C15.9221 5.06367 14.9621 5.92767 14.9621 7.75167C14.9621 9.95967 16.2101 13.7037 19.2821 22.5357L30.9941 55.7517L43.2821 22.5357C46.5461 13.7037 47.2181 10.1517 47.2181 7.84767C47.2181 6.02367 46.3541 4.96767 43.5701 3.91167L43.8581 1.51167C47.6021 1.79967 49.6181 1.79967 52.0181 1.79967C54.4181 1.79967 55.9541 1.79967 59.1221 1.51167L59.4101 3.91167C56.2421 5.54367 54.6101 7.55967 52.7861 11.7837C51.3461 14.9517 49.6181 19.4637 48.4661 22.5357L30.4181 70.5357Z" fill="#E8E4DF"/>
<path d="M73.1516 22.5357V48.0717C73.1516 51.4317 73.3436 55.6557 73.4396 58.8237C73.6316 63.3357 74.3996 65.0637 78.3356 66.6957L78.0476 69.0957C74.3036 68.8077 71.8076 68.8077 69.4076 68.8077C67.0076 68.8077 64.4156 68.8077 60.6716 69.0957L60.3836 66.6957C64.2236 65.1597 64.8956 63.0477 65.1836 58.8237C65.4716 55.6557 65.4716 51.4317 65.4716 48.0717V22.5357C65.4716 19.1757 65.4716 14.9517 65.1836 11.7837C64.8956 7.55967 64.2236 5.44767 60.3836 3.91167L60.6716 1.51167C64.4156 1.79967 67.0076 1.79967 69.4076 1.79967C71.8076 1.79967 74.3036 1.79967 78.0476 1.51167L78.3356 3.91167C74.3996 5.54367 73.6316 7.27167 73.4396 11.7837C73.3436 14.9517 73.1516 19.1757 73.1516 22.5357Z" fill="#E8E4DF"/>
<path d="M101.395 66.2157C109.075 66.2157 114.163 61.3197 114.163 54.6957C114.163 51.1437 112.915 48.1677 110.515 45.7677C108.403 43.6557 106.963 42.2157 101.107 38.0877C92.8511 32.3277 91.0271 30.7917 88.4351 27.4317C86.0351 24.3597 85.0751 21.5757 85.0751 17.0637C85.0751 7.46367 93.1391 0.263672 104.275 0.263672C110.323 0.263672 115.123 1.60767 120.019 4.19967C120.115 6.79167 120.211 8.61567 120.211 10.8237C120.211 13.0317 120.115 15.0477 120.019 17.6397L117.331 17.8317C116.467 14.4717 115.507 11.6877 113.299 9.09567C110.707 6.11967 108.115 4.67967 103.507 4.67967C96.6911 4.67967 92.0831 8.90367 92.0831 15.4317C92.0831 18.4077 92.7551 20.8077 95.4431 23.5917C97.2671 25.4157 98.5151 26.4717 104.659 30.7917C112.243 36.0717 114.547 37.7037 117.235 40.7757C119.923 43.9437 121.747 48.5517 121.747 52.8717C121.747 63.6237 113.299 70.5357 100.723 70.5357C94.1951 70.5357 89.5871 69.5757 84.9791 67.3677C83.9231 62.0877 83.6351 57.2877 83.0591 51.8157L86.0351 51.1437C87.0911 54.2157 87.9551 56.7117 89.3951 59.1117C92.1791 64.0077 94.9631 66.2157 101.395 66.2157Z" fill="#E8E4DF"/>
<path d="M143.475 22.5357L138.963 48.0717C137.619 55.6557 136.947 58.0557 136.947 61.4157C136.947 64.0077 137.907 65.4477 141.075 66.6957L140.595 69.0957C136.947 68.9037 134.739 68.8077 132.339 68.8077C129.939 68.8077 127.635 68.9037 123.795 69.0957L123.699 66.6957C127.539 65.0637 128.307 63.2397 129.363 58.8237C130.131 55.6557 130.995 51.3357 131.571 48.0717L136.083 22.5357C137.427 14.9517 138.003 12.5517 138.003 9.19167C138.003 6.59967 137.043 5.15967 133.875 3.91167L134.355 1.51167C138.003 1.70367 140.211 1.79967 142.611 1.79967C145.011 1.79967 147.315 1.70367 151.155 1.51167L151.251 3.91167C147.411 5.54367 146.643 7.36767 145.587 11.7837C144.819 14.9517 144.051 19.2717 143.475 22.5357Z" fill="#E8E4DF"/>
<path d="M149.734 35.3997C149.734 14.9517 165.286 0.263672 184.486 0.263672C204.742 0.263672 219.526 15.4317 219.526 35.3997C219.526 55.6557 204.166 70.5357 185.35 70.5357C164.518 70.5357 149.734 56.2317 149.734 35.3997ZM183.046 5.06367C169.702 5.06367 158.758 15.4317 158.758 34.1517C158.758 53.6397 171.622 65.8317 186.598 65.8317C200.518 65.8317 210.502 53.9277 210.502 36.5517C210.502 18.0237 198.118 5.06367 183.046 5.06367Z" fill="#E8E4DF"/>
<path d="M284.742 69.7677L282.438 70.5357L235.11 13.4157V48.1677C235.11 51.5277 235.11 55.7517 235.398 58.9197C235.782 63.4317 236.646 65.1597 240.582 66.7917L240.294 69.1917C237.318 68.9997 234.726 68.9037 232.518 68.9037C230.214 68.9037 227.91 68.9037 224.934 69.1917L224.646 66.7917C228.582 65.1597 229.35 63.4317 229.734 58.9197C230.022 55.7517 230.022 51.5277 230.022 48.1677V22.5357C230.022 19.1757 230.022 15.5277 229.734 12.3597C229.35 7.84767 228.102 5.54367 224.166 3.91167L224.454 1.51167C227.43 1.70367 231.174 1.79967 235.686 1.79967L279.27 54.1197V22.5357C279.27 19.1757 279.27 14.9517 278.982 11.7837C278.598 7.27167 277.734 5.54367 273.798 3.91167L274.086 1.51167C277.062 1.70367 279.654 1.79967 281.862 1.79967C284.166 1.79967 286.47 1.79967 289.446 1.51167L289.734 3.91167C285.798 5.54367 285.03 7.27167 284.646 11.7837C284.358 14.9517 284.358 19.1757 284.358 22.5357V54.0237C284.358 58.6317 284.454 64.7757 284.742 69.7677Z" fill="#E8E4DF"/>
<path d="M296.414 2.47624H294V0.999674H300.623V2.47624H298.24V7.99967H296.414V2.47624ZM306.286 4.28092L307.586 0.999674H310V7.99967H308.236V5.81217C308.236 4.69108 308.236 3.9528 308.267 3.59733C308.205 3.73405 308.143 3.89811 308.081 4.08952L306.534 7.99967H305.079L303.532 4.08952C303.47 3.89811 303.408 3.73405 303.346 3.59733C303.346 3.9528 303.377 4.69108 303.377 5.81217V7.99967H301.613V0.999674H304.027L305.358 4.33561L305.822 5.64811C305.946 5.12858 306.101 4.66374 306.286 4.28092Z" fill="#E8E4DF"/>
<path fill-rule="evenodd" clip-rule="evenodd" d="M138.798 125.795C139.971 125.531 141.749 125.237 143.48 125.237C144.017 125.237 144.527 125.257 145.006 125.298C145.505 124.503 146.144 124 147.012 124C148.83 124 149.726 126.189 149.999 128.985C150.272 126.189 151.168 124 152.987 124C153.854 124 154.493 124.503 154.992 125.298C155.472 125.258 155.982 125.237 156.519 125.237C158.25 125.237 160.028 125.531 161.202 125.796L161.204 125.798C161.468 126.971 161.762 128.749 161.762 130.48C161.762 131.017 161.742 131.527 161.702 132.007C162.497 132.506 163 133.145 163 134.012C163 135.833 160.804 136.729 158.002 137.001C160.804 137.272 163 138.168 163 139.989C163 140.856 162.497 141.495 161.702 141.994C161.742 142.474 161.763 142.983 161.763 143.52C161.763 145.251 161.469 147.029 161.204 148.202L161.202 148.204C160.029 148.468 158.251 148.762 156.52 148.762C155.983 148.762 155.473 148.742 154.994 148.702C154.495 149.497 153.856 150 152.988 150C151.17 150 150.274 147.81 150.001 145.014C149.728 147.81 148.832 150 147.013 150C146.146 150 145.507 149.496 145.008 148.701C144.528 148.742 144.018 148.762 143.481 148.762C141.75 148.762 139.972 148.468 138.798 148.204L138.796 148.201C138.532 147.028 138.238 145.25 138.238 143.519C138.238 142.982 138.258 142.472 138.298 141.993C137.503 141.493 137 140.855 137 139.987C137 138.166 139.196 137.27 141.997 136.999C139.196 136.727 137 135.831 137 134.01C137 133.143 137.503 132.504 138.298 132.005C138.258 131.526 138.237 131.016 138.237 130.479C138.237 128.749 138.531 126.971 138.796 125.798L138.798 125.795ZM149.781 130.451C149.781 132.759 149.379 134.331 148.501 135.5C147.333 136.378 145.76 136.779 143.452 136.779C142.33 136.779 141.399 136.67 140.658 136.467C142.73 134.672 143.478 133.839 144.123 131.122C146.84 130.477 147.674 129.729 149.468 127.657C149.671 128.398 149.781 129.329 149.781 130.451ZM143.346 130.345C143.391 130.158 143.435 129.97 143.48 129.781C143.847 128.238 144.237 126.687 144.841 125.58C144.556 125.559 144.252 125.548 143.927 125.548C142.271 125.548 140.81 125.823 139.697 126.696C138.823 127.809 138.548 129.271 138.548 130.926C138.548 131.251 138.56 131.555 138.581 131.84C139.687 131.236 141.239 130.846 142.782 130.479C142.971 130.434 143.159 130.39 143.346 130.345ZM144.312 129.409C144.711 127.65 145.176 125.602 145.992 125.02C147.848 123.695 149.032 125.919 148.312 127.633C147.593 129.346 146.147 130.056 144.085 130.386C144.16 130.08 144.235 129.75 144.312 129.409ZM142.409 131.311C140.651 131.71 138.602 132.175 138.02 132.991C136.695 134.847 138.92 136.03 140.633 135.311C142.346 134.592 143.057 133.145 143.387 131.084C143.082 131.159 142.754 131.233 142.415 131.31L142.409 131.311ZM150.219 143.548C150.219 141.24 150.621 139.668 151.499 138.499C152.667 137.621 154.24 137.22 156.548 137.22C157.67 137.22 158.601 137.33 159.342 137.533C157.27 139.327 156.522 140.161 155.877 142.877C153.16 143.523 152.326 144.271 150.532 146.342C150.329 145.601 150.219 144.67 150.219 143.548ZM157.218 143.52C157.029 143.565 156.841 143.61 156.654 143.654L156.547 144.104L156.52 144.218C156.153 145.761 155.763 147.313 155.159 148.419C155.444 148.44 155.748 148.451 156.073 148.451C157.729 148.451 159.19 148.176 160.303 147.303C161.177 146.19 161.451 144.729 161.451 143.073C161.451 142.749 161.44 142.444 161.419 142.159C160.313 142.763 158.761 143.153 157.218 143.52ZM155.688 144.591C155.289 146.349 154.824 148.398 154.008 148.98C152.152 150.305 150.968 148.08 151.688 146.367C152.407 144.654 153.853 143.943 155.915 143.613C155.84 143.92 155.765 144.25 155.688 144.591ZM157.591 142.688C159.349 142.289 161.398 141.824 161.98 141.009C163.305 139.153 161.08 137.969 159.367 138.688C157.654 139.407 156.943 140.854 156.613 142.915C156.755 142.88 156.902 142.846 157.053 142.811C157.228 142.77 157.408 142.73 157.591 142.688ZM148.503 138.497C149.382 139.666 149.783 141.239 149.783 143.547C149.783 144.669 149.673 145.6 149.47 146.341C147.676 144.27 146.841 143.521 144.124 142.876C143.479 140.159 142.731 139.325 140.659 137.531C141.4 137.328 142.331 137.218 143.453 137.218C145.762 137.218 147.334 137.619 148.503 138.497ZM143.481 144.217C143.436 144.029 143.392 143.84 143.347 143.653C143.249 143.63 143.15 143.606 143.051 143.583C142.962 143.562 142.872 143.54 142.783 143.519C141.239 143.152 139.688 142.762 138.581 142.158C138.56 142.443 138.549 142.747 138.549 143.072C138.549 144.728 138.824 146.189 139.697 147.303C140.811 148.176 142.272 148.451 143.928 148.451C144.253 148.451 144.557 148.44 144.842 148.419C144.238 147.312 143.849 145.761 143.481 144.217ZM145.993 148.979C145.178 148.397 144.713 146.349 144.314 144.59L144.313 144.586L144.311 144.579C144.235 144.242 144.16 143.915 144.087 143.612C146.148 143.942 147.595 144.653 148.314 146.366C149.034 148.08 147.85 150.305 145.993 148.979ZM142.41 142.687C142.751 142.764 143.082 142.839 143.388 142.914C143.058 140.852 142.347 139.406 140.634 138.686C138.92 137.967 136.695 139.151 138.02 141.007C138.603 141.823 140.651 142.288 142.41 142.687ZM150.217 130.452C150.217 132.761 150.618 134.333 151.497 135.502C152.666 136.38 154.238 136.782 156.547 136.782C157.669 136.782 158.6 136.672 159.341 136.469C157.269 134.674 156.521 133.84 155.876 131.123C153.158 130.478 152.324 129.73 150.53 127.658C150.327 128.399 150.217 129.33 150.217 130.452ZM156.653 130.347C156.608 130.159 156.564 129.971 156.519 129.782C156.151 128.239 155.762 126.687 155.158 125.58C155.443 125.559 155.747 125.548 156.072 125.548C157.728 125.548 159.189 125.823 160.303 126.696C161.176 127.81 161.451 129.272 161.451 130.927C161.451 131.252 161.44 131.556 161.419 131.841C160.312 131.237 158.761 130.848 157.217 130.48C157.028 130.435 156.84 130.391 156.653 130.347ZM155.686 129.41C155.287 127.651 154.822 125.602 154.007 125.02C152.15 123.694 150.966 125.92 151.686 127.633C152.405 129.347 153.852 130.058 155.913 130.387C155.839 130.082 155.765 129.753 155.687 129.414L155.686 129.41ZM157.59 131.313C159.349 131.712 161.397 132.177 161.98 132.992C163.305 134.849 161.08 136.032 159.366 135.313C157.653 134.594 156.942 133.147 156.612 131.086C156.918 131.16 157.249 131.235 157.59 131.313ZM149.96 141.602C150.353 137.752 150.671 137.433 154.522 137.04C150.672 136.647 150.353 136.328 149.96 132.478C149.566 136.328 149.248 136.647 145.397 137.04C149.248 137.433 149.566 137.752 149.96 141.602Z" fill="#E8E4DF"/>
<path d="M42.2677 91.6077V101.064H47.6917V103H40.1077V91.6077H42.2677Z" fill="#E8E4DF"/>
<path d="M60.1057 103H57.8177L56.9217 100.488H51.9297L51.0497 103H48.8257L53.1617 91.6077H55.6897L60.1057 103ZM53.0177 97.4157L52.5857 98.6477H56.2657L55.8177 97.4157C55.4337 96.4717 54.9697 95.1757 54.4097 93.5117C53.9617 94.8397 53.4977 96.1357 53.0177 97.4157Z" fill="#E8E4DF"/>
<path d="M73.5072 96.9997C74.1312 97.2237 74.6112 97.5917 74.9632 98.0717C75.3152 98.5677 75.4912 99.1277 75.4912 99.7357C75.4912 100.776 75.1392 101.576 74.4672 102.152C73.7952 102.728 72.8032 103 71.5232 103H66.1952V91.6077H71.3472C72.5312 91.6077 73.4432 91.8797 74.0832 92.4237C74.7072 92.9677 75.0272 93.6877 75.0272 94.5517C75.0272 95.6717 74.5152 96.4877 73.5072 96.9997ZM71.1872 93.3837H68.3552V96.3597H71.1872C71.7312 96.3597 72.1472 96.2317 72.4352 95.9597C72.7232 95.6877 72.8832 95.3037 72.8832 94.8237C72.8832 94.3757 72.7232 94.0237 72.4352 93.7677C72.1312 93.5117 71.7152 93.3837 71.1872 93.3837ZM68.3552 101.208H71.4112C72.0192 101.208 72.4832 101.08 72.8032 100.808C73.1232 100.536 73.2832 100.152 73.2832 99.6397C73.2832 98.5837 72.6592 98.0557 71.4112 98.0557H68.3552V101.208Z" fill="#E8E4DF"/>
<path d="M82.7112 103.256C80.9992 103.256 79.6232 102.712 78.5832 101.624C77.5272 100.536 77.0152 99.0957 77.0152 97.3037C77.0152 95.5277 77.5272 94.0877 78.5832 92.9837C79.6232 91.8957 80.9992 91.3517 82.7112 91.3517C84.4072 91.3517 85.7832 91.8957 86.8392 92.9837C87.8632 94.0717 88.3912 95.5117 88.3912 97.3037C88.3912 99.1117 87.8632 100.552 86.8392 101.624C85.7832 102.712 84.4072 103.256 82.7112 103.256ZM80.2152 100.264C80.8392 101 81.6712 101.352 82.7112 101.352C83.7512 101.352 84.5832 101 85.2232 100.264C85.8312 99.5597 86.1512 98.5677 86.1512 97.3037C86.1512 96.0557 85.8312 95.0637 85.2232 94.3437C84.5832 93.6237 83.7512 93.2557 82.7112 93.2557C81.6712 93.2557 80.8392 93.6237 80.2152 94.3437C79.5752 95.0797 79.2712 96.0557 79.2712 97.3037C79.2712 98.5517 79.5752 99.5437 80.2152 100.264Z" fill="#E8E4DF"/>
<path d="M95.1844 103.24C93.6964 103.24 92.5284 102.856 91.6804 102.056C90.8324 101.256 90.4164 100.152 90.4164 98.7117V91.6077H92.5764V98.7277C92.5764 99.5917 92.8004 100.248 93.2484 100.696C93.6964 101.144 94.3364 101.368 95.1844 101.368C96.0164 101.368 96.6724 101.144 97.1204 100.696C97.5684 100.248 97.7924 99.5917 97.7924 98.7277V91.6077H99.9524V98.7117C99.9524 100.168 99.5204 101.288 98.6884 102.072C97.8404 102.856 96.6724 103.24 95.1844 103.24Z" fill="#E8E4DF"/>
<path d="M106.791 103.256C105.239 103.256 104.039 102.92 103.191 102.216C102.343 101.528 101.911 100.536 101.911 99.2397H104.039C104.039 100.056 104.279 100.632 104.759 100.984C105.239 101.336 105.927 101.512 106.855 101.512C107.591 101.512 108.167 101.384 108.567 101.096C108.951 100.808 109.159 100.408 109.159 99.8637C109.159 99.4157 108.983 99.0797 108.647 98.8397C108.311 98.6157 107.703 98.4077 106.823 98.2157L105.863 98.0237C103.415 97.5757 102.199 96.4237 102.199 94.5677C102.199 93.5917 102.567 92.8077 103.319 92.2317C104.055 91.6557 105.095 91.3517 106.423 91.3517C107.927 91.3517 109.063 91.6717 109.831 92.3117C110.599 92.9517 111.015 93.8477 111.063 94.9997H108.967C108.919 94.3597 108.695 93.8797 108.311 93.5597C107.927 93.2557 107.303 93.0957 106.455 93.0957C105.783 93.0957 105.287 93.2237 104.935 93.4637C104.583 93.7197 104.407 94.0557 104.407 94.5037C104.407 94.9677 104.567 95.3197 104.887 95.5597C105.207 95.8157 105.799 96.0237 106.631 96.1837L107.623 96.3757C108.951 96.6477 109.911 97.0477 110.503 97.5757C111.095 98.1037 111.399 98.8237 111.399 99.7517C111.399 100.872 110.983 101.736 110.183 102.344C109.367 102.952 108.231 103.256 106.791 103.256Z" fill="#E8E4DF"/>
<path d="M117.887 103.256C116.335 103.256 115.135 102.92 114.287 102.216C113.439 101.528 113.007 100.536 113.007 99.2397H115.135C115.135 100.056 115.375 100.632 115.855 100.984C116.335 101.336 117.023 101.512 117.951 101.512C118.687 101.512 119.263 101.384 119.663 101.096C120.047 100.808 120.255 100.408 120.255 99.8637C120.255 99.4157 120.079 99.0797 119.743 98.8397C119.407 98.6157 118.799 98.4077 117.919 98.2157L116.959 98.0237C114.511 97.5757 113.295 96.4237 113.295 94.5677C113.295 93.5917 113.663 92.8077 114.415 92.2317C115.151 91.6557 116.191 91.3517 117.519 91.3517C119.023 91.3517 120.159 91.6717 120.927 92.3117C121.695 92.9517 122.111 93.8477 122.159 94.9997H120.063C120.015 94.3597 119.791 93.8797 119.407 93.5597C119.023 93.2557 118.399 93.0957 117.551 93.0957C116.879 93.0957 116.383 93.2237 116.031 93.4637C115.679 93.7197 115.503 94.0557 115.503 94.5037C115.503 94.9677 115.663 95.3197 115.983 95.5597C116.303 95.8157 116.895 96.0237 117.727 96.1837L118.719 96.3757C120.047 96.6477 121.007 97.0477 121.599 97.5757C122.191 98.1037 122.495 98.8237 122.495 99.7517C122.495 100.872 122.079 101.736 121.279 102.344C120.463 102.952 119.327 103.256 117.887 103.256Z" fill="#E8E4DF"/>
<path d="M129.786 103.256C128.074 103.256 126.698 102.712 125.658 101.624C124.602 100.536 124.09 99.0957 124.09 97.3037C124.09 95.5277 124.602 94.0877 125.658 92.9837C126.698 91.8957 128.074 91.3517 129.786 91.3517C131.482 91.3517 132.858 91.8957 133.914 92.9837C134.938 94.0717 135.466 95.5117 135.466 97.3037C135.466 99.1117 134.938 100.552 133.914 101.624C132.858 102.712 131.482 103.256 129.786 103.256ZM127.29 100.264C127.914 101 128.746 101.352 129.786 101.352C130.826 101.352 131.658 101 132.298 100.264C132.906 99.5597 133.226 98.5677 133.226 97.3037C133.226 96.0557 132.906 95.0637 132.298 94.3437C131.658 93.6237 130.826 93.2557 129.786 93.2557C128.746 93.2557 127.914 93.6237 127.29 94.3437C126.65 95.0797 126.346 96.0557 126.346 97.3037C126.346 98.5517 126.65 99.5437 127.29 100.264Z" fill="#E8E4DF"/>
<path d="M139.811 91.6077V101.064H145.235V103H137.651V91.6077H139.811Z" fill="#E8E4DF"/>
<path d="M155.617 91.6077V93.5437H149.377V96.2317H155.025V98.0877H149.377V101.064H155.585V103H147.217V91.6077H155.617Z" fill="#E8E4DF"/>
<path d="M162.005 91.6077H166.357C168.181 91.6077 169.589 92.1197 170.581 93.1277C171.573 94.1517 172.069 95.5437 172.069 97.3037C172.069 99.0637 171.573 100.456 170.581 101.464C169.589 102.488 168.181 103 166.357 103H162.005V91.6077ZM164.165 101.144H166.325C167.445 101.144 168.309 100.824 168.917 100.168C169.525 99.5117 169.829 98.5517 169.829 97.3037C169.829 96.0557 169.525 95.1117 168.917 94.4557C168.309 93.7997 167.445 93.4637 166.325 93.4637H164.165V101.144Z" fill="#E8E4DF"/>
<path d="M178.866 103.24C177.378 103.24 176.21 102.856 175.362 102.056C174.514 101.256 174.098 100.152 174.098 98.7117V91.6077H176.258V98.7277C176.258 99.5917 176.482 100.248 176.93 100.696C177.378 101.144 178.018 101.368 178.866 101.368C179.698 101.368 180.354 101.144 180.802 100.696C181.25 100.248 181.474 99.5917 181.474 98.7277V91.6077H183.634V98.7117C183.634 100.168 183.202 101.288 182.37 102.072C181.522 102.856 180.354 103.24 178.866 103.24Z" fill="#E8E4DF"/>
<path d="M194.725 103.256C193.173 103.256 191.973 102.92 191.125 102.216C190.277 101.528 189.845 100.536 189.845 99.2397H191.973C191.973 100.056 192.213 100.632 192.693 100.984C193.173 101.336 193.861 101.512 194.789 101.512C195.525 101.512 196.101 101.384 196.501 101.096C196.885 100.808 197.093 100.408 197.093 99.8637C197.093 99.4157 196.917 99.0797 196.581 98.8397C196.245 98.6157 195.637 98.4077 194.757 98.2157L193.797 98.0237C191.349 97.5757 190.133 96.4237 190.133 94.5677C190.133 93.5917 190.501 92.8077 191.253 92.2317C191.989 91.6557 193.029 91.3517 194.357 91.3517C195.861 91.3517 196.997 91.6717 197.765 92.3117C198.533 92.9517 198.949 93.8477 198.997 94.9997H196.901C196.853 94.3597 196.629 93.8797 196.245 93.5597C195.861 93.2557 195.237 93.0957 194.389 93.0957C193.717 93.0957 193.221 93.2237 192.869 93.4637C192.517 93.7197 192.341 94.0557 192.341 94.5037C192.341 94.9677 192.501 95.3197 192.821 95.5597C193.141 95.8157 193.733 96.0237 194.565 96.1837L195.557 96.3757C196.885 96.6477 197.845 97.0477 198.437 97.5757C199.029 98.1037 199.333 98.8237 199.333 99.7517C199.333 100.872 198.917 101.736 198.117 102.344C197.301 102.952 196.165 103.256 194.725 103.256Z" fill="#E8E4DF"/>
<path d="M205.984 103.24C204.496 103.24 203.328 102.856 202.48 102.056C201.632 101.256 201.216 100.152 201.216 98.7117V91.6077H203.376V98.7277C203.376 99.5917 203.6 100.248 204.048 100.696C204.496 101.144 205.136 101.368 205.984 101.368C206.816 101.368 207.472 101.144 207.92 100.696C208.368 100.248 208.592 99.5917 208.592 98.7277V91.6077H210.752V98.7117C210.752 100.168 210.32 101.288 209.488 102.072C208.64 102.856 207.472 103.24 205.984 103.24Z" fill="#E8E4DF"/>
<path d="M218.295 103.256C216.647 103.256 215.319 102.728 214.311 101.64C213.287 100.568 212.775 99.1277 212.775 97.3037C212.775 95.4797 213.271 94.0397 214.295 92.9517C215.287 91.8957 216.631 91.3517 218.295 91.3517C219.623 91.3517 220.759 91.7197 221.703 92.4237C222.631 93.1437 223.223 94.1837 223.463 95.5277H221.271C221.079 94.7917 220.711 94.2157 220.199 93.8317C219.687 93.4477 219.047 93.2397 218.295 93.2397C217.271 93.2397 216.471 93.6077 215.895 94.3277C215.319 95.0477 215.031 96.0397 215.031 97.3037C215.031 98.5837 215.319 99.5917 215.895 100.296C216.471 101.016 217.271 101.368 218.295 101.368C219.079 101.368 219.751 101.144 220.327 100.664C220.887 100.2 221.223 99.5437 221.351 98.7117H223.511C223.367 100.168 222.807 101.288 221.815 102.072C220.823 102.872 219.655 103.256 218.295 103.256Z" fill="#E8E4DF"/>
<path d="M230.688 103.256C229.04 103.256 227.712 102.728 226.704 101.64C225.68 100.568 225.168 99.1277 225.168 97.3037C225.168 95.4797 225.664 94.0397 226.688 92.9517C227.68 91.8957 229.024 91.3517 230.688 91.3517C232.016 91.3517 233.152 91.7197 234.096 92.4237C235.024 93.1437 235.616 94.1837 235.856 95.5277H233.664C233.472 94.7917 233.104 94.2157 232.592 93.8317C232.08 93.4477 231.44 93.2397 230.688 93.2397C229.664 93.2397 228.864 93.6077 228.288 94.3277C227.712 95.0477 227.424 96.0397 227.424 97.3037C227.424 98.5837 227.712 99.5917 228.288 100.296C228.864 101.016 229.664 101.368 230.688 101.368C231.472 101.368 232.144 101.144 232.72 100.664C233.28 100.2 233.616 99.5437 233.744 98.7117H235.904C235.76 100.168 235.2 101.288 234.208 102.072C233.216 102.872 232.048 103.256 230.688 103.256Z" fill="#E8E4DF"/>
<path d="M241.642 88.6157L243.034 90.9197H241.386L239.322 88.6157H241.642ZM246.442 91.6077V93.5437H240.202V96.2317H245.85V98.0877H240.202V101.064H246.41V103H238.042V91.6077H246.442Z" fill="#E8E4DF"/>
<path d="M252.897 103.256C251.345 103.256 250.145 102.92 249.297 102.216C248.449 101.528 248.017 100.536 248.017 99.2397H250.145C250.145 100.056 250.385 100.632 250.865 100.984C251.345 101.336 252.033 101.512 252.961 101.512C253.697 101.512 254.273 101.384 254.673 101.096C255.057 100.808 255.265 100.408 255.265 99.8637C255.265 99.4157 255.089 99.0797 254.753 98.8397C254.417 98.6157 253.809 98.4077 252.929 98.2157L251.969 98.0237C249.521 97.5757 248.305 96.4237 248.305 94.5677C248.305 93.5917 248.673 92.8077 249.425 92.2317C250.161 91.6557 251.201 91.3517 252.529 91.3517C254.033 91.3517 255.169 91.6717 255.937 92.3117C256.705 92.9517 257.121 93.8477 257.169 94.9997H255.073C255.025 94.3597 254.801 93.8797 254.417 93.5597C254.033 93.2557 253.409 93.0957 252.561 93.0957C251.889 93.0957 251.393 93.2237 251.041 93.4637C250.689 93.7197 250.513 94.0557 250.513 94.5037C250.513 94.9677 250.673 95.3197 250.993 95.5597C251.313 95.8157 251.905 96.0237 252.737 96.1837L253.729 96.3757C255.057 96.6477 256.017 97.0477 256.609 97.5757C257.201 98.1037 257.505 98.8237 257.505 99.7517C257.505 100.872 257.089 101.736 256.289 102.344C255.473 102.952 254.337 103.256 252.897 103.256Z" fill="#E8E4DF"/>
</svg>
