<svg width="530" height="109" viewBox="0 0 530 109" fill="none" xmlns="http://www.w3.org/2000/svg">
<path d="M21.7708 80.1099C30.8894 80.1099 36.9305 74.2229 36.9305 66.258C36.9305 61.9871 35.4487 58.4087 32.5992 55.5229C30.0915 52.9834 28.3818 51.2519 21.4288 46.2883C11.6263 39.3624 9.4606 37.5154 6.38305 33.4753C3.53348 29.7815 2.39365 26.434 2.39365 21.0087C2.39365 9.46544 11.9682 0.808028 25.1903 0.808028C32.3712 0.808028 38.0704 2.42408 43.8835 5.54075C43.9975 8.65742 44.1115 10.8506 44.1115 13.5056C44.1115 16.1605 43.9975 18.5846 43.8835 21.7012L40.692 21.9321C39.6661 17.892 38.5263 14.5445 35.9047 11.4278C32.8271 7.84939 29.7496 6.11791 24.2784 6.11791C16.1856 6.11791 10.7144 11.1969 10.7144 19.0463C10.7144 22.6247 11.5123 25.5105 14.7038 28.858C16.8695 31.0512 18.3513 32.321 25.6462 37.5154C34.6509 43.8642 37.3865 45.8266 40.578 49.5204C43.7695 53.3297 45.9352 58.8704 45.9352 64.0648C45.9352 76.9932 35.9047 85.3043 20.9729 85.3043C13.222 85.3043 7.75085 84.15 2.27966 81.4951C1.02585 75.1463 0.683899 69.3747 0 62.7951L3.53348 61.9871C4.78729 65.6809 5.81314 68.6821 7.52289 71.5679C10.8284 77.455 14.1339 80.1099 21.7708 80.1099Z" fill="#001D23"/>
<path d="M106.156 75.608C106.156 77.8013 107.295 79.3019 110.145 80.6871L109.575 83.5729C105.472 83.342 101.596 83.2266 98.7468 83.2266C95.8972 83.2266 93.7315 83.342 89.2862 83.5729L89.4002 80.6871C92.5917 79.3019 94.1874 78.263 95.4413 76.0698C97.037 73.4148 97.6069 69.0284 98.7468 59.3321L99.5447 52.5216H75.3802L70.9349 58.2932C60.5624 71.6834 59.4226 74.9155 59.4226 77.2241C59.4226 78.8402 59.9925 79.6482 62.8421 80.6871L62.3862 83.5729C58.2828 83.342 56.573 83.2266 53.8374 83.2266C50.9878 83.2266 49.1641 83.2266 43.9209 83.5729L43.8069 80.6871C47.6823 78.4939 49.5061 77.1087 63.9819 58.2932L109.005 0L113.907 1.03889L107.523 58.2932C106.27 69.2593 106.156 73.184 106.156 75.608ZM103.762 15.4679L79.1417 47.558H100.115L103.762 15.4679Z" fill="#001D23"/>
<path d="M191.15 84.3809L188.414 85.3043L132.22 16.6222V58.4087C132.22 62.4488 132.22 67.5278 132.562 71.3371C133.018 76.7624 134.044 78.8401 138.717 80.8025L138.375 83.6883C134.842 83.4574 131.764 83.342 129.143 83.342C126.407 83.342 123.672 83.342 120.138 83.6883L119.796 80.8025C124.47 78.8401 125.381 76.7624 125.837 71.3371C126.179 67.5278 126.179 62.4488 126.179 58.4087V27.5883C126.179 23.5482 126.179 19.1617 125.837 15.3525C125.381 9.92717 123.9 7.1568 119.226 5.19445L119.568 2.30865C123.102 2.53951 127.547 2.65494 132.904 2.65494L184.653 65.5655V27.5883C184.653 23.5482 184.653 18.4691 184.311 14.6599C183.855 9.23458 182.829 7.1568 178.156 5.19445L178.498 2.30865C182.031 2.53951 185.109 2.65494 187.73 2.65494C190.466 2.65494 193.201 2.65494 196.735 2.30865L197.077 5.19445C192.403 7.1568 191.492 9.23458 191.036 14.6599C190.694 18.4691 190.694 23.5482 190.694 27.5883V65.45C190.694 70.9908 190.808 78.3784 191.15 84.3809Z" fill="#001D23"/>
<path d="M248.207 80.1099C257.668 80.1099 262.455 76.7624 266.444 69.4901C268.154 66.3735 269.066 63.2568 270.434 59.2167L273.853 59.7938C273.283 66.8352 272.713 72.3759 271.46 79.1864C264.507 83.342 255.958 85.3043 246.725 85.3043C224.613 85.3043 202.386 70.8753 202.386 42.8253C202.386 17.4303 222.561 0.808028 246.611 0.808028C256.3 0.808028 264.165 2.77037 271.802 6.57964C271.916 9.6963 272.03 12.3512 272.03 15.0062C272.03 17.6611 271.916 20.4315 271.802 23.6636L268.382 23.8945C267.356 19.6235 266.102 15.9296 263.481 12.813C260.289 9.11914 255.046 6.11791 246.725 6.11791C226.664 6.11791 213.1 21.0087 213.1 42.7099C213.1 66.258 230.54 80.1099 248.207 80.1099Z" fill="#001D23"/>
<path d="M289.663 2.65494H330.811C335.484 2.65494 339.246 2.65494 343.691 2.30865C343.919 7.84939 344.033 13.5056 344.033 19.1617L340.728 19.3926C339.474 15.1216 338.334 12.6975 336.624 10.8506C334.914 9.00371 332.293 8.08025 330.127 7.73396C327.278 7.27223 324.77 7.1568 321.122 7.1568C315.765 7.1568 315.081 8.08025 314.739 12.6975C314.397 16.2759 314.397 20.4315 314.397 24.587V58.2932C314.397 62.3334 314.625 67.4124 314.739 71.2216C314.967 77.1087 316.221 78.9556 321.692 80.4562L321.35 83.5729C316.905 83.2266 312.802 83.2266 309.952 83.2266C307.103 83.2266 302.771 83.2266 298.326 83.5729L297.984 80.4562C303.455 78.9556 304.709 77.1087 304.937 71.2216C305.051 67.4124 305.279 62.3334 305.279 58.2932V24.587C305.279 20.4315 305.279 16.2759 304.937 12.6975C304.595 8.08025 303.911 7.1568 298.554 7.1568C294.906 7.1568 292.513 7.27223 289.663 7.73396C287.497 8.08025 284.876 9.00371 283.166 10.8506C281.456 12.6975 280.203 15.1216 278.949 19.3926L275.643 19.1617C275.985 13.5056 276.327 7.96482 276.783 2.30865C281.228 2.65494 284.99 2.65494 289.663 2.65494Z" fill="#001D23"/>
<path d="M408.696 27.5883V54.1377C408.696 72.2605 396.728 85.3043 379.061 85.3043C360.823 85.3043 349.995 74.4537 349.995 55.8692V27.5883C349.995 23.5482 349.995 18.4691 349.653 14.6599C349.311 9.58087 348.513 7.04136 343.954 5.19445L344.296 2.30865C348.741 2.65494 351.819 2.65494 354.668 2.65494C357.518 2.65494 360.481 2.65494 364.927 2.30865L365.269 5.19445C360.595 7.1568 359.57 9.23458 359.456 14.6599C359.342 18.4691 359.114 23.5482 359.114 27.5883V55.6383C359.114 70.529 366.864 78.9556 379.745 78.9556C393.422 78.9556 402.655 69.8364 402.655 52.6371V27.5883C402.655 23.5482 402.655 18.4691 402.313 14.6599C401.857 9.23458 400.831 7.1568 396.158 5.19445L396.5 2.30865C400.034 2.53951 403.111 2.65494 405.733 2.65494C408.468 2.65494 411.204 2.65494 414.737 2.30865L415.079 5.19445C410.406 7.1568 409.494 9.23458 409.038 14.6599C408.696 18.4691 408.696 23.5482 408.696 27.5883Z" fill="#001D23"/>
<path d="M495.616 12.5821L465.183 85.3043H462.789L432.242 15.1216L430.76 58.4087C430.646 61.0636 430.532 64.4111 430.532 67.5278C430.532 73.5303 430.76 78.9556 436.915 80.8025L436.573 83.6883C433.04 83.4574 429.962 83.342 427.227 83.342C424.491 83.342 421.755 83.342 418.222 83.6883L417.88 80.8025C422.553 78.8401 423.579 76.7624 424.035 71.3371C424.377 67.5278 424.377 62.4488 424.605 58.4087L425.973 27.5883C426.087 24.9333 426.087 23.2019 426.087 21.0087C426.087 14.5445 425.973 7.38766 419.02 5.19445L419.362 2.30865C425.745 2.65494 430.418 2.65494 437.143 2.65494L465.867 69.6056L492.881 2.65494C499.15 2.65494 506.217 2.65494 510.662 2.30865L511.004 5.19445C506.331 7.04136 505.419 9.46544 505.077 14.6599C504.963 17.4303 504.849 21.0087 504.849 24.2408C504.849 25.5105 505.077 26.5494 505.647 58.4087C505.761 62.4488 505.761 67.5278 506.103 71.3371C506.103 76.7624 507.357 78.8401 512.03 80.8025L511.688 83.6883C507.243 83.342 504.393 83.342 501.543 83.342C498.694 83.342 495.616 83.342 491.171 83.6883L490.829 80.8025C496.642 79.3019 496.756 73.2994 496.756 67.7587C496.756 64.8729 496.756 61.2945 496.642 58.4087L495.616 12.5821Z" fill="#001D23"/>
<path d="M512.92 1.00591H519.485V2.27974H516.957V8.50151H515.448V2.27974H512.92V1.00591Z" fill="#001D23"/>
<path d="M525.709 4.57474L527.029 1.00591H529.203V8.50151H527.772V6.21704C527.772 4.81688 527.783 3.57463 527.816 2.50082C527.65 3.0272 527.451 3.60621 527.218 4.22733L525.62 8.50151H524.389L522.781 4.22733C522.493 3.4483 522.304 2.87981 522.193 2.52188C522.216 3.59568 522.238 4.8274 522.238 6.21704V8.50151H520.796V1.00591H522.97L524.334 4.64844C524.423 4.9011 524.644 5.57486 525.01 6.68025C525.243 5.90121 525.476 5.20639 525.709 4.57474Z" fill="#001D23"/>
<path d="M150.17 105.98C149.92 105.98 149.59 105.99 149.19 106.01L149.18 105.76C149.58 105.59 149.66 105.4 149.77 104.94C149.85 104.61 149.93 104.16 149.99 103.82L150.46 101.16C150.6 100.37 150.67 100.12 150.67 99.77C150.67 99.5 150.57 99.35 150.24 99.22L150.29 98.97C150.67 98.99 150.9 99 151.15 99C151.4 99 151.63 98.99 152.03 98.97L152.04 99.22C151.64 99.39 151.56 99.58 151.45 100.04C151.37 100.37 151.29 100.82 151.23 101.16L150.74 103.92C150.6 104.69 150.57 104.92 150.57 105.19C150.57 105.49 150.73 105.59 151.13 105.59C151.56 105.59 151.82 105.59 152.12 105.54C152.49 105.48 152.72 105.32 152.92 105.08C153.09 104.87 153.23 104.61 153.43 104.22L153.69 104.32C153.56 104.95 153.41 105.48 153.23 106.03C152.46 105.99 151.44 105.98 150.17 105.98ZM156.979 102.18C156.979 102.8 156.419 103.6 154.599 103.93C154.519 104.22 154.479 104.51 154.479 104.79C154.479 105.33 154.669 105.51 154.919 105.51C155.289 105.51 155.599 105.23 156.139 104.48L156.349 104.61C155.919 105.56 155.309 106.16 154.769 106.16C154.209 106.16 153.839 105.76 153.839 105.06C153.839 103.32 155.199 101.44 156.259 101.44C156.779 101.44 156.979 101.83 156.979 102.18ZM156.049 101.95C155.549 101.95 154.989 102.69 154.689 103.6C155.969 103.26 156.329 102.74 156.329 102.29C156.329 102.09 156.229 101.95 156.049 101.95ZM161.048 105.71C161.848 105.71 162.378 105.2 162.378 104.51C162.378 104.14 162.248 103.83 161.998 103.58C161.778 103.36 161.628 103.21 161.018 102.78C160.158 102.18 159.968 102.02 159.698 101.67C159.448 101.35 159.348 101.06 159.348 100.59C159.348 99.59 160.188 98.84 161.348 98.84C161.978 98.84 162.478 98.98 162.988 99.25C162.998 99.52 163.008 99.71 163.008 99.94C163.008 100.17 162.998 100.38 162.988 100.65L162.708 100.67C162.618 100.32 162.518 100.03 162.288 99.76C162.018 99.45 161.748 99.3 161.268 99.3C160.558 99.3 160.078 99.74 160.078 100.42C160.078 100.73 160.148 100.98 160.428 101.27C160.618 101.46 160.748 101.57 161.388 102.02C162.178 102.57 162.418 102.74 162.698 103.06C162.978 103.39 163.168 103.87 163.168 104.32C163.168 105.44 162.288 106.16 160.978 106.16C160.298 106.16 159.818 106.06 159.338 105.83C159.228 105.28 159.198 104.78 159.138 104.21L159.448 104.14C159.558 104.46 159.648 104.72 159.798 104.97C160.088 105.48 160.378 105.71 161.048 105.71ZM166.281 98.82H166.471L168.321 103.82C168.441 104.14 168.621 104.61 168.771 104.94C168.961 105.38 169.131 105.59 169.461 105.76L169.431 106.01C169.041 105.98 168.861 105.98 168.611 105.98C168.361 105.98 167.991 105.98 167.601 106.01L167.571 105.76C167.841 105.64 167.951 105.55 167.951 105.36C167.951 105.13 167.801 104.74 167.471 103.82L167.391 103.62H164.951L164.881 103.82C164.531 104.74 164.471 105.12 164.471 105.35C164.471 105.54 164.561 105.65 164.851 105.76L164.821 106.01C164.431 105.98 164.231 105.98 163.981 105.98C163.731 105.98 163.591 105.98 163.241 106.01L163.211 105.76C163.541 105.59 163.711 105.38 163.901 104.94C164.051 104.61 164.231 104.14 164.351 103.82L166.281 98.82ZM166.211 100.36L165.121 103.19H167.241L166.211 100.36ZM175.81 106.08L175.57 106.16L170.64 100.21V103.83C170.64 104.18 170.64 104.62 170.67 104.95C170.71 105.42 170.8 105.6 171.21 105.77L171.18 106.02C170.87 106 170.6 105.99 170.37 105.99C170.13 105.99 169.89 105.99 169.58 106.02L169.55 105.77C169.96 105.6 170.04 105.42 170.08 104.95C170.11 104.62 170.11 104.18 170.11 103.83V101.16C170.11 100.81 170.11 100.43 170.08 100.1C170.04 99.63 169.91 99.39 169.5 99.22L169.53 98.97C169.84 98.99 170.23 99 170.7 99L175.24 104.45V101.16C175.24 100.81 175.24 100.37 175.21 100.04C175.17 99.57 175.08 99.39 174.67 99.22L174.7 98.97C175.01 98.99 175.28 99 175.51 99C175.75 99 175.99 99 176.3 98.97L176.33 99.22C175.92 99.39 175.84 99.57 175.8 100.04C175.77 100.37 175.77 100.81 175.77 101.16V104.44C175.77 104.92 175.78 105.56 175.81 106.08ZM180.816 105.71C181.646 105.71 182.066 105.42 182.416 104.79C182.566 104.52 182.646 104.25 182.766 103.9L183.066 103.95C183.016 104.56 182.966 105.04 182.856 105.63C182.246 105.99 181.496 106.16 180.686 106.16C178.746 106.16 176.796 104.91 176.796 102.48C176.796 100.28 178.566 98.84 180.676 98.84C181.526 98.84 182.216 99.01 182.886 99.34C182.896 99.61 182.906 99.84 182.906 100.07C182.906 100.3 182.896 100.54 182.886 100.82L182.586 100.84C182.496 100.47 182.386 100.15 182.156 99.88C181.876 99.56 181.416 99.3 180.686 99.3C178.926 99.3 177.736 100.59 177.736 102.47C177.736 104.51 179.266 105.71 180.816 105.71ZM184.453 99H188.063C188.473 99 188.803 99 189.193 98.97C189.213 99.45 189.223 99.94 189.223 100.43L188.933 100.45C188.823 100.08 188.723 99.87 188.573 99.71C188.423 99.55 188.193 99.47 188.003 99.44C187.753 99.4 187.533 99.39 187.213 99.39C186.743 99.39 186.683 99.47 186.653 99.87C186.623 100.18 186.623 100.54 186.623 100.9V103.82C186.623 104.17 186.643 104.61 186.653 104.94C186.673 105.45 186.783 105.61 187.263 105.74L187.233 106.01C186.843 105.98 186.483 105.98 186.233 105.98C185.983 105.98 185.603 105.98 185.213 106.01L185.183 105.74C185.663 105.61 185.773 105.45 185.793 104.94C185.803 104.61 185.823 104.17 185.823 103.82V100.9C185.823 100.54 185.823 100.18 185.793 99.87C185.763 99.47 185.703 99.39 185.233 99.39C184.913 99.39 184.703 99.4 184.453 99.44C184.263 99.47 184.033 99.55 183.883 99.71C183.733 99.87 183.623 100.08 183.513 100.45L183.223 100.43C183.253 99.94 183.283 99.46 183.323 98.97C183.713 99 184.043 99 184.453 99ZM194.896 101.16V103.46C194.896 105.03 193.846 106.16 192.296 106.16C190.696 106.16 189.746 105.22 189.746 103.61V101.16C189.746 100.81 189.746 100.37 189.716 100.04C189.686 99.6 189.616 99.38 189.216 99.22L189.246 98.97C189.636 99 189.906 99 190.156 99C190.406 99 190.666 99 191.056 98.97L191.086 99.22C190.676 99.39 190.586 99.57 190.576 100.04C190.566 100.37 190.546 100.81 190.546 101.16V103.59C190.546 104.88 191.226 105.61 192.356 105.61C193.556 105.61 194.366 104.82 194.366 103.33V101.16C194.366 100.81 194.366 100.37 194.336 100.04C194.296 99.57 194.206 99.39 193.796 99.22L193.826 98.97C194.136 98.99 194.406 99 194.636 99C194.876 99 195.116 99 195.426 98.97L195.456 99.22C195.046 99.39 194.966 99.57 194.926 100.04C194.896 100.37 194.896 100.81 194.896 101.16ZM198.422 98.82H198.612L200.462 103.82C200.582 104.14 200.762 104.61 200.912 104.94C201.102 105.38 201.272 105.59 201.602 105.76L201.572 106.01C201.182 105.98 201.002 105.98 200.752 105.98C200.502 105.98 200.132 105.98 199.742 106.01L199.712 105.76C199.982 105.64 200.092 105.55 200.092 105.36C200.092 105.13 199.942 104.74 199.612 103.82L199.532 103.62H197.092L197.022 103.82C196.672 104.74 196.612 105.12 196.612 105.35C196.612 105.54 196.702 105.65 196.992 105.76L196.962 106.01C196.572 105.98 196.372 105.98 196.122 105.98C195.872 105.98 195.732 105.98 195.382 106.01L195.352 105.76C195.682 105.59 195.852 105.38 196.042 104.94C196.192 104.61 196.372 104.14 196.492 103.82L198.422 98.82ZM198.352 100.36L197.262 103.19H199.382L198.352 100.36ZM203.031 101.16V103.82C203.031 104.17 203.051 104.61 203.061 104.94C203.081 105.41 203.161 105.59 203.571 105.76L203.541 106.01C203.151 105.98 202.891 105.98 202.641 105.98C202.391 105.98 202.121 105.98 201.731 106.01L201.701 105.76C202.101 105.6 202.171 105.38 202.201 104.94C202.231 104.61 202.231 104.17 202.231 103.82V101.16C202.231 100.81 202.231 100.37 202.201 100.04C202.171 99.6 202.101 99.38 201.701 99.22L201.731 98.97C202.121 99 202.391 99 202.641 99C202.891 99 203.151 99 203.541 98.97L203.571 99.22C203.161 99.39 203.081 99.57 203.061 100.04C203.051 100.37 203.031 100.81 203.031 101.16ZM206.053 102.71C205.893 102.71 205.583 102.7 205.463 102.67V103.82C205.463 104.17 205.463 104.61 205.483 104.94C205.513 105.41 205.593 105.59 206.003 105.76L205.973 106.01C205.583 105.98 205.323 105.98 205.073 105.98C204.823 105.98 204.553 105.98 204.163 106.01L204.133 105.76C204.533 105.6 204.603 105.38 204.633 104.94C204.663 104.61 204.663 104.17 204.663 103.82V101.16C204.663 100.81 204.663 100.37 204.633 100.04C204.603 99.6 204.533 99.38 204.133 99.22L204.163 98.97C204.553 99 204.823 99 205.073 99C205.463 99 205.813 98.98 206.303 98.98C207.663 98.98 208.423 99.82 208.423 100.76C208.423 101.57 208.013 102.18 207.293 102.49C207.823 103.47 208.263 104.24 208.983 105.15C209.253 105.48 209.623 105.79 209.903 105.87V106.08C209.743 106.15 209.543 106.16 209.393 106.16C208.963 106.16 208.563 105.93 208.133 105.33C207.543 104.53 207.133 103.81 206.603 102.67C206.453 102.7 206.263 102.71 206.053 102.71ZM206.053 99.37C205.583 99.37 205.523 99.47 205.493 99.87C205.463 100.18 205.463 100.54 205.463 100.9V102.3C205.543 102.31 205.613 102.31 205.923 102.31C207.033 102.31 207.573 101.75 207.573 100.86C207.573 99.94 207.053 99.37 206.053 99.37ZM211.182 105.98C210.692 105.98 210.422 105.98 210.032 106.01L210.002 105.76C210.402 105.6 210.472 105.38 210.502 104.94C210.532 104.61 210.532 104.17 210.532 103.82V101.16C210.532 100.81 210.532 100.37 210.502 100.04C210.472 99.6 210.402 99.38 210.002 99.22L210.032 98.97C210.422 99 210.692 99 210.942 99H212.782C213.192 99 213.502 99 213.892 98.97C213.962 99.48 214.002 99.85 214.032 100.4L213.742 100.45C213.612 100.08 213.502 99.87 213.352 99.71C213.202 99.55 212.972 99.47 212.782 99.44C212.532 99.4 212.312 99.39 211.922 99.39C211.452 99.39 211.392 99.47 211.362 99.87C211.332 100.18 211.332 100.54 211.332 100.9V102.18C211.672 102.18 212.372 102.16 212.692 102.13C213.142 102.08 213.282 101.92 213.432 101.46L213.672 101.51C213.642 101.9 213.642 102.12 213.642 102.37C213.642 102.62 213.642 102.85 213.672 103.24L213.432 103.29C213.282 102.83 213.142 102.68 212.692 102.62C212.372 102.58 211.662 102.57 211.332 102.57V103.92C211.332 104.27 211.352 104.81 211.362 105.01C211.382 105.5 211.552 105.59 212.002 105.59C212.432 105.59 212.792 105.58 213.062 105.54C213.412 105.49 213.572 105.35 213.722 105.14C213.842 104.95 213.942 104.74 214.072 104.37L214.342 104.42C214.292 105.02 214.212 105.51 214.102 106.03C213.372 105.99 212.462 105.98 211.182 105.98ZM220.915 100.37L219.795 104.57C219.645 105.11 219.635 105.25 219.635 105.29C219.635 105.35 219.665 105.4 219.745 105.4C219.855 105.4 220.175 105.21 220.715 104.49L220.935 104.64C220.265 105.74 219.785 106.1 219.435 106.1C219.185 106.1 218.985 105.94 218.985 105.67C218.985 105.43 219.035 105.15 219.235 104.41C218.515 105.77 217.945 106.16 217.505 106.16C216.935 106.16 216.665 105.75 216.665 105.2C216.665 104.38 217.205 103.19 217.885 102.4C218.345 101.86 218.875 101.5 219.405 101.5C219.585 101.5 219.765 101.55 219.915 101.63L220.255 100.37C220.365 99.98 220.415 99.59 220.415 99.37C220.415 99.15 220.305 99.01 219.955 98.91L219.975 98.66C220.475 98.62 220.845 98.58 221.295 98.48L221.445 98.64C221.215 99.32 221.115 99.62 220.915 100.37ZM217.295 105.01C217.295 105.33 217.425 105.52 217.685 105.52C218.035 105.52 218.815 104.95 219.495 103.17C219.605 102.89 219.645 102.69 219.735 102.31C219.565 102.15 219.385 102.08 219.235 102.08C218.885 102.08 218.525 102.25 218.195 102.67C217.645 103.37 217.295 104.3 217.295 105.01ZM224.065 102.18C224.065 102.8 223.505 103.6 221.685 103.93C221.605 104.22 221.565 104.51 221.565 104.79C221.565 105.33 221.755 105.51 222.005 105.51C222.375 105.51 222.685 105.23 223.225 104.48L223.435 104.61C223.005 105.56 222.395 106.16 221.855 106.16C221.295 106.16 220.925 105.76 220.925 105.06C220.925 103.32 222.285 101.44 223.345 101.44C223.865 101.44 224.065 101.83 224.065 102.18ZM223.135 101.95C222.635 101.95 222.075 102.69 221.775 103.6C223.055 103.26 223.415 102.74 223.415 102.29C223.415 102.09 223.315 101.95 223.135 101.95ZM228.023 100.37L226.873 105.08C226.853 105.18 226.843 105.25 226.843 105.29C226.843 105.35 226.873 105.4 226.953 105.4C227.063 105.4 227.383 105.21 227.923 104.49L228.143 104.64C227.473 105.77 226.953 106.1 226.603 106.1C226.353 106.1 226.153 105.94 226.153 105.67C226.153 105.41 226.193 105.2 226.353 104.53L227.333 100.38C227.423 99.99 227.483 99.59 227.483 99.37C227.483 99.15 227.373 99.01 227.023 98.91L227.043 98.66C227.543 98.62 227.913 98.58 228.363 98.48L228.513 98.64C228.293 99.32 228.203 99.61 228.023 100.37ZM230.032 98.47C230.402 98.47 230.692 98.84 230.692 99.29C230.692 100.2 230.152 100.85 228.952 101.08L228.882 100.82C229.692 100.58 230.062 100.22 230.062 99.78C230.062 99.64 229.992 99.52 229.842 99.44C229.662 99.34 229.502 99.2 229.502 98.96C229.502 98.71 229.712 98.47 230.032 98.47ZM231.722 105.98C231.232 105.98 230.962 105.98 230.572 106.01L230.542 105.76C230.942 105.6 231.012 105.38 231.042 104.94C231.072 104.61 231.072 104.17 231.072 103.82V101.16C231.072 100.81 231.072 100.37 231.042 100.04C231.012 99.6 230.942 99.38 230.542 99.22L230.572 98.97C230.962 99 231.232 99 231.482 99H233.322C233.732 99 234.042 99 234.432 98.97C234.502 99.48 234.542 99.85 234.572 100.4L234.282 100.45C234.152 100.08 234.042 99.87 233.892 99.71C233.742 99.55 233.512 99.47 233.322 99.44C233.072 99.4 232.852 99.39 232.462 99.39C231.992 99.39 231.932 99.47 231.902 99.87C231.872 100.18 231.872 100.54 231.872 100.9V102.18C232.212 102.18 232.912 102.16 233.232 102.13C233.682 102.08 233.822 101.92 233.972 101.46L234.212 101.51C234.182 101.9 234.182 102.12 234.182 102.37C234.182 102.62 234.182 102.85 234.212 103.24L233.972 103.29C233.822 102.83 233.682 102.68 233.232 102.62C232.912 102.58 232.202 102.57 231.872 102.57V103.92C231.872 104.27 231.892 104.81 231.902 105.01C231.922 105.5 232.092 105.59 232.542 105.59C232.972 105.59 233.332 105.58 233.602 105.54C233.952 105.49 234.112 105.35 234.262 105.14C234.382 104.95 234.482 104.74 234.612 104.37L234.882 104.42C234.832 105.02 234.752 105.51 234.642 106.03C233.912 105.99 233.002 105.98 231.722 105.98ZM236.935 99.62C236.935 99.85 237.265 100.35 237.825 101.16L238.295 101.86L238.765 101.15C239.315 100.32 239.655 99.86 239.655 99.63C239.655 99.44 239.595 99.33 239.305 99.22L239.335 98.97C239.725 99 239.955 99 240.205 99C240.455 99 240.615 99 240.945 98.97L240.975 99.22C240.695 99.39 240.465 99.6 240.145 100.03C239.885 100.37 239.535 100.87 239.325 101.16L238.565 102.26L239.615 103.82C239.805 104.09 240.135 104.61 240.355 104.94C240.635 105.37 240.835 105.57 241.125 105.76L241.095 106.01C240.705 105.98 240.525 105.98 240.275 105.98C240.025 105.98 239.645 105.98 239.255 106.01L239.225 105.76C239.495 105.65 239.605 105.55 239.605 105.36C239.605 105.18 239.405 104.84 238.815 103.99L238.055 102.87L237.385 103.82C236.775 104.69 236.525 105.12 236.525 105.35C236.525 105.54 236.605 105.65 236.895 105.76L236.865 106.01C236.475 105.99 236.155 105.98 235.895 105.98C235.645 105.98 235.485 105.98 235.155 106.01L235.125 105.76C235.405 105.59 235.585 105.38 235.935 104.95C236.205 104.6 236.585 104.11 236.795 103.82L237.785 102.47L236.905 101.16C236.715 100.88 236.395 100.37 236.175 100.04C235.905 99.61 235.705 99.41 235.415 99.22L235.445 98.97C235.835 99 236.015 99 236.265 99C236.515 99 236.895 99 237.285 98.97L237.315 99.22C237.045 99.33 236.935 99.43 236.935 99.62ZM245.148 105.71C245.978 105.71 246.398 105.42 246.748 104.79C246.898 104.52 246.978 104.25 247.098 103.9L247.398 103.95C247.348 104.56 247.298 105.04 247.188 105.63C246.578 105.99 245.828 106.16 245.018 106.16C243.078 106.16 241.128 104.91 241.128 102.48C241.128 100.28 242.898 98.84 245.008 98.84C245.858 98.84 246.548 99.01 247.218 99.34C247.228 99.61 247.238 99.84 247.238 100.07C247.238 100.3 247.228 100.54 247.218 100.82L246.918 100.84C246.828 100.47 246.718 100.15 246.488 99.88C246.208 99.56 245.748 99.3 245.018 99.3C243.258 99.3 242.068 100.59 242.068 102.47C242.068 104.51 243.598 105.71 245.148 105.71ZM249.155 105.98C248.665 105.98 248.395 105.98 248.005 106.01L247.975 105.76C248.375 105.6 248.445 105.38 248.475 104.94C248.505 104.61 248.505 104.17 248.505 103.82V101.16C248.505 100.81 248.505 100.37 248.475 100.04C248.445 99.6 248.375 99.38 247.975 99.22L248.005 98.97C248.395 99 248.665 99 248.915 99H250.755C251.165 99 251.475 99 251.865 98.97C251.935 99.48 251.975 99.85 252.005 100.4L251.715 100.45C251.585 100.08 251.475 99.87 251.325 99.71C251.175 99.55 250.945 99.47 250.755 99.44C250.505 99.4 250.285 99.39 249.895 99.39C249.425 99.39 249.365 99.47 249.335 99.87C249.305 100.18 249.305 100.54 249.305 100.9V102.18C249.645 102.18 250.345 102.16 250.665 102.13C251.115 102.08 251.255 101.92 251.405 101.46L251.645 101.51C251.615 101.9 251.615 102.12 251.615 102.37C251.615 102.62 251.615 102.85 251.645 103.24L251.405 103.29C251.255 102.83 251.115 102.68 250.665 102.62C250.345 102.58 249.635 102.57 249.305 102.57V103.92C249.305 104.27 249.325 104.81 249.335 105.01C249.355 105.5 249.525 105.59 249.975 105.59C250.405 105.59 250.765 105.58 251.035 105.54C251.385 105.49 251.545 105.35 251.695 105.14C251.815 104.95 251.915 104.74 252.045 104.37L252.315 104.42C252.265 105.02 252.185 105.51 252.075 106.03C251.345 105.99 250.435 105.98 249.155 105.98ZM254.208 101.16V103.92C254.208 104.27 254.218 104.81 254.238 105.01C254.288 105.5 254.428 105.59 254.878 105.59C255.308 105.59 255.608 105.59 255.898 105.54C256.258 105.47 256.448 105.31 256.598 105.08C256.728 104.89 256.838 104.66 256.968 104.27L257.258 104.32C257.208 104.96 257.118 105.47 257.008 106.03C256.218 105.99 255.338 105.98 254.058 105.98C253.568 105.98 253.298 105.98 252.908 106.01L252.878 105.76C253.278 105.6 253.348 105.38 253.378 104.94C253.408 104.61 253.408 104.17 253.408 103.82V101.16C253.408 100.81 253.408 100.37 253.378 100.04C253.348 99.6 253.278 99.38 252.878 99.22L252.908 98.97C253.298 99 253.568 99 253.798 99C254.048 99 254.318 99 254.708 98.97L254.738 99.22C254.338 99.38 254.268 99.6 254.238 100.04C254.208 100.37 254.208 100.81 254.208 101.16ZM258.847 101.16V103.92C258.847 104.27 258.857 104.81 258.877 105.01C258.927 105.5 259.067 105.59 259.517 105.59C259.947 105.59 260.247 105.59 260.537 105.54C260.897 105.47 261.087 105.31 261.237 105.08C261.367 104.89 261.477 104.66 261.607 104.27L261.897 104.32C261.847 104.96 261.757 105.47 261.647 106.03C260.857 105.99 259.977 105.98 258.697 105.98C258.207 105.98 257.937 105.98 257.547 106.01L257.517 105.76C257.917 105.6 257.987 105.38 258.017 104.94C258.047 104.61 258.047 104.17 258.047 103.82V101.16C258.047 100.81 258.047 100.37 258.017 100.04C257.987 99.6 257.917 99.38 257.517 99.22L257.547 98.97C257.937 99 258.207 99 258.437 99C258.687 99 258.957 99 259.347 98.97L259.377 99.22C258.977 99.38 258.907 99.6 258.877 100.04C258.847 100.37 258.847 100.81 258.847 101.16ZM263.336 105.98C262.846 105.98 262.576 105.98 262.186 106.01L262.156 105.76C262.556 105.6 262.626 105.38 262.656 104.94C262.686 104.61 262.686 104.17 262.686 103.82V101.16C262.686 100.81 262.686 100.37 262.656 100.04C262.626 99.6 262.556 99.38 262.156 99.22L262.186 98.97C262.576 99 262.846 99 263.096 99H264.936C265.346 99 265.656 99 266.046 98.97C266.116 99.48 266.156 99.85 266.186 100.4L265.896 100.45C265.766 100.08 265.656 99.87 265.506 99.71C265.356 99.55 265.126 99.47 264.936 99.44C264.686 99.4 264.466 99.39 264.076 99.39C263.606 99.39 263.546 99.47 263.516 99.87C263.486 100.18 263.486 100.54 263.486 100.9V102.18C263.826 102.18 264.526 102.16 264.846 102.13C265.296 102.08 265.436 101.92 265.586 101.46L265.826 101.51C265.796 101.9 265.796 102.12 265.796 102.37C265.796 102.62 265.796 102.85 265.826 103.24L265.586 103.29C265.436 102.83 265.296 102.68 264.846 102.62C264.526 102.58 263.816 102.57 263.486 102.57V103.92C263.486 104.27 263.506 104.81 263.516 105.01C263.536 105.5 263.706 105.59 264.156 105.59C264.586 105.59 264.946 105.58 265.216 105.54C265.566 105.49 265.726 105.35 265.876 105.14C265.996 104.95 266.096 104.74 266.226 104.37L266.496 104.42C266.446 105.02 266.366 105.51 266.256 106.03C265.526 105.99 264.616 105.98 263.336 105.98ZM273.309 106.08L273.069 106.16L268.139 100.21V103.83C268.139 104.18 268.139 104.62 268.169 104.95C268.209 105.42 268.299 105.6 268.709 105.77L268.679 106.02C268.369 106 268.099 105.99 267.869 105.99C267.629 105.99 267.389 105.99 267.079 106.02L267.049 105.77C267.459 105.6 267.539 105.42 267.579 104.95C267.609 104.62 267.609 104.18 267.609 103.83V101.16C267.609 100.81 267.609 100.43 267.579 100.1C267.539 99.63 267.409 99.39 266.999 99.22L267.029 98.97C267.339 98.99 267.729 99 268.199 99L272.739 104.45V101.16C272.739 100.81 272.739 100.37 272.709 100.04C272.669 99.57 272.579 99.39 272.169 99.22L272.199 98.97C272.509 98.99 272.779 99 273.009 99C273.249 99 273.489 99 273.799 98.97L273.829 99.22C273.419 99.39 273.339 99.57 273.299 100.04C273.269 100.37 273.269 100.81 273.269 101.16V104.44C273.269 104.92 273.279 105.56 273.309 106.08ZM278.314 105.71C279.144 105.71 279.564 105.42 279.914 104.79C280.064 104.52 280.144 104.25 280.264 103.9L280.564 103.95C280.514 104.56 280.464 105.04 280.354 105.63C279.744 105.99 278.994 106.16 278.184 106.16C276.244 106.16 274.294 104.91 274.294 102.48C274.294 100.28 276.064 98.84 278.174 98.84C279.024 98.84 279.714 99.01 280.384 99.34C280.394 99.61 280.404 99.84 280.404 100.07C280.404 100.3 280.394 100.54 280.384 100.82L280.084 100.84C279.994 100.47 279.884 100.15 279.654 99.88C279.374 99.56 278.914 99.3 278.184 99.3C276.424 99.3 275.234 100.59 275.234 102.47C275.234 104.51 276.764 105.71 278.314 105.71ZM282.321 105.98C281.831 105.98 281.561 105.98 281.171 106.01L281.141 105.76C281.541 105.6 281.611 105.38 281.641 104.94C281.671 104.61 281.671 104.17 281.671 103.82V101.16C281.671 100.81 281.671 100.37 281.641 100.04C281.611 99.6 281.541 99.38 281.141 99.22L281.171 98.97C281.561 99 281.831 99 282.081 99H283.921C284.331 99 284.641 99 285.031 98.97C285.101 99.48 285.141 99.85 285.171 100.4L284.881 100.45C284.751 100.08 284.641 99.87 284.491 99.71C284.341 99.55 284.111 99.47 283.921 99.44C283.671 99.4 283.451 99.39 283.061 99.39C282.591 99.39 282.531 99.47 282.501 99.87C282.471 100.18 282.471 100.54 282.471 100.9V102.18C282.811 102.18 283.511 102.16 283.831 102.13C284.281 102.08 284.421 101.92 284.571 101.46L284.811 101.51C284.781 101.9 284.781 102.12 284.781 102.37C284.781 102.62 284.781 102.85 284.811 103.24L284.571 103.29C284.421 102.83 284.281 102.68 283.831 102.62C283.511 102.58 282.801 102.57 282.471 102.57V103.92C282.471 104.27 282.491 104.81 282.501 105.01C282.521 105.5 282.691 105.59 283.141 105.59C283.571 105.59 283.931 105.58 284.201 105.54C284.551 105.49 284.711 105.35 284.861 105.14C284.981 104.95 285.081 104.74 285.211 104.37L285.481 104.42C285.431 105.02 285.351 105.51 285.241 106.03C284.511 105.99 283.601 105.98 282.321 105.98ZM291.004 102.18C291.004 102.8 290.444 103.6 288.624 103.93C288.544 104.22 288.504 104.51 288.504 104.79C288.504 105.33 288.694 105.51 288.944 105.51C289.314 105.51 289.624 105.23 290.164 104.48L290.374 104.61C289.944 105.56 289.334 106.16 288.794 106.16C288.234 106.16 287.864 105.76 287.864 105.06C287.864 103.32 289.224 101.44 290.284 101.44C290.804 101.44 291.004 101.83 291.004 102.18ZM290.074 101.95C289.574 101.95 289.014 102.69 288.714 103.6C289.994 103.26 290.354 102.74 290.354 102.29C290.354 102.09 290.254 101.95 290.074 101.95ZM291.133 101.78L291.953 101.74C292.043 101.36 292.093 101.05 292.153 100.76C292.243 100.7 292.343 100.67 292.463 100.67C292.573 100.67 292.713 100.72 292.813 100.85L292.593 101.69L293.483 101.64L293.563 101.8L293.433 102.17H292.463L291.753 104.91C291.703 105.12 291.683 105.24 291.683 105.31C291.683 105.39 291.733 105.45 291.823 105.45C291.973 105.45 292.223 105.33 292.783 104.55L293.003 104.71C292.333 105.84 291.953 106.1 291.583 106.1C291.273 106.1 291.043 105.92 291.043 105.55C291.043 105.31 291.093 105.08 291.223 104.58L291.833 102.17H291.113L291.133 101.78ZM299.458 100.37L298.338 104.57C298.188 105.11 298.178 105.25 298.178 105.29C298.178 105.35 298.208 105.4 298.288 105.4C298.398 105.4 298.718 105.21 299.258 104.49L299.478 104.64C298.808 105.74 298.328 106.1 297.978 106.1C297.728 106.1 297.528 105.94 297.528 105.67C297.528 105.43 297.578 105.15 297.778 104.41C297.058 105.77 296.488 106.16 296.048 106.16C295.478 106.16 295.208 105.75 295.208 105.2C295.208 104.38 295.748 103.19 296.428 102.4C296.888 101.86 297.418 101.5 297.948 101.5C298.128 101.5 298.308 101.55 298.458 101.63L298.798 100.37C298.908 99.98 298.958 99.59 298.958 99.37C298.958 99.15 298.848 99.01 298.498 98.91L298.518 98.66C299.018 98.62 299.388 98.58 299.838 98.48L299.988 98.64C299.758 99.32 299.658 99.62 299.458 100.37ZM295.838 105.01C295.838 105.33 295.968 105.52 296.228 105.52C296.578 105.52 297.358 104.95 298.038 103.17C298.148 102.89 298.188 102.69 298.278 102.31C298.108 102.15 297.928 102.08 297.778 102.08C297.428 102.08 297.068 102.25 296.738 102.67C296.188 103.37 295.838 104.3 295.838 105.01ZM302.607 102.18C302.607 102.8 302.047 103.6 300.227 103.93C300.147 104.22 300.107 104.51 300.107 104.79C300.107 105.33 300.297 105.51 300.547 105.51C300.917 105.51 301.227 105.23 301.767 104.48L301.977 104.61C301.547 105.56 300.937 106.16 300.397 106.16C299.837 106.16 299.467 105.76 299.467 105.06C299.467 103.32 300.827 101.44 301.887 101.44C302.407 101.44 302.607 101.83 302.607 102.18ZM301.677 101.95C301.177 101.95 300.617 102.69 300.317 103.6C301.597 103.26 301.957 102.74 301.957 102.29C301.957 102.09 301.857 101.95 301.677 101.95ZM306.566 100.37L305.416 105.08C305.396 105.18 305.386 105.25 305.386 105.29C305.386 105.35 305.416 105.4 305.496 105.4C305.606 105.4 305.926 105.21 306.466 104.49L306.686 104.64C306.016 105.77 305.496 106.1 305.146 106.1C304.896 106.1 304.696 105.94 304.696 105.67C304.696 105.41 304.736 105.2 304.896 104.53L305.876 100.38C305.966 99.99 306.026 99.59 306.026 99.37C306.026 99.15 305.916 99.01 305.566 98.91L305.586 98.66C306.086 98.62 306.456 98.58 306.906 98.48L307.056 98.64C306.836 99.32 306.746 99.61 306.566 100.37ZM307.275 105.03C307.275 105.35 307.405 105.52 307.615 105.52C307.955 105.52 308.705 104.88 309.245 103.53C309.385 103.17 309.455 102.95 309.555 102.57C309.435 102.26 309.245 102.06 309.015 102.06C308.755 102.06 308.445 102.24 308.125 102.67C307.595 103.37 307.275 104.29 307.275 105.03ZM306.635 105.22C306.635 104.4 307.155 103.2 307.815 102.41C308.265 101.87 308.745 101.5 309.195 101.5C309.515 101.5 309.705 101.63 309.875 101.84L310.105 101.43C310.245 101.43 310.455 101.52 310.565 101.64C310.345 102.24 310.155 102.79 309.955 103.41C309.785 103.95 309.635 104.51 309.545 104.83C309.465 105.12 309.445 105.27 309.445 105.36C309.445 105.43 309.475 105.46 309.535 105.46C309.705 105.46 309.915 105.31 310.415 104.61L310.635 104.76C310.085 105.75 309.625 106.12 309.235 106.12C308.985 106.12 308.815 105.97 308.815 105.67C308.815 105.45 308.905 105.03 309.055 104.56C308.355 105.74 307.845 106.16 307.415 106.16C306.915 106.16 306.635 105.77 306.635 105.22ZM315.019 99.37C314.549 99.37 314.489 99.47 314.459 99.87C314.429 100.18 314.429 100.54 314.429 100.9V103.82C314.429 104.17 314.429 104.61 314.449 104.94C314.479 105.41 314.559 105.59 314.969 105.76L314.939 106.01C314.549 105.98 314.289 105.98 314.039 105.98C313.789 105.98 313.519 105.98 313.129 106.01L313.099 105.76C313.499 105.6 313.569 105.38 313.599 104.94C313.629 104.61 313.629 104.17 313.629 103.82V101.16C313.629 100.81 313.629 100.37 313.599 100.04C313.569 99.6 313.499 99.38 313.099 99.22L313.129 98.97C313.519 99 313.789 99 314.039 99C314.429 99 314.809 98.98 315.399 98.98C316.629 98.98 317.589 99.72 317.589 100.84C317.589 102.04 316.629 102.81 315.319 102.81C315.169 102.81 315.029 102.79 314.909 102.76L314.929 102.45C316.159 102.45 316.749 101.85 316.749 100.88C316.749 99.85 316.049 99.37 315.019 99.37ZM319.064 105.98C318.574 105.98 318.304 105.98 317.914 106.01L317.884 105.76C318.284 105.6 318.354 105.38 318.384 104.94C318.414 104.61 318.414 104.17 318.414 103.82V101.16C318.414 100.81 318.414 100.37 318.384 100.04C318.354 99.6 318.284 99.38 317.884 99.22L317.914 98.97C318.304 99 318.574 99 318.824 99H320.664C321.074 99 321.384 99 321.774 98.97C321.844 99.48 321.884 99.85 321.914 100.4L321.624 100.45C321.494 100.08 321.384 99.87 321.234 99.71C321.084 99.55 320.854 99.47 320.664 99.44C320.414 99.4 320.194 99.39 319.804 99.39C319.334 99.39 319.274 99.47 319.244 99.87C319.214 100.18 319.214 100.54 319.214 100.9V102.18C319.554 102.18 320.254 102.16 320.574 102.13C321.024 102.08 321.164 101.92 321.314 101.46L321.554 101.51C321.524 101.9 321.524 102.12 321.524 102.37C321.524 102.62 321.524 102.85 321.554 103.24L321.314 103.29C321.164 102.83 321.024 102.68 320.574 102.62C320.254 102.58 319.544 102.57 319.214 102.57V103.92C319.214 104.27 319.234 104.81 319.244 105.01C319.264 105.5 319.434 105.59 319.884 105.59C320.314 105.59 320.674 105.58 320.944 105.54C321.294 105.49 321.454 105.35 321.604 105.14C321.724 104.95 321.824 104.74 321.954 104.37L322.224 104.42C322.174 105.02 322.094 105.51 321.984 106.03C321.254 105.99 320.344 105.98 319.064 105.98ZM324.707 102.71C324.547 102.71 324.237 102.7 324.117 102.67V103.82C324.117 104.17 324.117 104.61 324.137 104.94C324.167 105.41 324.247 105.59 324.657 105.76L324.627 106.01C324.237 105.98 323.977 105.98 323.727 105.98C323.477 105.98 323.207 105.98 322.817 106.01L322.787 105.76C323.187 105.6 323.257 105.38 323.287 104.94C323.317 104.61 323.317 104.17 323.317 103.82V101.16C323.317 100.81 323.317 100.37 323.287 100.04C323.257 99.6 323.187 99.38 322.787 99.22L322.817 98.97C323.207 99 323.477 99 323.727 99C324.117 99 324.467 98.98 324.957 98.98C326.317 98.98 327.077 99.82 327.077 100.76C327.077 101.57 326.667 102.18 325.947 102.49C326.477 103.47 326.917 104.24 327.637 105.15C327.907 105.48 328.277 105.79 328.557 105.87V106.08C328.397 106.15 328.197 106.16 328.047 106.16C327.617 106.16 327.217 105.93 326.787 105.33C326.197 104.53 325.787 103.81 325.257 102.67C325.107 102.7 324.917 102.71 324.707 102.71ZM324.707 99.37C324.237 99.37 324.177 99.47 324.147 99.87C324.117 100.18 324.117 100.54 324.117 100.9V102.3C324.197 102.31 324.267 102.31 324.577 102.31C325.687 102.31 326.227 101.75 326.227 100.86C326.227 99.94 325.707 99.37 324.707 99.37ZM330.497 105.71C331.297 105.71 331.827 105.2 331.827 104.51C331.827 104.14 331.697 103.83 331.447 103.58C331.227 103.36 331.077 103.21 330.467 102.78C329.607 102.18 329.417 102.02 329.147 101.67C328.897 101.35 328.797 101.06 328.797 100.59C328.797 99.59 329.637 98.84 330.797 98.84C331.427 98.84 331.927 98.98 332.437 99.25C332.447 99.52 332.457 99.71 332.457 99.94C332.457 100.17 332.447 100.38 332.437 100.65L332.157 100.67C332.067 100.32 331.967 100.03 331.737 99.76C331.467 99.45 331.197 99.3 330.717 99.3C330.007 99.3 329.527 99.74 329.527 100.42C329.527 100.73 329.597 100.98 329.877 101.27C330.067 101.46 330.197 101.57 330.837 102.02C331.627 102.57 331.867 102.74 332.147 103.06C332.427 103.39 332.617 103.87 332.617 104.32C332.617 105.44 331.737 106.16 330.427 106.16C329.747 106.16 329.267 106.06 328.787 105.83C328.677 105.28 328.647 104.78 328.587 104.21L328.897 104.14C329.007 104.46 329.097 104.72 329.247 104.97C329.537 105.48 329.827 105.71 330.497 105.71ZM334.3 105.98C333.81 105.98 333.54 105.98 333.15 106.01L333.12 105.76C333.52 105.6 333.59 105.38 333.62 104.94C333.65 104.61 333.65 104.17 333.65 103.82V101.16C333.65 100.81 333.65 100.37 333.62 100.04C333.59 99.6 333.52 99.38 333.12 99.22L333.15 98.97C333.54 99 333.81 99 334.06 99H335.9C336.31 99 336.62 99 337.01 98.97C337.08 99.48 337.12 99.85 337.15 100.4L336.86 100.45C336.73 100.08 336.62 99.87 336.47 99.71C336.32 99.55 336.09 99.47 335.9 99.44C335.65 99.4 335.43 99.39 335.04 99.39C334.57 99.39 334.51 99.47 334.48 99.87C334.45 100.18 334.45 100.54 334.45 100.9V102.18C334.79 102.18 335.49 102.16 335.81 102.13C336.26 102.08 336.4 101.92 336.55 101.46L336.79 101.51C336.76 101.9 336.76 102.12 336.76 102.37C336.76 102.62 336.76 102.85 336.79 103.24L336.55 103.29C336.4 102.83 336.26 102.68 335.81 102.62C335.49 102.58 334.78 102.57 334.45 102.57V103.92C334.45 104.27 334.47 104.81 334.48 105.01C334.5 105.5 334.67 105.59 335.12 105.59C335.55 105.59 335.91 105.58 336.18 105.54C336.53 105.49 336.69 105.35 336.84 105.14C336.96 104.95 337.06 104.74 337.19 104.37L337.46 104.42C337.41 105.02 337.33 105.51 337.22 106.03C336.49 105.99 335.58 105.98 334.3 105.98ZM340.693 106.16H340.493L338.683 101.16C338.563 100.84 338.393 100.37 338.243 100.04C338.053 99.6 337.893 99.39 337.563 99.22L337.593 98.97C337.983 99 338.163 99 338.413 99C338.663 99 339.033 99 339.423 98.97L339.453 99.22C339.183 99.34 339.083 99.43 339.083 99.62C339.083 99.85 339.213 100.24 339.533 101.16L340.753 104.62L342.033 101.16C342.373 100.24 342.443 99.87 342.443 99.63C342.443 99.44 342.353 99.33 342.063 99.22L342.093 98.97C342.483 99 342.693 99 342.943 99C343.193 99 343.353 99 343.683 98.97L343.713 99.22C343.383 99.39 343.213 99.6 343.023 100.04C342.873 100.37 342.693 100.84 342.573 101.16L340.693 106.16ZM344.994 105.98C344.504 105.98 344.234 105.98 343.844 106.01L343.814 105.76C344.214 105.6 344.284 105.38 344.314 104.94C344.344 104.61 344.344 104.17 344.344 103.82V101.16C344.344 100.81 344.344 100.37 344.314 100.04C344.284 99.6 344.214 99.38 343.814 99.22L343.844 98.97C344.234 99 344.504 99 344.754 99H346.594C347.004 99 347.314 99 347.704 98.97C347.774 99.48 347.814 99.85 347.844 100.4L347.554 100.45C347.424 100.08 347.314 99.87 347.164 99.71C347.014 99.55 346.784 99.47 346.594 99.44C346.344 99.4 346.124 99.39 345.734 99.39C345.264 99.39 345.204 99.47 345.174 99.87C345.144 100.18 345.144 100.54 345.144 100.9V102.18C345.484 102.18 346.184 102.16 346.504 102.13C346.954 102.08 347.094 101.92 347.244 101.46L347.484 101.51C347.454 101.9 347.454 102.12 347.454 102.37C347.454 102.62 347.454 102.85 347.484 103.24L347.244 103.29C347.094 102.83 346.954 102.68 346.504 102.62C346.184 102.58 345.474 102.57 345.144 102.57V103.92C345.144 104.27 345.164 104.81 345.174 105.01C345.194 105.5 345.364 105.59 345.814 105.59C346.244 105.59 346.604 105.58 346.874 105.54C347.224 105.49 347.384 105.35 347.534 105.14C347.654 104.95 347.754 104.74 347.884 104.37L348.154 104.42C348.104 105.02 348.024 105.51 347.914 106.03C347.184 105.99 346.274 105.98 344.994 105.98ZM350.637 102.71C350.477 102.71 350.167 102.7 350.047 102.67V103.82C350.047 104.17 350.047 104.61 350.067 104.94C350.097 105.41 350.177 105.59 350.587 105.76L350.557 106.01C350.167 105.98 349.907 105.98 349.657 105.98C349.407 105.98 349.137 105.98 348.747 106.01L348.717 105.76C349.117 105.6 349.187 105.38 349.217 104.94C349.247 104.61 349.247 104.17 349.247 103.82V101.16C349.247 100.81 349.247 100.37 349.217 100.04C349.187 99.6 349.117 99.38 348.717 99.22L348.747 98.97C349.137 99 349.407 99 349.657 99C350.047 99 350.397 98.98 350.887 98.98C352.247 98.98 353.007 99.82 353.007 100.76C353.007 101.57 352.597 102.18 351.877 102.49C352.407 103.47 352.847 104.24 353.567 105.15C353.837 105.48 354.207 105.79 354.487 105.87V106.08C354.327 106.15 354.127 106.16 353.977 106.16C353.547 106.16 353.147 105.93 352.717 105.33C352.127 104.53 351.717 103.81 351.187 102.67C351.037 102.7 350.847 102.71 350.637 102.71ZM350.637 99.37C350.167 99.37 350.107 99.47 350.077 99.87C350.047 100.18 350.047 100.54 350.047 100.9V102.3C350.127 102.31 350.197 102.31 350.507 102.31C351.617 102.31 352.157 101.75 352.157 100.86C352.157 99.94 351.637 99.37 350.637 99.37ZM357.597 98.82H357.787L359.637 103.82C359.757 104.14 359.937 104.61 360.087 104.94C360.277 105.38 360.447 105.59 360.777 105.76L360.747 106.01C360.357 105.98 360.177 105.98 359.927 105.98C359.677 105.98 359.307 105.98 358.917 106.01L358.887 105.76C359.157 105.64 359.267 105.55 359.267 105.36C359.267 105.13 359.117 104.74 358.787 103.82L358.707 103.62H356.267L356.197 103.82C355.847 104.74 355.787 105.12 355.787 105.35C355.787 105.54 355.877 105.65 356.167 105.76L356.137 106.01C355.747 105.98 355.547 105.98 355.297 105.98C355.047 105.98 354.907 105.98 354.557 106.01L354.527 105.76C354.857 105.59 355.027 105.38 355.217 104.94C355.367 104.61 355.547 104.14 355.667 103.82L357.597 98.82ZM357.527 100.36L356.437 103.19H358.557L357.527 100.36ZM367.126 106.08L366.886 106.16L361.956 100.21V103.83C361.956 104.18 361.956 104.62 361.986 104.95C362.026 105.42 362.116 105.6 362.526 105.77L362.496 106.02C362.186 106 361.916 105.99 361.686 105.99C361.446 105.99 361.206 105.99 360.896 106.02L360.866 105.77C361.276 105.6 361.356 105.42 361.396 104.95C361.426 104.62 361.426 104.18 361.426 103.83V101.16C361.426 100.81 361.426 100.43 361.396 100.1C361.356 99.63 361.226 99.39 360.816 99.22L360.846 98.97C361.156 98.99 361.546 99 362.016 99L366.556 104.45V101.16C366.556 100.81 366.556 100.37 366.526 100.04C366.486 99.57 366.396 99.39 365.986 99.22L366.016 98.97C366.326 98.99 366.596 99 366.826 99C367.066 99 367.306 99 367.616 98.97L367.646 99.22C367.236 99.39 367.156 99.57 367.116 100.04C367.086 100.37 367.086 100.81 367.086 101.16V104.44C367.086 104.92 367.096 105.56 367.126 106.08ZM372.131 105.71C372.961 105.71 373.381 105.42 373.731 104.79C373.881 104.52 373.961 104.25 374.081 103.9L374.381 103.95C374.331 104.56 374.281 105.04 374.171 105.63C373.561 105.99 372.811 106.16 372.001 106.16C370.061 106.16 368.111 104.91 368.111 102.48C368.111 100.28 369.881 98.84 371.991 98.84C372.841 98.84 373.531 99.01 374.201 99.34C374.211 99.61 374.221 99.84 374.221 100.07C374.221 100.3 374.211 100.54 374.201 100.82L373.901 100.84C373.811 100.47 373.701 100.15 373.471 99.88C373.191 99.56 372.731 99.3 372.001 99.3C370.241 99.3 369.051 100.59 369.051 102.47C369.051 104.51 370.581 105.71 372.131 105.71ZM376.139 105.98C375.649 105.98 375.379 105.98 374.989 106.01L374.959 105.76C375.359 105.6 375.429 105.38 375.459 104.94C375.489 104.61 375.489 104.17 375.489 103.82V101.16C375.489 100.81 375.489 100.37 375.459 100.04C375.429 99.6 375.359 99.38 374.959 99.22L374.989 98.97C375.379 99 375.649 99 375.899 99H377.739C378.149 99 378.459 99 378.849 98.97C378.919 99.48 378.959 99.85 378.989 100.4L378.699 100.45C378.569 100.08 378.459 99.87 378.309 99.71C378.159 99.55 377.929 99.47 377.739 99.44C377.489 99.4 377.269 99.39 376.879 99.39C376.409 99.39 376.349 99.47 376.319 99.87C376.289 100.18 376.289 100.54 376.289 100.9V102.18C376.629 102.18 377.329 102.16 377.649 102.13C378.099 102.08 378.239 101.92 378.389 101.46L378.629 101.51C378.599 101.9 378.599 102.12 378.599 102.37C378.599 102.62 378.599 102.85 378.629 103.24L378.389 103.29C378.239 102.83 378.099 102.68 377.649 102.62C377.329 102.58 376.619 102.57 376.289 102.57V103.92C376.289 104.27 376.309 104.81 376.319 105.01C376.339 105.5 376.509 105.59 376.959 105.59C377.389 105.59 377.749 105.58 378.019 105.54C378.369 105.49 378.529 105.35 378.679 105.14C378.799 104.95 378.899 104.74 379.029 104.37L379.299 104.42C379.249 105.02 379.169 105.51 379.059 106.03C378.329 105.99 377.419 105.98 376.139 105.98Z" fill="#001D23"/>
</svg>
