<svg width="339" height="144" viewBox="0 0 339 144" fill="none" xmlns="http://www.w3.org/2000/svg">
<path fill-rule="evenodd" clip-rule="evenodd" d="M142.836 105.832C144.686 105.415 147.49 104.951 150.219 104.951C151.065 104.951 151.869 104.983 152.625 105.047C153.413 103.793 154.42 103 155.788 103C158.655 103 160.068 106.453 160.498 110.862C160.929 106.452 162.342 103 165.21 103C166.578 103 167.585 103.794 168.373 105.047C169.129 104.984 169.933 104.951 170.78 104.951C173.51 104.951 176.314 105.415 178.164 105.832L178.168 105.836C178.585 107.686 179.049 110.49 179.049 113.22C179.049 114.066 179.016 114.87 178.953 115.626C180.206 116.414 181 117.421 181 118.789C181 121.66 177.538 123.073 173.119 123.502C177.538 123.93 181 125.343 181 128.214C181 129.582 180.207 130.589 178.953 131.376C179.017 132.132 179.049 132.936 179.049 133.782C179.049 136.511 178.585 139.315 178.168 141.165L178.165 141.168C176.315 141.585 173.511 142.049 170.781 142.049C169.935 142.049 169.131 142.017 168.375 141.953C167.588 143.207 166.581 144 165.212 144C162.345 144 160.932 140.547 160.502 136.138C160.071 140.548 158.658 144 155.791 144C154.422 144 153.415 143.206 152.628 141.953C151.871 142.016 151.067 142.049 150.221 142.049C147.491 142.049 144.686 141.585 142.836 141.168L142.832 141.164C142.415 139.314 141.952 136.51 141.952 133.78C141.952 132.934 141.984 132.13 142.048 131.374C140.794 130.586 140 129.579 140 128.211C140 125.34 143.462 123.927 147.881 123.498C143.463 123.07 140 121.657 140 118.786C140 117.418 140.794 116.411 142.047 115.624C141.984 114.868 141.951 114.064 141.951 113.218C141.951 110.489 142.415 107.685 142.832 105.835L142.836 105.832ZM160.155 113.174C160.155 116.813 159.521 119.292 158.137 121.135C156.294 122.52 153.814 123.153 150.175 123.153C148.406 123.153 146.937 122.979 145.768 122.659C149.035 119.83 150.215 118.515 151.232 114.231C155.517 113.214 156.832 112.034 159.661 108.768C159.981 109.937 160.155 111.405 160.155 113.174ZM150.008 113.007C150.078 112.711 150.148 112.414 150.219 112.117C150.798 109.683 151.412 107.237 152.365 105.492C151.916 105.459 151.436 105.442 150.924 105.442C148.313 105.442 146.008 105.875 144.252 107.252C142.876 109.008 142.442 111.312 142.442 113.923C142.442 114.434 142.459 114.914 142.493 115.364C144.238 114.411 146.684 113.797 149.118 113.218C149.415 113.147 149.712 113.077 150.008 113.007ZM151.531 111.529C152.16 108.757 152.893 105.526 154.179 104.608C157.106 102.519 158.973 106.027 157.839 108.729C156.705 111.43 154.424 112.551 151.173 113.071C151.291 112.588 151.409 112.067 151.531 111.529ZM148.53 114.53C145.757 115.159 142.527 115.892 141.609 117.178C139.519 120.105 143.028 121.971 145.729 120.837C148.431 119.703 149.552 117.422 150.072 114.172C149.591 114.289 149.074 114.407 148.539 114.528L148.53 114.53ZM160.846 133.826C160.846 130.187 161.479 127.708 162.863 125.865C164.706 124.48 167.186 123.847 170.825 123.847C172.595 123.847 174.063 124.021 175.232 124.341C171.965 127.17 170.785 128.485 169.768 132.769C165.484 133.786 164.169 134.966 161.339 138.232C161.019 137.063 160.846 135.595 160.846 133.826ZM171.883 133.782C171.585 133.853 171.288 133.923 170.992 133.993L170.824 134.703L170.781 134.883C170.202 137.317 169.588 139.763 168.635 141.508C169.085 141.541 169.565 141.558 170.077 141.558C172.688 141.558 174.992 141.125 176.748 139.748C178.125 137.992 178.558 135.688 178.558 133.077C178.558 132.566 178.541 132.086 178.508 131.636C176.763 132.589 174.316 133.203 171.883 133.782ZM169.469 135.471C168.84 138.243 168.107 141.474 166.821 142.392C163.894 144.481 162.027 140.973 163.161 138.271C164.295 135.57 166.577 134.449 169.827 133.929C169.709 134.412 169.591 134.933 169.469 135.471ZM172.47 132.47C175.243 131.841 178.474 131.108 179.392 129.822C181.481 126.895 177.973 125.029 175.271 126.163C172.569 127.297 171.448 129.578 170.928 132.828C171.152 132.773 171.384 132.719 171.622 132.664C171.898 132.6 172.182 132.536 172.47 132.47ZM158.14 125.862C159.525 127.705 160.158 130.185 160.158 133.824C160.158 135.594 159.985 137.062 159.665 138.231C156.835 134.964 155.519 133.784 151.234 132.767C150.217 128.482 149.037 127.167 145.769 124.337C146.938 124.017 148.407 123.844 150.177 123.844C153.817 123.844 156.297 124.477 158.14 125.862ZM150.221 134.882C150.149 134.584 150.079 134.287 150.01 133.991C149.854 133.955 149.698 133.918 149.542 133.881C149.401 133.848 149.26 133.814 149.119 133.78C146.685 133.201 144.238 132.587 142.493 131.634C142.46 132.084 142.442 132.564 142.442 133.076C142.442 135.687 142.876 137.991 144.253 139.747C146.009 141.124 148.314 141.558 150.926 141.558C151.437 141.558 151.918 141.54 152.367 141.507C151.414 139.762 150.8 137.315 150.221 134.882ZM154.182 142.391C152.896 141.473 152.162 138.242 151.533 135.469L151.532 135.462L151.529 135.453C151.409 134.921 151.292 134.405 151.175 133.927C154.426 134.447 156.708 135.568 157.842 138.27C158.976 140.972 157.109 144.481 154.182 142.391ZM148.532 132.468L148.533 132.468C149.07 132.59 149.591 132.708 150.074 132.826C149.554 129.575 148.433 127.294 145.73 126.16C143.028 125.026 139.519 126.892 141.609 129.82C142.527 131.106 145.758 131.839 148.532 132.468ZM160.842 113.176C160.842 116.815 161.475 119.295 162.86 121.138C164.704 122.523 167.184 123.156 170.824 123.156C172.593 123.156 174.062 122.983 175.231 122.663C171.964 119.833 170.784 118.518 169.766 114.233C165.481 113.216 164.166 112.036 161.336 108.769C161.015 109.938 160.842 111.406 160.842 113.176ZM170.991 113.009C170.921 112.713 170.851 112.416 170.78 112.118C170.2 109.685 169.586 107.238 168.633 105.493C169.083 105.46 169.563 105.442 170.075 105.442C172.686 105.442 174.991 105.876 176.747 107.253C178.124 109.009 178.558 111.313 178.558 113.924C178.558 114.436 178.54 114.916 178.507 115.366C176.762 114.413 174.315 113.799 171.881 113.22C171.583 113.148 171.286 113.078 170.991 113.009ZM169.467 111.531C168.838 108.758 168.105 105.527 166.819 104.609C163.891 102.519 162.024 106.028 163.158 108.73C164.293 111.432 166.574 112.553 169.825 113.073C169.708 112.592 169.59 112.073 169.469 111.538L169.467 111.531ZM172.469 114.532C175.242 115.161 178.473 115.894 179.391 117.18C181.482 120.108 177.972 121.974 175.27 120.84C172.568 119.706 171.447 117.425 170.926 114.174C171.41 114.292 171.93 114.41 172.468 114.532L172.469 114.532ZM160.436 130.758C161.056 124.686 161.559 124.184 167.63 123.563C161.559 122.944 161.056 122.441 160.436 116.37C159.816 122.441 159.314 122.943 153.242 123.563C159.314 124.184 159.816 124.686 160.436 130.758Z" fill="#E8E4DF"/>
<path d="M14.5444 49.941C20.2244 49.941 23.9874 46.32 23.9874 41.421C23.9874 38.794 23.0644 36.593 21.2894 34.818C19.7274 33.256 18.6624 32.191 14.3314 29.138C8.2254 24.878 6.8764 23.742 4.9594 21.257C3.1844 18.985 2.4744 16.926 2.4744 13.589C2.4744 6.48899 8.4384 1.16399 16.6744 1.16399C21.1474 1.16399 24.6974 2.15799 28.3184 4.07499C28.3894 5.992 28.4604 7.341 28.4604 8.974C28.4604 10.607 28.3894 12.098 28.3184 14.015L26.3304 14.157C25.6914 11.672 24.9814 9.613 23.3484 7.69599C21.4314 5.49499 19.5144 4.42999 16.1064 4.42999C11.0654 4.42999 7.6574 7.55399 7.6574 12.382C7.6574 14.583 8.1544 16.358 10.1424 18.417C11.4914 19.766 12.4144 20.547 16.9584 23.742C22.5674 27.647 24.2714 28.854 26.2594 31.126C28.2474 33.469 29.5964 36.877 29.5964 40.072C29.5964 48.024 23.3484 53.136 14.0474 53.136C9.2194 53.136 5.8114 52.426 2.4034 50.793C1.6224 46.888 1.4094 43.338 0.983398 39.291L3.1844 38.794C3.9654 41.066 4.6044 42.912 5.6694 44.687C7.7284 48.308 9.7874 49.941 14.5444 49.941Z" fill="#E8E4DF"/>
<path d="M67.1077 47.172C67.1077 48.521 67.8177 49.444 69.5927 50.296L69.2377 52.071C66.6817 51.929 64.2677 51.858 62.4927 51.858C60.7177 51.858 59.3687 51.929 56.5997 52.071L56.6707 50.296C58.6587 49.444 59.6527 48.805 60.4337 47.456C61.4277 45.823 61.7827 43.125 62.4927 37.161L62.9897 32.972H47.9377L45.1687 36.522C38.7077 44.758 37.9977 46.746 37.9977 48.166C37.9977 49.16 38.3527 49.657 40.1277 50.296L39.8437 52.071C37.2877 51.929 36.2227 51.858 34.5187 51.858C32.7437 51.858 31.6077 51.858 28.3417 52.071L28.2707 50.296C30.6847 48.947 31.8207 48.095 40.8377 36.522L68.8827 0.666992L71.9357 1.30599L67.9597 36.522C67.1787 43.267 67.1077 45.681 67.1077 47.172ZM65.6167 10.181L50.2807 29.919H63.3447L65.6167 10.181Z" fill="#E8E4DF"/>
<path d="M120.05 52.568L118.346 53.136L83.3434 10.891V36.593C83.3434 39.078 83.3434 42.202 83.5564 44.545C83.8404 47.882 84.4794 49.16 87.3904 50.367L87.1774 52.142C84.9764 52 83.0594 51.929 81.4264 51.929C79.7224 51.929 78.0184 51.929 75.8174 52.142L75.6044 50.367C78.5154 49.16 79.0834 47.882 79.3674 44.545C79.5804 42.202 79.5804 39.078 79.5804 36.593V17.636C79.5804 15.151 79.5804 12.453 79.3674 10.11C79.0834 6.77299 78.1604 5.06899 75.2494 3.86199L75.4624 2.087C77.6634 2.22899 80.4324 2.29999 83.7694 2.29999L116.003 40.995V17.636C116.003 15.151 116.003 12.027 115.79 9.68399C115.506 6.34699 114.867 5.06899 111.956 3.86199L112.169 2.087C114.37 2.22899 116.287 2.29999 117.92 2.29999C119.624 2.29999 121.328 2.29999 123.529 2.087L123.742 3.86199C120.831 5.06899 120.263 6.34699 119.979 9.68399C119.766 12.027 119.766 15.151 119.766 17.636V40.924C119.766 44.332 119.837 48.876 120.05 52.568Z" fill="#E8E4DF"/>
<path d="M155.591 49.941C161.484 49.941 164.466 47.882 166.951 43.409C168.016 41.492 168.584 39.575 169.436 37.09L171.566 37.445C171.211 41.776 170.856 45.184 170.075 49.373C165.744 51.929 160.419 53.136 154.668 53.136C140.894 53.136 127.049 44.261 127.049 27.008C127.049 11.388 139.616 1.16399 154.597 1.16399C160.632 1.16399 165.531 2.37099 170.288 4.71399C170.359 6.63099 170.43 8.26399 170.43 9.89699C170.43 11.53 170.359 13.234 170.288 15.222L168.158 15.364C167.519 12.737 166.738 10.465 165.105 8.54799C163.117 6.27599 159.851 4.42999 154.668 4.42999C142.172 4.42999 133.723 13.589 133.723 26.937C133.723 41.421 144.586 49.941 155.591 49.941Z" fill="#E8E4DF"/>
<path d="M181.414 2.29999H207.045C209.956 2.29999 212.299 2.29999 215.068 2.087C215.21 5.49499 215.281 8.97399 215.281 12.453L213.222 12.595C212.441 9.968 211.731 8.47699 210.666 7.341C209.601 6.20499 207.968 5.63699 206.619 5.42399C204.844 5.13999 203.282 5.06899 201.01 5.06899C197.673 5.06899 197.247 5.63699 197.034 8.47699C196.821 10.678 196.821 13.234 196.821 15.79V36.522C196.821 39.007 196.963 42.131 197.034 44.474C197.176 48.095 197.957 49.231 201.365 50.154L201.152 52.071C198.383 51.858 195.827 51.858 194.052 51.858C192.277 51.858 189.579 51.858 186.81 52.071L186.597 50.154C190.005 49.231 190.786 48.095 190.928 44.474C190.999 42.131 191.141 39.007 191.141 36.522V15.79C191.141 13.234 191.141 10.678 190.928 8.47699C190.715 5.63699 190.289 5.06899 186.952 5.06899C184.68 5.06899 183.189 5.13999 181.414 5.42399C180.065 5.63699 178.432 6.20499 177.367 7.341C176.302 8.47699 175.521 9.968 174.74 12.595L172.681 12.453C172.894 8.97399 173.107 5.56599 173.391 2.087C176.16 2.29999 178.503 2.29999 181.414 2.29999Z" fill="#E8E4DF"/>
<path d="M255.56 17.636V33.966C255.56 45.113 248.105 53.136 237.1 53.136C225.74 53.136 218.995 46.462 218.995 35.031V17.636C218.995 15.151 218.995 12.027 218.782 9.68399C218.569 6.55999 218.072 4.99799 215.232 3.86199L215.445 2.087C218.214 2.29999 220.131 2.29999 221.906 2.29999C223.681 2.29999 225.527 2.29999 228.296 2.087L228.509 3.86199C225.598 5.06899 224.959 6.34699 224.888 9.68399C224.817 12.027 224.675 15.151 224.675 17.636V34.889C224.675 44.048 229.503 49.231 237.526 49.231C246.046 49.231 251.797 43.622 251.797 33.043V17.636C251.797 15.151 251.797 12.027 251.584 9.68399C251.3 6.34699 250.661 5.06899 247.75 3.86199L247.963 2.087C250.164 2.22899 252.081 2.29999 253.714 2.29999C255.418 2.29999 257.122 2.29999 259.323 2.087L259.536 3.86199C256.625 5.06899 256.057 6.34699 255.773 9.68399C255.56 12.027 255.56 15.151 255.56 17.636Z" fill="#E8E4DF"/>
<path d="M309.702 8.40599L290.745 53.136H289.254L270.226 9.96799L269.303 36.593C269.232 38.226 269.161 40.285 269.161 42.202C269.161 45.894 269.303 49.231 273.137 50.367L272.924 52.142C270.723 52 268.806 51.929 267.102 51.929C265.398 51.929 263.694 51.929 261.493 52.142L261.28 50.367C264.191 49.16 264.83 47.882 265.114 44.545C265.327 42.202 265.327 39.078 265.469 36.593L266.321 17.636C266.392 16.003 266.392 14.938 266.392 13.589C266.392 9.613 266.321 5.21099 261.99 3.86199L262.203 2.087C266.179 2.29999 269.09 2.29999 273.279 2.29999L291.171 43.48L307.998 2.29999C311.903 2.29999 316.305 2.29999 319.074 2.087L319.287 3.86199C316.376 4.99799 315.808 6.48899 315.595 9.68399C315.524 11.388 315.453 13.589 315.453 15.577C315.453 16.358 315.595 16.997 315.95 36.593C316.021 39.078 316.021 42.202 316.234 44.545C316.234 47.882 317.015 49.16 319.926 50.367L319.713 52.142C316.944 51.929 315.169 51.929 313.394 51.929C311.619 51.929 309.702 51.929 306.933 52.142L306.72 50.367C310.341 49.444 310.412 45.752 310.412 42.344C310.412 40.569 310.412 38.368 310.341 36.593L309.702 8.40599Z" fill="#E8E4DF"/>
<path d="M325.414 2.47656H323V0.999996H329.623V2.47656H327.24V8H325.414V2.47656ZM335.286 4.28125L336.586 0.999996H339V8H337.236V5.8125C337.236 4.6914 337.236 3.95312 337.267 3.59765C337.205 3.73437 337.143 3.89843 337.081 4.08984L335.534 8H334.079L332.532 4.08984C332.47 3.89843 332.408 3.73437 332.346 3.59765C332.346 3.95312 332.377 4.6914 332.377 5.8125V8H330.613V0.999996H333.027L334.358 4.33593L334.822 5.64843C334.946 5.1289 335.101 4.66406 335.286 4.28125Z" fill="#E8E4DF"/>
<path d="M54.516 73.456H61.62V74.908H58.884V82H57.252V74.908H54.516V73.456Z" fill="#E8E4DF"/>
<path d="M68.6299 76.888V73.456H70.2499V82H68.6299V78.352H64.6579V82H63.0379V73.456H64.6579V76.888H68.6299Z" fill="#E8E4DF"/>
<path d="M78.5395 73.456V74.908H73.8595V76.924H78.0955V78.316H73.8595V80.548H78.5155V82H72.2395V73.456H78.5395Z" fill="#E8E4DF"/>
<path d="M86.5821 82.192C85.4181 82.192 84.5181 81.94 83.8821 81.412C83.2461 80.896 82.9221 80.152 82.9221 79.18H84.5181C84.5181 79.792 84.6981 80.224 85.0581 80.488C85.4181 80.752 85.9341 80.884 86.6301 80.884C87.1821 80.884 87.6141 80.788 87.9141 80.572C88.2021 80.356 88.3581 80.056 88.3581 79.648C88.3581 79.312 88.2261 79.06 87.9741 78.88C87.7221 78.712 87.2661 78.556 86.6061 78.412L85.8861 78.268C84.0501 77.932 83.1381 77.068 83.1381 75.676C83.1381 74.944 83.4141 74.356 83.9781 73.924C84.5301 73.492 85.3101 73.264 86.3061 73.264C87.4341 73.264 88.2861 73.504 88.8621 73.984C89.4381 74.464 89.7501 75.136 89.7861 76H88.2141C88.1781 75.52 88.0101 75.16 87.7221 74.92C87.4341 74.692 86.9661 74.572 86.3301 74.572C85.8261 74.572 85.4541 74.668 85.1901 74.848C84.9261 75.04 84.7941 75.292 84.7941 75.628C84.7941 75.976 84.9141 76.24 85.1541 76.42C85.3941 76.612 85.8381 76.768 86.4621 76.888L87.2061 77.032C88.2021 77.236 88.9221 77.536 89.3661 77.932C89.8101 78.328 90.0381 78.868 90.0381 79.564C90.0381 80.404 89.7261 81.052 89.1261 81.508C88.5141 81.964 87.6621 82.192 86.5821 82.192Z" fill="#E8E4DF"/>
<path d="M99.1958 82H97.4798L96.8078 80.116H93.0638L92.4038 82H90.7358L93.9878 73.456H95.8838L99.1958 82ZM93.8798 77.812L93.5558 78.736H96.3158L95.9798 77.812C95.6918 77.104 95.3438 76.132 94.9238 74.884C94.5878 75.88 94.2398 76.852 93.8798 77.812Z" fill="#E8E4DF"/>
<path d="M106.073 75.688V73.456H107.633V82H105.833L103.457 78.196C102.809 77.188 102.293 76.324 101.933 75.628C101.957 76.528 101.981 77.908 101.981 79.768V82H100.421V73.456H102.221L104.609 77.26C105.317 78.412 105.821 79.276 106.121 79.828C106.085 78.64 106.073 77.26 106.073 75.688Z" fill="#E8E4DF"/>
<path d="M113.414 82.192C112.178 82.192 111.182 81.796 110.426 80.98C109.658 80.176 109.274 79.096 109.274 77.728C109.274 76.36 109.646 75.28 110.414 74.464C111.158 73.672 112.166 73.264 113.414 73.264C114.41 73.264 115.262 73.54 115.97 74.068C116.666 74.608 117.11 75.388 117.29 76.396H115.646C115.502 75.844 115.226 75.412 114.842 75.124C114.458 74.836 113.978 74.68 113.414 74.68C112.646 74.68 112.046 74.956 111.614 75.496C111.182 76.036 110.966 76.78 110.966 77.728C110.966 78.688 111.182 79.444 111.614 79.972C112.046 80.512 112.646 80.776 113.414 80.776C114.002 80.776 114.506 80.608 114.938 80.248C115.358 79.9 115.61 79.408 115.706 78.784H117.326C117.218 79.876 116.798 80.716 116.054 81.304C115.31 81.904 114.434 82.192 113.414 82.192Z" fill="#E8E4DF"/>
<path d="M117.804 73.456H124.908V74.908H122.172V82H120.54V74.908H117.804V73.456Z" fill="#E8E4DF"/>
<path d="M129.7 82.18C128.584 82.18 127.708 81.892 127.072 81.292C126.436 80.692 126.124 79.864 126.124 78.784V73.456H127.744V78.796C127.744 79.444 127.912 79.936 128.248 80.272C128.584 80.608 129.064 80.776 129.7 80.776C130.324 80.776 130.816 80.608 131.152 80.272C131.488 79.936 131.656 79.444 131.656 78.796V73.456H133.276V78.784C133.276 79.876 132.952 80.716 132.328 81.304C131.692 81.892 130.816 82.18 129.7 82.18Z" fill="#E8E4DF"/>
<path d="M142.438 82H140.722L140.05 80.116H136.306L135.646 82H133.978L137.23 73.456H139.126L142.438 82ZM137.122 77.812L136.798 78.736H139.558L139.222 77.812C138.934 77.104 138.586 76.132 138.166 74.884C137.83 75.88 137.482 76.852 137.122 77.812Z" fill="#E8E4DF"/>
<path d="M150.359 79.732L150.431 81.004C150.431 81.412 150.527 81.748 150.695 82H149.027C148.883 81.76 148.799 81.424 148.799 80.98L148.763 80.044C148.739 79.528 148.619 79.168 148.403 78.964C148.187 78.76 147.851 78.652 147.395 78.652H145.283V82H143.663V73.456H147.539C148.487 73.456 149.231 73.672 149.759 74.104C150.287 74.536 150.551 75.124 150.551 75.868C150.551 76.9 150.071 77.572 149.123 77.908C149.555 78.052 149.855 78.268 150.047 78.556C150.239 78.844 150.335 79.24 150.359 79.732ZM145.283 74.788V77.38H147.443C147.899 77.38 148.247 77.272 148.499 77.044C148.751 76.816 148.883 76.48 148.883 76.048C148.883 75.64 148.751 75.328 148.487 75.112C148.223 74.896 147.863 74.788 147.383 74.788H145.283Z" fill="#E8E4DF"/>
<path d="M156.279 74.992L157.215 73.456H159.003L155.799 78.628V82H154.179V78.628L150.951 73.456H152.787L153.735 75.004C154.503 76.288 154.923 77.008 155.019 77.164C155.235 76.78 155.655 76.06 156.279 74.992Z" fill="#E8E4DF"/>
<path d="M167.469 82.192C166.185 82.192 165.153 81.784 164.373 80.968C163.581 80.152 163.197 79.072 163.197 77.728C163.197 76.396 163.581 75.316 164.373 74.488C165.153 73.672 166.185 73.264 167.469 73.264C168.741 73.264 169.773 73.672 170.565 74.488C171.333 75.304 171.729 76.384 171.729 77.728C171.729 79.084 171.333 80.164 170.565 80.968C169.773 81.784 168.741 82.192 167.469 82.192ZM165.597 79.948C166.065 80.5 166.689 80.764 167.469 80.764C168.249 80.764 168.873 80.5 169.353 79.948C169.809 79.42 170.049 78.676 170.049 77.728C170.049 76.792 169.809 76.048 169.353 75.508C168.873 74.968 168.249 74.692 167.469 74.692C166.689 74.692 166.065 74.968 165.597 75.508C165.117 76.06 164.889 76.792 164.889 77.728C164.889 78.664 165.117 79.408 165.597 79.948Z" fill="#E8E4DF"/>
<path d="M179.404 73.456V74.908H174.988V76.924H179.008V78.316H174.988V82H173.368V73.456H179.404Z" fill="#E8E4DF"/>
<path d="M185.692 82H184.072V73.456H185.692V82Z" fill="#E8E4DF"/>
<path d="M193.347 75.688V73.456H194.907V82H193.107L190.731 78.196C190.083 77.188 189.567 76.324 189.207 75.628C189.231 76.528 189.255 77.908 189.255 79.768V82H187.695V73.456H189.495L191.883 77.26C192.591 78.412 193.095 79.276 193.395 79.828C193.359 78.64 193.347 77.26 193.347 75.688Z" fill="#E8E4DF"/>
<path d="M200.16 82.192C198.996 82.192 198.096 81.94 197.46 81.412C196.824 80.896 196.5 80.152 196.5 79.18H198.096C198.096 79.792 198.276 80.224 198.636 80.488C198.996 80.752 199.512 80.884 200.208 80.884C200.76 80.884 201.192 80.788 201.492 80.572C201.78 80.356 201.936 80.056 201.936 79.648C201.936 79.312 201.804 79.06 201.552 78.88C201.3 78.712 200.844 78.556 200.184 78.412L199.464 78.268C197.628 77.932 196.716 77.068 196.716 75.676C196.716 74.944 196.992 74.356 197.556 73.924C198.108 73.492 198.888 73.264 199.884 73.264C201.012 73.264 201.864 73.504 202.44 73.984C203.016 74.464 203.328 75.136 203.364 76H201.792C201.756 75.52 201.588 75.16 201.3 74.92C201.012 74.692 200.544 74.572 199.908 74.572C199.404 74.572 199.032 74.668 198.768 74.848C198.504 75.04 198.372 75.292 198.372 75.628C198.372 75.976 198.492 76.24 198.732 76.42C198.972 76.612 199.416 76.768 200.04 76.888L200.784 77.032C201.78 77.236 202.5 77.536 202.944 77.932C203.388 78.328 203.616 78.868 203.616 79.564C203.616 80.404 203.304 81.052 202.704 81.508C202.092 81.964 201.24 82.192 200.16 82.192Z" fill="#E8E4DF"/>
<path d="M205.149 73.456H208.905C209.853 73.456 210.597 73.708 211.125 74.212C211.653 74.716 211.929 75.388 211.929 76.24C211.929 77.092 211.653 77.764 211.125 78.268C210.597 78.772 209.853 79.012 208.905 79.012H206.769V82H205.149V73.456ZM206.769 77.62H208.833C209.301 77.62 209.661 77.512 209.913 77.272C210.165 77.032 210.297 76.696 210.297 76.24C210.297 75.796 210.165 75.448 209.913 75.208C209.661 74.968 209.301 74.848 208.833 74.848H206.769V77.62Z" fill="#E8E4DF"/>
<path d="M215.15 82H213.53V73.456H215.15V82Z" fill="#E8E4DF"/>
<path d="M223.85 79.732L223.922 81.004C223.922 81.412 224.018 81.748 224.186 82H222.518C222.374 81.76 222.29 81.424 222.29 80.98L222.254 80.044C222.23 79.528 222.11 79.168 221.894 78.964C221.678 78.76 221.342 78.652 220.886 78.652H218.774V82H217.154V73.456H221.03C221.978 73.456 222.722 73.672 223.25 74.104C223.778 74.536 224.042 75.124 224.042 75.868C224.042 76.9 223.562 77.572 222.614 77.908C223.046 78.052 223.346 78.268 223.538 78.556C223.73 78.844 223.826 79.24 223.85 79.732ZM218.774 74.788V77.38H220.934C221.39 77.38 221.738 77.272 221.99 77.044C222.242 76.816 222.374 76.48 222.374 76.048C222.374 75.64 222.242 75.328 221.978 75.112C221.714 74.896 221.354 74.788 220.874 74.788H218.774Z" fill="#E8E4DF"/>
<path d="M233.383 82H231.667L230.995 80.116H227.251L226.591 82H224.923L228.175 73.456H230.071L233.383 82ZM228.067 77.812L227.743 78.736H230.503L230.167 77.812C229.879 77.104 229.531 76.132 229.111 74.884C228.775 75.88 228.427 76.852 228.067 77.812Z" fill="#E8E4DF"/>
<path d="M232.803 73.456H239.907V74.908H237.171V82H235.539V74.908H232.803V73.456Z" fill="#E8E4DF"/>
<path d="M242.945 82H241.325V73.456H242.945V82Z" fill="#E8E4DF"/>
<path d="M248.86 82.192C247.576 82.192 246.544 81.784 245.764 80.968C244.972 80.152 244.588 79.072 244.588 77.728C244.588 76.396 244.972 75.316 245.764 74.488C246.544 73.672 247.576 73.264 248.86 73.264C250.132 73.264 251.164 73.672 251.956 74.488C252.724 75.304 253.12 76.384 253.12 77.728C253.12 79.084 252.724 80.164 251.956 80.968C251.164 81.784 250.132 82.192 248.86 82.192ZM246.988 79.948C247.456 80.5 248.08 80.764 248.86 80.764C249.64 80.764 250.264 80.5 250.744 79.948C251.2 79.42 251.44 78.676 251.44 77.728C251.44 76.792 251.2 76.048 250.744 75.508C250.264 74.968 249.64 74.692 248.86 74.692C248.08 74.692 247.456 74.968 246.988 75.508C246.508 76.06 246.28 76.792 246.28 77.728C246.28 78.664 246.508 79.408 246.988 79.948Z" fill="#E8E4DF"/>
<path d="M260.411 75.688V73.456H261.971V82H260.171L257.795 78.196C257.147 77.188 256.631 76.324 256.271 75.628C256.295 76.528 256.319 77.908 256.319 79.768V82H254.759V73.456H256.559L258.947 77.26C259.655 78.412 260.159 79.276 260.459 79.828C260.423 78.64 260.411 77.26 260.411 75.688Z" fill="#E8E4DF"/>
</svg>
