<svg width="103" height="103" viewBox="0 0 103 103" fill="none" xmlns="http://www.w3.org/2000/svg">
<g style="mix-blend-mode:difference">
<path fill-rule="evenodd" clip-rule="evenodd" d="M7.12308 7.11332C11.7705 6.06611 18.8148 4.90139 25.6715 4.90139C27.7974 4.90139 29.8179 4.98207 31.717 5.14237C33.6948 1.99335 36.2246 0 39.6618 0C46.865 0 50.4142 8.67345 51.4957 19.7497C52.5778 8.67317 56.1277 9.61623e-05 63.3314 9.61623e-05C66.7692 9.61623e-05 69.2994 1.99373 71.2775 5.14334C73.1769 4.98303 75.1978 4.90235 77.3241 4.90235C84.1821 4.90235 91.2274 6.06726 95.8758 7.11466L95.8848 7.1237C96.9323 11.7717 98.0973 18.8164 98.0973 25.6737C98.0973 27.7998 98.0165 29.8204 97.8562 31.7197C101.006 33.6977 103 36.2277 103 39.6652C103 46.8783 94.3019 50.4277 83.2022 51.5043C94.3016 52.5804 103 56.1292 103 63.3417C103 66.7786 101.006 69.3082 97.8572 71.2859C98.0174 73.1848 98.0982 75.2051 98.0982 77.3308C98.0982 84.1869 96.9333 91.2305 95.886 95.8776L95.8769 95.8867C91.2295 96.9339 84.1852 98.0986 77.3285 98.0986C75.2026 98.0986 73.1821 98.018 71.283 97.8576C69.3052 101.007 66.7754 103 63.3382 103C56.135 103 52.5858 94.3265 51.5043 83.2503C50.4222 94.3268 46.8723 103 39.6686 103C36.2308 103 33.7006 101.006 31.7225 97.8567C29.823 98.0171 27.8022 98.0977 25.6759 98.0977C18.8179 98.0977 11.7727 96.9327 7.12424 95.8853L7.1152 95.8763C6.0677 91.2284 4.90269 84.1836 4.90269 77.3263C4.90269 75.2002 4.98348 73.1796 5.14379 71.2803C1.99381 69.3023 0 66.7723 0 63.3348C0 56.1217 8.69807 52.5723 19.7978 51.4957C8.69836 50.4196 0 46.8708 0 39.6583C0 36.2214 1.99352 33.6918 5.14283 31.7141C4.98261 29.8152 4.90183 27.7949 4.90183 25.6692C4.90183 18.8131 6.06665 11.7695 7.11395 7.12245L7.12308 7.11332ZM50.6322 25.5586C50.6322 34.7005 49.0414 40.9295 45.5628 45.5588C40.9331 49.0371 34.7036 50.6277 25.5609 50.6277C21.1159 50.6277 17.4275 50.1923 14.4912 49.3879C22.6979 42.2805 25.6614 38.9773 28.2177 28.2152C38.9807 25.6592 42.2843 22.6959 49.3923 14.4899C50.1967 17.426 50.6322 21.1141 50.6322 25.5586ZM25.1414 25.1391C25.3164 24.397 25.4926 23.6505 25.6715 22.9032C27.1262 16.7898 28.6696 10.6446 31.0628 6.26093C29.9338 6.17766 28.7279 6.1339 27.4421 6.1339C20.8827 6.1339 15.0938 7.22304 10.6826 10.6816C7.22368 15.0925 6.13445 20.8809 6.13445 27.4396C6.13445 28.7252 6.1783 29.9311 6.26149 31.06C10.6455 28.667 16.7913 27.1238 22.9052 25.6693C23.6526 25.4903 24.3991 25.3141 25.1414 25.1391ZM28.9679 21.4275C30.5488 14.4617 32.3905 6.34681 35.6207 4.04074C42.9744 -1.20895 47.6635 7.60528 44.8144 14.3917C41.9654 21.1783 36.2347 23.9941 28.0692 25.3005C28.3643 24.0865 28.6612 22.7786 28.9679 21.4275ZM21.4287 28.9654C14.4625 30.5462 6.34733 32.3877 4.04119 35.6175C-1.20906 42.9706 7.60596 47.6593 14.393 44.8105C21.1802 41.9617 23.9963 36.2315 25.3027 28.0666C24.0951 28.3604 22.7943 28.6556 21.4504 28.9604L21.4287 28.9654ZM52.3678 77.4414C52.3678 68.2995 53.9586 62.0705 57.4371 57.4412C62.0669 53.9629 68.2964 52.3723 77.4391 52.3723C81.8841 52.3723 85.5725 52.8077 88.5088 53.6121C80.3021 60.7195 77.3385 64.0227 74.7823 74.7848C64.0193 77.3408 60.7157 80.3041 53.6077 88.5101C52.8033 85.574 52.3678 81.8859 52.3678 77.4414ZM80.0948 77.3307C79.3474 77.5097 78.6009 77.6859 77.8586 77.8609L77.4364 79.6447L77.3284 80.0968C75.8738 86.2102 74.3304 92.3554 71.9372 96.7391C73.0662 96.8223 74.2721 96.866 75.5579 96.866C82.1173 96.866 87.9062 95.7769 92.3174 92.3184C95.7763 87.9075 96.8655 82.1191 96.8655 75.5604C96.8655 74.2747 96.8217 73.0689 96.7385 71.94C92.3545 74.333 86.2087 75.8762 80.0948 77.3307ZM74.0321 81.5725C72.4512 88.5383 70.6095 96.6531 67.3793 98.9593C60.0256 104.209 55.3365 95.3947 58.1856 88.6083C61.0346 81.8217 66.7653 79.0059 74.9309 77.6995C74.6357 78.9135 74.3388 80.2214 74.0321 81.5725ZM81.5713 74.0346C88.5375 72.4538 96.6527 70.6123 98.9588 67.3825C104.209 60.0294 95.394 55.3407 88.607 58.1895C81.8198 61.0383 79.0037 66.7686 77.6973 74.9333C78.2599 74.7965 78.8428 74.6593 79.4407 74.5211C80.1332 74.3609 80.8462 74.1991 81.5713 74.0346ZM45.5707 57.4332C49.0499 62.0634 50.641 68.2934 50.641 77.4369C50.641 81.8823 50.2054 85.571 49.4008 88.5075C42.2916 80.3001 38.9875 77.3363 28.2225 74.7799C25.6659 64.0159 22.7018 60.7121 14.4937 53.6035C17.4305 52.799 21.1195 52.3634 25.5653 52.3634C34.7096 52.3634 40.9402 53.9544 45.5707 57.4332ZM25.676 80.0928C25.497 79.3452 25.3207 78.5987 25.1457 77.8564C24.755 77.7643 24.3631 77.6718 23.9706 77.5788C23.6172 77.4952 23.2633 77.411 22.9091 77.3262C16.7942 75.8714 10.6474 74.3279 6.26255 71.9345C6.17936 73.0636 6.13551 74.2697 6.13551 75.5556C6.13551 82.1155 7.22493 87.9048 10.6844 92.3165C15.0964 95.7755 20.8863 96.8648 27.4468 96.8648C28.7328 96.8648 29.939 96.8212 31.0682 96.7379C28.6746 92.3535 27.1309 86.2072 25.676 80.0928ZM35.6268 98.9585C32.3961 96.6519 30.554 88.5357 28.9729 81.5688L28.9691 81.5518L28.9636 81.5273C28.66 80.1906 28.3662 78.8967 28.074 77.695C36.2409 79.0016 41.9727 81.8179 44.8222 88.6057C47.6718 95.3934 42.9818 104.209 35.6268 98.9585ZM21.4328 74.0296L21.4358 74.0303C22.7863 74.3367 24.0937 74.6333 25.3072 74.9284C24.0004 66.7622 21.1838 61.0309 14.3955 58.1816C7.60721 55.3324 -1.20935 60.0219 4.04187 67.3763C6.34846 70.6066 14.4654 72.4485 21.4328 74.0296ZM52.359 25.5631C52.359 34.7066 53.9501 40.9366 57.4293 45.5668C62.0598 49.0457 68.2904 50.6366 77.4347 50.6366C81.8805 50.6366 85.5695 50.201 88.5063 49.3965C80.2982 42.2879 77.3341 38.9841 74.7775 28.2201C64.0125 25.6637 60.7084 22.6999 53.5992 14.4925C52.7946 17.429 52.359 21.1177 52.359 25.5631ZM77.8543 25.1436C77.6793 24.4013 77.503 23.6548 77.324 22.9072C75.8691 16.7928 74.3254 10.6465 71.9318 6.26209C73.061 6.17881 74.2672 6.13506 75.5532 6.13506C82.1137 6.13506 87.9036 7.22438 92.3156 10.6835C95.7751 15.0952 96.8645 20.8845 96.8645 27.4444C96.8645 28.7303 96.8206 29.9364 96.7374 31.0655C92.3526 28.6721 86.2058 27.1286 80.0909 25.6738C79.3432 25.4948 78.5967 25.3186 77.8543 25.1436ZM74.0271 21.4312C72.446 14.4643 70.6039 6.34806 67.3732 4.0416C60.0182 -1.20914 55.3282 7.60663 58.1778 14.3943C61.0273 21.1821 66.7591 23.9984 74.926 25.305C74.632 24.0961 74.3364 22.794 74.0311 21.4487L74.0271 21.4312ZM81.5677 28.9705C88.5351 30.5516 96.6515 32.3934 98.9581 35.6238C104.209 42.9781 95.3928 47.6676 88.6045 44.8184C81.8162 41.9691 78.9996 36.2378 77.6928 28.0716C78.9065 28.3668 80.2142 28.6635 81.565 28.9699L81.5677 28.9705ZM51.3398 69.7329C52.8975 54.4804 54.1597 53.2179 69.4128 51.6595C54.1604 50.1028 52.8975 48.8397 51.3398 33.587C49.7822 48.8389 48.52 50.1019 33.2668 51.6595C48.5192 53.218 49.7822 54.4802 51.3398 69.7329Z" fill="#001D23"/>
</g>
</svg>
