<svg width="85" height="85" viewBox="0 0 85 85" fill="none" xmlns="http://www.w3.org/2000/svg">
<path fill-rule="evenodd" clip-rule="evenodd" d="M5.87827 5.87021C9.71355 5.00601 15.5267 4.04484 21.1852 4.04484C22.9396 4.04484 24.607 4.11142 26.1743 4.24371C27.8064 1.645 29.8941 0 32.7306 0C38.675 0 41.6039 7.1577 42.4965 16.2983C43.3895 7.15747 46.319 7.93572e-05 52.2637 7.93572e-05C55.1008 7.93572e-05 57.1889 1.64531 58.8212 4.2445C60.3887 4.11221 62.0564 4.04563 63.8112 4.04563C69.4706 4.04563 75.2848 5.00696 79.1208 5.87132L79.1282 5.87878C79.9927 9.71452 80.9541 15.5281 80.9541 21.187C80.9541 22.9416 80.8874 24.6091 80.7551 26.1765C83.3546 27.8088 85 29.8966 85 32.7334C85 38.686 77.822 41.6151 68.662 42.5036C77.8217 43.3916 85 46.3202 85 52.2723C85 55.1086 83.3549 57.1961 80.7559 58.8282C80.8881 60.3952 80.9548 62.0624 80.9548 63.8167C80.9548 69.4746 79.9935 75.2873 79.1293 79.1223L79.1217 79.1298C75.2864 79.994 69.4733 80.9552 63.8148 80.9552C62.0604 80.9552 60.393 80.8887 58.8257 80.7563C57.1936 83.3551 55.1059 85 52.2694 85C46.325 85 43.3961 77.8423 42.5035 68.7017C41.6105 77.8425 38.681 85 32.7362 85C29.8992 85 27.8111 83.3546 26.1788 80.7555C24.6113 80.8879 22.9436 80.9544 21.1888 80.9544C15.5294 80.9544 9.7153 79.993 5.87923 79.1287L5.87176 79.1212C5.00733 75.2856 4.04591 69.4719 4.04591 63.813C4.04591 62.0584 4.11258 60.3909 4.24488 58.8235C1.64538 57.1912 0 55.1034 0 52.2666C0 46.314 7.17802 43.3849 16.338 42.4964C7.17826 41.6084 0 38.6798 0 32.7277C0 29.8914 1.64514 27.8039 4.24408 26.1719C4.11186 24.6048 4.0452 22.9376 4.0452 21.1833C4.0452 15.5254 5.00646 9.71269 5.87073 5.87775L5.87827 5.87021ZM41.7839 21.092C41.7839 28.6364 40.4711 33.7767 37.6004 37.5971C33.7797 40.4675 28.6389 41.7802 21.0939 41.7802C17.4258 41.7802 14.3819 41.4208 11.9588 40.757C18.7313 34.8917 21.1769 32.1657 23.2864 23.2844C32.1686 21.175 34.8948 18.7297 40.7606 11.9577C41.4245 14.3806 41.7839 17.4242 41.7839 21.092ZM20.7477 20.7459C20.8922 20.1334 21.0376 19.5174 21.1853 18.9007C22.3857 13.8557 23.6594 8.78437 25.6343 5.16679C24.7027 5.09807 23.7075 5.06196 22.6464 5.06196C17.2333 5.06196 12.4561 5.96076 8.8157 8.81492C5.96129 12.455 5.06241 17.2318 5.06241 22.6443C5.06241 23.7053 5.0986 24.7004 5.16725 25.6321C8.78515 23.6573 13.8569 22.3837 18.9023 21.1834C19.5192 21.0357 20.1352 20.8903 20.7477 20.7459ZM23.9055 17.6829C25.2101 11.9344 26.73 5.23766 29.3957 3.33459C35.4643 -0.997679 39.334 6.2762 36.9828 11.8767C34.6316 17.4772 29.9024 19.801 23.1639 20.879C23.4075 19.8772 23.6525 18.7979 23.9055 17.6829ZM17.6839 23.9035C11.935 25.208 5.23809 26.7277 3.33497 29.3931C-0.997767 35.4612 6.27676 39.3305 11.8777 36.9795C17.4788 34.6286 19.8027 29.8997 20.8809 23.1618C19.8843 23.4042 18.8108 23.6478 17.7018 23.8994L17.6839 23.9035ZM43.2161 63.908C43.2161 56.3636 44.5289 51.2233 47.3996 47.4029C51.2203 44.5325 56.3611 43.2199 63.9061 43.2199C67.5742 43.2199 70.6181 43.5792 73.0412 44.243C66.2687 50.1083 63.8231 52.8343 61.7136 61.7156C52.8314 63.825 50.1052 66.2703 44.2394 73.0423C43.5755 70.6194 43.2161 67.5758 43.2161 63.908ZM66.0976 63.8166C65.4808 63.9643 64.8648 64.1097 64.2523 64.2541L63.9039 65.7262L63.8147 66.0993C62.6143 71.1443 61.3406 76.2156 59.3657 79.8332C60.2973 79.9019 61.2925 79.938 62.3536 79.938C67.7667 79.938 72.5439 79.0392 76.1843 76.1851C79.0387 72.545 79.9376 67.7682 79.9376 62.3557C79.9376 61.2946 79.9014 60.2996 79.8327 59.3679C76.2148 61.3427 71.1431 62.6163 66.0976 63.8166ZM61.0945 67.3171C59.7899 73.0656 58.27 79.7623 55.6043 81.6654C49.5357 85.9977 45.666 78.7238 48.0172 73.1233C50.3684 67.5228 55.0976 65.199 61.8362 64.121C61.5925 65.1228 61.3475 66.2021 61.0945 67.3171ZM67.3161 61.0965C73.0649 59.792 79.7619 58.2723 81.665 55.6069C85.9978 49.5388 78.7232 45.6695 73.1223 48.0205C67.5212 50.3714 65.1973 55.1003 64.1191 61.8382C64.5834 61.7252 65.0644 61.6121 65.5579 61.498C66.1293 61.3658 66.7177 61.2323 67.3161 61.0965ZM37.6069 47.3963C40.4781 51.2174 41.7911 56.3586 41.7911 63.9042C41.7911 67.5728 41.4316 70.6168 40.7677 73.0402C34.9008 66.2671 32.1741 63.8212 23.2904 61.7116C21.1806 52.8287 18.7345 50.1022 11.9608 44.2359C14.3844 43.572 17.4287 43.2126 21.0976 43.2126C28.6438 43.2126 33.7856 44.5254 37.6069 47.3963ZM21.1889 66.096C21.0412 65.4791 20.8957 64.863 20.7513 64.2505C20.4289 64.1744 20.1055 64.0981 19.7815 64.0214C19.49 63.9523 19.1979 63.8829 18.9056 63.8129C13.8593 62.6123 8.78666 61.3385 5.16812 59.3634C5.09947 60.2952 5.06328 61.2905 5.06328 62.3517C5.06328 67.7652 5.96232 72.5428 8.81721 76.1835C12.4582 79.0381 17.2363 79.937 22.6502 79.937C23.7115 79.937 24.707 79.901 25.6388 79.8323C23.6635 76.214 22.3896 71.1419 21.1889 66.096ZM29.4007 81.6648C26.7346 79.7613 25.2145 73.0635 23.9097 67.3141L23.9066 67.3L23.902 67.2798C23.6515 66.1767 23.409 65.1089 23.1679 64.1172C29.9075 65.1955 34.6377 67.5197 36.9892 73.1212C39.3408 78.7227 35.4704 85.9978 29.4007 81.6648ZM17.6873 61.0924L17.6898 61.0929C18.8043 61.3458 19.8832 61.5906 20.8845 61.8341C19.8061 55.095 17.4818 50.3653 11.8798 48.014C6.27779 45.6626 -0.998006 49.5326 3.33552 55.6018C5.23902 58.2676 11.9374 59.7876 17.6873 61.0924ZM43.2089 21.0958C43.2089 28.6414 44.5219 33.7826 47.3931 37.6037C51.2144 40.4746 56.3562 41.7875 63.9024 41.7875C67.5713 41.7875 70.6156 41.428 73.0392 40.7641C66.2655 34.8978 63.8194 32.1713 61.7096 23.2884C52.8259 21.1788 50.0992 18.7329 44.2323 11.9598C43.5684 14.3832 43.2089 17.4272 43.2089 21.0958ZM64.2487 20.7495C64.1043 20.137 63.9588 19.5209 63.8111 18.904C62.6104 13.8582 61.3365 8.78596 59.3612 5.16774C60.293 5.09902 61.2885 5.06291 62.3498 5.06291C67.7637 5.06291 72.5418 5.96187 76.1828 8.81651C79.0377 12.4572 79.9367 17.2348 79.9367 22.6483C79.9367 23.7095 79.9005 24.7048 79.8319 25.6366C76.2133 23.6615 71.1407 22.3877 66.0944 21.1871C65.4774 21.0394 64.8613 20.894 64.2487 20.7495ZM61.0903 17.6859C59.7855 11.9365 58.2654 5.23869 55.5993 3.3353C49.5296 -0.997838 45.6592 6.27732 48.0108 11.8788C50.3623 17.4803 55.0925 19.8045 61.8321 20.8828C61.5895 19.8851 61.3456 18.8105 61.0936 17.7004L61.0903 17.6859ZM67.3131 23.9077C73.063 25.2125 79.761 26.7324 81.6645 29.3983C85.998 35.4674 78.7222 39.3374 73.1202 36.986C67.5182 34.6347 65.1939 29.905 64.1154 23.1659C65.1171 23.4095 66.1962 23.6543 67.311 23.9072L67.3131 23.9077ZM42.3678 57.5466C43.6533 44.9596 44.6949 43.9176 57.2824 42.6316C44.6955 41.347 43.6533 40.3046 42.3678 27.7174C41.0824 40.304 40.0407 41.3462 27.4532 42.6316C40.0401 43.9178 41.0824 44.9594 42.3678 57.5466Z" fill="#E8E4DF"/>
</svg>
