<svg width="155" height="176" viewBox="0 0 155 176" fill="none" xmlns="http://www.w3.org/2000/svg">
<path fill-rule="evenodd" clip-rule="evenodd" d="M10.7192 10.7045C17.7129 9.12861 28.3135 7.37588 38.6318 7.37588C41.831 7.37588 44.8715 7.49729 47.7295 7.73852C50.7058 2.9997 54.5127 0 59.6852 0C70.525 0 75.866 13.0523 77.4936 29.7204C79.122 13.0518 84.464 0.00014471 95.3045 0.00014471C100.478 0.00014471 104.286 3.00028 107.262 7.73997C110.121 7.49874 113.162 7.37733 116.362 7.37733C126.682 7.37733 137.284 9.13035 144.279 10.7065L144.293 10.7201C145.869 17.7147 147.622 28.3159 147.622 38.6352C147.622 41.8347 147.501 44.8754 147.259 47.7335C152 50.7101 155 54.5174 155 59.6904C155 70.5451 141.911 75.8863 125.207 77.5065C141.91 79.1258 155 84.4662 155 95.3201C155 100.492 152 104.299 147.261 107.275C147.502 110.132 147.623 113.173 147.623 116.372C147.623 126.689 145.871 137.289 144.295 144.282L144.281 144.296C137.287 145.871 126.687 147.624 116.368 147.624C113.169 147.624 110.128 147.503 107.27 147.261C104.294 152 100.487 155 95.3148 155C84.475 155 79.134 141.948 77.5064 125.28C75.878 141.948 70.536 155 59.6955 155C54.5221 155 50.7144 152 47.7378 147.26C44.8793 147.501 41.8383 147.623 38.6385 147.623C28.3183 147.623 17.7161 145.87 10.7209 144.293L10.7073 144.28C9.13101 137.285 7.37784 126.684 7.37784 116.365C7.37784 113.165 7.4994 110.125 7.74066 107.266C3.0004 104.29 0 100.483 0 95.3096C0 84.4549 13.0893 79.1137 29.7928 77.4935C13.0898 75.8742 0 70.5338 0 59.68C0 54.5079 2.99996 50.7013 7.73921 47.7252C7.4981 44.8676 7.37653 41.8273 7.37653 38.6284C7.37653 28.311 9.12942 17.7114 10.7055 10.7183L10.7192 10.7045ZM76.1941 38.462C76.1941 52.2193 73.8002 61.5929 68.5654 68.5594C61.5983 73.7937 52.2239 76.1873 38.4654 76.1873C31.7764 76.1873 26.2258 75.5321 21.8072 74.3216C34.1571 63.626 38.6167 58.6551 42.4635 42.4597C58.6603 38.6133 63.6317 34.1541 74.3282 21.8052C75.5388 26.2235 76.1941 31.7736 76.1941 38.462ZM37.8341 37.8307C38.0975 36.7139 38.3626 35.5906 38.6319 34.4659C40.821 25.2663 43.1435 16.0186 46.745 9.42179C45.0461 9.29648 43.2312 9.23063 41.2963 9.23063C31.4255 9.23063 22.714 10.8696 16.0757 16.0743C10.8706 22.712 9.23145 31.4227 9.23145 41.2926C9.23145 43.2273 9.29744 45.0419 9.42263 46.7408C16.02 43.1397 25.2685 40.8174 34.469 38.6285C35.5938 38.3592 36.7171 38.0941 37.8341 37.8307ZM43.5925 32.2452C45.9714 21.7627 48.743 9.55102 53.604 6.08072C64.6702 -1.8193 71.7266 11.4448 67.4392 21.6575C63.1518 31.8703 54.5279 36.1077 42.24 38.0736C42.6842 36.2467 43.1309 34.2785 43.5925 32.2452ZM32.2471 43.5887C21.7639 45.9676 9.55181 48.7388 6.08141 53.5992C-1.81946 64.6645 11.4459 71.7203 21.6594 67.4332C31.8731 63.1462 36.1109 54.5231 38.0769 42.2361C36.2596 42.6782 34.3021 43.1225 32.2798 43.5812L32.2471 43.5887ZM78.8059 116.538C78.8059 102.781 81.1998 93.4071 86.4345 86.4406C93.4017 81.2063 102.776 78.8127 116.535 78.8127C123.224 78.8127 128.774 79.4679 133.193 80.6784C120.843 91.374 116.383 96.3449 112.537 112.54C96.3397 116.387 91.3683 120.846 80.6718 133.195C79.4612 128.776 78.8059 123.226 78.8059 116.538ZM120.531 116.371C119.406 116.641 118.283 116.906 117.166 117.169L116.531 119.854L116.368 120.534C114.179 129.734 111.856 138.981 108.255 145.578C109.954 145.704 111.769 145.769 113.704 145.769C123.575 145.769 132.286 144.13 138.924 138.926C144.129 132.288 145.769 123.577 145.769 113.707C145.769 111.773 145.703 109.958 145.577 108.259C138.98 111.86 129.731 114.183 120.531 116.371ZM111.408 122.755C109.029 133.237 106.257 145.449 101.396 148.919C90.3298 156.819 83.2734 143.555 87.5608 133.343C91.8482 123.13 100.472 118.892 112.76 116.926C112.316 118.753 111.869 120.721 111.408 122.755ZM122.753 111.411C133.236 109.032 145.448 106.261 148.919 101.401C156.819 90.3355 143.554 83.2797 133.341 87.5668C123.127 91.8538 118.889 100.477 116.923 112.764C117.77 112.558 118.647 112.351 119.547 112.143C120.589 111.902 121.662 111.659 122.753 111.411ZM68.5773 86.4286C73.813 93.3964 76.2073 102.772 76.2073 116.531C76.2073 123.221 75.5518 128.772 74.3411 133.191C63.6427 120.84 58.6704 116.38 42.4707 112.533C38.6234 96.3346 34.1629 91.3628 21.8109 80.6654C26.2303 79.4548 31.7818 78.7994 38.472 78.7994C52.2329 78.7994 61.609 81.1934 68.5773 86.4286ZM38.6386 120.528C38.3693 119.403 38.104 118.28 37.8406 117.163C37.2527 117.024 36.663 116.885 36.0722 116.745C35.5405 116.619 35.0079 116.492 34.4749 116.365C25.2728 114.175 16.0227 111.853 9.42422 108.251C9.29904 109.95 9.23304 111.765 9.23304 113.7C9.23304 123.572 10.8725 132.284 16.0784 138.923C22.7179 144.128 31.4308 145.767 41.3034 145.767C43.2386 145.767 45.0539 145.702 46.7531 145.576C43.1511 138.979 40.8281 129.729 38.6386 120.528ZM53.6131 148.918C48.7514 145.447 45.9794 133.233 43.6 122.749L43.5943 122.724L43.586 122.687C43.1292 120.675 42.687 118.728 42.2473 116.92C54.5373 118.886 63.1628 123.124 67.4509 133.339C71.7391 143.553 64.6814 156.82 53.6131 148.918ZM32.2533 111.404L32.2578 111.405C34.2901 111.866 36.2575 112.312 38.0836 112.756C36.1171 100.467 31.8786 91.8427 21.6632 87.5549C11.4477 83.2671 -1.81989 90.3242 6.08242 101.392C9.55351 106.253 21.7683 109.024 32.2533 111.404ZM78.7927 38.4688C78.7927 52.2284 81.187 61.6036 86.4227 68.5714C93.3909 73.8066 102.767 76.2007 116.528 76.2007C123.218 76.2007 128.77 75.5453 133.189 74.3346C120.837 63.6372 116.377 58.6654 112.529 42.4671C96.3296 38.6201 91.3573 34.16 80.6589 21.8091C79.4482 26.2282 78.7927 31.7791 78.7927 38.4688ZM117.159 37.8374C116.896 36.7204 116.631 35.597 116.361 34.472C114.172 25.2708 111.849 16.0215 108.247 9.42353C109.946 9.29821 111.761 9.23237 113.697 9.23237C123.569 9.23237 132.282 10.8716 138.922 16.0772C144.128 22.716 145.767 31.4282 145.767 41.2999C145.767 43.2349 145.701 45.0499 145.576 46.7491C138.977 43.1474 129.727 40.8246 120.525 38.6353C119.4 38.366 118.277 38.1008 117.159 37.8374ZM111.4 32.2508C109.021 21.7666 106.249 9.5529 101.387 6.08203C90.3186 -1.81959 83.2609 11.4469 87.5491 21.6614C91.8372 31.8759 100.463 36.114 112.753 38.0804C112.31 36.2611 111.866 34.3016 111.406 32.2772L111.4 32.2508ZM122.747 43.5964C133.233 45.9757 145.446 48.7474 148.918 53.6086C156.82 64.6758 143.552 71.7329 133.337 67.4451C123.121 63.1573 118.883 54.5326 116.916 42.2437C118.743 42.6878 120.711 43.1343 122.744 43.5956L122.747 43.5964ZM77.259 104.938C79.603 81.9851 81.5025 80.0851 104.456 77.74C81.5036 75.3974 79.603 73.4966 77.259 50.5435C74.9149 73.4955 73.0155 75.396 50.0618 77.74C73.0143 80.0854 74.9149 81.9848 77.259 104.938Z" fill="#E8E4DF"/>
<path d="M12.3651 176C14.1499 176 15.5476 175.613 16.5798 174.796C17.5905 174 18.1066 172.903 18.1066 171.505C18.1066 170.366 17.7195 169.441 16.9884 168.753C16.2357 168.065 15.01 167.527 13.3327 167.14L11.978 166.839C10.5588 166.538 9.61261 166.172 9.13953 165.742C8.62344 165.333 8.3869 164.753 8.3869 164C8.3869 163.269 8.66645 162.688 9.24705 162.258C9.82765 161.849 10.6663 161.634 11.7415 161.634C13.1607 161.634 14.1714 161.892 14.795 162.409C15.4186 162.925 15.7842 163.72 15.8702 164.796H17.7195C17.698 164.151 17.5905 163.548 17.3754 162.989C17.1604 162.452 16.8378 161.957 16.4078 161.484C15.9562 161.011 15.3326 160.645 14.5369 160.387C13.7413 160.129 12.8167 160 11.7415 160C10.1502 160 8.88149 160.366 7.93533 161.097C6.98917 161.828 6.51609 162.796 6.51609 164C6.51609 165.247 6.90315 166.194 7.67728 166.882C8.45142 167.57 9.61261 168.086 11.1609 168.43L12.5156 168.731C13.8918 169.032 14.838 169.398 15.3971 169.806C15.9562 170.215 16.2357 170.774 16.2357 171.505C16.2357 172.452 15.8917 173.161 15.2251 173.634C14.5585 174.129 13.6123 174.366 12.3651 174.366C9.39758 174.366 7.91382 173.118 7.87082 170.602H6C6 172.409 6.5806 173.742 7.69879 174.645C8.81698 175.548 10.3652 176 12.3651 176Z" fill="#E8E4DF"/>
<path d="M18.4368 160.344V161.979H23.6407V175.656H25.5115V161.979H30.7154V160.344H18.4368Z" fill="#E8E4DF"/>
<path fill-rule="evenodd" clip-rule="evenodd" d="M36.9256 160.344L43.1187 175.656H41.2048L39.42 171.204H32.4528L30.6895 175.656H28.7972L34.9043 160.344H36.9256ZM35.8934 162.301C34.8613 165.032 33.9581 167.398 33.1625 169.398L33.098 169.57H38.7749L38.6889 169.376C38.3277 168.526 37.4206 166.207 35.947 162.438L35.8934 162.301Z" fill="#E8E4DF"/>
<path d="M54.3168 168.796C53.9728 169.591 53.3707 171.14 52.5105 173.462C52.2413 172.78 51.9834 172.128 51.7366 171.505L51.7357 171.502C51.3915 170.632 51.0692 169.817 50.7687 169.054L47.2206 160.344H44.8552V175.656H46.6185V170.753C46.6185 167.527 46.597 164.925 46.554 162.946C46.8981 163.892 47.3497 165.054 47.9088 166.43L51.7149 175.656H53.2632L57.0478 166.43C57.6069 165.054 58.0585 163.892 58.4025 162.946C58.3595 164.925 58.338 167.527 58.338 170.753V175.656H60.1013V160.344H57.7359L54.3168 168.796Z" fill="#E8E4DF"/>
<path d="M65.1303 160.344V175.656H63.324V160.344H65.1303Z" fill="#E8E4DF"/>
<path d="M78.7393 165.505C78.7393 168.774 78.7608 171.419 78.8038 173.419C78.1372 172.301 77.0835 170.559 75.6212 168.237L70.5464 160.344H68.353V175.656H70.1378V170.495C70.1378 167.226 70.1163 164.602 70.0733 162.581C70.7184 163.72 71.7936 165.441 73.2558 167.763L78.3307 175.656H80.5241V160.344H78.7393V165.505Z" fill="#E8E4DF"/>
<path fill-rule="evenodd" clip-rule="evenodd" d="M90.389 160.344L96.5821 175.656H94.6683L92.8835 171.204H85.9163L84.153 175.656H82.2607L88.3677 160.344H90.389ZM89.3569 162.301C88.3247 165.032 87.4215 167.398 86.6259 169.398L86.5614 169.57H92.2383L92.1523 169.376C91.7913 168.527 90.8848 166.209 89.4122 162.443L89.3569 162.301Z" fill="#E8E4DF"/>
<path d="M106.314 175.472C109.406 175.472 111.004 173.845 112.083 171.03L112.249 171.072L111.834 174.262C111.046 174.867 109.28 175.889 106.707 175.889C101.954 175.889 98.7181 172.365 98.7181 167.924C98.7181 163.482 101.79 160 106.77 160C108.763 160 110.734 160.584 111.751 161.043L112.166 163.983L112 164.024C110.63 161.46 109.012 160.417 106.687 160.417C102.205 160.417 100.088 163.628 100.088 167.924C100.088 172.219 102.08 175.472 106.314 175.472Z" fill="#E8E4DF"/>
<path d="M124.308 172.198L123.354 175.576H114.471V175.534C115.156 174.659 115.301 174.158 115.301 172.99V162.898C115.301 161.731 115.156 161.23 114.471 160.354V160.313H117.252V160.354C116.567 161.23 116.422 161.71 116.422 162.898V175.222L120.739 175.076C122.088 175.013 123.022 174.116 124.142 172.136L124.308 172.198Z" fill="#E8E4DF"/>
<path d="M132.118 175.889C136.04 175.889 136.851 173.324 136.851 170.342V163.232C136.851 161.918 137.1 161.376 138.138 160.354V160.313H134.921V160.354C136.145 161.376 136.415 161.918 136.415 163.232V170.363C136.415 173.011 135.398 175.43 131.829 175.43C129.234 175.43 127.097 174.137 127.097 170.551V162.961C127.097 161.752 127.367 161.105 127.927 160.354V160.313H125.146V160.354C125.831 161.251 125.976 161.752 125.976 162.961V170.613C125.976 174.367 129.046 175.889 132.118 175.889Z" fill="#E8E4DF"/>
<path fill-rule="evenodd" clip-rule="evenodd" d="M150 171.343C150 173.866 148.257 175.576 144.438 175.576H139.582V175.534C140.267 174.659 140.412 174.158 140.412 172.99V162.898C140.412 161.731 140.267 161.23 139.582 160.354V160.313C141.695 160.313 142.504 160.281 143.13 160.257C143.524 160.242 143.846 160.229 144.376 160.229C148.63 160.209 149.315 162.231 149.315 163.753C149.315 165.546 148.381 167.048 146.576 167.527C149.045 167.798 150 169.508 150 171.343ZM141.533 160.751V167.423H145.061C147.406 167.423 148.174 165.588 148.174 163.899C148.174 161.731 146.866 160.646 144.314 160.646C143.297 160.646 142.321 160.688 141.533 160.751ZM141.533 175.013C142.363 175.096 143.359 175.159 144.376 175.159C147.427 175.159 148.755 173.679 148.755 171.427C148.755 169.321 147.613 167.84 145.268 167.84H141.533V175.013Z" fill="#E8E4DF"/>
</svg>
