<svg width="637" height="685" viewBox="0 0 637 685" fill="none" xmlns="http://www.w3.org/2000/svg">
<circle cx="318" cy="265" r="126" fill="#E6E6E6"/>
<circle cx="317.374" cy="264.37" r="114.03" fill="#737373"/>
<circle cx="318.007" cy="265" r="100.8" fill="#AFAFAF"/>
<g filter="url(#filter0_dd_435_3160)">
<circle cx="317.993" cy="265" r="88.2" fill="white"/>
</g>
<path d="M147.937 626.672C147.312 626.672 146.487 626.697 145.487 626.748L145.462 626.12C146.462 625.693 146.662 625.215 146.937 624.06C147.137 623.231 147.337 622.1 147.487 621.246L148.662 614.565C149.012 612.58 149.187 611.952 149.187 611.073C149.187 610.395 148.937 610.018 148.112 609.691L148.237 609.063C149.187 609.114 149.762 609.139 150.387 609.139C151.012 609.139 151.587 609.114 152.587 609.063L152.612 609.691C151.612 610.118 151.412 610.596 151.137 611.751C150.937 612.58 150.737 613.711 150.587 614.565L149.362 621.498C149.012 623.432 148.937 624.01 148.937 624.688C148.937 625.441 149.337 625.693 150.337 625.693C151.412 625.693 152.062 625.693 152.812 625.567C153.737 625.416 154.312 625.014 154.812 624.411C155.237 623.884 155.587 623.231 156.087 622.251L156.737 622.502C156.412 624.085 156.037 625.416 155.587 626.798C153.662 626.697 151.112 626.672 147.937 626.672Z" fill="#E8E4DF"/>
<path d="M164.585 617.127C164.585 618.684 163.185 620.694 158.635 621.523C158.435 622.251 158.335 622.98 158.335 623.683C158.335 625.039 158.81 625.492 159.435 625.492C160.36 625.492 161.135 624.788 162.485 622.904L163.01 623.231C161.935 625.617 160.41 627.124 159.06 627.124C157.66 627.124 156.735 626.12 156.735 624.361C156.735 619.99 160.135 615.268 162.785 615.268C164.085 615.268 164.585 616.248 164.585 617.127ZM162.26 616.549C161.01 616.549 159.61 618.408 158.86 620.694C162.06 619.84 162.96 618.533 162.96 617.403C162.96 616.901 162.71 616.549 162.26 616.549Z" fill="#E8E4DF"/>
<path d="M174.007 625.994C176.007 625.994 177.332 624.713 177.332 622.98C177.332 622.05 177.007 621.272 176.382 620.644C175.832 620.091 175.457 619.714 173.932 618.634C171.782 617.127 171.307 616.725 170.632 615.846C170.007 615.042 169.757 614.313 169.757 613.133C169.757 610.621 171.857 608.737 174.757 608.737C176.332 608.737 177.582 609.089 178.857 609.767C178.882 610.445 178.907 610.922 178.907 611.5C178.907 612.078 178.882 612.605 178.857 613.283L178.157 613.334C177.932 612.455 177.682 611.726 177.107 611.048C176.432 610.269 175.757 609.892 174.557 609.892C172.782 609.892 171.582 610.998 171.582 612.706C171.582 613.484 171.757 614.112 172.457 614.841C172.932 615.318 173.257 615.595 174.857 616.725C176.832 618.106 177.432 618.533 178.132 619.337C178.832 620.166 179.307 621.372 179.307 622.502C179.307 625.316 177.107 627.124 173.832 627.124C172.132 627.124 170.932 626.873 169.732 626.295C169.457 624.914 169.382 623.658 169.232 622.226L170.007 622.05C170.282 622.854 170.507 623.507 170.882 624.135C171.607 625.416 172.332 625.994 174.007 625.994Z" fill="#E8E4DF"/>
<path d="M186.715 608.687H187.19L191.815 621.246C192.115 622.05 192.565 623.231 192.94 624.06C193.415 625.165 193.84 625.693 194.665 626.12L194.59 626.748C193.615 626.672 193.165 626.672 192.54 626.672C191.915 626.672 190.99 626.672 190.015 626.748L189.94 626.12C190.615 625.818 190.89 625.592 190.89 625.115C190.89 624.537 190.515 623.557 189.69 621.246L189.49 620.744H183.39L183.215 621.246C182.34 623.557 182.19 624.512 182.19 625.09C182.19 625.567 182.415 625.843 183.14 626.12L183.065 626.748C182.09 626.672 181.59 626.672 180.965 626.672C180.34 626.672 179.99 626.672 179.115 626.748L179.04 626.12C179.865 625.693 180.29 625.165 180.765 624.06C181.14 623.231 181.59 622.05 181.89 621.246L186.715 608.687ZM186.54 612.555L183.815 619.664H189.115L186.54 612.555Z" fill="#E8E4DF"/>
<path d="M210.162 626.923L209.562 627.124L197.237 612.178V621.272C197.237 622.151 197.237 623.256 197.312 624.085C197.412 625.266 197.637 625.718 198.662 626.145L198.587 626.773C197.812 626.722 197.137 626.697 196.562 626.697C195.962 626.697 195.362 626.697 194.587 626.773L194.512 626.145C195.537 625.718 195.737 625.266 195.837 624.085C195.912 623.256 195.912 622.151 195.912 621.272V614.565C195.912 613.685 195.912 612.731 195.837 611.902C195.737 610.721 195.412 610.118 194.387 609.691L194.462 609.063C195.237 609.114 196.212 609.139 197.387 609.139L208.737 622.829V614.565C208.737 613.685 208.737 612.58 208.662 611.751C208.562 610.571 208.337 610.118 207.312 609.691L207.387 609.063C208.162 609.114 208.837 609.139 209.412 609.139C210.012 609.139 210.612 609.139 211.387 609.063L211.462 609.691C210.437 610.118 210.237 610.571 210.137 611.751C210.062 612.58 210.062 613.685 210.062 614.565V622.804C210.062 624.01 210.087 625.617 210.162 626.923Z" fill="#E8E4DF"/>
<path d="M222.302 625.994C224.377 625.994 225.427 625.266 226.302 623.683C226.677 623.005 226.877 622.327 227.177 621.447L227.927 621.573C227.802 623.105 227.677 624.311 227.402 625.793C225.877 626.697 224.002 627.124 221.977 627.124C217.127 627.124 212.252 623.984 212.252 617.88C212.252 612.354 216.677 608.737 221.952 608.737C224.077 608.737 225.802 609.164 227.477 609.993C227.502 610.671 227.527 611.249 227.527 611.827C227.527 612.404 227.502 613.007 227.477 613.711L226.727 613.761C226.502 612.831 226.227 612.028 225.652 611.349C224.952 610.545 223.802 609.892 221.977 609.892C217.577 609.892 214.602 613.133 214.602 617.855C214.602 622.98 218.427 625.994 222.302 625.994Z" fill="#E8E4DF"/>
<path d="M231.019 609.139H240.044C241.069 609.139 241.894 609.139 242.869 609.063C242.919 610.269 242.944 611.5 242.944 612.731L242.219 612.781C241.944 611.852 241.694 611.324 241.319 610.922C240.944 610.52 240.369 610.319 239.894 610.244C239.269 610.144 238.719 610.118 237.919 610.118C236.744 610.118 236.594 610.319 236.519 611.324C236.444 612.103 236.444 613.007 236.444 613.911V621.246C236.444 622.126 236.494 623.231 236.519 624.06C236.569 625.341 236.844 625.743 238.044 626.069L237.969 626.748C236.994 626.672 236.094 626.672 235.469 626.672C234.844 626.672 233.894 626.672 232.919 626.748L232.844 626.069C234.044 625.743 234.319 625.341 234.369 624.06C234.394 623.231 234.444 622.126 234.444 621.246V613.911C234.444 613.007 234.444 612.103 234.369 611.324C234.294 610.319 234.144 610.118 232.969 610.118C232.169 610.118 231.644 610.144 231.019 610.244C230.544 610.319 229.969 610.52 229.594 610.922C229.219 611.324 228.944 611.852 228.669 612.781L227.944 612.731C228.019 611.5 228.094 610.294 228.194 609.063C229.169 609.139 229.994 609.139 231.019 609.139Z" fill="#E8E4DF"/>
<path d="M256.752 614.565V620.342C256.752 624.286 254.127 627.124 250.252 627.124C246.252 627.124 243.877 624.763 243.877 620.719V614.565C243.877 613.685 243.877 612.58 243.802 611.751C243.727 610.646 243.552 610.093 242.552 609.691L242.627 609.063C243.602 609.139 244.277 609.139 244.902 609.139C245.527 609.139 246.177 609.139 247.152 609.063L247.227 609.691C246.202 610.118 245.977 610.571 245.952 611.751C245.927 612.58 245.877 613.685 245.877 614.565V620.669C245.877 623.909 247.577 625.743 250.402 625.743C253.402 625.743 255.427 623.758 255.427 620.016V614.565C255.427 613.685 255.427 612.58 255.352 611.751C255.252 610.571 255.027 610.118 254.002 609.691L254.077 609.063C254.852 609.114 255.527 609.139 256.102 609.139C256.702 609.139 257.302 609.139 258.077 609.063L258.152 609.691C257.127 610.118 256.927 610.571 256.827 611.751C256.752 612.58 256.752 613.685 256.752 614.565Z" fill="#E8E4DF"/>
<path d="M265.191 608.687H265.666L270.291 621.246C270.591 622.05 271.041 623.231 271.416 624.06C271.891 625.165 272.316 625.693 273.141 626.12L273.066 626.748C272.091 626.672 271.641 626.672 271.016 626.672C270.391 626.672 269.466 626.672 268.491 626.748L268.416 626.12C269.091 625.818 269.366 625.592 269.366 625.115C269.366 624.537 268.991 623.557 268.166 621.246L267.966 620.744H261.866L261.691 621.246C260.816 623.557 260.666 624.512 260.666 625.09C260.666 625.567 260.891 625.843 261.616 626.12L261.541 626.748C260.566 626.672 260.066 626.672 259.441 626.672C258.816 626.672 258.466 626.672 257.591 626.748L257.516 626.12C258.341 625.693 258.766 625.165 259.241 624.06C259.616 623.231 260.066 622.05 260.366 621.246L265.191 608.687ZM265.016 612.555L262.291 619.664H267.591L265.016 612.555Z" fill="#E8E4DF"/>
<path d="M276.339 614.565V621.246C276.339 622.126 276.389 623.231 276.414 624.06C276.464 625.24 276.664 625.693 277.689 626.12L277.614 626.748C276.639 626.672 275.989 626.672 275.364 626.672C274.739 626.672 274.064 626.672 273.089 626.748L273.014 626.12C274.014 625.718 274.189 625.165 274.264 624.06C274.339 623.231 274.339 622.126 274.339 621.246V614.565C274.339 613.685 274.339 612.58 274.264 611.751C274.189 610.646 274.014 610.093 273.014 609.691L273.089 609.063C274.064 609.139 274.739 609.139 275.364 609.139C275.989 609.139 276.639 609.139 277.614 609.063L277.689 609.691C276.664 610.118 276.464 610.571 276.414 611.751C276.389 612.58 276.339 613.685 276.339 614.565Z" fill="#E8E4DF"/>
<path d="M283.519 618.458C283.119 618.458 282.344 618.433 282.044 618.358V621.246C282.044 622.126 282.044 623.231 282.094 624.06C282.169 625.24 282.369 625.693 283.394 626.12L283.319 626.748C282.344 626.672 281.694 626.672 281.069 626.672C280.444 626.672 279.769 626.672 278.794 626.748L278.719 626.12C279.719 625.718 279.894 625.165 279.969 624.06C280.044 623.231 280.044 622.126 280.044 621.246V614.565C280.044 613.685 280.044 612.58 279.969 611.751C279.894 610.646 279.719 610.093 278.719 609.691L278.794 609.063C279.769 609.139 280.444 609.139 281.069 609.139C282.044 609.139 282.919 609.089 284.144 609.089C287.544 609.089 289.444 611.199 289.444 613.56C289.444 615.595 288.419 617.127 286.619 617.906C287.944 620.367 289.044 622.301 290.844 624.587C291.519 625.416 292.444 626.195 293.144 626.396V626.923C292.744 627.099 292.244 627.124 291.869 627.124C290.794 627.124 289.794 626.547 288.719 625.039C287.244 623.03 286.219 621.221 284.894 618.358C284.519 618.433 284.044 618.458 283.519 618.458ZM283.519 610.068C282.344 610.068 282.194 610.319 282.119 611.324C282.044 612.103 282.044 613.007 282.044 613.911V617.428C282.244 617.453 282.419 617.453 283.194 617.453C285.969 617.453 287.319 616.047 287.319 613.811C287.319 611.5 286.019 610.068 283.519 610.068Z" fill="#E8E4DF"/>
<path d="M295.968 626.672C294.743 626.672 294.068 626.672 293.093 626.748L293.018 626.12C294.018 625.718 294.193 625.165 294.268 624.06C294.343 623.231 294.343 622.126 294.343 621.246V614.565C294.343 613.685 294.343 612.58 294.268 611.751C294.193 610.646 294.018 610.093 293.018 609.691L293.093 609.063C294.068 609.139 294.743 609.139 295.368 609.139H299.968C300.993 609.139 301.768 609.139 302.743 609.063C302.918 610.345 303.018 611.274 303.093 612.656L302.368 612.781C302.043 611.852 301.768 611.324 301.393 610.922C301.018 610.52 300.443 610.319 299.968 610.244C299.343 610.144 298.793 610.118 297.818 610.118C296.643 610.118 296.493 610.319 296.418 611.324C296.343 612.103 296.343 613.007 296.343 613.911V617.127C297.193 617.127 298.943 617.077 299.743 617.001C300.868 616.876 301.218 616.474 301.593 615.318L302.193 615.444C302.118 616.423 302.118 616.976 302.118 617.604C302.118 618.232 302.118 618.81 302.193 619.789L301.593 619.915C301.218 618.76 300.868 618.383 299.743 618.232C298.943 618.132 297.168 618.106 296.343 618.106V621.498C296.343 622.377 296.393 623.733 296.418 624.236C296.468 625.467 296.893 625.693 298.018 625.693C299.093 625.693 299.993 625.667 300.668 625.567C301.543 625.441 301.943 625.09 302.318 624.562C302.618 624.085 302.868 623.557 303.193 622.628L303.868 622.754C303.743 624.261 303.543 625.492 303.268 626.798C301.443 626.697 299.168 626.672 295.968 626.672Z" fill="#E8E4DF"/>
<path d="M319.55 612.58L316.75 623.13C316.375 624.487 316.35 624.839 316.35 624.939C316.35 625.09 316.425 625.215 316.625 625.215C316.9 625.215 317.7 624.738 319.05 622.929L319.6 623.306C317.925 626.069 316.725 626.974 315.85 626.974C315.225 626.974 314.725 626.572 314.725 625.894C314.725 625.291 314.85 624.587 315.35 622.728C313.55 626.145 312.125 627.124 311.025 627.124C309.6 627.124 308.925 626.095 308.925 624.713C308.925 622.653 310.275 619.664 311.975 617.679C313.125 616.323 314.45 615.419 315.775 615.419C316.225 615.419 316.675 615.544 317.05 615.745L317.9 612.58C318.175 611.6 318.3 610.621 318.3 610.068C318.3 609.516 318.025 609.164 317.15 608.913L317.2 608.285C318.45 608.184 319.375 608.084 320.5 607.833L320.875 608.234C320.3 609.943 320.05 610.696 319.55 612.58ZM310.5 624.236C310.5 625.039 310.825 625.517 311.475 625.517C312.35 625.517 314.3 624.085 316 619.614C316.275 618.91 316.375 618.408 316.6 617.453C316.175 617.051 315.725 616.876 315.35 616.876C314.475 616.876 313.575 617.303 312.75 618.358C311.375 620.116 310.5 622.452 310.5 624.236Z" fill="#E8E4DF"/>
<path d="M326.124 621.9C323.924 626.145 322.774 626.974 321.549 626.974C320.499 626.974 319.849 626.095 319.849 625.19C319.849 624.587 320.074 623.809 320.524 622.628L322.024 618.709C322.299 617.981 322.424 617.579 322.424 617.278C322.424 617.051 322.324 616.85 322.099 616.85C321.674 616.85 321.224 617.353 320.074 618.785L319.574 618.358C320.974 616.248 321.924 615.268 322.949 615.268C323.549 615.268 324.074 615.821 324.074 616.624C324.074 617.202 323.949 617.705 323.324 619.362L321.824 623.382C321.574 624.035 321.499 624.361 321.499 624.713C321.499 625.115 321.699 625.366 322.174 625.366C323.074 625.366 325.274 623.356 327.649 616.574L327.999 615.569C328.149 615.494 328.349 615.444 328.549 615.444C328.924 615.444 329.324 615.67 329.549 616.122C328.824 618.132 328.549 618.785 328.099 620.342C327.349 622.955 327.124 624.06 327.074 624.512C327.049 624.763 327.049 624.964 327.049 625.09C327.049 625.215 327.149 625.366 327.299 625.366C327.574 625.366 328.024 625.115 329.324 623.407L329.849 623.809C328.349 626.245 327.349 626.974 326.474 626.974C325.774 626.974 325.424 626.471 325.424 625.743C325.424 625.165 325.424 624.462 326.124 621.9Z" fill="#E8E4DF"/>
<path d="M340.01 625.994C342.01 625.994 343.335 624.713 343.335 622.98C343.335 622.05 343.01 621.272 342.385 620.644C341.835 620.091 341.46 619.714 339.935 618.634C337.785 617.127 337.31 616.725 336.635 615.846C336.01 615.042 335.76 614.313 335.76 613.133C335.76 610.621 337.86 608.737 340.76 608.737C342.335 608.737 343.585 609.089 344.86 609.767C344.885 610.445 344.91 610.922 344.91 611.5C344.91 612.078 344.885 612.605 344.86 613.283L344.16 613.334C343.935 612.455 343.685 611.726 343.11 611.048C342.435 610.269 341.76 609.892 340.56 609.892C338.785 609.892 337.585 610.998 337.585 612.706C337.585 613.484 337.76 614.112 338.46 614.841C338.935 615.318 339.26 615.595 340.86 616.725C342.835 618.106 343.435 618.533 344.135 619.337C344.835 620.166 345.31 621.372 345.31 622.502C345.31 625.316 343.11 627.124 339.835 627.124C338.135 627.124 336.935 626.873 335.735 626.295C335.46 624.914 335.385 623.658 335.235 622.226L336.01 622.05C336.285 622.854 336.51 623.507 336.885 624.135C337.61 625.416 338.335 625.994 340.01 625.994Z" fill="#E8E4DF"/>
<path d="M348.219 609.139H357.244C358.269 609.139 359.094 609.139 360.069 609.063C360.119 610.269 360.144 611.5 360.144 612.731L359.419 612.781C359.144 611.852 358.894 611.324 358.519 610.922C358.144 610.52 357.569 610.319 357.094 610.244C356.469 610.144 355.919 610.118 355.119 610.118C353.944 610.118 353.794 610.319 353.719 611.324C353.644 612.103 353.644 613.007 353.644 613.911V621.246C353.644 622.126 353.694 623.231 353.719 624.06C353.769 625.341 354.044 625.743 355.244 626.069L355.169 626.748C354.194 626.672 353.294 626.672 352.669 626.672C352.044 626.672 351.094 626.672 350.119 626.748L350.044 626.069C351.244 625.743 351.519 625.341 351.569 624.06C351.594 623.231 351.644 622.126 351.644 621.246V613.911C351.644 613.007 351.644 612.103 351.569 611.324C351.494 610.319 351.344 610.118 350.169 610.118C349.369 610.118 348.844 610.144 348.219 610.244C347.744 610.319 347.169 610.52 346.794 610.922C346.419 611.324 346.144 611.852 345.869 612.781L345.144 612.731C345.219 611.5 345.294 610.294 345.394 609.063C346.369 609.139 347.194 609.139 348.219 609.139Z" fill="#E8E4DF"/>
<path d="M365.406 608.687H365.881L370.506 621.246C370.806 622.05 371.256 623.231 371.631 624.06C372.106 625.165 372.531 625.693 373.356 626.12L373.281 626.748C372.306 626.672 371.856 626.672 371.231 626.672C370.606 626.672 369.681 626.672 368.706 626.748L368.631 626.12C369.306 625.818 369.581 625.592 369.581 625.115C369.581 624.537 369.206 623.557 368.381 621.246L368.181 620.744H362.081L361.906 621.246C361.031 623.557 360.881 624.512 360.881 625.09C360.881 625.567 361.106 625.843 361.831 626.12L361.756 626.748C360.781 626.672 360.281 626.672 359.656 626.672C359.031 626.672 358.681 626.672 357.806 626.748L357.731 626.12C358.556 625.693 358.981 625.165 359.456 624.06C359.831 623.231 360.281 622.05 360.581 621.246L365.406 608.687ZM365.231 612.555L362.506 619.664H367.806L365.231 612.555Z" fill="#E8E4DF"/>
<path d="M390.004 611.299L383.329 627.124H382.804L376.104 611.852L375.779 621.272C375.754 621.849 375.729 622.578 375.729 623.256C375.729 624.562 375.779 625.743 377.129 626.145L377.054 626.773C376.279 626.722 375.604 626.697 375.004 626.697C374.404 626.697 373.804 626.697 373.029 626.773L372.954 626.145C373.979 625.718 374.204 625.266 374.304 624.085C374.379 623.256 374.379 622.151 374.429 621.272L374.729 614.565C374.754 613.987 374.754 613.61 374.754 613.133C374.754 611.726 374.729 610.169 373.204 609.691L373.279 609.063C374.679 609.139 375.704 609.139 377.179 609.139L383.479 623.708L389.404 609.139C390.779 609.139 392.329 609.139 393.304 609.063L393.379 609.691C392.354 610.093 392.154 610.621 392.079 611.751C392.054 612.354 392.029 613.133 392.029 613.836C392.029 614.112 392.079 614.339 392.204 621.272C392.229 622.151 392.229 623.256 392.304 624.085C392.304 625.266 392.579 625.718 393.604 626.145L393.529 626.773C392.554 626.697 391.929 626.697 391.304 626.697C390.679 626.697 390.004 626.697 389.029 626.773L388.954 626.145C390.229 625.818 390.254 624.512 390.254 623.306C390.254 622.678 390.254 621.9 390.229 621.272L390.004 611.299Z" fill="#E8E4DF"/>
<path d="M397.811 614.565V621.246C397.811 622.126 397.861 623.231 397.886 624.06C397.936 625.24 398.136 625.693 399.161 626.12L399.086 626.748C398.111 626.672 397.461 626.672 396.836 626.672C396.211 626.672 395.536 626.672 394.561 626.748L394.486 626.12C395.486 625.718 395.661 625.165 395.736 624.06C395.811 623.231 395.811 622.126 395.811 621.246V614.565C395.811 613.685 395.811 612.58 395.736 611.751C395.661 610.646 395.486 610.093 394.486 609.691L394.561 609.063C395.536 609.139 396.211 609.139 396.836 609.139C397.461 609.139 398.111 609.139 399.086 609.063L399.161 609.691C398.136 610.118 397.936 610.571 397.886 611.751C397.861 612.58 397.811 613.685 397.811 614.565Z" fill="#E8E4DF"/>
<path d="M415.816 626.923L415.216 627.124L402.891 612.178V621.272C402.891 622.151 402.891 623.256 402.966 624.085C403.066 625.266 403.291 625.718 404.316 626.145L404.241 626.773C403.466 626.722 402.791 626.697 402.216 626.697C401.616 626.697 401.016 626.697 400.241 626.773L400.166 626.145C401.191 625.718 401.391 625.266 401.491 624.085C401.566 623.256 401.566 622.151 401.566 621.272V614.565C401.566 613.685 401.566 612.731 401.491 611.902C401.391 610.721 401.066 610.118 400.041 609.691L400.116 609.063C400.891 609.114 401.866 609.139 403.041 609.139L414.391 622.829V614.565C414.391 613.685 414.391 612.58 414.316 611.751C414.216 610.571 413.991 610.118 412.966 609.691L413.041 609.063C413.816 609.114 414.491 609.139 415.066 609.139C415.666 609.139 416.266 609.139 417.041 609.063L417.116 609.691C416.091 610.118 415.891 610.571 415.791 611.751C415.716 612.58 415.716 613.685 415.716 614.565V622.804C415.716 624.01 415.741 625.617 415.816 626.923Z" fill="#E8E4DF"/>
<path d="M424.53 608.687H425.005L429.63 621.246C429.93 622.05 430.38 623.231 430.755 624.06C431.23 625.165 431.655 625.693 432.48 626.12L432.405 626.748C431.43 626.672 430.98 626.672 430.355 626.672C429.73 626.672 428.805 626.672 427.83 626.748L427.755 626.12C428.43 625.818 428.705 625.592 428.705 625.115C428.705 624.537 428.33 623.557 427.505 621.246L427.305 620.744H421.205L421.03 621.246C420.155 623.557 420.005 624.512 420.005 625.09C420.005 625.567 420.23 625.843 420.955 626.12L420.88 626.748C419.905 626.672 419.405 626.672 418.78 626.672C418.155 626.672 417.805 626.672 416.93 626.748L416.855 626.12C417.68 625.693 418.105 625.165 418.58 624.06C418.955 623.231 419.405 622.05 419.705 621.246L424.53 608.687ZM424.355 612.555L421.63 619.664H426.93L424.355 612.555Z" fill="#E8E4DF"/>
<path d="M447.178 625.994C449.253 625.994 450.303 625.266 451.178 623.683C451.553 623.005 451.753 622.327 452.053 621.447L452.803 621.573C452.678 623.105 452.553 624.311 452.278 625.793C450.753 626.697 448.878 627.124 446.853 627.124C442.003 627.124 437.128 623.984 437.128 617.88C437.128 612.354 441.553 608.737 446.828 608.737C448.953 608.737 450.678 609.164 452.353 609.993C452.378 610.671 452.403 611.249 452.403 611.827C452.403 612.404 452.378 613.007 452.353 613.711L451.603 613.761C451.378 612.831 451.103 612.028 450.528 611.349C449.828 610.545 448.678 609.892 446.853 609.892C442.453 609.892 439.478 613.133 439.478 617.855C439.478 622.98 443.303 625.994 447.178 625.994Z" fill="#E8E4DF"/>
<path d="M457.195 614.565V621.498C457.195 622.377 457.22 623.733 457.27 624.236C457.395 625.467 457.745 625.693 458.87 625.693C459.945 625.693 460.695 625.693 461.42 625.567C462.32 625.391 462.795 624.989 463.17 624.411C463.495 623.934 463.77 623.356 464.095 622.377L464.82 622.502C464.695 624.11 464.47 625.391 464.195 626.798C462.22 626.697 460.02 626.672 456.82 626.672C455.595 626.672 454.92 626.672 453.945 626.748L453.87 626.12C454.87 625.718 455.045 625.165 455.12 624.06C455.195 623.231 455.195 622.126 455.195 621.246V614.565C455.195 613.685 455.195 612.58 455.12 611.751C455.045 610.646 454.87 610.093 453.87 609.691L453.945 609.063C454.92 609.139 455.595 609.139 456.17 609.139C456.795 609.139 457.47 609.139 458.445 609.063L458.52 609.691C457.52 610.093 457.345 610.646 457.27 611.751C457.195 612.58 457.195 613.685 457.195 614.565Z" fill="#E8E4DF"/>
<path d="M478.918 614.565V620.342C478.918 624.286 476.293 627.124 472.418 627.124C468.418 627.124 466.043 624.763 466.043 620.719V614.565C466.043 613.685 466.043 612.58 465.968 611.751C465.893 610.646 465.718 610.093 464.718 609.691L464.793 609.063C465.768 609.139 466.443 609.139 467.068 609.139C467.693 609.139 468.343 609.139 469.318 609.063L469.393 609.691C468.368 610.118 468.143 610.571 468.118 611.751C468.093 612.58 468.043 613.685 468.043 614.565V620.669C468.043 623.909 469.743 625.743 472.568 625.743C475.568 625.743 477.593 623.758 477.593 620.016V614.565C477.593 613.685 477.593 612.58 477.518 611.751C477.418 610.571 477.193 610.118 476.168 609.691L476.243 609.063C477.018 609.114 477.693 609.139 478.268 609.139C478.868 609.139 479.468 609.139 480.243 609.063L480.318 609.691C479.293 610.118 479.093 610.571 478.993 611.751C478.918 612.58 478.918 613.685 478.918 614.565Z" fill="#E8E4DF"/>
<path d="M486.582 616.7C489.157 616.499 490.157 615.243 490.157 613.459C490.157 611.224 488.707 610.068 486.607 610.068C484.782 610.068 484.307 610.495 484.232 611.4C484.157 612.178 484.157 613.083 484.157 613.987V616.8C485.032 616.8 485.907 616.775 486.582 616.7ZM488.932 617.177C491.282 617.579 492.982 619.136 492.982 621.673C492.982 624.587 490.782 626.798 486.532 626.798C485.932 626.798 484.682 626.672 483.057 626.672C482.557 626.672 481.882 626.672 480.907 626.748L480.832 626.12C481.832 625.718 482.032 625.165 482.107 624.06C482.157 623.231 482.157 622.126 482.157 621.246V614.565C482.157 613.685 482.157 612.58 482.082 611.751C482.007 610.646 481.832 610.093 480.832 609.691L480.907 609.063C481.882 609.139 482.557 609.139 483.182 609.139C484.607 609.139 485.532 609.013 486.832 609.013C490.057 609.013 492.082 610.571 492.082 613.208C492.082 615.343 490.707 616.599 488.932 617.177ZM486.582 617.855C485.907 617.83 485.032 617.83 484.157 617.83V621.397C484.157 622.276 484.182 623.633 484.232 624.135C484.357 625.391 484.832 625.718 486.657 625.718C489.432 625.718 490.982 624.361 490.982 621.724C490.982 619.136 489.457 617.956 486.582 617.855Z" fill="#E8E4DF"/>
<path d="M26.2054 572.191C37.1815 572.191 44.4532 565.049 44.4532 555.386C44.4532 550.204 42.6696 545.862 39.2395 542.361C36.2211 539.28 34.1631 537.18 25.7938 531.158C13.9945 522.755 11.3877 520.514 7.68326 515.613C4.25324 511.131 2.88122 507.07 2.88122 500.488C2.88122 486.484 14.4061 475.98 30.3215 475.98C38.9651 475.98 45.8252 477.941 52.8224 481.722C52.9596 485.503 53.0969 488.164 53.0969 491.385C53.0969 494.606 52.9596 497.547 52.8224 501.328L48.9808 501.608C47.746 496.707 46.374 492.646 43.2184 488.864C39.5139 484.523 35.8095 482.422 29.2238 482.422C19.4826 482.422 12.8969 488.584 12.8969 498.107C12.8969 502.449 13.8573 505.95 17.6989 510.011C20.3058 512.672 22.0894 514.212 30.8703 520.514C41.7092 528.217 45.002 530.598 48.8436 535.079C52.6852 539.701 55.2921 546.423 55.2921 552.725C55.2921 568.41 43.2184 578.493 25.245 578.493C15.9153 578.493 9.32968 577.092 2.74402 573.871C1.23481 566.169 0.823207 559.167 0 551.184L4.25324 550.204C5.76245 554.685 6.99726 558.326 9.05528 561.828C13.0341 568.97 17.0129 572.191 26.2054 572.191Z" fill="#E8E4DF"/>
<path d="M127.779 566.729C127.779 569.39 129.151 571.211 132.581 572.891L131.895 576.392C126.956 576.112 122.291 575.972 118.861 575.972C115.431 575.972 112.824 576.112 107.474 576.392L107.611 572.891C111.452 571.211 113.373 569.95 114.882 567.289C116.803 564.068 117.489 558.747 118.861 546.983L119.822 538.72H90.735L85.3841 545.722C72.8988 561.968 71.5268 565.889 71.5268 568.69C71.5268 570.65 72.2128 571.631 75.6428 572.891L75.094 576.392C70.1548 576.112 68.0968 575.972 64.804 575.972C61.3739 575.972 59.1787 575.972 52.8675 576.392L52.7303 572.891C57.3951 570.23 59.5903 568.55 77.0149 545.722L131.209 475L137.109 476.26L129.426 545.722C127.916 559.027 127.779 563.788 127.779 566.729ZM124.898 493.766L95.2626 532.698H120.508L124.898 493.766Z" fill="#E8E4DF"/>
<path d="M230.086 577.372L226.794 578.493L159.153 495.166V545.862C159.153 550.764 159.153 556.926 159.565 561.547C160.114 568.13 161.349 570.65 166.974 573.031L166.562 576.532C162.309 576.252 158.605 576.112 155.449 576.112C152.156 576.112 148.863 576.112 144.61 576.532L144.198 573.031C149.824 570.65 150.921 568.13 151.47 561.547C151.882 556.926 151.882 550.764 151.882 545.862V508.471C151.882 503.569 151.882 498.247 151.47 493.626C150.921 487.044 149.138 483.683 143.512 481.302L143.924 477.801C148.177 478.081 153.528 478.221 159.977 478.221L222.266 554.545V508.471C222.266 503.569 222.266 497.407 221.854 492.786C221.305 486.204 220.071 483.683 214.445 481.302L214.857 477.801C219.11 478.081 222.815 478.221 225.97 478.221C229.263 478.221 232.556 478.221 236.809 477.801L237.221 481.302C231.596 483.683 230.498 486.204 229.949 492.786C229.538 497.407 229.538 503.569 229.538 508.471V554.405C229.538 561.127 229.675 570.09 230.086 577.372Z" fill="#E8E4DF"/>
<path d="M298.766 572.191C310.154 572.191 315.916 568.13 320.718 559.307C322.776 555.526 323.874 551.744 325.52 546.843L329.636 547.543C328.95 556.086 328.264 562.808 326.755 571.07C318.386 576.112 308.096 578.493 296.983 578.493C270.366 578.493 243.611 560.987 243.611 526.956C243.611 496.147 267.896 475.98 296.845 475.98C308.507 475.98 317.974 478.361 327.167 482.983C327.304 486.764 327.441 489.985 327.441 493.206C327.441 496.427 327.304 499.788 327.167 503.709L323.051 503.989C321.816 498.808 320.307 494.326 317.151 490.545C313.31 486.064 306.998 482.422 296.983 482.422C272.835 482.422 256.508 500.488 256.508 526.816C256.508 555.386 277.5 572.191 298.766 572.191Z" fill="#E8E4DF"/>
<path d="M348.667 478.221H398.196C403.822 478.221 408.349 478.221 413.7 477.801C413.974 484.523 414.112 491.385 414.112 498.247L410.133 498.527C408.624 493.346 407.252 490.405 405.194 488.164C403.136 485.923 399.98 484.803 397.373 484.383C393.943 483.823 390.925 483.683 386.534 483.683C380.086 483.683 379.263 484.803 378.851 490.405C378.439 494.746 378.439 499.788 378.439 504.829V545.722C378.439 550.624 378.714 556.786 378.851 561.407C379.125 568.55 380.635 570.79 387.22 572.611L386.809 576.392C381.458 575.972 376.518 575.972 373.088 575.972C369.658 575.972 364.445 575.972 359.094 576.392L358.682 572.611C365.268 570.79 366.777 568.55 367.052 561.407C367.189 556.786 367.463 550.624 367.463 545.722V504.829C367.463 499.788 367.463 494.746 367.052 490.405C366.64 484.803 365.817 483.683 359.368 483.683C354.978 483.683 352.097 483.823 348.667 484.383C346.06 484.803 342.904 485.923 340.846 488.164C338.788 490.405 337.279 493.346 335.77 498.527L331.791 498.247C332.203 491.385 332.614 484.663 333.163 477.801C338.514 478.221 343.041 478.221 348.667 478.221Z" fill="#E8E4DF"/>
<path d="M491.946 508.471V540.681C491.946 562.668 477.54 578.493 456.274 578.493C434.322 578.493 421.288 565.329 421.288 542.782V508.471C421.288 503.569 421.288 497.407 420.876 492.786C420.465 486.624 419.504 483.543 414.016 481.302L414.428 477.801C419.779 478.221 423.483 478.221 426.913 478.221C430.343 478.221 433.91 478.221 439.261 477.801L439.673 481.302C434.048 483.683 432.813 486.204 432.676 492.786C432.538 497.407 432.264 503.569 432.264 508.471V542.501C432.264 560.567 441.594 570.79 457.097 570.79C473.562 570.79 484.675 559.727 484.675 538.86V508.471C484.675 503.569 484.675 497.407 484.263 492.786C483.714 486.204 482.48 483.683 476.854 481.302L477.266 477.801C481.519 478.081 485.224 478.221 488.379 478.221C491.672 478.221 494.965 478.221 499.218 477.801L499.63 481.302C494.005 483.683 492.907 486.204 492.358 492.786C491.947 497.407 491.946 503.569 491.946 508.471Z" fill="#E8E4DF"/>
<path d="M596.572 490.265L559.939 578.493H557.058L520.288 493.346L518.505 545.862C518.367 549.084 518.23 553.145 518.23 556.926C518.23 564.208 518.505 570.79 525.913 573.031L525.502 576.532C521.249 576.252 517.544 576.112 514.251 576.112C510.959 576.112 507.666 576.112 503.412 576.532L503.001 573.031C508.626 570.65 509.861 568.13 510.41 561.547C510.821 556.926 510.821 550.764 511.096 545.862L512.742 508.471C512.879 505.25 512.879 503.149 512.879 500.488C512.879 492.646 512.742 483.963 504.373 481.302L504.784 477.801C512.468 478.221 518.093 478.221 526.188 478.221L560.762 559.447L593.279 478.221C600.825 478.221 609.332 478.221 614.683 477.801L615.094 481.302C609.469 483.543 608.371 486.484 607.96 492.786C607.822 496.147 607.685 500.488 607.685 504.409C607.685 505.95 607.96 507.21 608.646 545.862C608.783 550.764 608.783 556.926 609.194 561.547C609.194 568.13 610.704 570.65 616.329 573.031L615.917 576.532C610.567 576.112 607.136 576.112 603.706 576.112C600.276 576.112 596.572 576.112 591.221 576.532L590.81 573.031C597.807 571.211 597.944 563.928 597.944 557.206C597.944 553.705 597.944 549.364 597.807 545.862L596.572 490.265Z" fill="#E8E4DF"/>
<path d="M617.4 476.22H625.303V477.766H622.259V485.314H620.444V477.766H617.4V476.22Z" fill="#E8E4DF"/>
<path d="M632.795 480.55L634.383 476.22H637V485.314H635.278V482.543C635.278 480.844 635.291 479.337 635.331 478.034C635.131 478.673 634.891 479.375 634.61 480.129L632.688 485.314H631.206L629.27 480.129C628.923 479.184 628.696 478.494 628.563 478.06C628.59 479.362 628.616 480.857 628.616 482.543V485.314H626.881V476.22H629.497L631.139 480.64C631.246 480.946 631.513 481.764 631.954 483.105C632.234 482.159 632.514 481.316 632.795 480.55Z" fill="#E8E4DF"/>
<path fill-rule="evenodd" clip-rule="evenodd" d="M304.49 651.326C306.114 650.958 308.576 650.549 310.973 650.549C311.716 650.549 312.422 650.577 313.086 650.634C313.777 649.528 314.661 648.828 315.862 648.828C318.38 648.828 319.62 651.874 319.999 655.764C320.377 651.874 321.617 648.828 324.135 648.828C325.337 648.828 326.221 649.528 326.913 650.634C327.576 650.578 328.283 650.549 329.026 650.549C331.423 650.549 333.885 650.958 335.51 651.326L335.513 651.329C335.879 652.962 336.286 655.436 336.286 657.844C336.286 658.591 336.258 659.3 336.202 659.967C337.303 660.662 338 661.55 338 662.758C338 665.291 334.96 666.537 331.08 666.915C334.96 667.293 338 668.54 338 671.073C338 672.28 337.303 673.168 336.203 673.862C336.259 674.529 336.287 675.239 336.287 675.985C336.287 678.393 335.88 680.867 335.514 682.499L335.51 682.502C333.886 682.87 331.424 683.279 329.027 683.279C328.284 683.279 327.578 683.25 326.914 683.194C326.223 684.3 325.339 685 324.138 685C321.62 685 320.38 681.954 320.002 678.064C319.623 681.954 318.383 685 315.865 685C314.663 685 313.779 684.3 313.087 683.194C312.424 683.25 311.717 683.278 310.974 683.278C308.577 683.278 306.115 682.869 304.49 682.501L304.487 682.498C304.121 680.866 303.714 678.392 303.714 675.984C303.714 675.237 303.742 674.527 303.798 673.86C302.697 673.166 302 672.277 302 671.07C302 668.537 305.04 667.29 308.92 666.912C305.04 666.534 302 665.288 302 662.755C302 661.548 302.697 660.66 303.798 659.965C303.742 659.298 303.713 658.589 303.713 657.842C303.713 655.435 304.12 652.961 304.486 651.329L304.49 651.326ZM319.697 657.804C319.697 661.014 319.141 663.202 317.925 664.827C316.307 666.049 314.129 666.608 310.934 666.608C309.38 666.608 308.091 666.455 307.065 666.172C309.933 663.676 310.969 662.516 311.862 658.737C315.624 657.839 316.779 656.798 319.263 653.916C319.544 654.948 319.697 656.243 319.697 657.804ZM310.787 657.656C310.848 657.396 310.91 657.134 310.973 656.871C311.481 654.724 312.02 652.566 312.857 651.027C312.462 650.997 312.041 650.982 311.591 650.982C309.299 650.982 307.276 651.364 305.734 652.579C304.525 654.128 304.144 656.161 304.144 658.464C304.144 658.916 304.159 659.339 304.188 659.736C305.721 658.895 307.869 658.353 310.006 657.842C310.267 657.78 310.528 657.718 310.787 657.656ZM312.125 656.353C312.677 653.907 313.321 651.057 314.45 650.247C317.02 648.403 318.659 651.499 317.663 653.882C316.668 656.265 314.665 657.254 311.811 657.713C311.914 657.287 312.018 656.827 312.125 656.353ZM309.49 659C307.055 659.555 304.218 660.202 303.412 661.336C301.577 663.918 304.658 665.565 307.031 664.565C309.403 663.564 310.387 661.552 310.844 658.684C310.422 658.788 309.967 658.891 309.497 658.998L309.49 659ZM320.303 676.024C320.303 672.814 320.859 670.626 322.075 669C323.693 667.779 325.871 667.22 329.066 667.22C330.62 667.22 331.909 667.373 332.935 667.656C330.067 670.152 329.031 671.312 328.138 675.091C324.376 675.989 323.221 677.029 320.737 679.911C320.456 678.88 320.303 677.585 320.303 676.024ZM329.994 675.985C329.733 676.048 329.472 676.11 329.213 676.171L329.065 676.798L329.027 676.957C328.519 679.104 327.98 681.262 327.143 682.801C327.538 682.83 327.959 682.846 328.409 682.846C330.701 682.846 332.725 682.463 334.266 681.249C335.475 679.7 335.856 677.667 335.856 675.364C335.856 674.912 335.841 674.489 335.812 674.092C334.279 674.933 332.131 675.474 329.994 675.985ZM327.875 677.475C327.323 679.921 326.679 682.771 325.55 683.581C322.98 685.425 321.341 682.329 322.337 679.946C323.332 677.562 325.335 676.574 328.189 676.115C328.086 676.541 327.983 677 327.875 677.475ZM330.51 674.828C332.945 674.273 335.782 673.626 336.588 672.492C338.423 669.909 335.342 668.263 332.969 669.263C330.597 670.264 329.613 672.276 329.156 675.143C329.353 675.095 329.557 675.047 329.766 674.999C330.008 674.942 330.257 674.886 330.51 674.828ZM317.928 668.998C319.144 670.624 319.7 672.812 319.7 676.023C319.7 677.584 319.548 678.879 319.266 679.91C316.782 677.028 315.627 675.987 311.864 675.089C310.971 671.309 309.935 670.149 307.066 667.653C308.092 667.37 309.382 667.217 310.935 667.217C314.131 667.217 316.309 667.776 317.928 668.998ZM310.974 676.955C310.912 676.693 310.85 676.431 310.789 676.17C310.652 676.138 310.515 676.105 310.378 676.072C310.255 676.043 310.131 676.014 310.007 675.984C307.87 675.473 305.721 674.931 304.189 674.09C304.16 674.487 304.144 674.91 304.144 675.362C304.144 677.666 304.525 679.699 305.734 681.248C307.276 682.463 309.3 682.845 311.593 682.845C312.043 682.845 312.464 682.83 312.859 682.801C312.022 681.261 311.483 679.103 310.974 676.955ZM314.452 683.581C313.323 682.771 312.679 679.92 312.126 677.474L312.125 677.468L312.123 677.459C312.017 676.99 311.914 676.535 311.812 676.113C314.667 676.572 316.67 677.561 317.666 679.945C318.662 682.329 317.023 685.425 314.452 683.581ZM309.491 674.826C309.963 674.934 310.421 675.038 310.845 675.142C310.388 672.274 309.404 670.261 307.031 669.26C304.659 668.26 301.577 669.907 303.413 672.489C304.219 673.624 307.056 674.271 309.491 674.826ZM320.3 657.805C320.3 661.016 320.856 663.204 322.072 664.83C323.691 666.052 325.869 666.611 329.065 666.611C330.618 666.611 331.908 666.458 332.934 666.175C330.065 663.679 329.029 662.518 328.136 658.738C324.373 657.841 323.218 656.8 320.734 653.917C320.452 654.949 320.3 656.244 320.3 657.805ZM329.211 657.658C329.15 657.397 329.088 657.135 329.026 656.872C328.517 654.725 327.978 652.567 327.141 651.027C327.536 650.998 327.957 650.982 328.407 650.982C330.7 650.982 332.724 651.365 334.266 652.58C335.475 654.129 335.856 656.162 335.856 658.466C335.856 658.917 335.84 659.341 335.811 659.738C334.279 658.897 332.13 658.355 329.993 657.844C329.732 657.781 329.471 657.719 329.211 657.658ZM327.874 656.354C327.321 653.907 326.677 651.057 325.548 650.247C322.977 648.403 321.338 651.499 322.334 653.883C323.33 656.267 325.333 657.256 328.188 657.715C328.085 657.29 327.982 656.833 327.875 656.36L327.874 656.354ZM330.509 659.002C332.944 659.557 335.781 660.204 336.587 661.338C338.423 663.921 335.341 665.568 332.969 664.567C330.596 663.567 329.612 661.554 329.155 658.686C329.579 658.79 330.037 658.894 330.509 659.002ZM319.944 673.317C320.488 667.961 320.93 667.517 326.261 666.97C320.93 666.423 320.488 665.98 319.944 660.623C319.4 665.979 318.958 666.423 313.627 666.97C318.958 667.517 319.4 667.961 319.944 673.317Z" fill="#E8E4DF"/>
<defs>
<filter id="filter0_dd_435_3160" x="53.793" y="0.799927" width="528.398" height="528.4" filterUnits="userSpaceOnUse" color-interpolation-filters="sRGB">
<feFlood flood-opacity="0" result="BackgroundImageFix"/>
<feColorMatrix in="SourceAlpha" type="matrix" values="0 0 0 0 0 0 0 0 0 0 0 0 0 0 0 0 0 0 127 0" result="hardAlpha"/>
<feOffset/>
<feGaussianBlur stdDeviation="88"/>
<feComposite in2="hardAlpha" operator="out"/>
<feColorMatrix type="matrix" values="0 0 0 0 0 0 0 0 0 1 0 0 0 0 0.76 0 0 0 1 0"/>
<feBlend mode="normal" in2="BackgroundImageFix" result="effect1_dropShadow_435_3160"/>
<feColorMatrix in="SourceAlpha" type="matrix" values="0 0 0 0 0 0 0 0 0 0 0 0 0 0 0 0 0 0 127 0" result="hardAlpha"/>
<feOffset/>
<feGaussianBlur stdDeviation="44.5"/>
<feComposite in2="hardAlpha" operator="out"/>
<feColorMatrix type="matrix" values="0 0 0 0 0 0 0 0 0 1 0 0 0 0 0.76 0 0 0 1 0"/>
<feBlend mode="normal" in2="effect1_dropShadow_435_3160" result="effect2_dropShadow_435_3160"/>
<feBlend mode="normal" in="SourceGraphic" in2="effect2_dropShadow_435_3160" result="shape"/>
</filter>
</defs>
</svg>
