<svg width="152" height="58" viewBox="0 0 152 58" fill="none" xmlns="http://www.w3.org/2000/svg">
<path d="M42.9532 51.4073C42.9532 52.8985 43.7385 53.9188 45.7016 54.8606L45.309 56.8227C42.4821 56.6658 39.8122 56.5873 37.8491 56.5873C35.886 56.5873 34.394 56.6658 31.3315 56.8227L31.41 54.8606C33.6087 53.9188 34.7081 53.2125 35.5719 51.7212C36.6712 49.9161 37.0638 46.9337 37.8491 40.341L38.3988 35.7104H21.7514L18.689 39.6346C11.5432 48.7388 10.7579 50.9364 10.7579 52.5061C10.7579 53.6049 11.1506 54.1543 13.1137 54.8606L12.7996 56.8227C9.97268 56.6658 8.79481 56.5873 6.91021 56.5873C4.94708 56.5873 3.69068 56.5873 0.0785251 56.8227L0 54.8606C2.66985 53.3694 3.92625 52.4276 13.8989 39.6346L44.9163 0L48.2929 0.70636L43.8955 39.6346C43.0317 47.0907 42.9532 49.7591 42.9532 51.4073ZM41.3042 10.5169L24.3428 32.3356H38.7914L41.3042 10.5169Z" fill="#001D23"/>
<path d="M74.1804 30.0595C72.6099 30.0595 71.6676 29.1177 71.1965 27.3126C70.8039 25.7429 70.2542 25.115 68.9192 25.115C65.3071 25.115 60.9097 30.9229 58.711 37.9865C57.3761 42.2246 57.062 45.207 57.062 47.797C57.062 51.6428 58.7895 52.8985 60.7526 52.8985C63.8151 52.8985 66.4064 50.7009 70.9609 44.8146L72.6099 45.8349C68.9192 53.2909 63.8151 58 59.3392 58C55.1774 58 52.0364 54.8606 52.0364 49.3667C52.0364 35.7104 62.4802 20.9553 71.275 20.9553C74.6516 20.9553 77.1644 23.4668 77.1644 26.7632C77.1644 28.5683 75.908 30.0595 74.1804 30.0595Z" fill="#001D23"/>
<path d="M78.5202 23.6238L84.9592 23.3099C85.6659 20.3275 86.0586 17.8945 86.5297 15.6184C87.2364 15.1475 88.0217 14.912 88.964 14.912C89.8278 14.912 90.9271 15.3045 91.7124 16.3248L89.9848 22.9175L96.9736 22.525L97.6018 23.7808L96.5809 26.6847H88.964L83.3887 48.1894C82.9961 49.8376 82.839 50.7794 82.839 51.3288C82.839 51.9567 83.2317 52.4276 83.9384 52.4276C85.1163 52.4276 87.0794 51.4858 91.4768 45.364L93.2044 46.6198C87.9432 55.4885 84.9592 57.5291 82.0538 57.5291C79.6195 57.5291 77.8134 56.1164 77.8134 53.2125C77.8134 51.3288 78.2061 49.5237 79.2269 45.5995L84.0169 26.6847H78.3631L78.5202 23.6238Z" fill="#001D23"/>
<path d="M121.119 26.7632C121.119 31.6292 116.721 37.908 102.43 40.498C101.802 42.774 101.488 45.0501 101.488 47.2476C101.488 51.4858 102.98 52.8985 104.943 52.8985C107.848 52.8985 110.282 50.7009 114.523 44.8146L116.172 45.8349C112.795 53.2909 108.005 58 103.765 58C99.3673 58 96.4619 54.8606 96.4619 49.3667C96.4619 35.7104 107.141 20.9553 115.465 20.9553C119.548 20.9553 121.119 24.0162 121.119 26.7632ZM113.816 24.9581C109.89 24.9581 105.492 30.7659 103.137 37.908C113.188 35.2395 116.015 31.1583 116.015 27.6265C116.015 26.0568 115.229 24.9581 113.816 24.9581Z" fill="#001D23"/>
<path d="M147.76 18.7578V39.6346C147.76 42.3816 147.917 45.8349 147.995 48.4249C148.152 52.1137 148.78 53.5264 152 54.8606L151.764 56.8227C148.702 56.5873 146.66 56.5873 144.697 56.5873C142.734 56.5873 140.614 56.5873 137.551 56.8227L137.316 54.8606C140.457 53.6049 141.006 51.8782 141.242 48.4249C141.478 45.8349 141.478 42.3816 141.478 39.6346V18.7578C141.478 16.0108 141.478 12.5575 141.242 9.96753C141.006 6.51421 140.457 4.78755 137.316 3.5318L137.551 1.56969C140.614 1.80514 142.734 1.80514 144.697 1.80514C146.66 1.80514 148.702 1.80514 151.764 1.56969L152 3.5318C148.78 4.86604 148.152 6.27876 147.995 9.96753C147.917 12.5575 147.76 16.0108 147.76 18.7578Z" fill="#001D23"/>
</svg>
