<svg width="48" height="48" viewBox="0 0 48 48" fill="none" xmlns="http://www.w3.org/2000/svg">
<path d="M24.0015 37.7238C31.7993 37.7238 38.1207 31.4024 38.1207 23.6046C38.1207 15.8067 31.7993 9.48535 24.0015 9.48535C16.2037 9.48535 9.88232 15.8067 9.88232 23.6046C9.88232 31.4024 16.2037 37.7238 24.0015 37.7238Z" fill="#001D23"/>
<path fill-rule="evenodd" clip-rule="evenodd" d="M23.742 42.8386C34.2888 42.8386 42.8388 34.2887 42.8388 23.7418C42.8388 13.1949 34.2888 4.64502 23.742 4.64502C13.1952 4.64502 4.64526 13.1949 4.64526 23.7418C4.64526 34.2887 13.1952 42.8386 23.742 42.8386ZM23.742 40.0685C32.7591 40.0685 40.0687 32.7588 40.0687 23.7418C40.0687 14.7249 32.7591 7.41517 23.742 7.41517C14.7251 7.41517 7.41542 14.7249 7.41542 23.7418C7.41542 32.7588 14.7251 40.0685 23.742 40.0685Z" fill="#001D23"/>
<path fill-rule="evenodd" clip-rule="evenodd" d="M45.6176 23.601C45.6176 35.5407 35.9384 45.2199 23.9986 45.2199C12.0588 45.2199 2.37964 35.5407 2.37964 23.601C2.37964 11.6611 12.0588 1.98193 23.9986 1.98193C35.9384 1.98193 45.6176 11.6611 45.6176 23.601ZM44.5276 23.601C44.5276 34.9387 35.3364 44.1299 23.9986 44.1299C12.6607 44.1299 3.46959 34.9387 3.46959 23.601C3.46959 12.263 12.6607 3.07189 23.9986 3.07189C35.3364 3.07189 44.5276 12.263 44.5276 23.601Z" fill="#001D23"/>
</svg>
