<svg width="48" height="48" viewBox="0 0 48 48" fill="none" xmlns="http://www.w3.org/2000/svg">
<path d="M24.002 37.7238C31.7998 37.7238 38.1212 31.4024 38.1212 23.6046C38.1212 15.8067 31.7998 9.48535 24.002 9.48535C16.2042 9.48535 9.88281 15.8067 9.88281 23.6046C9.88281 31.4024 16.2042 37.7238 24.002 37.7238Z" fill="#E8E4DF"/>
<path fill-rule="evenodd" clip-rule="evenodd" d="M23.7423 42.8386C34.2891 42.8386 42.8391 34.2887 42.8391 23.7418C42.8391 13.1949 34.2891 4.64502 23.7423 4.64502C13.1954 4.64502 4.64551 13.1949 4.64551 23.7418C4.64551 34.2887 13.1954 42.8386 23.7423 42.8386ZM23.7423 40.0685C32.7593 40.0685 40.069 32.7588 40.069 23.7418C40.069 14.7249 32.7593 7.41517 23.7423 7.41517C14.7254 7.41517 7.41566 14.7249 7.41566 23.7418C7.41566 32.7588 14.7254 40.0685 23.7423 40.0685Z" fill="#E8E4DF"/>
<path fill-rule="evenodd" clip-rule="evenodd" d="M45.6179 23.601C45.6179 35.5407 35.9387 45.2199 23.9988 45.2199C12.059 45.2199 2.37988 35.5407 2.37988 23.601C2.37988 11.6611 12.059 1.98193 23.9988 1.98193C35.9387 1.98193 45.6179 11.6611 45.6179 23.601ZM44.5278 23.601C44.5278 34.9387 35.3367 44.1299 23.9988 44.1299C12.661 44.1299 3.46984 34.9387 3.46984 23.601C3.46984 12.263 12.661 3.07189 23.9988 3.07189C35.3367 3.07189 44.5278 12.263 44.5278 23.601Z" fill="#E8E4DF"/>
</svg>
