<svg width="233" height="58" viewBox="0 0 233 58" fill="none" xmlns="http://www.w3.org/2000/svg">
<path d="M11.7293 15.2992L9.05322 30.4843C8.25608 34.9941 7.85752 36.4213 7.85752 38.4193C7.85752 39.9606 8.4269 40.8169 10.3059 41.5591L10.0212 42.9862C7.85752 42.872 6.54793 42.815 5.12447 42.815C3.701 42.815 2.33448 42.872 0.0569385 42.9862L0 41.5591C2.27754 40.5886 2.73305 39.5039 3.35937 36.878C3.81488 34.9941 4.32733 32.4252 4.66896 30.4843L7.34507 15.2992C8.14221 10.7894 8.48384 9.36221 8.48384 7.36417C8.48384 5.82283 7.91445 4.96654 6.03548 4.22441L6.32018 2.79725C8.48384 2.91142 9.79343 2.9685 11.2169 2.9685C12.6404 2.9685 14.0069 2.91142 16.2844 2.79725L16.3414 4.22441C14.0638 5.19488 13.6083 6.27953 12.982 8.90551C12.5265 10.7894 12.071 13.3583 11.7293 15.2992Z" fill="#001D23"/>
<path d="M25.9755 10.7894L19.4276 37.6772C19.3137 38.248 19.2568 38.6476 19.2568 38.876C19.2568 39.2185 19.4276 39.5039 19.8831 39.5039C20.5094 39.5039 22.3315 38.4193 25.4061 34.3091L26.6588 35.1654C22.8439 41.6161 19.8831 43.5 17.8903 43.5C16.4668 43.5 15.328 42.5866 15.328 41.0453C15.328 39.561 15.5558 38.3622 16.4668 34.5374L22.0468 10.8465C22.5592 8.62008 22.9009 6.33661 22.9009 5.08071C22.9009 3.8248 22.2745 3.02559 20.2817 2.45472L20.3956 1.02756C23.2425 0.799212 25.3492 0.570866 27.9114 0L28.7655 0.913384C27.5129 4.79527 27.0004 6.45079 25.9755 10.7894Z" fill="#001D23"/>
<path d="M57.7406 21.122C57.7406 24.6614 54.552 29.2283 44.1892 31.1122C43.7337 32.7677 43.5059 34.4232 43.5059 36.0217C43.5059 39.1043 44.5878 40.1319 46.0112 40.1319C48.1179 40.1319 49.883 38.5335 52.9577 34.252L54.1534 34.9941C51.7051 40.4173 48.2318 43.8425 45.1571 43.8425C41.9686 43.8425 39.8619 41.5591 39.8619 37.563C39.8619 27.6299 47.6055 16.8976 53.641 16.8976C56.6018 16.8976 57.7406 19.124 57.7406 21.122ZM52.4453 19.8091C49.5983 19.8091 46.4098 24.0335 44.7016 29.2283C51.9898 27.2874 54.0396 24.3189 54.0396 21.75C54.0396 20.6083 53.4702 19.8091 52.4453 19.8091Z" fill="#001D23"/>
<path d="M66.103 38.3051C66.103 36.5354 65.135 34.5945 63.0283 30.998C61.0924 27.687 60.466 25.6319 60.466 23.6909C60.466 19.8091 63.4838 16.8976 67.3556 16.8976C69.0068 16.8976 70.3164 17.2972 71.3413 18.1535C72.3662 19.0098 72.9925 20.0945 72.9925 21.2362C72.9925 22.6063 72.1954 23.6339 70.8858 23.6339C69.9178 23.6339 69.0638 22.8346 68.7791 21.6358C68.4374 20.3228 67.5834 19.2953 66.4446 19.2953C64.7364 19.2953 63.5407 20.5512 63.5407 22.378C63.5407 24.1476 64.6795 26.1457 66.5015 29.3996C68.3236 32.5965 69.4054 34.5374 69.4054 37.1634C69.4054 41.2165 66.6154 43.8425 63.1421 43.8425C60.8646 43.8425 59.2703 43.1575 58.0177 42.0158C56.9358 41.0453 56.2526 39.7894 56.2526 38.5906C56.2526 37.2776 57.1067 36.3071 58.2454 36.3071C59.4411 36.3071 60.1813 37.0492 60.5799 38.6476C60.9215 40.0748 61.3201 41.502 63.256 41.502C65.0211 41.502 66.103 40.3031 66.103 38.3051Z" fill="#001D23"/>
<path d="M74.2936 18.8386L78.9626 18.6102C79.4751 16.4409 79.7597 14.6713 80.1014 13.0157C80.6138 12.6732 81.1832 12.502 81.8665 12.502C82.4928 12.502 83.2899 12.7874 83.8593 13.5295L82.6067 18.3248L87.6742 18.0394L88.1297 18.9528L87.3895 21.065H81.8665L77.8238 36.7067C77.5391 37.9055 77.4253 38.5906 77.4253 38.9902C77.4253 39.4469 77.71 39.7894 78.2224 39.7894C79.0765 39.7894 80.4999 39.1043 83.6885 34.6516L84.9412 35.565C81.1263 42.0157 78.9626 43.5 76.8559 43.5C75.0908 43.5 73.7812 42.4724 73.7812 40.3602C73.7812 38.9902 74.0659 37.6772 74.8061 34.8228L78.2793 21.065H74.1798L74.2936 18.8386Z" fill="#001D23"/>
<path d="M99.1464 20.2657L98.9756 19.0669C101.652 17.0689 103.075 15.4134 104.897 12.2736L106.321 12.6161C106.15 14.4429 105.922 16.5551 105.865 18.2106C108.086 18.1535 109.737 18.1535 111.844 17.9823L112.299 18.9528L111.844 21.065H105.751V34.4803C105.751 37.9626 106.207 38.8189 106.662 39.4469C107.175 40.0748 107.858 40.3602 108.826 40.3602C109.851 40.3602 110.819 39.9035 111.787 38.9331L112.755 40.5886C112.128 42.0728 110.306 43.7283 107.744 43.7283C105.979 43.7283 104.442 43.0433 103.36 41.7303C102.392 40.5315 101.823 38.8189 101.823 35.1654V23.5768C101.823 21.5787 101.652 20.7795 99.1464 20.2657Z" fill="#001D23"/>
<path d="M113.748 30.8268C113.748 22.8917 119.157 16.8976 126.217 16.8976C131.683 16.8976 135.84 20.9508 135.84 26.4311C135.84 26.8878 135.84 27.2874 135.726 27.7441H118.189C118.075 28.4291 118.075 29.0571 118.075 29.9134C118.075 35.7933 121.605 39.7894 126.16 39.7894C129.804 39.7894 132.025 38.5335 134.359 35.1654L135.726 36.0217C134.018 40.3032 130.658 43.8425 125.591 43.8425C118.473 43.8425 113.748 37.7913 113.748 30.8268ZM118.587 25.4606H130.829C130.772 21.5787 128.153 19.4665 124.964 19.4665C121.491 19.4665 119.271 22.0925 118.587 25.4606Z" fill="#001D23"/>
<path d="M159.799 26.374V32.0256C159.799 33.7953 159.799 35.7933 159.913 37.563C160.084 39.9035 160.426 40.8169 162.532 41.6732L162.362 42.9862C160.369 42.815 159.116 42.815 157.806 42.815C156.497 42.815 155.244 42.815 153.251 42.9862L153.081 41.6732C155.187 40.8169 155.472 39.9035 155.643 37.563C155.814 35.7933 155.814 33.7953 155.814 32.0256V25.4606C155.814 22.5492 154.162 20.5512 151.6 20.5512C148.241 20.5512 146.191 23.0059 146.191 26.374V32.0256C146.191 33.7953 146.191 35.7933 146.305 37.563C146.476 39.9035 146.817 40.8169 148.924 41.6732L148.753 42.9862C146.76 42.815 145.508 42.815 144.198 42.815C142.889 42.815 141.636 42.815 139.643 42.9862L139.472 41.6732C141.579 40.8169 141.864 39.9035 142.034 37.563C142.205 35.7933 142.205 33.7953 142.205 32.0256V30.5984C142.205 28.8287 142.205 27.002 142.034 25.2323C141.807 22.8917 141.294 22.378 139.244 21.9783V20.7795C141.864 19.5236 143.287 18.6102 145.28 16.7835L146.476 17.2402C146.305 19.0669 146.134 20.1516 146.077 21.5787L146.191 21.6358C147.728 18.8957 150.063 16.8976 153.024 16.8976C155.472 16.8976 157.522 18.1535 158.717 20.1516C159.173 20.8937 159.287 21.2933 159.458 21.9213H159.572C161.337 18.7815 163.671 16.8976 166.632 16.8976C169.08 16.8976 171.13 18.1535 172.326 20.1516C173.009 21.2933 173.408 22.6634 173.408 24.7756V32.0256C173.408 33.7953 173.408 35.7933 173.521 37.563C173.692 39.9035 174.034 40.8169 176.141 41.6732L175.97 42.9862C173.977 42.815 172.724 42.815 171.415 42.815C170.105 42.815 168.853 42.815 166.86 42.9862L166.689 41.6732C168.796 40.8169 169.08 39.9035 169.251 37.563C169.422 35.7933 169.422 33.7953 169.422 32.0256V25.4606C169.422 22.5492 167.771 20.5512 165.208 20.5512C161.849 20.5512 159.799 23.0059 159.799 26.374Z" fill="#001D23"/>
<path d="M192.898 43.8425C190.222 43.8425 187.887 43.3287 186.065 41.7874C186.065 46.7539 186.179 51.6634 186.179 52.5768C186.179 54.9173 186.919 55.8307 189.368 56.687L189.197 58C187.204 57.8287 185.382 57.8287 184.072 57.8287C182.763 57.8287 181.51 57.8287 179.517 58L179.347 56.687C181.453 55.8307 181.738 54.9173 181.909 52.5768C182.08 50.8071 182.08 48.8091 182.08 47.0394V30.5984C182.08 28.8287 182.08 27.002 181.909 25.2323C181.738 22.8917 181.169 22.378 179.119 21.9783V20.7795C181.738 19.5236 183.161 18.6102 185.154 16.7835L186.35 17.2402C186.179 19.0669 186.065 20.6083 186.008 22.0354L186.065 22.0925C187.603 19.1811 190.507 16.8976 193.752 16.8976C199.389 16.8976 204.456 21.9213 204.456 30.1417C204.456 38.3051 199.047 43.8425 192.898 43.8425ZM193.069 41.3307C197.168 41.3307 200.3 38.3051 200.3 31.9114C200.3 24.5472 196.77 20.6654 192.499 20.6654C188.4 20.6654 186.065 23.2913 186.065 26.9449V33.6811C186.065 38.7047 188.969 41.3307 193.069 41.3307Z" fill="#001D23"/>
<path d="M206.64 38.7618C206.64 37.4488 207.437 36.4783 208.746 36.4783C209.942 36.4783 210.796 37.2205 211.195 38.7047C211.593 40.1319 212.39 41.4449 214.611 41.4449C216.946 41.4449 218.711 40.3032 218.711 37.6201C218.711 35.2795 217.401 33.7953 213.7 31.9114C209.145 29.628 207.437 27.1732 207.437 24.1476C207.437 20.0374 210.853 16.9547 214.896 16.9547C217.116 16.9547 218.483 17.4114 220.02 18.6102C220.874 19.2953 221.501 20.3228 221.501 21.4075C221.501 22.6063 220.703 23.4626 219.508 23.4626C218.369 23.4626 217.629 22.7205 217.116 21.5217C216.49 20.1516 215.807 19.3524 214.042 19.3524C212.163 19.3524 210.739 20.7224 210.739 22.6063C210.739 24.7185 211.935 26.4311 216.091 28.4862C220.419 30.5984 222.298 32.8248 222.298 36.5354C222.298 40.874 218.938 43.8425 214.383 43.8425C211.479 43.8425 209.942 43.3858 208.348 42.0158C207.38 41.2165 206.64 39.9606 206.64 38.7618Z" fill="#001D23"/>
<path d="M226.281 40.2461C226.281 38.3051 227.705 36.878 229.641 36.878C231.577 36.878 233 38.3051 233 40.2461C233 42.187 231.577 43.6142 229.641 43.6142C227.705 43.6142 226.281 42.187 226.281 40.2461Z" fill="#001D23"/>
</svg>
