<svg width="255" height="143" viewBox="0 0 255 143" fill="none" xmlns="http://www.w3.org/2000/svg">
<path d="M29.0082 6.32H33.7032C34.8882 6.32 35.8182 6.635 36.4782 7.265C37.1382 7.895 37.4832 8.735 37.4832 9.8C37.4832 10.865 37.1382 11.705 36.4782 12.335C35.8182 12.965 34.8882 13.265 33.7032 13.265H31.0332V17H29.0082V6.32ZM31.0332 11.525H33.6132C34.1982 11.525 34.6482 11.39 34.9632 11.09C35.2782 10.79 35.4432 10.37 35.4432 9.8C35.4432 9.245 35.2782 8.81 34.9632 8.51C34.6482 8.21 34.1982 8.06 33.6132 8.06H31.0332V11.525ZM47.8547 14.165L47.9447 15.755C47.9447 16.265 48.0647 16.685 48.2747 17H46.1897C46.0097 16.7 45.9047 16.28 45.9047 15.725L45.8597 14.555C45.8297 13.91 45.6797 13.46 45.4097 13.205C45.1397 12.95 44.7197 12.815 44.1497 12.815H41.5097V17H39.4847V6.32H44.3297C45.5147 6.32 46.4447 6.59 47.1047 7.13C47.7647 7.67 48.0947 8.405 48.0947 9.335C48.0947 10.625 47.4947 11.465 46.3097 11.885C46.8497 12.065 47.2247 12.335 47.4647 12.695C47.7047 13.055 47.8247 13.55 47.8547 14.165ZM41.5097 7.985V11.225H44.2097C44.7797 11.225 45.2147 11.09 45.5297 10.805C45.8447 10.52 46.0097 10.1 46.0097 9.56C46.0097 9.05 45.8447 8.66 45.5147 8.39C45.1847 8.12 44.7347 7.985 44.1347 7.985H41.5097ZM52.2353 17H50.2103V6.32H52.2353V17ZM59.9917 11.84L61.8817 6.32H63.9817L60.1567 17H57.7867L53.8717 6.32H56.0317L57.9667 11.84C58.4167 13.205 58.7467 14.315 58.9867 15.17C59.2417 14.18 59.5717 13.07 59.9917 11.84ZM73.7661 17H71.6211L70.7811 14.645H66.1011L65.2761 17H63.1911L67.2561 6.32H69.6261L73.7661 17ZM67.1211 11.765L66.7161 12.92H70.1661L69.7461 11.765C69.3861 10.88 68.9511 9.665 68.4261 8.105C68.0061 9.35 67.5711 10.565 67.1211 11.765ZM73.0413 6.32H81.9213V8.135H78.5013V17H76.4613V8.135H73.0413V6.32ZM91.5687 6.32V8.135H85.7187V10.655H91.0137V12.395H85.7187V15.185H91.5387V17H83.6937V6.32H91.5687ZM99.582 6.32V15.185H104.667V17H97.557V6.32H99.582ZM114.4 6.32V8.135H108.55V10.655H113.845V12.395H108.55V15.185H114.37V17H106.525V6.32H114.4ZM115.727 6.32H124.607V8.135H121.187V17H119.147V8.135H115.727V6.32ZM125.896 6.32H134.776V8.135H131.356V17H129.316V8.135H125.896V6.32ZM144.423 6.32V8.135H138.573V10.655H143.868V12.395H138.573V15.185H144.393V17H136.548V6.32H144.423ZM154.794 14.165L154.884 15.755C154.884 16.265 155.004 16.685 155.214 17H153.129C152.949 16.7 152.844 16.28 152.844 15.725L152.799 14.555C152.769 13.91 152.619 13.46 152.349 13.205C152.079 12.95 151.659 12.815 151.089 12.815H148.449V17H146.424V6.32H151.269C152.454 6.32 153.384 6.59 154.044 7.13C154.704 7.67 155.034 8.405 155.034 9.335C155.034 10.625 154.434 11.465 153.249 11.885C153.789 12.065 154.164 12.335 154.404 12.695C154.644 13.055 154.764 13.55 154.794 14.165ZM148.449 7.985V11.225H151.149C151.719 11.225 152.154 11.09 152.469 10.805C152.784 10.52 152.949 10.1 152.949 9.56C152.949 9.05 152.784 8.66 152.454 8.39C152.124 8.12 151.674 7.985 151.074 7.985H148.449ZM161.215 17.24C159.76 17.24 158.635 16.925 157.84 16.265C157.045 15.62 156.64 14.69 156.64 13.475H158.635C158.635 14.24 158.86 14.78 159.31 15.11C159.76 15.44 160.405 15.605 161.275 15.605C161.965 15.605 162.505 15.485 162.88 15.215C163.24 14.945 163.435 14.57 163.435 14.06C163.435 13.64 163.27 13.325 162.955 13.1C162.64 12.89 162.07 12.695 161.245 12.515L160.345 12.335C158.05 11.915 156.91 10.835 156.91 9.095C156.91 8.18 157.255 7.445 157.96 6.905C158.65 6.365 159.625 6.08 160.87 6.08C162.28 6.08 163.345 6.38 164.065 6.98C164.785 7.58 165.175 8.42 165.22 9.5H163.255C163.21 8.9 163 8.45 162.64 8.15C162.28 7.865 161.695 7.715 160.9 7.715C160.27 7.715 159.805 7.835 159.475 8.06C159.145 8.3 158.98 8.615 158.98 9.035C158.98 9.47 159.13 9.8 159.43 10.025C159.73 10.265 160.285 10.46 161.065 10.61L161.995 10.79C163.24 11.045 164.14 11.42 164.695 11.915C165.25 12.41 165.535 13.085 165.535 13.955C165.535 15.005 165.145 15.815 164.395 16.385C163.63 16.955 162.565 17.24 161.215 17.24ZM176.328 17.24C174.723 17.24 173.433 16.73 172.458 15.71C171.468 14.69 170.988 13.34 170.988 11.66C170.988 9.995 171.468 8.645 172.458 7.61C173.433 6.59 174.723 6.08 176.328 6.08C177.918 6.08 179.208 6.59 180.198 7.61C181.158 8.63 181.653 9.98 181.653 11.66C181.653 13.355 181.158 14.705 180.198 15.71C179.208 16.73 177.918 17.24 176.328 17.24ZM173.988 14.435C174.573 15.125 175.353 15.455 176.328 15.455C177.303 15.455 178.083 15.125 178.683 14.435C179.253 13.775 179.553 12.845 179.553 11.66C179.553 10.49 179.253 9.56 178.683 8.885C178.083 8.21 177.303 7.865 176.328 7.865C175.353 7.865 174.573 8.21 173.988 8.885C173.388 9.575 173.103 10.49 173.103 11.66C173.103 12.83 173.388 13.76 173.988 14.435ZM191.247 6.32V8.135H185.727V10.655H190.752V12.395H185.727V17H183.702V6.32H191.247ZM196.451 6.32H205.331V8.135H201.911V17H199.871V8.135H196.451V6.32ZM214.094 10.61V6.32H216.119V17H214.094V12.44H209.129V17H207.104V6.32H209.129V10.61H214.094ZM226.481 6.32V8.135H220.631V10.655H225.926V12.395H220.631V15.185H226.451V17H218.606V6.32H226.481Z" fill="#E8E4DF"/>
<path d="M11.9675 85.3306C16.98 85.3306 20.3008 82.1233 20.3008 77.7839C20.3008 75.457 19.4863 73.5075 17.9199 71.9352C16.5414 70.5517 15.6015 69.6083 11.7795 66.9041C6.391 63.1308 5.20052 62.1245 3.50878 59.9234C1.94236 57.911 1.31579 56.0872 1.31579 53.1314C1.31579 46.8425 6.57897 42.1258 13.8472 42.1258C17.7945 42.1258 20.9274 43.0062 24.1229 44.7042C24.1855 46.4022 24.2482 47.5971 24.2482 49.0436C24.2482 50.49 24.1855 51.8107 24.1229 53.5087L22.3685 53.6345C21.8046 51.4334 21.178 49.6096 19.7369 47.9116C18.0452 45.962 16.3534 45.0187 13.3459 45.0187C8.89727 45.0187 5.88974 47.7858 5.88974 52.0623C5.88974 54.0118 6.32834 55.5841 8.08273 57.4078C9.27321 58.6027 10.0877 59.2945 14.0978 62.1245C19.0477 65.5834 20.5514 66.6526 22.3058 68.665C24.0602 70.7404 25.2507 73.759 25.2507 76.589C25.2507 83.6326 19.7369 88.1607 11.5289 88.1607C7.26819 88.1607 4.26066 87.5318 1.25314 86.0853C0.563911 82.6264 0.375941 79.4819 0 75.8973L1.94236 75.457C2.63159 77.4695 3.1955 79.1046 4.13535 80.6768C5.9524 83.8842 7.76944 85.3306 11.9675 85.3306Z" fill="#E8E4DF"/>
<path d="M34.4191 43.132H57.0383C59.6072 43.132 61.6749 43.132 64.1185 42.9433C64.2438 45.962 64.3064 49.0436 64.3064 52.1252L62.4894 52.2509C61.8002 49.924 61.1736 48.6034 60.2338 47.5971C59.2939 46.5909 57.8528 46.0878 56.6623 45.8991C55.0959 45.6476 53.7174 45.5847 51.7124 45.5847C48.7676 45.5847 48.3916 46.0878 48.2036 48.6034C48.0157 50.5529 48.0157 52.8169 48.0157 55.0809V73.4446C48.0157 75.6457 48.141 78.4128 48.2036 80.4882C48.329 83.6955 49.0182 84.7017 52.0257 85.5193L51.8377 87.2173C49.3941 87.0286 47.1385 87.0286 45.5721 87.0286C44.0056 87.0286 41.6247 87.0286 39.1811 87.2173L38.9931 85.5193C42.0006 84.7017 42.6898 83.6955 42.8152 80.4882C42.8778 78.4128 43.0031 75.6457 43.0031 73.4446V55.0809C43.0031 52.8169 43.0031 50.5529 42.8152 48.6034C42.6272 46.0878 42.2513 45.5847 39.3064 45.5847C37.3014 45.5847 35.9856 45.6476 34.4191 45.8991C33.2287 46.0878 31.7876 46.5909 30.8477 47.5971C29.9079 48.6034 29.2186 49.924 28.5294 52.2509L26.7124 52.1252C26.9003 49.0436 27.0883 46.0249 27.3389 42.9433C29.7825 43.132 31.8502 43.132 34.4191 43.132Z" fill="#E8E4DF"/>
<path d="M79.3754 42H80.5659L92.1574 73.4446C92.9093 75.457 94.0371 78.4128 94.977 80.4882C96.1674 83.2553 97.2326 84.576 99.3003 85.6451L99.1123 87.2173C96.6687 87.0286 95.5409 87.0286 93.9744 87.0286C92.408 87.0286 90.0897 87.0286 87.6461 87.2173L87.4581 85.6451C89.1499 84.8904 89.8391 84.3244 89.8391 83.1295C89.8391 81.6831 88.8992 79.2304 86.8316 73.4446L86.3303 72.1868H71.0421L70.6035 73.4446C68.4105 79.2304 68.0345 81.6202 68.0345 83.0666C68.0345 84.2615 68.5984 84.9533 70.4155 85.6451L70.2275 87.2173C67.7839 87.0286 66.5308 87.0286 64.9643 87.0286C63.3979 87.0286 62.5207 87.0286 60.3277 87.2173L60.1398 85.6451C62.2074 84.576 63.2726 83.2553 64.4631 80.4882C65.4029 78.4128 66.5308 75.457 67.2826 73.4446L79.3754 42ZM78.9368 51.6849L72.1072 69.4826H85.3905L78.9368 51.6849Z" fill="#E8E4DF"/>
<path d="M142.904 48.5405L126.174 88.1607H124.858L108.066 49.924L107.252 73.5075C107.189 74.9539 107.127 76.7777 107.127 78.4757C107.127 81.746 107.252 84.7017 110.635 85.708L110.447 87.2802C108.505 87.1544 106.813 87.0915 105.309 87.0915C103.806 87.0915 102.302 87.0915 100.36 87.2802L100.172 85.708C102.741 84.6389 103.304 83.5069 103.555 80.5511C103.743 78.4757 103.743 75.7086 103.868 73.5075L104.62 56.7161C104.683 55.2696 104.683 54.3263 104.683 53.1314C104.683 49.6096 104.62 45.7105 100.798 44.5156L100.986 42.9433C104.495 43.132 107.064 43.132 110.761 43.132L126.55 79.6077L141.4 43.132C144.846 43.132 148.731 43.132 151.174 42.9433L151.362 44.5156C148.793 45.5218 148.292 46.8425 148.104 49.6725C148.041 51.1818 147.979 53.1314 147.979 54.8923C147.979 55.5841 148.104 56.1501 148.417 73.5075C148.48 75.7086 148.48 78.4757 148.668 80.5511C148.668 83.5069 149.357 84.6389 151.926 85.708L151.738 87.2802C149.295 87.0915 147.728 87.0915 146.162 87.0915C144.595 87.0915 142.904 87.0915 140.46 87.2802L140.272 85.708C143.467 84.8904 143.53 81.6202 143.53 78.6015C143.53 77.0293 143.53 75.0797 143.467 73.5075L142.904 48.5405Z" fill="#E8E4DF"/>
<path d="M164.349 56.7161V73.4446C164.349 75.6457 164.475 78.4128 164.537 80.4882C164.663 83.444 165.164 84.576 167.733 85.6451L167.545 87.2173C165.101 87.0286 163.472 87.0286 161.906 87.0286C160.339 87.0286 158.648 87.0286 156.204 87.2173L156.016 85.6451C158.522 84.6389 158.961 83.2553 159.149 80.4882C159.337 78.4128 159.337 75.6457 159.337 73.4446V56.7161C159.337 54.5149 159.337 51.7478 159.149 49.6725C158.961 46.9054 158.522 45.5218 156.016 44.5156L156.204 42.9433C158.648 43.132 160.339 43.132 161.906 43.132C163.472 43.132 165.101 43.132 167.545 42.9433L167.733 44.5156C165.164 45.5847 164.663 46.7167 164.537 49.6725C164.475 51.7478 164.349 54.5149 164.349 56.7161Z" fill="#E8E4DF"/>
<path d="M211.355 87.6575L209.851 88.1607L178.961 50.7416V73.5075C178.961 75.7086 178.961 78.4757 179.149 80.5511C179.4 83.5069 179.964 84.6389 182.533 85.708L182.345 87.2802C180.402 87.1544 178.71 87.0915 177.269 87.0915C175.766 87.0915 174.262 87.0915 172.319 87.2802L172.131 85.708C174.7 84.6389 175.202 83.5069 175.452 80.5511C175.64 78.4757 175.64 75.7086 175.64 73.5075V56.7161C175.64 54.5149 175.64 52.1252 175.452 50.0498C175.202 47.094 174.387 45.5847 171.818 44.5156L172.006 42.9433C173.949 43.0691 176.392 43.132 179.337 43.132L207.783 77.4066V56.7161C207.783 54.5149 207.783 51.7478 207.595 49.6725C207.345 46.7167 206.781 45.5847 204.212 44.5156L204.4 42.9433C206.342 43.0691 208.034 43.132 209.475 43.132C210.979 43.132 212.482 43.132 214.425 42.9433L214.613 44.5156C212.044 45.5847 211.543 46.7167 211.292 49.6725C211.104 51.7478 211.104 54.5149 211.104 56.7161V77.3437C211.104 80.3624 211.167 84.3873 211.355 87.6575Z" fill="#E8E4DF"/>
<path d="M235.075 42H236.266L247.857 73.4446C248.609 75.457 249.737 78.4128 250.677 80.4882C251.867 83.2553 252.932 84.576 255 85.6451L254.812 87.2173C252.368 87.0286 251.241 87.0286 249.674 87.0286C248.108 87.0286 245.789 87.0286 243.346 87.2173L243.158 85.6451C244.85 84.8904 245.539 84.3244 245.539 83.1295C245.539 81.6831 244.599 79.2304 242.531 73.4446L242.03 72.1868H226.742L226.303 73.4446C224.11 79.2304 223.734 81.6202 223.734 83.0666C223.734 84.2615 224.298 84.9533 226.115 85.6451L225.927 87.2173C223.484 87.0286 222.23 87.0286 220.664 87.0286C219.098 87.0286 218.22 87.0286 216.027 87.2173L215.84 85.6451C217.907 84.576 218.972 83.2553 220.163 80.4882C221.103 78.4128 222.23 75.457 222.982 73.4446L235.075 42ZM234.637 51.6849L227.807 69.4826H241.09L234.637 51.6849Z" fill="#E8E4DF"/>
<path d="M102.695 120.611C101.441 120.611 100.689 119.857 100.314 118.41C100 117.153 99.5617 116.649 98.4965 116.649C95.6143 116.649 92.1055 121.303 90.3511 126.963C89.286 130.359 89.0353 132.749 89.0353 134.824C89.0353 137.906 90.4138 138.912 91.9802 138.912C94.4238 138.912 96.4915 137.151 100.126 132.435L101.441 133.252C98.4965 139.227 94.4238 143 90.8524 143C87.5316 143 85.0253 140.484 85.0253 136.082C85.0253 125.139 93.3587 113.316 100.376 113.316C103.07 113.316 105.075 115.329 105.075 117.97C105.075 119.417 104.073 120.611 102.695 120.611Z" fill="#E8E4DF"/>
<path d="M116.37 106.587L109.165 136.208C109.039 136.837 108.977 137.277 108.977 137.529C108.977 137.906 109.165 138.22 109.666 138.22C110.355 138.22 112.36 137.026 115.744 132.498L117.122 133.441C112.924 140.547 109.666 142.623 107.473 142.623C105.907 142.623 104.654 141.616 104.654 139.918C104.654 138.283 104.904 136.963 105.907 132.749L112.047 106.65C112.611 104.197 112.987 101.682 112.987 100.298C112.987 98.9147 112.298 98.0342 110.105 97.4054L110.23 95.8331C113.363 95.5816 115.681 95.33 118.501 94.7011L119.441 95.7073C118.062 99.9838 117.498 101.808 116.37 106.587Z" fill="#E8E4DF"/>
<path d="M135.536 129.919C130.022 140.547 127.14 142.623 124.07 142.623C121.438 142.623 119.809 140.422 119.809 138.158C119.809 136.648 120.373 134.699 121.501 131.743L125.26 121.932C125.949 120.108 126.263 119.102 126.263 118.347C126.263 117.781 126.012 117.278 125.448 117.278C124.383 117.278 123.255 118.536 120.373 122.121L119.12 121.052C122.629 115.769 125.01 113.316 127.579 113.316C129.082 113.316 130.398 114.7 130.398 116.712C130.398 118.159 130.085 119.417 128.518 123.567L124.759 133.63C124.132 135.265 123.944 136.082 123.944 136.963C123.944 137.969 124.446 138.598 125.636 138.598C127.892 138.598 133.406 133.567 139.358 116.587L140.235 114.071C140.611 113.882 141.112 113.757 141.614 113.757C142.554 113.757 143.556 114.323 144.12 115.455C142.303 120.486 141.614 122.121 140.486 126.02C138.606 132.56 138.042 135.328 137.917 136.46C137.854 137.088 137.854 137.592 137.854 137.906C137.854 138.22 138.105 138.598 138.481 138.598C139.17 138.598 140.298 137.969 143.556 133.692L144.872 134.699C141.112 140.799 138.606 142.623 136.413 142.623C134.659 142.623 133.782 141.365 133.782 139.541C133.782 138.095 133.782 136.334 135.536 129.919Z" fill="#E8E4DF"/>
<path d="M165.891 121.115C165.891 118.788 164.701 117.341 163.197 117.341C158.247 117.341 151.418 128.473 151.418 135.768C151.418 138.032 152.671 139.164 154.3 139.164C155.678 139.164 157.37 138.598 159.375 136.46C163.197 132.372 165.891 126.02 165.891 121.115ZM148.473 130.359L155.177 106.65C155.866 104.26 156.618 101.682 156.618 100.298C156.618 98.9147 155.929 98.0342 153.736 97.4054L153.861 95.8331C156.994 95.5816 159.124 95.33 161.944 94.7011L162.884 95.7073C161.505 99.9838 160.816 101.808 159.375 106.587L154.864 121.492C158.999 115.455 162.069 113.316 164.763 113.316C167.646 113.316 169.964 116.083 169.964 120.8C169.964 126.209 167.019 132.812 160.816 138.849C158.059 141.491 155.678 142.748 152.859 142.748C149.538 142.748 147.407 140.044 147.407 136.585C147.407 134.762 147.721 132.812 148.473 130.359Z" fill="#E8E4DF"/>
</svg>
