<svg width="255" height="137" viewBox="0 0 255 137" fill="none" xmlns="http://www.w3.org/2000/svg">
<path d="M80.2449 8.16508L80.3349 9.75508C80.3349 10.2651 80.4549 10.6851 80.6649 11.0001H78.5799C78.3999 10.7001 78.2949 10.2801 78.2949 9.72508L78.2499 8.55508C78.2199 7.91008 78.0699 7.46008 77.7999 7.20508C77.5299 6.95008 77.1099 6.81508 76.5399 6.81508H73.8999V11.0001H71.8749V0.320079H76.7199C77.9049 0.320079 78.8349 0.590079 79.4949 1.13008C80.1549 1.67008 80.4849 2.40508 80.4849 3.33508C80.4849 4.62508 79.8849 5.46508 78.6999 5.88508C79.2399 6.06508 79.6149 6.33508 79.8549 6.69508C80.0949 7.05508 80.2149 7.55008 80.2449 8.16508ZM73.8999 1.98508V5.22508H76.5999C77.1699 5.22508 77.6049 5.09008 77.9199 4.80508C78.2349 4.52008 78.3999 4.10008 78.3999 3.56008C78.3999 3.05008 78.2349 2.66008 77.9049 2.39008C77.5749 2.12008 77.1249 1.98508 76.5249 1.98508H73.8999Z" fill="#E8E4DF"/>
<path d="M90.4755 0.320079V2.13508H84.6255V4.65508H89.9205V6.39508H84.6255V9.18508H90.4455V11.0001H82.6005V0.320079H90.4755Z" fill="#E8E4DF"/>
<path d="M95.4482 11.2401C94.3382 11.2401 93.4832 10.9401 92.8532 10.3401C92.2232 9.74008 91.9232 8.91508 91.9232 7.88008V7.19008H93.8582V7.88008C93.8582 8.39008 93.9932 8.79508 94.2782 9.08008C94.5482 9.36508 94.9382 9.50008 95.4332 9.50008C95.9282 9.50008 96.3182 9.36508 96.6032 9.08008C96.8732 8.81008 97.0232 8.40508 97.0232 7.88008V0.320079H99.0332V7.88008C99.0332 8.90008 98.7032 9.71008 98.0732 10.3251C97.4432 10.9401 96.5582 11.2401 95.4482 11.2401Z" fill="#E8E4DF"/>
<path d="M106.276 11.2401C104.671 11.2401 103.381 10.7301 102.406 9.71008C101.416 8.69008 100.936 7.34008 100.936 5.66008C100.936 3.99508 101.416 2.64508 102.406 1.61008C103.381 0.590079 104.671 0.0800781 106.276 0.0800781C107.866 0.0800781 109.156 0.590079 110.146 1.61008C111.106 2.63008 111.601 3.98008 111.601 5.66008C111.601 7.35508 111.106 8.70508 110.146 9.71008C109.156 10.7301 107.866 11.2401 106.276 11.2401ZM103.936 8.43508C104.521 9.12508 105.301 9.45508 106.276 9.45508C107.251 9.45508 108.031 9.12508 108.631 8.43508C109.201 7.77508 109.501 6.84508 109.501 5.66008C109.501 4.49008 109.201 3.56008 108.631 2.88508C108.031 2.21008 107.251 1.86508 106.276 1.86508C105.301 1.86508 104.521 2.21008 103.936 2.88508C103.336 3.57508 103.051 4.49008 103.051 5.66008C103.051 6.83008 103.336 7.76008 103.936 8.43508Z" fill="#E8E4DF"/>
<path d="M115.674 11.0001H113.649V0.320079H115.674V11.0001Z" fill="#E8E4DF"/>
<path d="M125.244 3.11008V0.320079H127.194V11.0001H124.944L121.974 6.24508C121.164 4.98508 120.519 3.90508 120.069 3.03508C120.099 4.16008 120.129 5.88508 120.129 8.21008V11.0001H118.179V0.320079H120.429L123.414 5.07508C124.299 6.51508 124.929 7.59508 125.304 8.28508C125.259 6.80008 125.244 5.07508 125.244 3.11008Z" fill="#E8E4DF"/>
<path d="M129.695 0.320079H133.775C135.485 0.320079 136.805 0.800079 137.735 1.74508C138.665 2.70508 139.13 4.01008 139.13 5.66008C139.13 7.31008 138.665 8.61508 137.735 9.56008C136.805 10.5201 135.485 11.0001 133.775 11.0001H129.695V0.320079ZM131.72 9.26008H133.745C134.795 9.26008 135.605 8.96008 136.175 8.34508C136.745 7.73008 137.03 6.83008 137.03 5.66008C137.03 4.49008 136.745 3.60508 136.175 2.99008C135.605 2.37508 134.795 2.06008 133.745 2.06008H131.72V9.26008Z" fill="#E8E4DF"/>
<path d="M149.553 8.16508L149.643 9.75508C149.643 10.2651 149.763 10.6851 149.973 11.0001H147.887C147.707 10.7001 147.602 10.2801 147.602 9.72508L147.557 8.55508C147.527 7.91008 147.377 7.46008 147.107 7.20508C146.837 6.95008 146.418 6.81508 145.848 6.81508H143.208V11.0001H141.182V0.320079H146.027C147.212 0.320079 148.143 0.590079 148.803 1.13008C149.463 1.67008 149.792 2.40508 149.792 3.33508C149.792 4.62508 149.193 5.46508 148.008 5.88508C148.548 6.06508 148.923 6.33508 149.163 6.69508C149.403 7.05508 149.523 7.55008 149.553 8.16508ZM143.208 1.98508V5.22508H145.908C146.478 5.22508 146.912 5.09008 147.227 4.80508C147.542 4.52008 147.708 4.10008 147.708 3.56008C147.708 3.05008 147.542 2.66008 147.212 2.39008C146.882 2.12008 146.433 1.98508 145.833 1.98508H143.208Z" fill="#E8E4DF"/>
<path d="M159.783 0.320079V2.13508H153.933V4.65508H159.228V6.39508H153.933V9.18508H159.753V11.0001H151.908V0.320079H159.783Z" fill="#E8E4DF"/>
<path d="M167.796 0.320079V9.18508H172.881V11.0001H165.771V0.320079H167.796Z" fill="#E8E4DF"/>
<path d="M182.614 0.320079V2.13508H176.764V4.65508H182.059V6.39508H176.764V9.18508H182.584V11.0001H174.739V0.320079H182.614Z" fill="#E8E4DF"/>
<path d="M11.9675 79.3307C16.98 79.3307 20.3008 76.1234 20.3008 71.784C20.3008 69.4571 19.4863 67.5076 17.9198 65.9353C16.5414 64.5518 15.6015 63.6084 11.7795 60.9042C6.391 57.1308 5.20052 56.1246 3.50878 53.9235C1.94236 51.911 1.31579 50.0873 1.31579 47.1315C1.31579 40.8425 6.57897 36.1259 13.8472 36.1259C17.7945 36.1259 20.9274 37.0063 24.1229 38.7043C24.1855 40.4023 24.2482 41.5972 24.2482 43.0437C24.2482 44.4901 24.1855 45.8108 24.1229 47.5088L22.3685 47.6346C21.8046 45.4335 21.178 43.6097 19.7369 41.9117C18.0452 39.9621 16.3534 39.0188 13.3459 39.0188C8.89727 39.0188 5.88974 41.7859 5.88974 46.0623C5.88974 48.0119 6.32834 49.5841 8.08273 51.4079C9.27321 52.6028 10.0877 53.2946 14.0978 56.1246C19.0477 59.5835 20.5514 60.6526 22.3058 62.6651C24.0602 64.7404 25.2507 67.7591 25.2507 70.5891C25.2507 77.6327 19.7369 82.1607 11.5289 82.1607C7.26819 82.1607 4.26066 81.5318 1.25314 80.0854C0.563911 76.6265 0.375941 73.482 0 69.8973L1.94236 69.4571C2.63159 71.4696 3.1955 73.1047 4.13535 74.6769C5.9524 77.8843 7.76944 79.3307 11.9675 79.3307Z" fill="#E8E4DF"/>
<path d="M34.4191 37.1321H57.0383C59.6072 37.1321 61.6749 37.1321 64.1185 36.9434C64.2438 39.9621 64.3064 43.0437 64.3064 46.1252L62.4894 46.251C61.8002 43.9241 61.1736 42.6034 60.2338 41.5972C59.2939 40.591 57.8528 40.0879 56.6623 39.8992C55.0959 39.6477 53.7174 39.5848 51.7124 39.5848C48.7676 39.5848 48.3916 40.0879 48.2036 42.6034C48.0157 44.553 48.0157 46.817 48.0157 49.081V67.4447C48.0157 69.6458 48.141 72.4129 48.2036 74.4883C48.329 77.6956 49.0182 78.7018 52.0257 79.5194L51.8377 81.2174C49.3941 81.0287 47.1385 81.0287 45.5721 81.0287C44.0056 81.0287 41.6247 81.0287 39.1811 81.2174L38.9931 79.5194C42.0006 78.7018 42.6898 77.6956 42.8152 74.4883C42.8778 72.4129 43.0031 69.6458 43.0031 67.4447V49.081C43.0031 46.817 43.0031 44.553 42.8152 42.6034C42.6272 40.0879 42.2513 39.5848 39.3064 39.5848C37.3014 39.5848 35.9856 39.6477 34.4191 39.8992C33.2287 40.0879 31.7876 40.591 30.8477 41.5972C29.9079 42.6034 29.2186 43.9241 28.5294 46.251L26.7124 46.1252C26.9003 43.0437 27.0883 40.025 27.3389 36.9434C29.7825 37.1321 31.8502 37.1321 34.4191 37.1321Z" fill="#E8E4DF"/>
<path d="M79.3754 36.0001H80.5659L92.1574 67.4447C92.9093 69.4571 94.0371 72.4129 94.977 74.4883C96.1674 77.2554 97.2326 78.576 99.3003 79.6452L99.1123 81.2174C96.6687 81.0287 95.5409 81.0287 93.9744 81.0287C92.408 81.0287 90.0897 81.0287 87.6461 81.2174L87.4581 79.6452C89.1499 78.8905 89.8391 78.3245 89.8391 77.1296C89.8391 75.6831 88.8992 73.2305 86.8316 67.4447L86.3303 66.1869H71.0421L70.6035 67.4447C68.4105 73.2305 68.0345 75.6203 68.0345 77.0667C68.0345 78.2616 68.5984 78.9534 70.4155 79.6452L70.2275 81.2174C67.7839 81.0287 66.5308 81.0287 64.9643 81.0287C63.3979 81.0287 62.5207 81.0287 60.3277 81.2174L60.1398 79.6452C62.2074 78.576 63.2726 77.2554 64.4631 74.4883C65.4029 72.4129 66.5308 69.4571 67.2826 67.4447L79.3754 36.0001ZM78.9368 45.685L72.1072 63.4826H85.3905L78.9368 45.685Z" fill="#E8E4DF"/>
<path d="M142.904 42.5406L126.174 82.1607H124.858L108.066 43.9241L107.252 67.5076C107.189 68.954 107.127 70.7778 107.127 72.4758C107.127 75.746 107.252 78.7018 110.635 79.7081L110.447 81.2803C108.505 81.1545 106.813 81.0916 105.309 81.0916C103.806 81.0916 102.302 81.0916 100.36 81.2803L100.172 79.7081C102.741 78.6389 103.304 77.5069 103.555 74.5511C103.743 72.4758 103.743 69.7087 103.868 67.5076L104.62 50.7161C104.683 49.2697 104.683 48.3264 104.683 47.1315C104.683 43.6097 104.62 39.7105 100.798 38.5156L100.986 36.9434C104.495 37.1321 107.064 37.1321 110.761 37.1321L126.55 73.6078L141.4 37.1321C144.846 37.1321 148.731 37.1321 151.174 36.9434L151.362 38.5156C148.793 39.5219 148.292 40.8425 148.104 43.6726C148.041 45.1819 147.979 47.1315 147.979 48.8924C147.979 49.5841 148.104 50.1501 148.417 67.5076C148.48 69.7087 148.48 72.4758 148.668 74.5511C148.668 77.5069 149.357 78.6389 151.926 79.7081L151.738 81.2803C149.295 81.0916 147.728 81.0916 146.162 81.0916C144.595 81.0916 142.904 81.0916 140.46 81.2803L140.272 79.7081C143.467 78.8905 143.53 75.6203 143.53 72.6016C143.53 71.0293 143.53 69.0798 143.467 67.5076L142.904 42.5406Z" fill="#E8E4DF"/>
<path d="M164.349 50.7161V67.4447C164.349 69.6458 164.475 72.4129 164.537 74.4883C164.663 77.444 165.164 78.576 167.733 79.6452L167.545 81.2174C165.101 81.0287 163.472 81.0287 161.906 81.0287C160.339 81.0287 158.648 81.0287 156.204 81.2174L156.016 79.6452C158.522 78.6389 158.961 77.2554 159.149 74.4883C159.337 72.4129 159.337 69.6458 159.337 67.4447V50.7161C159.337 48.515 159.337 45.7479 159.149 43.6726C158.961 40.9054 158.522 39.5219 156.016 38.5156L156.204 36.9434C158.648 37.1321 160.339 37.1321 161.906 37.1321C163.472 37.1321 165.101 37.1321 167.545 36.9434L167.733 38.5156C165.164 39.5848 164.663 40.7168 164.537 43.6726C164.475 45.7479 164.349 48.515 164.349 50.7161Z" fill="#E8E4DF"/>
<path d="M211.355 81.6576L209.851 82.1607L178.961 44.7417V67.5076C178.961 69.7087 178.961 72.4758 179.149 74.5511C179.4 77.5069 179.964 78.6389 182.533 79.7081L182.345 81.2803C180.402 81.1545 178.71 81.0916 177.269 81.0916C175.766 81.0916 174.262 81.0916 172.319 81.2803L172.131 79.7081C174.7 78.6389 175.202 77.5069 175.452 74.5511C175.64 72.4758 175.64 69.7087 175.64 67.5076V50.7161C175.64 48.515 175.64 46.1252 175.452 44.0499C175.202 41.0941 174.387 39.5848 171.818 38.5156L172.006 36.9434C173.949 37.0692 176.392 37.1321 179.337 37.1321L207.783 71.4067V50.7161C207.783 48.515 207.783 45.7479 207.595 43.6726C207.345 40.7168 206.781 39.5848 204.212 38.5156L204.4 36.9434C206.342 37.0692 208.034 37.1321 209.475 37.1321C210.979 37.1321 212.482 37.1321 214.425 36.9434L214.613 38.5156C212.044 39.5848 211.543 40.7168 211.292 43.6726C211.104 45.7479 211.104 48.515 211.104 50.7161V71.3438C211.104 74.3625 211.167 78.3874 211.355 81.6576Z" fill="#E8E4DF"/>
<path d="M235.075 36.0001H236.266L247.857 67.4447C248.609 69.4571 249.737 72.4129 250.677 74.4883C251.867 77.2554 252.932 78.576 255 79.6452L254.812 81.2174C252.368 81.0287 251.241 81.0287 249.674 81.0287C248.108 81.0287 245.789 81.0287 243.346 81.2174L243.158 79.6452C244.85 78.8905 245.539 78.3245 245.539 77.1296C245.539 75.6831 244.599 73.2305 242.531 67.4447L242.03 66.1869H226.742L226.303 67.4447C224.11 73.2305 223.734 75.6203 223.734 77.0667C223.734 78.2616 224.298 78.9534 226.115 79.6452L225.927 81.2174C223.484 81.0287 222.23 81.0287 220.664 81.0287C219.098 81.0287 218.22 81.0287 216.027 81.2174L215.84 79.6452C217.907 78.576 218.972 77.2554 220.163 74.4883C221.103 72.4129 222.23 69.4571 222.982 67.4447L235.075 36.0001ZM234.637 45.685L227.807 63.4826H241.09L234.637 45.685Z" fill="#E8E4DF"/>
<path d="M102.695 114.612C101.441 114.612 100.689 113.857 100.314 112.41C100 111.153 99.5617 110.65 98.4965 110.65C95.6143 110.65 92.1055 115.303 90.3511 120.963C89.286 124.359 89.0353 126.749 89.0353 128.824C89.0353 131.906 90.4138 132.912 91.9802 132.912C94.4238 132.912 96.4915 131.151 100.126 126.435L101.441 127.252C98.4965 133.227 94.4238 137 90.8524 137C87.5316 137 85.0253 134.485 85.0253 130.082C85.0253 119.14 93.3587 107.316 100.376 107.316C103.07 107.316 105.075 109.329 105.075 111.97C105.075 113.417 104.073 114.612 102.695 114.612Z" fill="#E8E4DF"/>
<path d="M116.37 100.587L109.165 130.208C109.039 130.837 108.977 131.277 108.977 131.529C108.977 131.906 109.165 132.221 109.666 132.221C110.355 132.221 112.36 131.026 115.744 126.498L117.122 127.441C112.924 134.547 109.666 136.623 107.473 136.623C105.907 136.623 104.654 135.617 104.654 133.919C104.654 132.283 104.904 130.963 105.907 126.749L112.047 100.65C112.611 98.1975 112.987 95.6819 112.987 94.2983C112.987 92.9148 112.298 92.0343 110.105 91.4054L110.23 89.8332C113.363 89.5816 115.681 89.3301 118.501 88.7012L119.441 89.7074C118.062 93.9839 117.498 95.8077 116.37 100.587Z" fill="#E8E4DF"/>
<path d="M135.536 123.919C130.022 134.547 127.14 136.623 124.07 136.623C121.438 136.623 119.809 134.422 119.809 132.158C119.809 130.648 120.373 128.699 121.501 125.743L125.26 115.932C125.949 114.108 126.263 113.102 126.263 112.348C126.263 111.782 126.012 111.278 125.448 111.278C124.383 111.278 123.255 112.536 120.373 116.121L119.12 115.052C122.629 109.769 125.01 107.316 127.579 107.316C129.082 107.316 130.398 108.7 130.398 110.712C130.398 112.159 130.085 113.417 128.518 117.567L124.759 127.63C124.132 129.265 123.944 130.082 123.944 130.963C123.944 131.969 124.446 132.598 125.636 132.598C127.892 132.598 133.406 127.567 139.358 110.587L140.235 108.071C140.611 107.882 141.112 107.757 141.614 107.757C142.554 107.757 143.556 108.323 144.12 109.455C142.303 114.486 141.614 116.121 140.486 120.02C138.606 126.56 138.042 129.328 137.917 130.46C137.854 131.089 137.854 131.592 137.854 131.906C137.854 132.22 138.105 132.598 138.481 132.598C139.17 132.598 140.298 131.969 143.556 127.692L144.872 128.699C141.112 134.799 138.606 136.623 136.413 136.623C134.659 136.623 133.782 135.365 133.782 133.541C133.782 132.095 133.782 130.334 135.536 123.919Z" fill="#E8E4DF"/>
<path d="M165.891 115.115C165.891 112.788 164.701 111.341 163.197 111.341C158.247 111.341 151.418 122.473 151.418 129.768C151.418 132.032 152.671 133.164 154.3 133.164C155.678 133.164 157.37 132.598 159.375 130.46C163.197 126.372 165.891 120.02 165.891 115.115ZM148.473 124.359L155.177 100.65C155.866 98.2604 156.618 95.6819 156.618 94.2983C156.618 92.9148 155.929 92.0343 153.736 91.4054L153.861 89.8332C156.994 89.5816 159.124 89.3301 161.944 88.7012L162.884 89.7074C161.505 93.9839 160.816 95.8077 159.375 100.587L154.864 115.492C158.999 109.455 162.069 107.316 164.763 107.316C167.646 107.316 169.964 110.084 169.964 114.8C169.964 120.209 167.019 126.812 160.816 132.849C158.059 135.491 155.678 136.749 152.859 136.749C149.538 136.749 147.408 134.044 147.408 130.585C147.408 128.762 147.721 126.812 148.473 124.359Z" fill="#E8E4DF"/>
</svg>
