<svg width="255" height="143" viewBox="0 0 255 143" fill="none" xmlns="http://www.w3.org/2000/svg">
<path d="M30.1596 6.32V15.185H35.2446V17H28.1346V6.32H30.1596ZM44.9774 6.32V8.135H39.1274V10.655H44.4224V12.395H39.1274V15.185H44.9474V17H37.1024V6.32H44.9774ZM51.0288 17.24C49.5738 17.24 48.4488 16.925 47.6538 16.265C46.8588 15.62 46.4538 14.69 46.4538 13.475H48.4488C48.4488 14.24 48.6738 14.78 49.1238 15.11C49.5738 15.44 50.2188 15.605 51.0888 15.605C51.7788 15.605 52.3188 15.485 52.6938 15.215C53.0538 14.945 53.2488 14.57 53.2488 14.06C53.2488 13.64 53.0838 13.325 52.7688 13.1C52.4538 12.89 51.8838 12.695 51.0588 12.515L50.1588 12.335C47.8638 11.915 46.7238 10.835 46.7238 9.095C46.7238 8.18 47.0688 7.445 47.7738 6.905C48.4638 6.365 49.4388 6.08 50.6838 6.08C52.0938 6.08 53.1588 6.38 53.8788 6.98C54.5988 7.58 54.9888 8.42 55.0338 9.5H53.0688C53.0238 8.9 52.8138 8.45 52.4538 8.15C52.0938 7.865 51.5088 7.715 50.7138 7.715C50.0838 7.715 49.6188 7.835 49.2888 8.06C48.9588 8.3 48.7938 8.615 48.7938 9.035C48.7938 9.47 48.9438 9.8 49.2438 10.025C49.5438 10.265 50.0988 10.46 50.8788 10.61L51.8088 10.79C53.0538 11.045 53.9538 11.42 54.5088 11.915C55.0638 12.41 55.3488 13.085 55.3488 13.955C55.3488 15.005 54.9588 15.815 54.2088 16.385C53.4438 16.955 52.3788 17.24 51.0288 17.24ZM63.2768 6.32V15.185H68.3618V17H61.2518V6.32H63.2768ZM78.0946 6.32V8.135H72.2446V10.655H77.5396V12.395H72.2446V15.185H78.0646V17H70.2196V6.32H78.0946ZM79.4216 6.32H88.3016V8.135H84.8816V17H82.8416V8.135H79.4216V6.32ZM89.5906 6.32H98.4706V8.135H95.0506V17H93.0106V8.135H89.5906V6.32ZM108.613 14.165L108.703 15.755C108.703 16.265 108.823 16.685 109.033 17H106.948C106.768 16.7 106.663 16.28 106.663 15.725L106.618 14.555C106.588 13.91 106.438 13.46 106.168 13.205C105.898 12.95 105.478 12.815 104.908 12.815H102.268V17H100.243V6.32H105.088C106.273 6.32 107.203 6.59 107.863 7.13C108.523 7.67 108.853 8.405 108.853 9.335C108.853 10.625 108.253 11.465 107.068 11.885C107.608 12.065 107.983 12.335 108.223 12.695C108.463 13.055 108.583 13.55 108.613 14.165ZM102.268 7.985V11.225H104.968C105.538 11.225 105.973 11.09 106.288 10.805C106.603 10.52 106.768 10.1 106.768 9.56C106.768 9.05 106.603 8.66 106.273 8.39C105.943 8.12 105.493 7.985 104.893 7.985H102.268ZM118.844 6.32V8.135H112.994V10.655H118.289V12.395H112.994V15.185H118.814V17H110.969V6.32H118.844ZM124.895 17.24C123.44 17.24 122.315 16.925 121.52 16.265C120.725 15.62 120.32 14.69 120.32 13.475H122.315C122.315 14.24 122.54 14.78 122.99 15.11C123.44 15.44 124.085 15.605 124.955 15.605C125.645 15.605 126.185 15.485 126.56 15.215C126.92 14.945 127.115 14.57 127.115 14.06C127.115 13.64 126.95 13.325 126.635 13.1C126.32 12.89 125.75 12.695 124.925 12.515L124.025 12.335C121.73 11.915 120.59 10.835 120.59 9.095C120.59 8.18 120.935 7.445 121.64 6.905C122.33 6.365 123.305 6.08 124.55 6.08C125.96 6.08 127.025 6.38 127.745 6.98C128.465 7.58 128.855 8.42 128.9 9.5H126.935C126.89 8.9 126.68 8.45 126.32 8.15C125.96 7.865 125.375 7.715 124.58 7.715C123.95 7.715 123.485 7.835 123.155 8.06C122.825 8.3 122.66 8.615 122.66 9.035C122.66 9.47 122.81 9.8 123.11 10.025C123.41 10.265 123.965 10.46 124.745 10.61L125.675 10.79C126.92 11.045 127.82 11.42 128.375 11.915C128.93 12.41 129.215 13.085 129.215 13.955C129.215 15.005 128.825 15.815 128.075 16.385C127.31 16.955 126.245 17.24 124.895 17.24ZM135.118 6.32H139.813C140.998 6.32 141.928 6.635 142.588 7.265C143.248 7.895 143.593 8.735 143.593 9.8C143.593 10.865 143.248 11.705 142.588 12.335C141.928 12.965 140.998 13.265 139.813 13.265H137.143V17H135.118V6.32ZM137.143 11.525H139.723C140.308 11.525 140.758 11.39 141.073 11.09C141.388 10.79 141.553 10.37 141.553 9.8C141.553 9.245 141.388 8.81 141.073 8.51C140.758 8.21 140.308 8.06 139.723 8.06H137.143V11.525ZM153.965 14.165L154.055 15.755C154.055 16.265 154.175 16.685 154.385 17H152.3C152.12 16.7 152.015 16.28 152.015 15.725L151.97 14.555C151.94 13.91 151.79 13.46 151.52 13.205C151.25 12.95 150.83 12.815 150.26 12.815H147.62V17H145.595V6.32H150.44C151.625 6.32 152.555 6.59 153.215 7.13C153.875 7.67 154.205 8.405 154.205 9.335C154.205 10.625 153.605 11.465 152.42 11.885C152.96 12.065 153.335 12.335 153.575 12.695C153.815 13.055 153.935 13.55 153.965 14.165ZM147.62 7.985V11.225H150.32C150.89 11.225 151.325 11.09 151.64 10.805C151.955 10.52 152.12 10.1 152.12 9.56C152.12 9.05 151.955 8.66 151.625 8.39C151.295 8.12 150.845 7.985 150.245 7.985H147.62ZM158.345 17H156.32V6.32H158.345V17ZM166.102 11.84L167.992 6.32H170.092L166.267 17H163.897L159.982 6.32H162.142L164.077 11.84C164.527 13.205 164.857 14.315 165.097 15.17C165.352 14.18 165.682 13.07 166.102 11.84ZM176.192 3.515H178.367L176.432 5.675H174.887L176.192 3.515ZM179.582 6.32V8.135H173.732V10.655H179.027V12.395H173.732V15.185H179.552V17H171.707V6.32H179.582ZM189.458 6.32V8.135H183.608V10.655H188.903V12.395H183.608V15.185H189.428V17H181.583V6.32H189.458ZM195.509 17.24C194.054 17.24 192.929 16.925 192.134 16.265C191.339 15.62 190.934 14.69 190.934 13.475H192.929C192.929 14.24 193.154 14.78 193.604 15.11C194.054 15.44 194.699 15.605 195.569 15.605C196.259 15.605 196.799 15.485 197.174 15.215C197.534 14.945 197.729 14.57 197.729 14.06C197.729 13.64 197.564 13.325 197.249 13.1C196.934 12.89 196.364 12.695 195.539 12.515L194.639 12.335C192.344 11.915 191.204 10.835 191.204 9.095C191.204 8.18 191.549 7.445 192.254 6.905C192.944 6.365 193.919 6.08 195.164 6.08C196.574 6.08 197.639 6.38 198.359 6.98C199.079 7.58 199.469 8.42 199.514 9.5H197.549C197.504 8.9 197.294 8.45 196.934 8.15C196.574 7.865 195.989 7.715 195.194 7.715C194.564 7.715 194.099 7.835 193.769 8.06C193.439 8.3 193.274 8.615 193.274 9.035C193.274 9.47 193.424 9.8 193.724 10.025C194.024 10.265 194.579 10.46 195.359 10.61L196.289 10.79C197.534 11.045 198.434 11.42 198.989 11.915C199.544 12.41 199.829 13.085 199.829 13.955C199.829 15.005 199.439 15.815 198.689 16.385C197.924 16.955 196.859 17.24 195.509 17.24ZM205.732 6.32H209.812C211.522 6.32 212.842 6.8 213.772 7.745C214.702 8.705 215.167 10.01 215.167 11.66C215.167 13.31 214.702 14.615 213.772 15.56C212.842 16.52 211.522 17 209.812 17H205.732V6.32ZM207.757 15.26H209.782C210.832 15.26 211.642 14.96 212.212 14.345C212.782 13.73 213.067 12.83 213.067 11.66C213.067 10.49 212.782 9.605 212.212 8.99C211.642 8.375 210.832 8.06 209.782 8.06H207.757V15.26ZM221.54 17.225C220.145 17.225 219.05 16.865 218.255 16.115C217.46 15.365 217.07 14.33 217.07 12.98V6.32H219.095V12.995C219.095 13.805 219.305 14.42 219.725 14.84C220.145 15.26 220.745 15.47 221.54 15.47C222.32 15.47 222.935 15.26 223.355 14.84C223.775 14.42 223.985 13.805 223.985 12.995V6.32H226.01V12.98C226.01 14.345 225.605 15.395 224.825 16.13C224.03 16.865 222.935 17.225 221.54 17.225Z" fill="#E8E4DF"/>
<path d="M11.9675 85.3306C16.98 85.3306 20.3008 82.1233 20.3008 77.7839C20.3008 75.457 19.4863 73.5075 17.9198 71.9352C16.5414 70.5517 15.6015 69.6083 11.7795 66.9041C6.391 63.1308 5.20052 62.1245 3.50878 59.9234C1.94236 57.911 1.31579 56.0872 1.31579 53.1314C1.31579 46.8425 6.57897 42.1258 13.8472 42.1258C17.7945 42.1258 20.9274 43.0062 24.1229 44.7042C24.1855 46.4022 24.2482 47.5971 24.2482 49.0436C24.2482 50.49 24.1855 51.8107 24.1229 53.5087L22.3685 53.6345C21.8046 51.4334 21.178 49.6096 19.7369 47.9116C18.0452 45.962 16.3534 45.0187 13.3459 45.0187C8.89727 45.0187 5.88974 47.7858 5.88974 52.0623C5.88974 54.0118 6.32834 55.5841 8.08273 57.4078C9.27321 58.6027 10.0877 59.2945 14.0978 62.1245C19.0477 65.5834 20.5514 66.6526 22.3058 68.665C24.0602 70.7404 25.2507 73.759 25.2507 76.589C25.2507 83.6326 19.7369 88.1607 11.5289 88.1607C7.26819 88.1607 4.26066 87.5318 1.25314 86.0853C0.563911 82.6264 0.375941 79.4819 0 75.8973L1.94236 75.457C2.63159 77.4695 3.1955 79.1046 4.13535 80.6768C5.9524 83.8842 7.76944 85.3306 11.9675 85.3306Z" fill="#E8E4DF"/>
<path d="M34.4191 43.132H57.0383C59.6072 43.132 61.6749 43.132 64.1185 42.9433C64.2438 45.962 64.3064 49.0436 64.3064 52.1252L62.4894 52.2509C61.8002 49.924 61.1736 48.6034 60.2338 47.5971C59.2939 46.5909 57.8528 46.0878 56.6623 45.8991C55.0959 45.6476 53.7174 45.5847 51.7124 45.5847C48.7676 45.5847 48.3916 46.0878 48.2036 48.6034C48.0157 50.5529 48.0157 52.8169 48.0157 55.0809V73.4446C48.0157 75.6457 48.141 78.4128 48.2036 80.4882C48.329 83.6955 49.0182 84.7017 52.0257 85.5193L51.8377 87.2173C49.3941 87.0286 47.1385 87.0286 45.5721 87.0286C44.0056 87.0286 41.6247 87.0286 39.1811 87.2173L38.9931 85.5193C42.0006 84.7017 42.6898 83.6955 42.8152 80.4882C42.8778 78.4128 43.0031 75.6457 43.0031 73.4446V55.0809C43.0031 52.8169 43.0031 50.5529 42.8152 48.6034C42.6272 46.0878 42.2513 45.5847 39.3064 45.5847C37.3014 45.5847 35.9856 45.6476 34.4191 45.8991C33.2287 46.0878 31.7876 46.5909 30.8477 47.5971C29.9079 48.6034 29.2186 49.924 28.5294 52.2509L26.7124 52.1252C26.9003 49.0436 27.0883 46.0249 27.3389 42.9433C29.7825 43.132 31.8502 43.132 34.4191 43.132Z" fill="#E8E4DF"/>
<path d="M79.3754 42H80.5659L92.1574 73.4446C92.9093 75.457 94.0371 78.4128 94.977 80.4882C96.1674 83.2553 97.2326 84.576 99.3003 85.6451L99.1123 87.2173C96.6687 87.0286 95.5409 87.0286 93.9744 87.0286C92.408 87.0286 90.0897 87.0286 87.6461 87.2173L87.4581 85.6451C89.1499 84.8904 89.8391 84.3244 89.8391 83.1295C89.8391 81.6831 88.8992 79.2304 86.8316 73.4446L86.3303 72.1868H71.0421L70.6035 73.4446C68.4105 79.2304 68.0345 81.6202 68.0345 83.0666C68.0345 84.2615 68.5984 84.9533 70.4155 85.6451L70.2275 87.2173C67.7839 87.0286 66.5308 87.0286 64.9643 87.0286C63.3979 87.0286 62.5207 87.0286 60.3277 87.2173L60.1398 85.6451C62.2074 84.576 63.2726 83.2553 64.4631 80.4882C65.4029 78.4128 66.5308 75.457 67.2826 73.4446L79.3754 42ZM78.9368 51.6849L72.1072 69.4826H85.3905L78.9368 51.6849Z" fill="#E8E4DF"/>
<path d="M142.904 48.5405L126.174 88.1607H124.858L108.066 49.924L107.252 73.5075C107.189 74.9539 107.127 76.7777 107.127 78.4757C107.127 81.746 107.252 84.7017 110.635 85.708L110.447 87.2802C108.505 87.1544 106.813 87.0915 105.309 87.0915C103.806 87.0915 102.302 87.0915 100.36 87.2802L100.172 85.708C102.741 84.6389 103.304 83.5069 103.555 80.5511C103.743 78.4757 103.743 75.7086 103.868 73.5075L104.62 56.7161C104.683 55.2696 104.683 54.3263 104.683 53.1314C104.683 49.6096 104.62 45.7105 100.798 44.5156L100.986 42.9433C104.495 43.132 107.064 43.132 110.761 43.132L126.55 79.6077L141.4 43.132C144.846 43.132 148.731 43.132 151.174 42.9433L151.362 44.5156C148.793 45.5218 148.292 46.8425 148.104 49.6725C148.041 51.1818 147.979 53.1314 147.979 54.8923C147.979 55.5841 148.104 56.1501 148.417 73.5075C148.48 75.7086 148.48 78.4757 148.668 80.5511C148.668 83.5069 149.357 84.6389 151.926 85.708L151.738 87.2802C149.295 87.0915 147.728 87.0915 146.162 87.0915C144.595 87.0915 142.904 87.0915 140.46 87.2802L140.272 85.708C143.467 84.8904 143.53 81.6202 143.53 78.6015C143.53 77.0293 143.53 75.0797 143.467 73.5075L142.904 48.5405Z" fill="#E8E4DF"/>
<path d="M164.349 56.7161V73.4446C164.349 75.6457 164.475 78.4128 164.537 80.4882C164.663 83.444 165.164 84.576 167.733 85.6451L167.545 87.2173C165.101 87.0286 163.472 87.0286 161.906 87.0286C160.339 87.0286 158.648 87.0286 156.204 87.2173L156.016 85.6451C158.522 84.6389 158.961 83.2553 159.149 80.4882C159.337 78.4128 159.337 75.6457 159.337 73.4446V56.7161C159.337 54.5149 159.337 51.7478 159.149 49.6725C158.961 46.9054 158.522 45.5218 156.016 44.5156L156.204 42.9433C158.648 43.132 160.339 43.132 161.906 43.132C163.472 43.132 165.101 43.132 167.545 42.9433L167.733 44.5156C165.164 45.5847 164.663 46.7167 164.537 49.6725C164.475 51.7478 164.349 54.5149 164.349 56.7161Z" fill="#E8E4DF"/>
<path d="M211.355 87.6575L209.851 88.1607L178.961 50.7416V73.5075C178.961 75.7086 178.961 78.4757 179.149 80.5511C179.4 83.5069 179.964 84.6389 182.533 85.708L182.345 87.2802C180.402 87.1544 178.71 87.0915 177.269 87.0915C175.766 87.0915 174.262 87.0915 172.319 87.2802L172.131 85.708C174.7 84.6389 175.202 83.5069 175.452 80.5511C175.64 78.4757 175.64 75.7086 175.64 73.5075V56.7161C175.64 54.5149 175.64 52.1252 175.452 50.0498C175.202 47.094 174.387 45.5847 171.818 44.5156L172.006 42.9433C173.949 43.0691 176.392 43.132 179.337 43.132L207.783 77.4066V56.7161C207.783 54.5149 207.783 51.7478 207.595 49.6725C207.345 46.7167 206.781 45.5847 204.212 44.5156L204.4 42.9433C206.342 43.0691 208.034 43.132 209.475 43.132C210.979 43.132 212.482 43.132 214.425 42.9433L214.613 44.5156C212.044 45.5847 211.543 46.7167 211.292 49.6725C211.104 51.7478 211.104 54.5149 211.104 56.7161V77.3437C211.104 80.3624 211.167 84.3873 211.355 87.6575Z" fill="#E8E4DF"/>
<path d="M235.075 42H236.266L247.857 73.4446C248.609 75.457 249.737 78.4128 250.677 80.4882C251.867 83.2553 252.932 84.576 255 85.6451L254.812 87.2173C252.368 87.0286 251.241 87.0286 249.674 87.0286C248.108 87.0286 245.789 87.0286 243.346 87.2173L243.158 85.6451C244.85 84.8904 245.539 84.3244 245.539 83.1295C245.539 81.6831 244.599 79.2304 242.531 73.4446L242.03 72.1868H226.742L226.303 73.4446C224.11 79.2304 223.734 81.6202 223.734 83.0666C223.734 84.2615 224.298 84.9533 226.115 85.6451L225.927 87.2173C223.484 87.0286 222.23 87.0286 220.664 87.0286C219.098 87.0286 218.22 87.0286 216.027 87.2173L215.84 85.6451C217.907 84.576 218.972 83.2553 220.163 80.4882C221.103 78.4128 222.23 75.457 222.982 73.4446L235.075 42ZM234.637 51.6849L227.807 69.4826H241.09L234.637 51.6849Z" fill="#E8E4DF"/>
<path d="M102.695 120.611C101.441 120.611 100.689 119.857 100.314 118.41C100 117.153 99.5617 116.649 98.4965 116.649C95.6143 116.649 92.1055 121.303 90.3511 126.963C89.286 130.359 89.0353 132.749 89.0353 134.824C89.0353 137.906 90.4138 138.912 91.9802 138.912C94.4238 138.912 96.4915 137.151 100.126 132.435L101.441 133.252C98.4965 139.227 94.4238 143 90.8524 143C87.5316 143 85.0253 140.484 85.0253 136.082C85.0253 125.139 93.3587 113.316 100.376 113.316C103.07 113.316 105.075 115.329 105.075 117.97C105.075 119.417 104.073 120.611 102.695 120.611Z" fill="#E8E4DF"/>
<path d="M116.37 106.587L109.165 136.208C109.039 136.837 108.977 137.277 108.977 137.529C108.977 137.906 109.165 138.22 109.666 138.22C110.355 138.22 112.36 137.026 115.744 132.498L117.122 133.441C112.924 140.547 109.666 142.623 107.473 142.623C105.907 142.623 104.654 141.616 104.654 139.918C104.654 138.283 104.904 136.963 105.907 132.749L112.047 106.65C112.611 104.197 112.987 101.682 112.987 100.298C112.987 98.9147 112.298 98.0342 110.105 97.4054L110.23 95.8331C113.363 95.5816 115.681 95.33 118.501 94.7011L119.441 95.7073C118.062 99.9838 117.498 101.808 116.37 106.587Z" fill="#E8E4DF"/>
<path d="M135.536 129.919C130.022 140.547 127.14 142.623 124.07 142.623C121.438 142.623 119.809 140.422 119.809 138.158C119.809 136.648 120.373 134.699 121.501 131.743L125.26 121.932C125.949 120.108 126.263 119.102 126.263 118.347C126.263 117.781 126.012 117.278 125.448 117.278C124.383 117.278 123.255 118.536 120.373 122.121L119.12 121.052C122.629 115.769 125.01 113.316 127.579 113.316C129.082 113.316 130.398 114.7 130.398 116.712C130.398 118.159 130.085 119.417 128.518 123.567L124.759 133.63C124.132 135.265 123.944 136.082 123.944 136.963C123.944 137.969 124.446 138.598 125.636 138.598C127.892 138.598 133.406 133.567 139.358 116.587L140.235 114.071C140.611 113.882 141.112 113.757 141.614 113.757C142.554 113.757 143.556 114.323 144.12 115.455C142.303 120.486 141.614 122.121 140.486 126.02C138.606 132.56 138.042 135.328 137.917 136.46C137.854 137.088 137.854 137.592 137.854 137.906C137.854 138.22 138.105 138.598 138.481 138.598C139.17 138.598 140.298 137.969 143.556 133.692L144.872 134.699C141.112 140.799 138.606 142.623 136.413 142.623C134.659 142.623 133.782 141.365 133.782 139.541C133.782 138.095 133.782 136.334 135.536 129.919Z" fill="#E8E4DF"/>
<path d="M165.891 121.115C165.891 118.788 164.701 117.341 163.197 117.341C158.247 117.341 151.418 128.473 151.418 135.768C151.418 138.032 152.671 139.164 154.3 139.164C155.678 139.164 157.37 138.598 159.375 136.46C163.197 132.372 165.891 126.02 165.891 121.115ZM148.473 130.359L155.177 106.65C155.866 104.26 156.618 101.682 156.618 100.298C156.618 98.9147 155.929 98.0342 153.736 97.4054L153.861 95.8331C156.994 95.5816 159.124 95.33 161.944 94.7011L162.884 95.7073C161.505 99.9838 160.816 101.808 159.375 106.587L154.864 121.492C158.999 115.455 162.069 113.316 164.763 113.316C167.646 113.316 169.964 116.083 169.964 120.8C169.964 126.209 167.019 132.812 160.816 138.849C158.059 141.491 155.678 142.748 152.859 142.748C149.538 142.748 147.408 140.044 147.408 136.585C147.408 134.762 147.721 132.812 148.473 130.359Z" fill="#E8E4DF"/>
</svg>
