<svg width="23" height="23" viewBox="0 0 23 23" fill="none" xmlns="http://www.w3.org/2000/svg">
<path d="M14.5783 0L16.4572 2.90694L19.9188 3.07828L20.0931 6.5399L23 8.41591L21.4231 11.5L23 14.5783L20.0931 16.4572L19.9246 19.9188L16.463 20.0931L14.5841 23L11.5 21.4231L8.42172 23L6.5428 20.0931L3.08409 19.9246L2.90694 16.463L0 14.5841L1.57689 11.5L0 8.42172L2.90694 6.5428L3.07828 3.08409L6.5399 2.90694L8.41591 0L11.5 1.57689L14.5783 0Z" fill="#E8E4DF"/>
<path d="M10.0702 15.4701L6.51562 11.9156L7.67724 10.7569L10.0934 13.1643L15.3265 8.08807L16.4736 9.26711L10.0702 15.4701Z" fill="#051013"/>
</svg>
