<svg width="267" height="56" viewBox="0 0 267 56" fill="none" xmlns="http://www.w3.org/2000/svg">
<path d="M91.1332 40.1157C93.4137 40.1157 95.1997 39.6233 96.5186 38.5839C97.81 37.5718 98.4695 36.1768 98.4695 34.3989C98.4695 32.9492 97.9749 31.773 97.0407 30.8977C96.079 30.0224 94.5128 29.3386 92.3696 28.8462L90.6386 28.4633C88.8251 28.0803 87.6161 27.6153 87.0116 27.0683C86.3522 26.5486 86.0499 25.81 86.0499 24.8527C86.0499 23.9227 86.4071 23.1841 87.149 22.6371C87.8909 22.1174 88.9625 21.8438 90.3363 21.8438C92.1498 21.8438 93.4412 22.1721 94.238 22.8286C95.0349 23.485 95.502 24.4971 95.6119 25.8647H97.9749C97.9474 25.0441 97.81 24.2783 97.5353 23.5671C97.2605 22.8833 96.8483 22.2541 96.2988 21.6524C95.7218 21.0506 94.925 20.5856 93.9083 20.2574C92.8917 19.9291 91.7102 19.765 90.3363 19.765C88.303 19.765 86.6819 20.23 85.4729 21.16C84.2639 22.09 83.6594 23.3209 83.6594 24.8527C83.6594 26.4392 84.154 27.6427 85.1432 28.518C86.1324 29.3933 87.6161 30.0498 89.5944 30.4874L91.3255 30.8703C93.084 31.2533 94.293 31.7183 95.0074 32.238C95.7218 32.7577 96.079 33.4689 96.079 34.3989C96.079 35.6024 95.6394 36.5051 94.7876 37.1068C93.9358 37.736 92.7268 38.0368 91.1332 38.0368C87.3413 38.0368 85.4454 36.4504 85.3905 33.2501H83C83 35.5477 83.7419 37.2436 85.1707 38.3924C86.5995 39.5412 88.5778 40.1157 91.1332 40.1157Z" fill="#E8E4DF"/>
<path d="M98.8915 20.2027V22.2815H105.541V39.678H107.931V22.2815H114.581V20.2027H98.8915Z" fill="#E8E4DF"/>
<path d="M130.429 39.678L122.516 20.2027H119.933L112.13 39.678H114.548L116.801 34.0159H125.703L127.984 39.678H130.429ZM117.708 31.7183C118.724 29.1745 119.878 26.1656 121.197 22.6918C123.121 27.588 124.302 30.5968 124.769 31.6909L124.879 31.9371H117.625L117.708 31.7183Z" fill="#E8E4DF"/>
<path d="M144.738 30.9524C144.299 31.9645 143.529 33.9339 142.43 36.888C141.606 34.8092 140.864 32.9492 140.204 31.2806L135.671 20.2027H132.648V39.678H134.901V33.4415C134.901 29.3386 134.874 26.0289 134.819 23.5124C135.259 24.7159 135.836 26.193 136.55 27.9436L141.413 39.678H143.392L148.228 27.9436C148.942 26.193 149.519 24.7159 149.959 23.5124C149.904 26.0289 149.876 29.3386 149.876 33.4415V39.678H152.129V20.2027H149.107L144.738 30.9524Z" fill="#E8E4DF"/>
<path d="M158.555 39.678V20.2027H156.247V39.678H158.555Z" fill="#E8E4DF"/>
<path d="M175.945 26.7674C175.945 30.925 175.972 34.2895 176.027 36.8333C175.175 35.4109 173.829 33.1953 171.96 30.2412L165.476 20.2027H162.673V39.678H164.954V33.1133C164.954 28.9556 164.926 25.6186 164.871 23.0474C165.696 24.4971 167.07 26.6853 168.938 29.6395L175.423 39.678H178.225V20.2027H175.945V26.7674Z" fill="#E8E4DF"/>
<path d="M198.744 39.678L190.83 20.2027H188.248L180.444 39.678H182.862L185.115 34.0159H194.018L196.298 39.678H198.744ZM186.022 31.7183C187.039 29.1745 188.193 26.1656 189.511 22.6918C191.435 27.588 192.616 30.5968 193.083 31.6909L193.193 31.9371H185.939L186.022 31.7183Z" fill="#E8E4DF"/>
<path d="M218.762 33.8478L218.55 33.7948C217.171 37.3751 215.129 39.4438 211.178 39.4438C205.769 39.4438 203.223 35.3065 203.223 29.8431C203.223 24.3797 205.928 20.2954 211.656 20.2954C214.626 20.2954 216.694 21.6215 218.444 24.8836L218.656 24.8306L218.126 21.0911C216.827 20.5076 214.307 19.765 211.762 19.765C205.397 19.765 201.473 24.1941 201.473 29.8431C201.473 35.4921 205.608 39.9742 211.68 39.9742C214.969 39.9742 217.224 38.6747 218.232 37.9056L218.762 33.8478Z" fill="#E8E4DF"/>
<path d="M232.951 39.5764L234.171 35.28L233.959 35.2004C232.527 37.7199 231.334 38.8603 229.61 38.9399L224.094 39.1256V23.4515C224.094 21.9398 224.28 21.3298 225.155 20.2159V20.1628H221.602V20.2159C222.477 21.3298 222.662 21.9663 222.662 23.4515V36.2878C222.662 37.773 222.477 38.4095 221.602 39.5234V39.5764H232.951Z" fill="#E8E4DF"/>
<path d="M244.15 39.9742C249.162 39.9742 250.198 36.7121 250.198 32.9196V23.8758C250.198 22.205 250.516 21.5154 251.842 20.2159V20.1628H247.732V20.2159C249.296 21.5154 249.641 22.205 249.641 23.8758V32.9461C249.641 36.3143 248.342 39.3908 243.781 39.3908C240.466 39.3908 237.734 37.7465 237.734 33.1848V23.531C237.734 21.9928 238.079 21.1706 238.795 20.2159V20.1628H235.242V20.2159C236.117 21.3563 236.302 21.9928 236.302 23.531V33.2643C236.302 38.0382 240.225 39.9742 244.15 39.9742Z" fill="#E8E4DF"/>
<path d="M259.893 39.5764C264.772 39.5764 267 37.4017 267 34.1926C267 31.8587 265.78 29.684 262.624 29.3392C264.931 28.7292 266.124 26.8197 266.124 24.5388C266.124 22.6028 265.249 20.0302 259.813 20.0568C258.063 20.0568 258.089 20.1628 253.687 20.1628V20.2159C254.563 21.3298 254.748 21.9663 254.748 23.4515V36.2878C254.748 37.773 254.563 38.4095 253.687 39.5234V39.5764H259.893ZM256.18 29.2066V20.7198C257.188 20.6402 258.434 20.5872 259.734 20.5872C262.995 20.5872 264.666 21.9663 264.666 24.7245C264.666 26.8727 263.685 29.2066 260.688 29.2066H256.18ZM259.813 39.046C258.514 39.046 257.241 38.9664 256.18 38.8603V29.737H260.953C263.95 29.737 265.408 31.62 265.408 34.2987C265.408 37.163 263.711 39.046 259.813 39.046Z" fill="#E8E4DF"/>
<path fill-rule="evenodd" clip-rule="evenodd" d="M3.87274 3.86743C6.39952 3.29808 10.2294 2.66483 13.9573 2.66483C15.1132 2.66483 16.2116 2.7087 17.2442 2.79585C18.3195 1.08376 19.6949 0 21.5637 0C25.48 0 27.4097 4.71566 27.9977 10.7377C28.586 4.71551 30.516 5.22824e-05 34.4326 5.22824e-05C36.3017 5.22824e-05 37.6774 1.08397 38.7528 2.79638C39.7855 2.70922 40.8842 2.66536 42.0403 2.66536C45.7689 2.66536 49.5994 3.29871 52.1266 3.86817L52.1315 3.87308C52.701 6.40015 53.3345 10.2303 53.3345 13.9585C53.3345 15.1145 53.2905 16.213 53.2034 17.2457C54.916 18.3211 56 19.6966 56 21.5656C56 25.4873 51.2709 27.417 45.2361 28.0024C51.2708 28.5874 56 30.5168 56 34.4382C56 36.3068 54.9161 37.6821 53.2039 38.7574C53.291 39.7898 53.3349 40.8882 53.3349 42.0439C53.3349 45.7715 52.7016 49.6011 52.1322 52.1277L52.1273 52.1326C49.6005 52.7019 45.7706 53.3352 42.0427 53.3352C40.8868 53.3352 39.7883 53.2914 38.7558 53.2041C37.6805 54.9163 36.3051 56 34.4363 56C30.52 56 28.5903 51.2843 28.0023 45.2623C27.414 51.2845 25.484 56 21.5674 56C19.6983 56 18.3226 54.916 17.2472 53.2036C16.2145 53.2908 15.1158 53.3346 13.9597 53.3346C10.2311 53.3346 6.40067 52.7013 3.87337 52.1318L3.86846 52.1269C3.29895 49.5999 2.66554 45.7697 2.66554 42.0415C2.66554 40.8855 2.70946 39.787 2.79662 38.7543C1.08401 37.6789 0 36.3034 0 34.4344C0 30.5127 4.72905 28.583 10.7639 27.9976C4.72921 27.4126 0 25.4832 0 21.5618C0 19.6932 1.08386 18.3179 2.7961 17.2426C2.70899 16.2102 2.66507 15.1118 2.66507 13.9561C2.66507 10.2285 3.29837 6.39895 3.86778 3.8724L3.87274 3.86743ZM27.5282 13.8959C27.5282 18.8663 26.6633 22.2529 24.772 24.7698C22.2549 26.6609 18.868 27.5257 13.8972 27.5257C11.4805 27.5257 9.47514 27.289 7.87872 26.8517C12.3406 22.9875 13.9519 21.1915 15.3416 15.3403C21.1934 13.9506 22.9895 12.3395 26.854 7.87802C27.2914 9.4743 27.5282 11.4795 27.5282 13.8959ZM13.6691 13.6679C13.7642 13.2644 13.86 12.8585 13.9573 12.4522C14.7482 9.12846 15.5873 5.78735 16.8885 3.404C16.2747 3.35873 15.619 3.33494 14.92 3.33494C11.3537 3.33494 8.20635 3.92709 5.80799 5.80748C3.92744 8.20562 3.33523 11.3527 3.33523 14.9186C3.33523 15.6176 3.35908 16.2732 3.4043 16.887C5.78786 15.586 9.12927 14.7469 12.4533 13.9561C12.8597 13.8588 13.2655 13.763 13.6691 13.6679ZM15.7495 11.6499C16.609 7.86265 17.6104 3.45069 19.3666 2.19691C23.3647 -0.657294 25.9141 4.13491 24.3651 7.82464C22.8161 11.5144 19.7004 13.0453 15.2609 13.7556C15.4214 13.0956 15.5828 12.3845 15.7495 11.6499ZM11.6506 15.7482C7.86308 16.6076 3.45098 17.6089 2.19715 19.3649C-0.657353 23.3627 4.13528 25.9118 7.82533 24.363C11.5154 22.8141 13.0465 19.6987 13.7568 15.2595C13.1003 15.4192 12.393 15.5797 11.6624 15.7455L11.6506 15.7482ZM28.4718 42.1041C28.4718 37.1337 29.3367 33.7471 31.228 31.2302C33.7451 29.3391 37.132 28.4743 42.1028 28.4743C44.5195 28.4743 46.5249 28.711 48.1213 29.1483C43.6594 33.0125 42.0481 34.8085 40.6584 40.6597C34.8066 42.0494 33.0105 43.6605 29.1459 48.122C28.7086 46.5257 28.4718 44.5205 28.4718 42.1041ZM43.5467 42.0439C43.1403 42.1412 42.7345 42.237 42.3309 42.3321L42.1014 43.302L42.0427 43.5478C41.2518 46.8715 40.4127 50.2126 39.1115 52.596C39.7253 52.6413 40.381 52.665 41.08 52.665C44.6463 52.665 47.7936 52.0729 50.192 50.1925C52.0726 47.7944 52.6648 44.6473 52.6648 41.0814C52.6648 40.3824 52.6409 39.7268 52.5957 39.113C50.2121 40.414 46.8707 41.2531 43.5467 42.0439ZM40.2505 44.3501C39.391 48.1374 38.3896 52.5493 36.6334 53.8031C32.6353 56.6573 30.0859 51.8651 31.6349 48.1754C33.1839 44.4856 36.2996 42.9547 40.7391 42.2444C40.5786 42.9044 40.4172 43.6155 40.2505 44.3501ZM44.3494 40.2518C48.1369 39.3924 52.549 38.3912 53.8028 36.6351C56.6573 32.6373 51.8647 30.0882 48.1747 31.637C44.4846 33.1859 42.9535 36.3013 42.2432 40.7404C42.5491 40.666 42.866 40.5915 43.1911 40.5163C43.5676 40.4293 43.9552 40.3413 44.3494 40.2518ZM24.7763 31.2258C26.6679 33.7432 27.5329 37.1304 27.5329 42.1016C27.5329 44.5185 27.2961 46.524 26.8587 48.1206C22.9935 43.6583 21.1971 42.0469 15.3443 40.657C13.9543 34.8048 12.3427 33.0085 7.88008 29.1436C9.47677 28.7062 11.4824 28.4694 13.8996 28.4694C18.8712 28.4694 22.2588 29.3344 24.7763 31.2258ZM13.9598 43.5456C13.8624 43.1392 13.7666 42.7333 13.6714 42.3297C13.4591 42.2796 13.246 42.2293 13.0325 42.1788C12.8404 42.1333 12.648 42.0875 12.4555 42.0414C9.13083 41.2505 5.78886 40.4113 3.40488 39.11C3.35965 39.7239 3.33581 40.3796 3.33581 41.0788C3.33581 44.6453 3.92812 47.7929 5.80899 50.1915C8.20776 52.0721 11.3556 52.6644 14.9225 52.6644C15.6217 52.6644 16.2775 52.6406 16.8914 52.5954C15.5901 50.2116 14.7508 46.8699 13.9598 43.5456ZM19.3699 53.8027C17.6134 52.5486 16.6119 48.1359 15.7523 44.3481L15.7502 44.3388L15.7472 44.3255C15.5822 43.5988 15.4224 42.8953 15.2635 42.2419C19.7038 42.9523 22.8201 44.4835 24.3694 48.1739C25.9186 51.8644 23.3688 56.6574 19.3699 53.8027ZM11.6528 40.2491L11.6544 40.2495C12.3887 40.4161 13.0995 40.5773 13.7592 40.7378C13.0488 36.2979 11.5174 33.1819 7.82669 31.6327C4.13596 30.0836 -0.65751 32.6333 2.19752 36.6318C3.45159 38.3881 7.86466 39.3895 11.6528 40.2491ZM28.4671 13.8984C28.4671 18.8696 29.3321 22.2568 31.2237 24.7742C33.7412 26.6656 37.1288 27.5306 42.1004 27.5306C44.5176 27.5306 46.5232 27.2938 48.1199 26.8564C43.6573 22.9915 42.0457 21.1952 40.6557 15.343C34.8029 13.9531 33.0065 12.3417 29.1413 7.87943C28.7039 9.47598 28.4671 11.4815 28.4671 13.8984ZM42.3286 13.6703C42.2334 13.2667 42.1376 12.8608 42.0402 12.4544C41.2492 9.13008 40.4099 5.78839 39.1086 3.40463C39.7225 3.35935 40.3783 3.33557 41.0775 3.33557C44.6443 3.33557 47.7922 3.92782 50.191 5.80852C52.0719 8.20708 52.6642 11.3547 52.6642 14.9212C52.6642 15.6204 52.6403 16.2761 52.5951 16.89C50.2111 15.5887 46.8692 14.7495 43.5445 13.9586C43.1381 13.8613 42.7322 13.7654 42.3286 13.6703ZM40.2477 11.6519C39.3881 7.86406 38.3866 3.45137 36.6301 2.19738C32.6312 -0.657399 30.0814 4.13564 31.6306 7.82605C33.1799 11.5165 36.2962 13.0476 40.7365 13.7581C40.5766 13.1008 40.4159 12.3928 40.2499 11.6614L40.2477 11.6519ZM44.3475 15.751C48.1356 16.6106 52.5484 17.6119 53.8025 19.3683C56.6575 23.3667 51.864 25.9164 48.1733 24.3673C44.4826 22.8181 42.9512 19.7021 42.2408 15.2622C42.9006 15.4227 43.6116 15.584 44.346 15.7506L44.3475 15.751ZM27.9129 37.9131C28.7598 29.6204 29.446 28.934 37.739 28.0867C29.4465 27.2404 28.7598 26.5536 27.9129 18.2609C27.066 26.5532 26.3798 27.2399 18.0868 28.0867C26.3794 28.9341 27.066 29.6203 27.9129 37.9131Z" fill="#E8E4DF"/>
</svg>
