<svg width="358" height="512" viewBox="0 0 358 512" fill="none" xmlns="http://www.w3.org/2000/svg">
<path fill-rule="evenodd" clip-rule="evenodd" d="M160.828 0.619631C156.153 1.14663 148.15 2.68763 143.043 4.04563C137.937 5.40263 130.446 7.89263 126.397 9.57863C122.348 11.2636 115.951 14.4926 112.182 16.7536C108.412 19.0146 102.628 22.9256 99.3276 25.4456C96.0276 27.9656 90.6246 32.7306 87.3196 36.0346C84.0156 39.3396 79.2506 44.7426 76.7306 48.0426C74.2106 51.3426 70.2996 57.1266 68.0386 60.8966C65.7776 64.6656 62.5486 71.0626 60.8636 75.1116C59.1776 79.1606 56.6976 86.6516 55.3526 91.7576C54.0066 96.8646 52.4386 105.703 51.8666 111.399C51.2956 117.095 50.8276 140.382 50.8276 163.149V204.543H42.5376C37.9786 204.543 31.7056 205.205 28.5996 206.014C25.4926 206.823 20.6776 208.884 17.8986 210.594C15.1206 212.304 11.3616 215.438 9.54662 217.558C7.73162 219.678 5.24662 223.415 4.02462 225.863C2.80262 228.31 1.34762 232.773 0.791619 235.781C0.136619 239.325 -0.12338 283.604 0.0546197 361.646L0.327622 482.043L3.50163 488.744C5.25363 492.442 8.75062 497.519 11.3056 500.074C13.8516 502.62 18.3056 505.788 21.2046 507.115C24.1026 508.442 28.8646 509.981 31.7876 510.535C35.1996 511.182 87.8076 511.543 178.828 511.543C269.848 511.543 322.456 511.182 325.868 510.535C328.791 509.981 333.553 508.442 336.451 507.115C339.35 505.788 343.804 502.62 346.35 500.074C348.905 497.519 352.402 492.442 354.154 488.744L357.328 482.043V358.543V235.043L355.574 230.043C354.61 227.293 352.122 222.793 350.046 220.043C347.97 217.293 343.83 213.403 340.845 211.398C337.861 209.393 333.823 207.154 331.873 206.421C329.015 205.347 306.381 205.032 215.078 204.791L101.828 204.494V160.476C101.828 124.554 102.115 115.041 103.388 108.751C104.276 104.367 106.839 97.1616 109.333 92.0426C111.744 87.0926 115.771 80.4586 118.281 77.3006C120.791 74.1426 125.428 69.4836 128.586 66.9476C131.744 64.4116 138.378 60.3916 143.328 58.0146C148.278 55.6376 155.797 52.9836 160.036 52.1176C164.318 51.2426 172.67 50.5426 178.828 50.5426C184.986 50.5426 193.338 51.2426 197.62 52.1176C201.859 52.9836 209.378 55.6376 214.328 58.0146C219.278 60.3916 225.912 64.4116 229.07 66.9476C232.228 69.4836 236.865 74.1426 239.375 77.3006C241.885 80.4586 245.912 87.0926 248.323 92.0426C250.817 97.1616 253.38 104.367 254.268 108.751C255.339 114.043 255.828 122.114 255.828 134.501V152.543H281.467H307.106L306.538 130.793C306.226 118.83 305.485 106.267 304.891 102.875C304.297 99.4826 302.66 92.7346 301.253 87.8806C299.846 83.0256 297.003 75.4416 294.934 71.0276C292.865 66.6126 289.096 59.8606 286.559 56.0216C284.021 52.1836 279.465 46.1176 276.435 42.5426C273.404 38.9676 267.865 33.4266 264.126 30.2286C260.387 27.0306 254.187 22.3406 250.349 19.8056C246.51 17.2716 239.758 13.5056 235.343 11.4366C230.929 9.36763 223.345 6.52463 218.49 5.11763C213.636 3.71063 206.888 2.10063 203.496 1.53863C200.104 0.976631 191.028 0.324631 183.328 0.0906314C175.628 -0.144369 165.503 0.0936314 160.828 0.619631ZM306.828 358.043V460.543H178.828H50.8276V358.043V255.543H178.828H306.828V358.043Z" fill="black"/>
</svg>
